<svg width="24" height="25" viewBox="0 0 24 25" fill="none" xmlns="http://www.w3.org/2000/svg">
<g clip-path="url(#clip0_4428_1328)">
<path d="M24 12.3672C24 18.9946 18.6275 24.3672 12 24.3672C5.37261 24.3672 3.05176e-05 18.9946 3.05176e-05 12.3672C3.05176e-05 5.73977 5.37261 0.367188 12 0.367188C18.6275 0.367188 24 5.73977 24 12.3672Z" fill="black"/>
<path d="M24 12.3672C24 18.9946 18.6275 24.3672 12 24.3672C5.37261 24.3672 3.05176e-05 18.9946 3.05176e-05 12.3672C3.05176e-05 5.73977 5.37261 0.367188 12 0.367188C18.6275 0.367188 24 5.73977 24 12.3672Z" fill="url(#paint0_radial_4428_1328)" fill-opacity="0.3"/>
<path fill-rule="evenodd" clip-rule="evenodd" d="M11.9887 22.6222C17.6467 22.6222 22.2335 18.0354 22.2335 12.3775C22.2335 6.71945 17.6467 2.13272 11.9887 2.13272C6.33068 2.13272 1.74396 6.71945 1.74396 12.3775C1.74396 18.0354 6.33068 22.6222 11.9887 22.6222ZM11.9887 23.0811C17.9002 23.0811 22.6923 18.2889 22.6923 12.3775C22.6923 6.466 17.9002 1.67383 11.9887 1.67383C6.07725 1.67383 1.28506 6.466 1.28506 12.3775C1.28506 18.2889 6.07725 23.0811 11.9887 23.0811Z" fill="url(#paint1_radial_4428_1328)"/>
<path d="M7.80118 13.306H9.06793L7.80118 15.1134V16.5156V17.9176L11.1487 13.306H12.7631L13.0057 11.6663H12.4552L13.5656 10.1571L12.9684 15.1134H14.7413L15.5718 6.8125H13.8735L10.3183 11.6663H8.97689L8.38903 12.4862L7.80118 13.306Z" fill="white"/>
<path fill-rule="evenodd" clip-rule="evenodd" d="M13.8385 6.74805H15.6478L14.8036 15.1867H12.8907L13.4659 10.413L12.5912 11.6019H13.0854L12.8224 13.3793H11.1838L7.73227 18.1341V15.0961L8.9355 13.3793H7.66702L8.94154 11.6019H10.2833L13.8385 6.74805ZM13.9084 6.88572L10.3532 11.7396H9.01217L7.93519 13.2416H9.20015L7.86995 15.1395V17.71L11.1136 13.2416H12.7036L12.9259 11.7396H12.319L13.6652 9.9099L13.046 15.049H14.679L15.4957 6.88572H13.9084Z" fill="#29B6F6"/>
</g>
<defs>
<radialGradient id="paint0_radial_4428_1328" cx="0" cy="0" r="1" gradientUnits="userSpaceOnUse" gradientTransform="translate(12 12.3672) rotate(90) scale(12)">
<stop stop-color="#29B6F6"/>
<stop offset="1" stop-opacity="0"/>
</radialGradient>
<radialGradient id="paint1_radial_4428_1328" cx="0" cy="0" r="1" gradientUnits="userSpaceOnUse" gradientTransform="translate(11.9887 12.3775) rotate(108.396) scale(10.6151 10.6151)">
<stop offset="0.333333" stop-color="#29B6F6"/>
<stop offset="0.75" stop-color="#00EACF"/>
</radialGradient>
<clipPath id="clip0_4428_1328">
<rect width="24" height="24" fill="white" transform="translate(3.05176e-05 0.367188)"/>
</clipPath>
</defs>
</svg>
