<?xml version="1.0" encoding="UTF-8"?>
<!DOCTYPE svg PUBLIC "-//W3C//DTD SVG 1.1//EN" "http://www.w3.org/Graphics/SVG/1.1/DTD/svg11.dtd">
<svg xmlns="http://www.w3.org/2000/svg" version="1.1" width="164px" height="164px" style="shape-rendering:geometricPrecision; text-rendering:geometricPrecision; image-rendering:optimizeQuality; fill-rule:evenodd; clip-rule:evenodd" xmlns:xlink="http://www.w3.org/1999/xlink">
<g><path style="opacity:0.992" fill="#f5f6f7" d="M 63.5,-0.5 C 75.5,-0.5 87.5,-0.5 99.5,-0.5C 132.712,10.0443 154.045,32.0443 163.5,65.5C 163.5,76.5 163.5,87.5 163.5,98.5C 153.5,131.833 131.833,153.5 98.5,163.5C 86.5,163.5 74.5,163.5 62.5,163.5C 29.6163,153.284 8.61632,131.617 -0.5,98.5C -0.5,86.8333 -0.5,75.1667 -0.5,63.5C 9.16667,30.5 30.5,9.16667 63.5,-0.5 Z"/></g>
<g><path style="opacity:1" fill="#a7d4f4" d="M 81.5,20.5 C 88.3134,19.5088 95.3134,19.1755 102.5,19.5C 102.5,24.1667 102.5,28.8333 102.5,33.5C 101.515,29.3656 101.182,25.0323 101.5,20.5C 94.8333,20.5 88.1667,20.5 81.5,20.5 Z"/></g>
<g><path style="opacity:1" fill="#74bbf2" d="M 81.5,20.5 C 88.1667,20.5 94.8333,20.5 101.5,20.5C 101.182,25.0323 101.515,29.3656 102.5,33.5C 106.833,33.5 111.167,33.5 115.5,33.5C 115.5,35.8333 115.5,38.1667 115.5,40.5C 108.833,40.5 102.167,40.5 95.5,40.5C 95.5,35.8333 95.5,31.1667 95.5,26.5C 90.8333,26.5 86.1667,26.5 81.5,26.5C 81.5,24.5 81.5,22.5 81.5,20.5 Z"/></g>
<g><path style="opacity:1" fill="#7fc0f2" d="M 67.5,19.5 C 69.8333,19.5 72.1667,19.5 74.5,19.5C 74.5,21.8333 74.5,24.1667 74.5,26.5C 72.1667,26.5 69.8333,26.5 67.5,26.5C 67.5,24.1667 67.5,21.8333 67.5,19.5 Z"/></g>
<g><path style="opacity:1" fill="#c8e3f5" d="M 81.5,26.5 C 86.1667,26.5 90.8333,26.5 95.5,26.5C 95.5,31.1667 95.5,35.8333 95.5,40.5C 94.5151,36.3656 94.1818,32.0323 94.5,27.5C 89.9677,27.8182 85.6344,27.4849 81.5,26.5 Z"/></g>
<g><path style="opacity:1" fill="#89c6f3" d="M 54.5,34.5 C 54.5,34.1667 54.5,33.8333 54.5,33.5C 65.8333,33.5 77.1667,33.5 88.5,33.5C 88.5,35.8333 88.5,38.1667 88.5,40.5C 81.1667,40.5 73.8333,40.5 66.5,40.5C 73.3134,39.5088 80.3134,39.1755 87.5,39.5C 87.5,37.8333 87.5,36.1667 87.5,34.5C 76.5,34.5 65.5,34.5 54.5,34.5 Z"/></g>
<g><path style="opacity:1" fill="#b8dbf4" d="M 54.5,33.5 C 54.5,33.8333 54.5,34.1667 54.5,34.5C 54.5,45.5 54.5,56.5 54.5,67.5C 56.5,67.5 58.5,67.5 60.5,67.5C 58.3926,68.4682 56.0593,68.8016 53.5,68.5C 53.1717,56.6547 53.5051,44.988 54.5,33.5 Z"/></g>
<g><path style="opacity:1" fill="#75bbf2" d="M 54.5,34.5 C 65.5,34.5 76.5,34.5 87.5,34.5C 87.5,36.1667 87.5,37.8333 87.5,39.5C 80.3134,39.1755 73.3134,39.5088 66.5,40.5C 68.2941,42.7966 70.2941,44.9633 72.5,47C 86.8295,47.4999 101.163,47.6666 115.5,47.5C 115.5,54.1667 115.5,60.8333 115.5,67.5C 113.167,67.5 110.833,67.5 108.5,67.5C 108.5,63.1667 108.5,58.8333 108.5,54.5C 95.4957,54.6666 82.4957,54.4999 69.5,54C 66.6667,51.1667 63.8333,48.3333 61,45.5C 60.5003,52.8258 60.3337,60.1591 60.5,67.5C 58.5,67.5 56.5,67.5 54.5,67.5C 54.5,56.5 54.5,45.5 54.5,34.5 Z"/></g>
<g><path style="opacity:1" fill="#75bbf2" d="M 27.5,81.5 C 27.5,74.8333 27.5,68.1667 27.5,61.5C 32.0323,61.8182 36.3656,61.4849 40.5,60.5C 40.5,56.1667 40.5,51.8333 40.5,47.5C 42.8333,47.5 45.1667,47.5 47.5,47.5C 47.5,54.1667 47.5,60.8333 47.5,67.5C 42.8333,67.5 38.1667,67.5 33.5,67.5C 33.5,72.1667 33.5,76.8333 33.5,81.5C 31.5,81.5 29.5,81.5 27.5,81.5 Z"/></g>
<g><path style="opacity:1" fill="#7cbef2" d="M 122.5,47.5 C 124.833,47.5 127.167,47.5 129.5,47.5C 129.5,49.8333 129.5,52.1667 129.5,54.5C 127.167,54.5 124.833,54.5 122.5,54.5C 122.5,52.1667 122.5,49.8333 122.5,47.5 Z"/></g>
<g><path style="opacity:1" fill="#a8d4f3" d="M 122.5,61.5 C 129.313,60.5088 136.313,60.1755 143.5,60.5C 143.802,63.0593 143.468,65.3926 142.5,67.5C 142.5,65.5 142.5,63.5 142.5,61.5C 135.833,61.5 129.167,61.5 122.5,61.5 Z"/></g>
<g><path style="opacity:1" fill="#74bbf2" d="M 122.5,61.5 C 129.167,61.5 135.833,61.5 142.5,61.5C 142.5,63.5 142.5,65.5 142.5,67.5C 138.167,67.5 133.833,67.5 129.5,67.5C 129.5,72.1667 129.5,76.8333 129.5,81.5C 122.5,81.5 115.5,81.5 108.5,81.5C 108.5,79.1667 108.5,76.8333 108.5,74.5C 113.167,74.5 117.833,74.5 122.5,74.5C 122.5,70.1667 122.5,65.8333 122.5,61.5 Z"/></g>
<g><path style="opacity:1" fill="#8ec7f3" d="M 40.5,60.5 C 36.3656,61.4849 32.0323,61.8182 27.5,61.5C 27.5,68.1667 27.5,74.8333 27.5,81.5C 26.5088,74.6866 26.1755,67.6866 26.5,60.5C 31.1667,60.5 35.8333,60.5 40.5,60.5 Z"/></g>
<g><path style="opacity:1" fill="#96cbf3" d="M 40.5,75.5 C 47.3134,74.5088 54.3134,74.1755 61.5,74.5C 61.8016,77.0593 61.4682,79.3926 60.5,81.5C 60.5,79.5 60.5,77.5 60.5,75.5C 53.8333,75.5 47.1667,75.5 40.5,75.5 Z"/></g>
<g><path style="opacity:1" fill="#72baf2" d="M 40.5,75.5 C 47.1667,75.5 53.8333,75.5 60.5,75.5C 60.5,77.5 60.5,79.5 60.5,81.5C 56.1667,81.5 51.8333,81.5 47.5,81.5C 46.5151,85.6344 46.1818,89.9677 46.5,94.5C 39.8333,94.5 33.1667,94.5 26.5,94.5C 26.5,92.5 26.5,90.5 26.5,88.5C 31.1667,88.5 35.8333,88.5 40.5,88.5C 40.5,84.1667 40.5,79.8333 40.5,75.5 Z"/></g>
<g><path style="opacity:1" fill="#73bbf2" d="M 136.5,74.5 C 138.5,74.5 140.5,74.5 142.5,74.5C 142.5,81.1667 142.5,87.8333 142.5,94.5C 137.968,94.1818 133.634,94.5151 129.5,95.5C 129.5,99.8333 129.5,104.167 129.5,108.5C 127.167,108.5 124.833,108.5 122.5,108.5C 122.5,101.833 122.5,95.1667 122.5,88.5C 127.167,88.5 131.833,88.5 136.5,88.5C 136.5,83.8333 136.5,79.1667 136.5,74.5 Z"/></g>
<g><path style="opacity:1" fill="#afd7f3" d="M 142.5,74.5 C 143.491,81.3134 143.825,88.3134 143.5,95.5C 138.833,95.5 134.167,95.5 129.5,95.5C 133.634,94.5151 137.968,94.1818 142.5,94.5C 142.5,87.8333 142.5,81.1667 142.5,74.5 Z"/></g>
<g><path style="opacity:1" fill="#d7e9f5" d="M 136.5,74.5 C 136.5,79.1667 136.5,83.8333 136.5,88.5C 131.833,88.5 127.167,88.5 122.5,88.5C 126.634,87.5151 130.968,87.1818 135.5,87.5C 135.182,82.9677 135.515,78.6344 136.5,74.5 Z"/></g>
<g><path style="opacity:1" fill="#74bbf2" d="M 60.5,88.5 C 60.5,93.1667 60.5,97.8333 60.5,102.5C 73.8333,102.5 87.1667,102.5 100.5,102.5C 102.527,105.194 104.861,107.527 107.5,109.5C 107.56,110.043 107.893,110.376 108.5,110.5C 109.497,103.197 109.831,95.8635 109.5,88.5C 111.5,88.5 113.5,88.5 115.5,88.5C 115.5,99.8333 115.5,111.167 115.5,122.5C 104.167,122.5 92.8333,122.5 81.5,122.5C 81.5,120.167 81.5,117.833 81.5,115.5C 88.8409,115.666 96.1742,115.5 103.5,115C 101.5,113 99.5,111 97.5,109C 82.8371,108.5 68.1705,108.333 53.5,108.5C 53.5,101.833 53.5,95.1667 53.5,88.5C 55.8333,88.5 58.1667,88.5 60.5,88.5 Z"/></g>
<g><path style="opacity:1" fill="#9ed0f3" d="M 109.5,88.5 C 109.831,95.8635 109.497,103.197 108.5,110.5C 107.893,110.376 107.56,110.043 107.5,109.5C 108.167,102.5 108.833,95.5 109.5,88.5 Z"/></g>
<g><path style="opacity:1" fill="#9ed0f3" d="M 47.5,81.5 C 47.5,86.1667 47.5,90.8333 47.5,95.5C 40.3134,95.8245 33.3134,95.4912 26.5,94.5C 33.1667,94.5 39.8333,94.5 46.5,94.5C 46.1818,89.9677 46.5151,85.6344 47.5,81.5 Z"/></g>
<g><path style="opacity:1" fill="#b2d9f4" d="M 60.5,88.5 C 61.4849,92.6344 61.8182,96.9677 61.5,101.5C 74.6774,101.171 87.6774,101.505 100.5,102.5C 87.1667,102.5 73.8333,102.5 60.5,102.5C 60.5,97.8333 60.5,93.1667 60.5,88.5 Z"/></g>
<g><path style="opacity:1" fill="#72baf2" d="M 40.5,102.5 C 42.5,102.5 44.5,102.5 46.5,102.5C 46.5,104.5 46.5,106.5 46.5,108.5C 44.5,108.5 42.5,108.5 40.5,108.5C 40.5,106.5 40.5,104.5 40.5,102.5 Z"/></g>
<g><path style="opacity:1" fill="#acd6f4" d="M 40.5,102.5 C 42.6074,101.532 44.9407,101.198 47.5,101.5C 47.5,104.167 47.5,106.833 47.5,109.5C 44.9407,109.802 42.6074,109.468 40.5,108.5C 42.5,108.5 44.5,108.5 46.5,108.5C 46.5,106.5 46.5,104.5 46.5,102.5C 44.5,102.5 42.5,102.5 40.5,102.5 Z"/></g>
<g><path style="opacity:1" fill="#9acdf3" d="M 74.5,116.5 C 67.8333,116.5 61.1667,116.5 54.5,116.5C 54.5,118.5 54.5,120.5 54.5,122.5C 53.5318,120.393 53.1984,118.059 53.5,115.5C 60.6866,115.175 67.6866,115.509 74.5,116.5 Z"/></g>
<g><path style="opacity:1" fill="#72baf2" d="M 74.5,116.5 C 74.5,120.833 74.5,125.167 74.5,129.5C 78.8333,129.5 83.1667,129.5 87.5,129.5C 87.5,131.5 87.5,133.5 87.5,135.5C 81.1667,135.5 74.8333,135.5 68.5,135.5C 68.8182,130.968 68.4849,126.634 67.5,122.5C 63.1667,122.5 58.8333,122.5 54.5,122.5C 54.5,120.5 54.5,118.5 54.5,116.5C 61.1667,116.5 67.8333,116.5 74.5,116.5 Z"/></g>
<g><path style="opacity:1" fill="#72baf2" d="M 101.5,129.5 C 101.5,131.5 101.5,133.5 101.5,135.5C 99.5,135.5 97.5,135.5 95.5,135.5C 95.5,133.5 95.5,131.5 95.5,129.5C 97.5,129.5 99.5,129.5 101.5,129.5 Z"/></g>
<g><path style="opacity:1" fill="#94caf3" d="M 67.5,122.5 C 68.4849,126.634 68.8182,130.968 68.5,135.5C 74.8333,135.5 81.1667,135.5 87.5,135.5C 87.5,133.5 87.5,131.5 87.5,129.5C 88.4682,131.607 88.8016,133.941 88.5,136.5C 81.5,136.5 74.5,136.5 67.5,136.5C 67.5,131.833 67.5,127.167 67.5,122.5 Z"/></g>
<g><path style="opacity:1" fill="#9ecff3" d="M 101.5,129.5 C 102.468,131.607 102.802,133.941 102.5,136.5C 99.9407,136.802 97.6074,136.468 95.5,135.5C 97.5,135.5 99.5,135.5 101.5,135.5C 101.5,133.5 101.5,131.5 101.5,129.5 Z"/></g>
</svg>
