<svg width="310" height="209" viewBox="0 0 310 209" fill="none" xmlns="http://www.w3.org/2000/svg">
<g clip-path="url(#clip0_2236_28488)">
<path d="M128.105 75.4968L150.6 114.364L194.605 114.194C194.692 111.91 194.142 109.606 192.961 107.564L176.909 79.8341C174.711 76.0319 170.647 73.7018 166.257 73.7173L134.214 73.8415C132.036 73.8486 129.932 74.4371 128.102 75.495L128.105 75.4968Z" stroke="#528BA4" stroke-miterlimit="10" stroke-dasharray="2 2"/>
<path d="M150.6 114.364L128.607 152.679C130.338 153.575 132.285 154.069 134.304 154.057L166.347 153.933C170.741 153.916 174.797 151.552 176.989 147.734L192.979 119.88C193.994 118.115 194.538 116.157 194.613 114.194L150.605 114.363L150.6 114.364Z" stroke="#528BA4" stroke-miterlimit="10" stroke-dasharray="2 2"/>
<path d="M123.572 80.0402L107.582 107.894C105.385 111.713 105.394 116.408 107.595 120.212L123.647 147.942C124.837 149.997 126.571 151.624 128.604 152.678L150.597 114.362L128.102 75.4951C126.252 76.5663 124.674 78.1181 123.569 80.0385L123.572 80.0402Z" stroke="#528BA4" stroke-miterlimit="10" stroke-dasharray="2 2"/>
</g>
<g clip-path="url(#clip1_2236_28488)">
<path d="M69.1048 173.497L91.6003 212.364L135.605 212.194C135.692 209.91 135.142 207.606 133.961 205.564L117.909 177.834C115.711 174.032 111.647 171.702 107.257 171.717L75.2141 171.841C73.0362 171.849 70.9317 172.437 69.1017 173.495L69.1048 173.497Z" stroke="#528BA4" stroke-miterlimit="10" stroke-dasharray="2 2"/>
<path d="M91.6003 212.364L69.6071 250.679C71.3381 251.575 73.2848 252.069 75.3041 252.057L107.347 251.933C111.741 251.916 115.797 249.552 117.989 245.734L133.979 217.88C134.994 216.115 135.538 214.157 135.613 212.194L91.6052 212.363L91.6003 212.364Z" stroke="#528BA4" stroke-miterlimit="10" stroke-dasharray="2 2"/>
<path d="M64.5724 178.04L48.5817 205.894C46.385 209.713 46.3941 214.408 48.5951 218.212L64.6471 245.942C65.837 247.997 67.5713 249.624 69.604 250.678L91.5972 212.362L69.1017 173.495C67.2517 174.566 65.6739 176.118 64.5693 178.038L64.5724 178.04Z" stroke="#528BA4" stroke-miterlimit="10" stroke-dasharray="2 2"/>
</g>
<g clip-path="url(#clip2_2236_28488)">
<path d="M230.105 15.4968L252.6 54.3642L296.605 54.1935C296.692 51.9096 296.142 49.6059 294.961 47.5641L278.909 19.8341C276.711 16.0319 272.647 13.7018 268.257 13.7173L236.214 13.8415C234.036 13.8486 231.932 14.4371 230.102 15.495L230.105 15.4968Z" stroke="#528BA4" stroke-miterlimit="10" stroke-dasharray="2 2"/>
<path d="M252.6 54.3642L230.607 92.6795C232.338 93.5753 234.285 94.069 236.304 94.0574L268.347 93.9332C272.741 93.9164 276.797 91.5521 278.989 87.7344L294.979 59.8802C295.994 58.1153 296.538 56.1572 296.613 54.194L252.605 54.3629L252.6 54.3642Z" stroke="#528BA4" stroke-miterlimit="10" stroke-dasharray="2 2"/>
<path d="M225.572 20.0402L209.582 47.8944C207.385 51.7134 207.394 56.4078 209.595 60.2118L225.647 87.9418C226.837 89.997 228.571 91.6243 230.604 92.6777L252.597 54.3624L230.102 15.4951C228.252 16.5663 226.674 18.1181 225.569 20.0385L225.572 20.0402Z" stroke="#528BA4" stroke-miterlimit="10" stroke-dasharray="2 2"/>
</g>
<g clip-path="url(#clip3_2236_28488)">
<path d="M91.1048 -32.5032L113.6 6.36422L157.605 6.19354C157.692 3.90959 157.142 1.60588 155.961 -0.435876L139.909 -28.1659C137.711 -31.9681 133.647 -34.2982 129.257 -34.2827L97.2141 -34.1585C95.0362 -34.1514 92.9317 -33.5629 91.1017 -32.505L91.1048 -32.5032Z" stroke="#528BA4" stroke-miterlimit="10" stroke-dasharray="2 2"/>
<path d="M113.6 6.36425L91.6071 44.6795C93.3381 45.5753 95.2848 46.069 97.3041 46.0574L129.347 45.9332C133.741 45.9164 137.797 43.5521 139.989 39.7344L155.979 11.8802C156.994 10.1153 157.538 8.15717 157.613 6.19403L113.605 6.36293L113.6 6.36425Z" stroke="#528BA4" stroke-miterlimit="10" stroke-dasharray="2 2"/>
<path d="M86.5724 -27.9598L70.5817 -0.105566C68.385 3.71342 68.3941 8.40782 70.5951 12.2118L86.6471 39.9418C87.837 41.997 89.5713 43.6243 91.604 44.6777L113.597 6.36244L91.1017 -32.5049C89.2517 -31.4337 87.6739 -29.8819 86.5693 -27.9615L86.5724 -27.9598Z" stroke="#528BA4" stroke-miterlimit="10" stroke-dasharray="2 2"/>
</g>
<g clip-path="url(#clip4_2236_28488)">
<path d="M225.105 144.497L247.6 183.364L291.605 183.194C291.692 180.91 291.142 178.606 289.961 176.564L273.909 148.834C271.711 145.032 267.647 142.702 263.257 142.717L231.214 142.841C229.036 142.849 226.932 143.437 225.102 144.495L225.105 144.497Z" stroke="#528BA4" stroke-miterlimit="10" stroke-dasharray="2 2"/>
<path d="M247.6 183.364L225.607 221.679C227.338 222.575 229.285 223.069 231.304 223.057L263.347 222.933C267.741 222.916 271.797 220.552 273.989 216.734L289.979 188.88C290.994 187.115 291.538 185.157 291.613 183.194L247.605 183.363L247.6 183.364Z" stroke="#528BA4" stroke-miterlimit="10" stroke-dasharray="2 2"/>
<path d="M220.572 149.04L204.582 176.894C202.385 180.713 202.394 185.408 204.595 189.212L220.647 216.942C221.837 218.997 223.571 220.624 225.604 221.678L247.597 183.362L225.102 144.495C223.252 145.566 221.674 147.118 220.569 149.038L220.572 149.04Z" stroke="#528BA4" stroke-miterlimit="10" stroke-dasharray="2 2"/>
</g>
<g clip-path="url(#clip5_2236_28488)">
<path d="M4.10485 63.4968L26.6003 102.364L70.6053 102.194C70.6924 99.9096 70.142 97.6059 68.961 95.5641L52.909 67.8341C50.711 64.0319 46.6465 61.7018 42.2569 61.7173L10.2141 61.8415C8.03619 61.8486 5.93172 62.4371 4.10175 63.495L4.10485 63.4968Z" stroke="#528BA4" stroke-miterlimit="10" stroke-dasharray="2 2"/>
<path d="M26.6003 102.364L4.60706 140.679C6.33811 141.575 8.28476 142.069 10.3041 142.057L42.3469 141.933C46.7414 141.916 50.7969 139.552 52.9886 135.734L68.9793 107.88C69.9941 106.115 70.5378 104.157 70.6133 102.194L26.6052 102.363L26.6003 102.364Z" stroke="#528BA4" stroke-miterlimit="10" stroke-dasharray="2 2"/>
<path d="M-0.427627 68.0402L-16.4183 95.8944C-18.615 99.7134 -18.6059 104.408 -16.4049 108.212L-0.352856 135.942C0.836951 137.997 2.57129 139.624 4.60398 140.678L26.5972 102.362L4.10175 63.4951C2.2517 64.5663 0.673871 66.1181 -0.430725 68.0385L-0.427627 68.0402Z" stroke="#528BA4" stroke-miterlimit="10" stroke-dasharray="2 2"/>
</g>
<defs>
<clipPath id="clip0_2236_28488">
<rect width="80.6473" height="89.4307" fill="white" transform="matrix(-0.866025 -0.5 -0.5 0.866025 207.558 95.3237)"/>
</clipPath>
<clipPath id="clip1_2236_28488">
<rect width="80.6473" height="89.4307" fill="white" transform="matrix(-0.866025 -0.5 -0.5 0.866025 148.558 193.324)"/>
</clipPath>
<clipPath id="clip2_2236_28488">
<rect width="80.6473" height="89.4307" fill="white" transform="matrix(-0.866025 -0.5 -0.5 0.866025 309.558 35.3237)"/>
</clipPath>
<clipPath id="clip3_2236_28488">
<rect width="80.6473" height="89.4307" fill="white" transform="matrix(-0.866025 -0.5 -0.5 0.866025 170.558 -12.6763)"/>
</clipPath>
<clipPath id="clip4_2236_28488">
<rect width="80.6473" height="89.4307" fill="white" transform="matrix(-0.866025 -0.5 -0.5 0.866025 304.558 164.324)"/>
</clipPath>
<clipPath id="clip5_2236_28488">
<rect width="80.6473" height="89.4307" fill="white" transform="matrix(-0.866025 -0.5 -0.5 0.866025 83.558 83.3237)"/>
</clipPath>
</defs>
</svg>
