<svg width="24" height="24" viewBox="0 0 24 24" fill="none" xmlns="http://www.w3.org/2000/svg">
<g clip-path="url(#clip0_5826_13634)">
<path d="M17.3332 9.99988H11.3332C10.5968 9.99988 9.99982 10.5968 9.99982 11.3332V17.3332C9.99982 18.0696 10.5968 18.6665 11.3332 18.6665H17.3332C18.0695 18.6665 18.6665 18.0696 18.6665 17.3332V11.3332C18.6665 10.5968 18.0695 9.99988 17.3332 9.99988Z" stroke="#8C999E" stroke-width="1.66678" stroke-linecap="round" stroke-linejoin="round"/>
<path d="M7.33325 14.0002H6.66659C6.31296 14.0002 5.97382 13.8597 5.72378 13.6096C5.47373 13.3596 5.33325 13.0205 5.33325 12.6668V6.66683C5.33325 6.31321 5.47373 5.97407 5.72378 5.72402C5.97382 5.47397 6.31296 5.3335 6.66659 5.3335H12.6666C13.0202 5.3335 13.3593 5.47397 13.6094 5.72402C13.8594 5.97407 13.9999 6.31321 13.9999 6.66683V7.3335" stroke="#8C999E" stroke-width="1.66678" stroke-linecap="round" stroke-linejoin="round"/>
</g>
<rect x="0.5" y="0.5" width="23" height="23" rx="5.5" stroke="#C3CCD4"/>
<defs>
<clipPath id="clip0_5826_13634">
<rect width="16" height="16" fill="white" transform="translate(4 4)"/>
</clipPath>
</defs>
</svg>
