<svg xmlns="http://www.w3.org/2000/svg" width="16" height="16" viewBox="0 0 16 16" fill="none">
  <g clip-path="url(#clip0_3034_53044)">
    <path d="M13.3332 5.99988H7.33315C6.59677 5.99988 5.99982 6.59683 5.99982 7.33321V13.3332C5.99982 14.0696 6.59677 14.6665 7.33315 14.6665H13.3332C14.0695 14.6665 14.6665 14.0696 14.6665 13.3332V7.33321C14.6665 6.59683 14.0695 5.99988 13.3332 5.99988Z" stroke="#8C999E" stroke-width="1.66678" stroke-linecap="round" stroke-linejoin="round"/>
    <path d="M3.33325 10.0002H2.66659C2.31296 10.0002 1.97382 9.85969 1.72378 9.60964C1.47373 9.35959 1.33325 9.02045 1.33325 8.66683V2.66683C1.33325 2.31321 1.47373 1.97407 1.72378 1.72402C1.97382 1.47397 2.31296 1.3335 2.66659 1.3335H8.66659C9.02021 1.3335 9.35935 1.47397 9.60939 1.72402C9.85944 1.97407 9.99992 2.31321 9.99992 2.66683V3.3335" stroke="#8C999E" stroke-width="1.66678" stroke-linecap="round" stroke-linejoin="round"/>
  </g>
  <defs>
    <clipPath id="clip0_3034_53044">
      <rect width="16" height="16" fill="white"/>
    </clipPath>
  </defs>
</svg>