<svg width="29" height="22" viewBox="0 0 29 22" fill="none" xmlns="http://www.w3.org/2000/svg">
<path d="M11.1219 1V1.97561H10.0244V8.31705H9.17071V9.17071H8.31705V10.1463H6.48779V11H5.63413V11.8536H3.80487V11H2.82926V10.0244H1.97561V8.31705H1V13.6829H1.97561V14.6585H2.82926V15.5122H3.80487V16.3658H4.65853V17.3414H5.63413V20.878H7.34144V20.0243H6.48779V19.0487H7.34144V18.1951H8.31705V17.3414H9.17071V18.2817H10.1463V20.9999H11.9756V20.0243H11V16.3658H11.8536V15.5122H12.8292V13.6829H13.6829V11H14.6585H15.5122V10.1463H13.6829V8.31705H17.3414V7.34144H14.6585V6.48779H19.1612V1.97561H18.1951V1H11.1219Z" fill="#56A045" stroke="#57A145" stroke-width="0.243902"/>
<rect x="12.7314" y="3.43848" width="1.2" height="1.2" fill="white"/>
<rect x="17.8555" y="9.00004" width="3.71429" height="1.85714" fill="#121212"/>
<rect x="17.8555" y="10.858" width="3.71429" height="1.85714" transform="rotate(90 17.8555 10.858)" fill="#121212"/>
<rect x="29.0005" y="10.9498" width="3.71429" height="1.85714" transform="rotate(90 29.0005 10.9498)" fill="#121212"/>
<rect x="19.7148" y="14.5734" width="1.85714" height="1.85714" transform="rotate(90 19.7148 14.5734)" fill="#121212"/>
<rect x="21.5708" y="16.5218" width="1.85714" height="1.85714" transform="rotate(90 21.5708 16.5218)" fill="#121212"/>
<rect x="23.4307" y="18.3785" width="1.85714" height="1.85714" transform="rotate(90 23.4307 18.3785)" fill="#121212"/>
<rect x="25.3813" y="16.5218" width="1.85714" height="1.85714" transform="rotate(90 25.3813 16.5218)" fill="#121212"/>
<rect x="27.2368" y="14.6645" width="1.85714" height="1.85714" transform="rotate(90 27.2368 14.6645)" fill="#121212"/>
<rect x="23.4307" y="10.9498" width="1.85714" height="1.85714" transform="rotate(90 23.4307 10.9498)" fill="black"/>
<rect x="23.522" y="9.09447" width="3.71429" height="1.85714" fill="#121212"/>
<rect x="17.7646" y="10.858" width="3.9" height="3.71429" fill="#EB4F26"/>
<rect x="19.7148" y="12.8078" width="5.75714" height="3.71429" fill="#EB4F26"/>
<rect x="23.4404" y="10.9498" width="3.71429" height="3.71429" fill="#EB4F26"/>
<rect x="25.2856" y="10.9498" width="1.85714" height="1.85714" fill="white"/>
<rect x="21.5708" y="16.5218" width="1.85714" height="1.85714" fill="#EB4F26"/>
</svg>
