<svg width="32" height="33" viewBox="0 0 32 33" fill="none" xmlns="http://www.w3.org/2000/svg">
<path fill-rule="evenodd" clip-rule="evenodd" d="M10.8276 4.51346C10.7379 4.49934 10.6468 4.49719 10.5566 4.50706C8.7625 4.7012 6.03183 5.66973 4.41903 6.5444C4.31251 6.6025 4.21716 6.67907 4.13743 6.77053C3.46756 7.5364 2.85956 8.7844 2.38383 9.96627C1.89316 11.178 1.48783 12.458 1.25956 13.3839C0.504364 16.3919 0.0926306 20.0036 0.0371639 23.4297C0.0353993 23.6007 0.0764705 23.7694 0.156631 23.9204C0.796631 25.1428 2.1769 26.2756 3.5593 27.1033C4.95663 27.9417 6.58863 28.6031 7.90276 28.7311C8.06022 28.7461 8.21901 28.7244 8.36669 28.6678C8.51437 28.6112 8.64693 28.5211 8.75396 28.4047C9.0825 28.0484 9.64143 27.2164 10.0638 26.57C10.2558 26.2756 10.4372 25.994 10.578 25.77C11.9902 26.026 13.7609 26.1753 16.0009 26.1753C18.2366 26.1753 20.0073 26.026 21.4196 25.77C21.5604 25.9961 21.7396 26.2756 21.9316 26.5679C22.354 27.2164 22.9129 28.0484 23.2436 28.4047C23.3506 28.5211 23.4832 28.6112 23.6308 28.6678C23.7785 28.7244 23.9373 28.7461 24.0948 28.7311C25.4089 28.6031 27.0388 27.9417 28.4361 27.1033C29.8185 26.2756 31.1988 25.1428 31.8409 23.9204C31.9203 23.7692 31.9607 23.6005 31.9582 23.4297C31.9049 20.0036 31.491 16.3897 30.7401 13.3817C30.4383 12.22 30.0614 11.0791 29.6116 9.96627C29.1358 8.7844 28.5278 7.53427 27.8601 6.77053C27.7797 6.67887 27.6836 6.60229 27.5764 6.5444C25.9657 5.66973 23.235 4.7012 21.4388 4.50706C21.3493 4.49737 21.2589 4.49953 21.17 4.51346C20.7679 4.59084 20.3908 4.76512 20.0713 5.0212C19.3557 5.59727 18.7771 6.32523 18.3774 7.1524C17.5868 7.09038 16.794 7.05978 16.0009 7.06066C15.1433 7.06066 14.3497 7.09267 13.618 7.15027C13.218 6.32387 12.6395 5.59666 11.9241 5.0212C11.6052 4.76544 11.2289 4.59117 10.8276 4.51346ZM23.506 25.2324C23.8062 25.6948 24.1141 26.1521 24.4297 26.6041C25.2745 26.4121 26.3518 25.9641 27.3844 25.3455C28.5428 24.6521 29.4622 23.8521 29.906 23.1759C29.8356 19.9631 29.4388 16.6265 28.754 13.8788C28.475 12.8086 28.1273 11.7575 27.7129 10.7321C27.2862 9.66973 26.8276 8.76947 26.4286 8.2532C25.042 7.53426 22.8553 6.7748 21.4302 6.56787C21.3874 6.59387 21.346 6.62237 21.3065 6.6532C21.1297 6.79227 20.9681 6.94958 20.8244 7.12253C20.7403 7.22268 20.6599 7.32586 20.5833 7.43187C21.234 7.55133 21.8142 7.69427 22.3284 7.85213C23.7876 8.30013 24.8393 8.9188 25.3534 9.6036C25.5164 9.82086 25.5863 10.094 25.5479 10.3628C25.5095 10.6317 25.3659 10.8742 25.1486 11.0372C25.0411 11.1179 24.9186 11.1766 24.7884 11.21C24.6581 11.2433 24.5225 11.2507 24.3894 11.2317C24.1206 11.1933 23.878 11.0497 23.715 10.8324C23.5892 10.666 23.0409 10.2137 21.7268 9.8084C20.4574 9.42013 18.5908 9.10867 16.0009 9.10867C13.411 9.10867 11.5422 9.42013 10.275 9.81053C8.9609 10.2159 8.41263 10.6639 8.28676 10.8324C8.20608 10.94 8.105 11.0306 7.98929 11.0991C7.87357 11.1676 7.7455 11.2127 7.61238 11.2317C7.34353 11.2701 7.07043 11.2001 6.85316 11.0372C6.74559 10.9565 6.65495 10.8554 6.58644 10.7397C6.51792 10.624 6.47287 10.4959 6.45386 10.3628C6.41545 10.094 6.48542 9.82086 6.64836 9.6036C7.1625 8.91666 8.21423 8.30227 9.67343 7.85427C10.1854 7.69427 10.7657 7.55346 11.4142 7.434C11.3375 7.32683 11.2564 7.22291 11.171 7.12253C11.0279 6.94969 10.867 6.79238 10.691 6.6532C10.6508 6.6223 10.6088 6.59381 10.5652 6.56787C9.14223 6.7748 6.95556 7.53426 5.5689 8.2532C5.16783 8.7716 4.7113 9.66973 4.2825 10.7321C3.8281 11.8628 3.4505 13.0511 3.24356 13.8788C2.55663 16.6265 2.15983 19.9631 2.09156 23.1759C2.5353 23.8543 3.45263 24.6521 4.61103 25.3476C5.6457 25.9663 6.7209 26.4143 7.56783 26.6041C7.88656 26.1543 8.19456 25.6969 8.49156 25.2324C6.8169 24.6372 5.91876 23.8201 5.33423 22.9455C5.25971 22.8334 5.20799 22.7078 5.18203 22.5757C5.15606 22.4437 5.15636 22.3078 5.18291 22.1759C5.20945 22.0439 5.26172 21.9185 5.33674 21.8068C5.41175 21.695 5.50804 21.5992 5.6201 21.5247C5.73216 21.4501 5.8578 21.3984 5.98985 21.3725C6.1219 21.3465 6.25777 21.3468 6.3897 21.3733C6.52164 21.3999 6.64705 21.4522 6.75878 21.5272C6.87051 21.6022 6.96638 21.6985 7.0409 21.8105C7.59556 22.6468 9.05476 24.1273 16.0009 24.1273C22.9492 24.1273 24.4062 22.6468 24.9609 21.8105C25.1114 21.5842 25.3456 21.427 25.6121 21.3733C25.8785 21.3197 26.1554 21.3742 26.3817 21.5247C26.608 21.6752 26.7653 21.9094 26.8189 22.1759C26.8725 22.4423 26.8181 22.7191 26.6676 22.9455C26.083 23.8201 25.1828 24.6393 23.506 25.2324ZM8.7049 15.5769C9.22543 15.018 9.93156 14.7023 10.6676 14.698C11.4036 14.7023 12.1097 15.018 12.6302 15.5769C13.1486 16.138 13.4409 16.8953 13.4409 17.6847C13.4409 18.474 13.1486 19.2313 12.6302 19.7924C12.1097 20.3513 11.4036 20.6671 10.6676 20.6713C10.2976 20.6674 9.93241 20.5874 9.59474 20.4362C9.25707 20.2849 8.95417 20.0658 8.7049 19.7924C8.17926 19.2167 7.88981 18.4642 7.89423 17.6847C7.89423 16.8953 8.1865 16.138 8.7049 15.5769ZM21.3342 14.698C20.5982 14.7023 19.8921 15.018 19.3716 15.5769C18.8532 16.138 18.5609 16.8953 18.5609 17.6847C18.5609 18.474 18.8532 19.2313 19.3716 19.7924C19.8921 20.3513 20.5982 20.6671 21.3342 20.6713C22.0702 20.6671 22.7764 20.3513 23.2969 19.7924C23.8153 19.2313 24.1076 18.474 24.1076 17.6847C24.1076 16.8953 23.8153 16.138 23.2969 15.5769C23.0476 15.3035 22.7447 15.0844 22.4071 14.9332C22.0694 14.782 21.7042 14.7019 21.3342 14.698Z" fill="#13678B"/>
</svg>
