<svg width="32" height="32" viewBox="0 0 32 32" fill="none" xmlns="http://www.w3.org/2000/svg">
<path fill-rule="evenodd" clip-rule="evenodd" d="M10.8267 4.0131C10.7371 3.99897 10.6459 3.99682 10.5557 4.0067C8.76161 4.20083 6.03095 5.16937 4.41815 6.04403C4.31162 6.10213 4.21627 6.1787 4.13655 6.27017C3.46668 7.03603 2.85868 8.28403 2.38295 9.4659C1.89228 10.6776 1.48695 11.9576 1.25868 12.8835C0.503479 15.8915 0.0917456 19.5032 0.0362789 22.9294C0.0345143 23.1003 0.0755855 23.269 0.155746 23.42C0.795746 24.6424 2.17601 25.7752 3.55841 26.603C4.95575 27.4414 6.58775 28.1027 7.90188 28.2307C8.05933 28.2457 8.21812 28.2241 8.36581 28.1674C8.51349 28.1108 8.64604 28.0207 8.75308 27.9043C9.08161 27.548 9.64055 26.716 10.0629 26.0696C10.2549 25.7752 10.4363 25.4936 10.5771 25.2696C11.9893 25.5256 13.76 25.675 16 25.675C18.2357 25.675 20.0064 25.5256 21.4187 25.2696C21.5595 25.4958 21.7387 25.7752 21.9307 26.0675C22.3531 26.716 22.912 27.548 23.2427 27.9043C23.3497 28.0207 23.4823 28.1108 23.63 28.1674C23.7776 28.2241 23.9364 28.2457 24.0939 28.2307C25.408 28.1027 27.0379 27.4414 28.4352 26.603C29.8176 25.7752 31.1979 24.6424 31.84 23.42C31.9194 23.2688 31.9598 23.1001 31.9573 22.9294C31.904 19.5032 31.4901 15.8894 30.7392 12.8814C30.4375 11.7196 30.0605 10.5787 29.6107 9.4659C29.1349 8.28403 28.5269 7.0339 27.8592 6.27017C27.7788 6.1785 27.6828 6.10192 27.5755 6.04403C25.9648 5.16937 23.2341 4.20083 21.4379 4.0067C21.3484 3.99701 21.258 3.99916 21.1691 4.0131C20.767 4.09048 20.3899 4.26476 20.0704 4.52083C19.3548 5.09691 18.7762 5.82487 18.3765 6.65203C17.5859 6.59002 16.7931 6.55941 16 6.5603C15.1424 6.5603 14.3488 6.5923 13.6171 6.6499C13.2171 5.8235 12.6386 5.09629 11.9232 4.52083C11.6043 4.26507 11.228 4.0908 10.8267 4.0131ZM23.5051 24.732C23.8053 25.1944 24.1133 25.6517 24.4288 26.1038C25.2736 25.9118 26.3509 25.4638 27.3835 24.8451C28.5419 24.1518 29.4613 23.3518 29.9051 22.6755C29.8347 19.4627 29.4379 16.1262 28.7531 13.3784C28.4741 12.3082 28.1264 11.2572 27.712 10.2318C27.2853 9.16937 26.8267 8.2691 26.4277 7.75283C25.0411 7.0339 22.8544 6.27443 21.4293 6.0675C21.3865 6.09351 21.3452 6.122 21.3056 6.15283C21.1289 6.2919 20.9673 6.44921 20.8235 6.62217C20.7394 6.72231 20.659 6.82549 20.5824 6.9315C21.2331 7.05097 21.8133 7.1939 22.3275 7.35177C23.7867 7.79977 24.8384 8.41843 25.3525 9.10323C25.5155 9.3205 25.5855 9.5936 25.5471 9.86245C25.5086 10.1313 25.365 10.3739 25.1477 10.5368C25.0402 10.6175 24.9178 10.6762 24.7875 10.7096C24.6572 10.743 24.5217 10.7504 24.3885 10.7313C24.1197 10.6929 23.8771 10.5493 23.7141 10.332C23.5883 10.1656 23.04 9.71337 21.7259 9.30803C20.4565 8.91977 18.5899 8.6083 16 8.6083C13.4101 8.6083 11.5413 8.91977 10.2741 9.31017C8.96001 9.7155 8.41175 10.1635 8.28588 10.332C8.2052 10.4396 8.10411 10.5302 7.9884 10.5988C7.87269 10.6673 7.74462 10.7123 7.6115 10.7313C7.34264 10.7697 7.06954 10.6998 6.85228 10.5368C6.7447 10.4561 6.65407 10.3551 6.58555 10.2394C6.51704 10.1236 6.47199 9.99557 6.45297 9.86245C6.41456 9.5936 6.48453 9.3205 6.64748 9.10323C7.16161 8.4163 8.21335 7.8019 9.67255 7.3539C10.1845 7.1939 10.7648 7.0531 11.4133 6.93363C11.3367 6.82646 11.2555 6.72255 11.1701 6.62217C11.027 6.44932 10.8662 6.29201 10.6901 6.15283C10.6499 6.12193 10.6079 6.09344 10.5643 6.0675C9.14135 6.27443 6.95468 7.0339 5.56801 7.75283C5.16695 8.27123 4.71041 9.16937 4.28161 10.2318C3.82721 11.3624 3.44961 12.5507 3.24268 13.3784C2.55575 16.1262 2.15895 19.4627 2.09068 22.6755C2.53441 23.3539 3.45175 24.1518 4.61015 24.8472C5.64481 25.4659 6.72001 25.9139 7.56695 26.1038C7.88567 25.6539 8.19367 25.1965 8.49068 24.732C6.81601 24.1368 5.91788 23.3198 5.33335 22.4451C5.25883 22.333 5.20711 22.2074 5.18114 22.0753C5.15518 21.9433 5.15548 21.8074 5.18202 21.6755C5.20857 21.5436 5.26084 21.4181 5.33585 21.3064C5.41086 21.1947 5.50715 21.0988 5.61921 21.0243C5.73127 20.9498 5.85692 20.8981 5.98896 20.8721C6.12101 20.8461 6.25688 20.8464 6.38882 20.873C6.52075 20.8995 6.64616 20.9518 6.7579 21.0268C6.86963 21.1018 6.96549 21.1981 7.04001 21.3102C7.59468 22.1464 9.05388 23.627 16 23.627C22.9483 23.627 24.4053 22.1464 24.96 21.3102C25.1105 21.0838 25.3448 20.9266 25.6112 20.873C25.8777 20.8194 26.1545 20.8738 26.3808 21.0243C26.6071 21.1748 26.7644 21.409 26.818 21.6755C26.8716 21.9419 26.8172 22.2188 26.6667 22.4451C26.0821 23.3198 25.1819 24.139 23.5051 24.732ZM8.70401 15.0766C9.22455 14.5176 9.93068 14.2019 10.6667 14.1976C11.4027 14.2019 12.1088 14.5176 12.6293 15.0766C13.1477 15.6376 13.44 16.395 13.44 17.1843C13.44 17.9736 13.1477 18.731 12.6293 19.292C12.1088 19.851 11.4027 20.1667 10.6667 20.171C10.2967 20.1671 9.93153 20.087 9.59386 19.9358C9.25619 19.7846 8.95328 19.5654 8.70401 19.292C8.17837 18.7164 7.88893 17.9638 7.89335 17.1843C7.89335 16.395 8.18561 15.6376 8.70401 15.0766ZM21.3333 14.1976C20.5973 14.2019 19.8912 14.5176 19.3707 15.0766C18.8523 15.6376 18.56 16.395 18.56 17.1843C18.56 17.9736 18.8523 18.731 19.3707 19.292C19.8912 19.851 20.5973 20.1667 21.3333 20.171C22.0693 20.1667 22.7755 19.851 23.296 19.292C23.8144 18.731 24.1067 17.9736 24.1067 17.1843C24.1067 16.395 23.8144 15.6376 23.296 15.0766C23.0467 14.8032 22.7438 14.584 22.4062 14.4328C22.0685 14.2816 21.7033 14.2015 21.3333 14.1976Z" fill="#616E73"/>
</svg>
