<svg width="33" height="33" viewBox="0 0 33 33" fill="none" xmlns="http://www.w3.org/2000/svg">
<path d="M31.833 16.5C31.833 25.0604 24.8934 32 16.333 32C7.77259 32 0.833008 25.0604 0.833008 16.5C0.833008 7.93959 7.77259 1 16.333 1C24.8934 1 31.833 7.93959 31.833 16.5Z" stroke="#E2E8EB"/>
<circle cx="16.333" cy="16.5" r="8" fill="#CA3521"/>
<path d="M16.333 14.9223V16.7001M16.333 20.5C14.1239 20.5 12.333 18.7091 12.333 16.5C12.333 14.2909 14.1239 12.5 16.333 12.5C18.5421 12.5 20.333 14.2909 20.333 16.5C20.333 18.7091 18.5421 20.5 16.333 20.5ZM16.3551 18.0334V18.0779L16.3109 18.0777V18.0334H16.3551Z" stroke="white" stroke-linecap="round" stroke-linejoin="round"/>
</svg>
