<svg width="32" height="33" viewBox="0 0 32 33" fill="none" xmlns="http://www.w3.org/2000/svg">
<path d="M4 16.5H10.6667M4 16.5C4 23.1274 9.37258 28.5 16 28.5M4 16.5C4 9.87258 9.37258 4.5 16 4.5M10.6667 16.5H21.3333M10.6667 16.5C10.6667 23.1274 13.0545 28.5 16 28.5M10.6667 16.5C10.6667 9.87258 13.0545 4.5 16 4.5M21.3333 16.5H28M21.3333 16.5C21.3333 9.87258 18.9455 4.5 16 4.5M21.3333 16.5C21.3333 23.1274 18.9455 28.5 16 28.5M28 16.5C28 9.87258 22.6274 4.5 16 4.5M28 16.5C28 23.1274 22.6274 28.5 16 28.5" stroke="#13678B" stroke-width="2" stroke-linecap="round" stroke-linejoin="round"/>
</svg>
