<?xml version="1.0" encoding="UTF-8"?>
<!DOCTYPE svg PUBLIC "-//W3C//DTD SVG 1.1//EN" "http://www.w3.org/Graphics/SVG/1.1/DTD/svg11.dtd">
<svg xmlns="http://www.w3.org/2000/svg" version="1.1" width="274px" height="264px" style="shape-rendering:geometricPrecision; text-rendering:geometricPrecision; image-rendering:optimizeQuality; fill-rule:evenodd; clip-rule:evenodd" xmlns:xlink="http://www.w3.org/1999/xlink">
<g><path style="opacity:1" fill="#fbfbfb" d="M -0.5,-0.5 C 34.8333,-0.5 70.1667,-0.5 105.5,-0.5C 105.917,2.07917 105.25,4.24583 103.5,6C 105.291,8.10618 105.958,10.6062 105.5,13.5C 103.167,13.5 100.833,13.5 98.5,13.5C 98.1667,5.5 97.8333,5.5 97.5,13.5C 95.1667,13.5 92.8333,13.5 90.5,13.5C 90.1667,9.5 89.8333,9.5 89.5,13.5C 82.5,11.8333 79.8333,14.5 81.5,21.5C 79.1667,21.5 76.8333,21.5 74.5,21.5C 74.1667,17.5 73.8333,17.5 73.5,21.5C 65.5,21.8333 65.5,22.1667 73.5,22.5C 73.5,24.8333 73.5,27.1667 73.5,29.5C 71.1667,29.5 68.8333,29.5 66.5,29.5C 66.1667,21.5 65.8333,21.5 65.5,29.5C 62.4816,29.3354 59.4816,29.502 56.5,30C 57.435,32.3806 57.7683,34.8806 57.5,37.5C 54.8806,37.7683 52.3806,37.435 50,36.5C 49.2496,37.1258 48.4162,37.6258 47.5,38C 49.291,40.1062 49.9577,42.6062 49.5,45.5C 46.8806,45.7683 44.3806,45.435 42,44.5C 41.5,45 41,45.5 40.5,46C 41.435,48.3806 41.7683,50.8806 41.5,53.5C 38.8806,53.2317 36.3806,53.565 34,54.5C 33.5026,57.146 33.3359,59.8127 33.5,62.5C 25.5,62.8333 25.5,63.1667 33.5,63.5C 33.5,65.8333 33.5,68.1667 33.5,70.5C 31.1667,70.5 28.8333,70.5 26.5,70.5C 26.6567,69.1266 26.49,67.7932 26,66.5C 25.8008,68.4025 24.9675,69.9025 23.5,71C 25.291,73.1062 25.9577,75.6062 25.5,78.5C 17.5,78.8333 17.5,79.1667 25.5,79.5C 25.5,81.8333 25.5,84.1667 25.5,86.5C 23.1667,86.5 20.8333,86.5 18.5,86.5C 18.6495,85.448 18.4828,84.448 18,83.5C 17.6905,84.7659 17.1905,85.9326 16.5,87C 17.435,89.3806 17.7683,91.8806 17.5,94.5C 13.5,94.8333 13.5,95.1667 17.5,95.5C 17.5,97.8333 17.5,100.167 17.5,102.5C 10.8333,102.833 10.8333,103.167 17.5,103.5C 17.5,105.833 17.5,108.167 17.5,110.5C 8.16667,110.833 8.16667,111.167 17.5,111.5C 17.5,113.833 17.5,116.167 17.5,118.5C 14.6062,118.958 12.1062,118.291 10,116.5C 9.50023,125.494 9.33356,134.494 9.5,143.5C 12.1667,143.5 14.8333,143.5 17.5,143.5C 17.5,145.833 17.5,148.167 17.5,150.5C 9.5,150.833 9.5,151.167 17.5,151.5C 17.5,153.833 17.5,156.167 17.5,158.5C 10.8333,158.833 10.8333,159.167 17.5,159.5C 17.5,161.833 17.5,164.167 17.5,166.5C 13.5,166.833 13.5,167.167 17.5,167.5C 17.3354,170.518 17.502,173.518 18,176.5C 20.3806,175.565 22.8806,175.232 25.5,175.5C 25.5,177.833 25.5,180.167 25.5,182.5C 18.8333,182.833 18.8333,183.167 25.5,183.5C 25.7683,186.119 25.435,188.619 24.5,191C 25.1258,191.75 25.6258,192.584 26,193.5C 28.1062,191.709 30.6062,191.042 33.5,191.5C 33.5,193.833 33.5,196.167 33.5,198.5C 28.1667,198.833 28.1667,199.167 33.5,199.5C 33.8333,207.5 34.1667,207.5 34.5,199.5C 36.8333,199.5 39.1667,199.5 41.5,199.5C 41.5,201.833 41.5,204.167 41.5,206.5C 33.5,206.833 33.5,207.167 41.5,207.5C 41.5,210.167 41.5,212.833 41.5,215.5C 44.1667,215.5 46.8333,215.5 49.5,215.5C 49.5,218.167 49.5,220.833 49.5,223.5C 52.1667,223.5 54.8333,223.5 57.5,223.5C 55.8333,230.5 58.5,233.167 65.5,231.5C 65.8333,238.167 66.1667,238.167 66.5,231.5C 68.8333,231.5 71.1667,231.5 73.5,231.5C 73.5,233.833 73.5,236.167 73.5,238.5C 72.448,238.351 71.448,238.517 70.5,239C 72.0609,239.318 73.2276,240.151 74,241.5C 76.1062,239.709 78.6062,239.042 81.5,239.5C 81.8333,247.5 82.1667,247.5 82.5,239.5C 84.8333,239.5 87.1667,239.5 89.5,239.5C 89.5,241.833 89.5,244.167 89.5,246.5C 88.1266,246.343 86.7932,246.51 85.5,247C 87.4025,247.199 88.9025,248.033 90,249.5C 92.1062,247.709 94.6062,247.042 97.5,247.5C 97.8333,252.833 98.1667,252.833 98.5,247.5C 100.833,247.5 103.167,247.5 105.5,247.5C 105.5,249.833 105.5,252.167 105.5,254.5C 111.29,254.65 116.79,255.65 122,257.5C 124.667,254.833 127.333,254.833 130,257.5C 132.106,255.709 134.606,255.042 137.5,255.5C 137.833,259.5 138.167,259.5 138.5,255.5C 141.394,255.042 143.894,255.709 146,257.5C 148.667,254.833 151.333,254.833 154,257.5C 159.21,255.65 164.71,254.65 170.5,254.5C 170.5,252.167 170.5,249.833 170.5,247.5C 172.833,247.5 175.167,247.5 177.5,247.5C 177.833,252.833 178.167,252.833 178.5,247.5C 181.119,247.232 183.619,247.565 186,248.5C 187.067,247.809 188.234,247.309 189.5,247C 188.552,246.517 187.552,246.351 186.5,246.5C 186.5,244.167 186.5,241.833 186.5,239.5C 188.833,239.5 191.167,239.5 193.5,239.5C 193.833,247.5 194.167,247.5 194.5,239.5C 197.119,239.232 199.619,239.565 202,240.5C 203.067,239.809 204.234,239.309 205.5,239C 204.552,238.517 203.552,238.351 202.5,238.5C 202.5,236.167 202.5,233.833 202.5,231.5C 204.833,231.5 207.167,231.5 209.5,231.5C 209.833,236.833 210.167,236.833 210.5,231.5C 218.5,231.167 218.5,230.833 210.5,230.5C 210.5,228.167 210.5,225.833 210.5,223.5C 212.833,223.5 215.167,223.5 217.5,223.5C 217.833,231.5 218.167,231.5 218.5,223.5C 225.5,225.167 228.167,222.5 226.5,215.5C 233.5,217.167 236.167,214.5 234.5,207.5C 236.527,207.662 238.527,207.495 240.5,207C 241.428,206.612 242.095,205.945 242.5,205C 242.763,202.568 243.763,200.568 245.5,199C 243.709,196.894 243.042,194.394 243.5,191.5C 250.5,193.167 253.167,190.5 251.5,183.5C 255.5,183.167 255.5,182.833 251.5,182.5C 251.5,180.167 251.5,177.833 251.5,175.5C 259.5,175.167 259.5,174.833 251.5,174.5C 251.5,172.167 251.5,169.833 251.5,167.5C 253.833,167.5 256.167,167.5 258.5,167.5C 258.343,168.873 258.51,170.207 259,171.5C 259.273,169.899 259.773,168.399 260.5,167C 259.565,164.619 259.232,162.119 259.5,159.5C 263.5,159.167 263.5,158.833 259.5,158.5C 259.5,156.167 259.5,153.833 259.5,151.5C 266.167,151.167 266.167,150.833 259.5,150.5C 259.5,148.167 259.5,145.833 259.5,143.5C 267.5,143.167 267.5,142.833 259.5,142.5C 259.5,140.167 259.5,137.833 259.5,135.5C 267.5,135.167 267.5,134.833 259.5,134.5C 259.5,132.167 259.5,129.833 259.5,127.5C 268.833,127.167 268.833,126.833 259.5,126.5C 259.5,124.167 259.5,121.833 259.5,119.5C 267.5,119.167 267.5,118.833 259.5,118.5C 259.5,116.167 259.5,113.833 259.5,111.5C 266.167,111.167 266.167,110.833 259.5,110.5C 259.5,108.167 259.5,105.833 259.5,103.5C 264.833,103.167 264.833,102.833 259.5,102.5C 259.042,99.6062 259.709,97.1062 261.5,95C 259.862,92.8665 259.029,90.3665 259,87.5C 256.619,86.565 254.119,86.2317 251.5,86.5C 251.5,84.1667 251.5,81.8333 251.5,79.5C 256.833,79.1667 256.833,78.8333 251.5,78.5C 251.665,75.4816 251.498,72.4816 251,69.5C 248.619,70.435 246.119,70.7683 243.5,70.5C 243.5,68.1667 243.5,65.8333 243.5,63.5C 248.833,63.1667 248.833,62.8333 243.5,62.5C 244.691,55.1834 241.691,52.1834 234.5,53.5C 234.665,50.4816 234.498,47.4816 234,44.5C 231.619,45.435 229.119,45.7683 226.5,45.5C 226.232,42.8806 226.565,40.3806 227.5,38C 227,37.5 226.5,37 226,36.5C 223.619,37.435 221.119,37.7683 218.5,37.5C 218.5,34.8333 218.5,32.1667 218.5,29.5C 215.833,29.5 213.167,29.5 210.5,29.5C 210.167,21.5 209.833,21.5 209.5,29.5C 207.167,29.5 204.833,29.5 202.5,29.5C 202.5,27.1667 202.5,24.8333 202.5,22.5C 209.167,22.1667 209.167,21.8333 202.5,21.5C 202.167,17.5 201.833,17.5 201.5,21.5C 199.167,21.5 196.833,21.5 194.5,21.5C 196.167,14.5 193.5,11.8333 186.5,13.5C 186.167,9.5 185.833,9.5 185.5,13.5C 183.167,13.5 180.833,13.5 178.5,13.5C 178.167,5.5 177.833,5.5 177.5,13.5C 175.167,13.5 172.833,13.5 170.5,13.5C 170.042,10.6062 170.709,8.10618 172.5,6C 170.75,4.24583 170.083,2.07917 170.5,-0.5C 204.833,-0.5 239.167,-0.5 273.5,-0.5C 273.5,87.5 273.5,175.5 273.5,263.5C 182.167,263.5 90.8333,263.5 -0.5,263.5C -0.5,175.5 -0.5,87.5 -0.5,-0.5 Z"/></g>
<g><path style="opacity:1" fill="#f2f3f3" d="M 105.5,-0.5 C 127.167,-0.5 148.833,-0.5 170.5,-0.5C 170.083,2.07917 170.75,4.24583 172.5,6C 170.709,8.10618 170.042,10.6062 170.5,13.5C 172.833,13.5 175.167,13.5 177.5,13.5C 177.833,5.5 178.167,5.5 178.5,13.5C 180.833,13.5 183.167,13.5 185.5,13.5C 185.833,9.5 186.167,9.5 186.5,13.5C 193.5,11.8333 196.167,14.5 194.5,21.5C 196.833,21.5 199.167,21.5 201.5,21.5C 201.833,17.5 202.167,17.5 202.5,21.5C 209.167,21.8333 209.167,22.1667 202.5,22.5C 202.5,24.8333 202.5,27.1667 202.5,29.5C 204.833,29.5 207.167,29.5 209.5,29.5C 209.833,21.5 210.167,21.5 210.5,29.5C 213.167,29.5 215.833,29.5 218.5,29.5C 218.5,32.1667 218.5,34.8333 218.5,37.5C 221.119,37.7683 223.619,37.435 226,36.5C 226.5,37 227,37.5 227.5,38C 226.565,40.3806 226.232,42.8806 226.5,45.5C 229.119,45.7683 231.619,45.435 234,44.5C 234.498,47.4816 234.665,50.4816 234.5,53.5C 241.691,52.1834 244.691,55.1834 243.5,62.5C 248.833,62.8333 248.833,63.1667 243.5,63.5C 243.5,65.8333 243.5,68.1667 243.5,70.5C 246.119,70.7683 248.619,70.435 251,69.5C 251.498,72.4816 251.665,75.4816 251.5,78.5C 256.833,78.8333 256.833,79.1667 251.5,79.5C 251.5,81.8333 251.5,84.1667 251.5,86.5C 254.119,86.2317 256.619,86.565 259,87.5C 259.029,90.3665 259.862,92.8665 261.5,95C 259.709,97.1062 259.042,99.6062 259.5,102.5C 264.833,102.833 264.833,103.167 259.5,103.5C 259.5,105.833 259.5,108.167 259.5,110.5C 266.167,110.833 266.167,111.167 259.5,111.5C 259.5,113.833 259.5,116.167 259.5,118.5C 267.5,118.833 267.5,119.167 259.5,119.5C 259.5,121.833 259.5,124.167 259.5,126.5C 268.833,126.833 268.833,127.167 259.5,127.5C 259.5,129.833 259.5,132.167 259.5,134.5C 267.5,134.833 267.5,135.167 259.5,135.5C 259.5,137.833 259.5,140.167 259.5,142.5C 267.5,142.833 267.5,143.167 259.5,143.5C 259.5,145.833 259.5,148.167 259.5,150.5C 266.167,150.833 266.167,151.167 259.5,151.5C 259.5,153.833 259.5,156.167 259.5,158.5C 263.5,158.833 263.5,159.167 259.5,159.5C 259.232,162.119 259.565,164.619 260.5,167C 259.773,168.399 259.273,169.899 259,171.5C 258.51,170.207 258.343,168.873 258.5,167.5C 256.167,167.5 253.833,167.5 251.5,167.5C 251.5,169.833 251.5,172.167 251.5,174.5C 259.5,174.833 259.5,175.167 251.5,175.5C 251.5,177.833 251.5,180.167 251.5,182.5C 255.5,182.833 255.5,183.167 251.5,183.5C 253.167,190.5 250.5,193.167 243.5,191.5C 243.042,194.394 243.709,196.894 245.5,199C 243.763,200.568 242.763,202.568 242.5,205C 242.095,205.945 241.428,206.612 240.5,207C 238.527,207.495 236.527,207.662 234.5,207.5C 236.167,214.5 233.5,217.167 226.5,215.5C 228.167,222.5 225.5,225.167 218.5,223.5C 218.167,231.5 217.833,231.5 217.5,223.5C 215.167,223.5 212.833,223.5 210.5,223.5C 210.5,225.833 210.5,228.167 210.5,230.5C 218.5,230.833 218.5,231.167 210.5,231.5C 210.167,236.833 209.833,236.833 209.5,231.5C 207.167,231.5 204.833,231.5 202.5,231.5C 202.5,233.833 202.5,236.167 202.5,238.5C 203.552,238.351 204.552,238.517 205.5,239C 204.234,239.309 203.067,239.809 202,240.5C 199.619,239.565 197.119,239.232 194.5,239.5C 194.167,247.5 193.833,247.5 193.5,239.5C 191.167,239.5 188.833,239.5 186.5,239.5C 186.5,241.833 186.5,244.167 186.5,246.5C 187.552,246.351 188.552,246.517 189.5,247C 188.234,247.309 187.067,247.809 186,248.5C 183.619,247.565 181.119,247.232 178.5,247.5C 178.167,252.833 177.833,252.833 177.5,247.5C 175.167,247.5 172.833,247.5 170.5,247.5C 170.5,249.833 170.5,252.167 170.5,254.5C 164.71,254.65 159.21,255.65 154,257.5C 151.333,254.833 148.667,254.833 146,257.5C 143.894,255.709 141.394,255.042 138.5,255.5C 138.167,259.5 137.833,259.5 137.5,255.5C 134.606,255.042 132.106,255.709 130,257.5C 127.333,254.833 124.667,254.833 122,257.5C 116.79,255.65 111.29,254.65 105.5,254.5C 105.5,252.167 105.5,249.833 105.5,247.5C 103.167,247.5 100.833,247.5 98.5,247.5C 98.1667,252.833 97.8333,252.833 97.5,247.5C 94.6062,247.042 92.1062,247.709 90,249.5C 88.9025,248.033 87.4025,247.199 85.5,247C 86.7932,246.51 88.1266,246.343 89.5,246.5C 89.5,244.167 89.5,241.833 89.5,239.5C 87.1667,239.5 84.8333,239.5 82.5,239.5C 82.1667,247.5 81.8333,247.5 81.5,239.5C 78.6062,239.042 76.1062,239.709 74,241.5C 73.2276,240.151 72.0609,239.318 70.5,239C 71.448,238.517 72.448,238.351 73.5,238.5C 73.5,236.167 73.5,233.833 73.5,231.5C 71.1667,231.5 68.8333,231.5 66.5,231.5C 66.1667,238.167 65.8333,238.167 65.5,231.5C 58.5,233.167 55.8333,230.5 57.5,223.5C 54.8333,223.5 52.1667,223.5 49.5,223.5C 49.5,220.833 49.5,218.167 49.5,215.5C 46.8333,215.5 44.1667,215.5 41.5,215.5C 41.5,212.833 41.5,210.167 41.5,207.5C 33.5,207.167 33.5,206.833 41.5,206.5C 41.5,204.167 41.5,201.833 41.5,199.5C 39.1667,199.5 36.8333,199.5 34.5,199.5C 34.1667,207.5 33.8333,207.5 33.5,199.5C 28.1667,199.167 28.1667,198.833 33.5,198.5C 33.5,196.167 33.5,193.833 33.5,191.5C 30.6062,191.042 28.1062,191.709 26,193.5C 25.6258,192.584 25.1258,191.75 24.5,191C 25.435,188.619 25.7683,186.119 25.5,183.5C 18.8333,183.167 18.8333,182.833 25.5,182.5C 25.5,180.167 25.5,177.833 25.5,175.5C 22.8806,175.232 20.3806,175.565 18,176.5C 17.502,173.518 17.3354,170.518 17.5,167.5C 13.5,167.167 13.5,166.833 17.5,166.5C 17.5,164.167 17.5,161.833 17.5,159.5C 10.8333,159.167 10.8333,158.833 17.5,158.5C 17.5,156.167 17.5,153.833 17.5,151.5C 9.5,151.167 9.5,150.833 17.5,150.5C 17.5,148.167 17.5,145.833 17.5,143.5C 14.8333,143.5 12.1667,143.5 9.5,143.5C 9.33356,134.494 9.50023,125.494 10,116.5C 12.1062,118.291 14.6062,118.958 17.5,118.5C 17.5,116.167 17.5,113.833 17.5,111.5C 8.16667,111.167 8.16667,110.833 17.5,110.5C 17.5,108.167 17.5,105.833 17.5,103.5C 10.8333,103.167 10.8333,102.833 17.5,102.5C 17.5,100.167 17.5,97.8333 17.5,95.5C 13.5,95.1667 13.5,94.8333 17.5,94.5C 17.7683,91.8806 17.435,89.3806 16.5,87C 17.1905,85.9326 17.6905,84.7659 18,83.5C 18.4828,84.448 18.6495,85.448 18.5,86.5C 20.8333,86.5 23.1667,86.5 25.5,86.5C 25.5,84.1667 25.5,81.8333 25.5,79.5C 17.5,79.1667 17.5,78.8333 25.5,78.5C 25.9577,75.6062 25.291,73.1062 23.5,71C 24.9675,69.9025 25.8008,68.4025 26,66.5C 26.49,67.7932 26.6567,69.1266 26.5,70.5C 28.8333,70.5 31.1667,70.5 33.5,70.5C 33.5,68.1667 33.5,65.8333 33.5,63.5C 25.5,63.1667 25.5,62.8333 33.5,62.5C 33.3359,59.8127 33.5026,57.146 34,54.5C 36.3806,53.565 38.8806,53.2317 41.5,53.5C 41.7683,50.8806 41.435,48.3806 40.5,46C 41,45.5 41.5,45 42,44.5C 44.3806,45.435 46.8806,45.7683 49.5,45.5C 49.9577,42.6062 49.291,40.1062 47.5,38C 48.4162,37.6258 49.2496,37.1258 50,36.5C 52.3806,37.435 54.8806,37.7683 57.5,37.5C 57.7683,34.8806 57.435,32.3806 56.5,30C 59.4816,29.502 62.4816,29.3354 65.5,29.5C 65.8333,21.5 66.1667,21.5 66.5,29.5C 68.8333,29.5 71.1667,29.5 73.5,29.5C 73.5,27.1667 73.5,24.8333 73.5,22.5C 65.5,22.1667 65.5,21.8333 73.5,21.5C 73.8333,17.5 74.1667,17.5 74.5,21.5C 76.8333,21.5 79.1667,21.5 81.5,21.5C 79.8333,14.5 82.5,11.8333 89.5,13.5C 89.8333,9.5 90.1667,9.5 90.5,13.5C 92.8333,13.5 95.1667,13.5 97.5,13.5C 97.8333,5.5 98.1667,5.5 98.5,13.5C 100.833,13.5 103.167,13.5 105.5,13.5C 105.958,10.6062 105.291,8.10618 103.5,6C 105.25,4.24583 105.917,2.07917 105.5,-0.5 Z"/></g>
<g><path style="opacity:1" fill="#e6ba4e" d="M 136.5,40.5 C 155.299,58.7983 173.965,77.2983 192.5,96C 185.667,102.833 178.833,109.667 172,116.5C 160.333,104.833 148.667,93.1667 137,81.5C 125.333,93.1667 113.667,104.833 102,116.5C 95.1667,109.667 88.3333,102.833 81.5,96C 100.035,77.6319 118.368,59.1319 136.5,40.5 Z"/></g>
<g><path style="opacity:1" fill="#e6ba4f" d="M 66.5,110.5 C 73.6315,117.131 80.6315,123.964 87.5,131C 80.6667,137.833 73.8333,144.667 67,151.5C 60.1222,144.957 53.6222,138.124 47.5,131C 53.6586,124.008 59.9919,117.175 66.5,110.5 Z"/></g>
<g><path style="opacity:1" fill="#e6b94e" d="M 136.5,110.5 C 143.632,117.131 150.632,123.964 157.5,131C 150.667,137.833 143.833,144.667 137,151.5C 130.167,144.667 123.333,137.833 116.5,131C 123.369,124.298 130.036,117.465 136.5,110.5 Z"/></g>
<g><path style="opacity:1" fill="#e6ba4f" d="M 205.5,111.5 C 206.552,111.351 207.552,111.517 208.5,112C 214.833,118.333 221.167,124.667 227.5,131C 220.667,137.833 213.833,144.667 207,151.5C 200.167,144.667 193.333,137.833 186.5,131C 193.036,124.631 199.369,118.131 205.5,111.5 Z"/></g>
<g><path style="opacity:1" fill="#e6ba4e" d="M 101.5,145.5 C 113.465,156.965 125.298,168.631 137,180.5C 148.667,168.833 160.333,157.167 172,145.5C 178.833,152.333 185.667,159.167 192.5,166C 174,184.5 155.5,203 137,221.5C 118.5,203 100,184.5 81.5,166C 88.3693,159.298 95.036,152.465 101.5,145.5 Z"/></g>
</svg>
