<svg width="13" height="14" viewBox="0 0 13 14" fill="none" xmlns="http://www.w3.org/2000/svg">
<g clip-path="url(#clip0_5004_1583)">
<path d="M4.75618 5.21165C4.86056 4.89003 5.05176 4.60381 5.30881 4.38413C5.56586 4.16445 5.87899 4.02009 6.21294 3.9671C6.5469 3.91412 6.8888 3.95447 7.20123 4.08379C7.51365 4.21312 7.78422 4.42646 7.98302 4.69998C8.18182 4.9735 8.30087 5.29656 8.32745 5.63365C8.35402 5.97074 8.28679 6.3087 8.13331 6.61C7.97983 6.91129 7.74628 7.16408 7.45798 7.34077C7.16968 7.51745 6.83814 7.61097 6.5 7.61097V8.22236M6.5 12.5C3.46243 12.5 1 10.0376 1 7C1 3.96243 3.46243 1.5 6.5 1.5C9.53757 1.5 12 3.96243 12 7C12 10.0376 9.53757 12.5 6.5 12.5ZM6.53044 10.0556V10.1167L6.46956 10.1168V10.0556H6.53044Z" stroke="#616E73" stroke-width="1.3" stroke-linecap="round" stroke-linejoin="round"/>
</g>
<defs>
<clipPath id="clip0_5004_1583">
<rect width="13" height="13" fill="white" transform="translate(0 0.5)"/>
</clipPath>
</defs>
</svg>
