<svg width="32" height="33" viewBox="0 0 32 33" fill="none" xmlns="http://www.w3.org/2000/svg">
<g clip-path="url(#clip0_4161_25172)">
<path fill-rule="evenodd" clip-rule="evenodd" d="M16 12.5C13.7909 12.5 12 14.2909 12 16.5C12 18.7091 13.7909 20.5 16 20.5C18.2091 20.5 20 18.7091 20 16.5C20 14.2909 18.2091 12.5 16 12.5ZM10 16.5C10 13.1863 12.6863 10.5 16 10.5C19.3137 10.5 22 13.1863 22 16.5C22 19.8137 19.3137 22.5 16 22.5C12.6863 22.5 10 19.8137 10 16.5Z" fill="#13678B"/>
<path fill-rule="evenodd" clip-rule="evenodd" d="M10.5 6C7.73858 6 5.5 8.23858 5.5 11V22C5.5 24.7614 7.73858 27 10.5 27H21.5C24.2614 27 26.5 24.7614 26.5 22V11C26.5 8.23858 24.2614 6 21.5 6H10.5ZM3.5 11C3.5 7.13401 6.63401 4 10.5 4H21.5C25.366 4 28.5 7.13401 28.5 11V22C28.5 25.866 25.366 29 21.5 29H10.5C6.63401 29 3.5 25.866 3.5 22V11Z" fill="#13678B"/>
<path d="M22.5 11.5C23.3284 11.5 24 10.8284 24 10C24 9.17157 23.3284 8.5 22.5 8.5C21.6716 8.5 21 9.17157 21 10C21 10.8284 21.6716 11.5 22.5 11.5Z" fill="#13678B"/>
</g>
<defs>
<clipPath id="clip0_4161_25172">
<rect width="32" height="32" fill="white" transform="translate(0 0.5)"/>
</clipPath>
</defs>
</svg>
