<?xml version="1.0" encoding="UTF-8"?>
<!DOCTYPE svg PUBLIC "-//W3C//DTD SVG 1.1//EN" "http://www.w3.org/Graphics/SVG/1.1/DTD/svg11.dtd">
<svg xmlns="http://www.w3.org/2000/svg" version="1.1" width="265px" height="266px" style="shape-rendering:geometricPrecision; text-rendering:geometricPrecision; image-rendering:optimizeQuality; fill-rule:evenodd; clip-rule:evenodd" xmlns:xlink="http://www.w3.org/1999/xlink">
<g><path style="opacity:0.987" fill="#4bb6bb" d="M 2.5,-0.5 C 10.1667,-0.5 17.8333,-0.5 25.5,-0.5C 25.5405,2.88055 25.2071,6.21389 24.5,9.5C 22.0523,9.08467 20.7189,10.0847 20.5,12.5C 22.5255,14.8367 23.8588,17.5034 24.5,20.5C 23.1667,20.5 21.8333,20.5 20.5,20.5C 20.9728,23.6965 21.6394,26.8632 22.5,30C 21.1525,31.5553 20.4858,33.3887 20.5,35.5C 21.2739,39.4649 21.6073,43.4649 21.5,47.5C 19.5,47.5 17.5,47.5 15.5,47.5C 16.1383,45.54 16.1383,43.7067 15.5,42C 11.9137,40.8924 8.247,40.3924 4.5,40.5C 4.5,39.5 4.5,38.5 4.5,37.5C 3.5,37.5 2.5,37.5 1.5,37.5C 1.18688,24.7536 1.52021,12.087 2.5,-0.5 Z"/></g>
<g><path style="opacity:0.994" fill="#7d5f77" d="M 79.5,-0.5 C 86.8333,-0.5 94.1667,-0.5 101.5,-0.5C 103.081,1.14166 103.747,3.14166 103.5,5.5C 104.5,5.5 105.5,5.5 106.5,5.5C 106.5,8.83333 106.5,12.1667 106.5,15.5C 107.822,15.33 108.989,15.6634 110,16.5C 110.181,19.6946 110.681,22.6946 111.5,25.5C 111.167,26.1667 110.833,26.8333 110.5,27.5C 106.5,27.5 102.5,27.5 98.5,27.5C 98.5,30.1667 98.5,32.8333 98.5,35.5C 98.1667,35.5 97.8333,35.5 97.5,35.5C 97.5,35.8333 97.5,36.1667 97.5,36.5C 91.8333,36.5 86.1667,36.5 80.5,36.5C 80.81,39.7131 80.4767,42.7131 79.5,45.5C 79.5,42.8333 79.5,40.1667 79.5,37.5C 77.5,37.5 75.5,37.5 73.5,37.5C 73.67,38.8221 73.3366,39.9887 72.5,41C 69.1832,41.4983 65.8499,41.665 62.5,41.5C 62.7118,39.6159 63.7118,38.2826 65.5,37.5C 66.1667,33.8333 66.8333,30.1667 67.5,26.5C 69.5218,25.0549 71.3551,23.3882 73,21.5C 73.1786,18.4465 73.6786,15.4465 74.5,12.5C 77.6517,8.70055 79.3184,4.36721 79.5,-0.5 Z"/></g>
<g><path style="opacity:0.958" fill="#3a3576" d="M 101.5,-0.5 C 106.5,-0.5 111.5,-0.5 116.5,-0.5C 116.246,3.17542 114.58,6.00875 111.5,8C 112.148,13.752 112.148,19.5853 111.5,25.5C 110.681,22.6946 110.181,19.6946 110,16.5C 108.989,15.6634 107.822,15.33 106.5,15.5C 106.5,12.1667 106.5,8.83333 106.5,5.5C 105.5,5.5 104.5,5.5 103.5,5.5C 103.747,3.14166 103.081,1.14166 101.5,-0.5 Z"/></g>
<g><path style="opacity:0.993" fill="#432d81" d="M 116.5,-0.5 C 125.167,-0.5 133.833,-0.5 142.5,-0.5C 142.5,0.166667 142.167,0.5 141.5,0.5C 139.692,0.491364 138.025,0.991364 136.5,2C 136.957,2.41395 137.291,2.91395 137.5,3.5C 135.577,4.30779 133.577,4.80779 131.5,5C 130.404,8.31504 128.071,9.98171 124.5,10C 124.384,14.613 122.051,16.4463 117.5,15.5C 117.5,17.1667 117.5,18.8333 117.5,20.5C 116.5,20.5 115.5,20.5 114.5,20.5C 114.5,22.1667 114.5,23.8333 114.5,25.5C 113.5,25.5 112.5,25.5 111.5,25.5C 112.148,19.5853 112.148,13.752 111.5,8C 114.58,6.00875 116.246,3.17542 116.5,-0.5 Z"/></g>
<g><path style="opacity:0.997" fill="#3b3ca5" d="M 142.5,-0.5 C 146.5,-0.5 150.5,-0.5 154.5,-0.5C 157.174,2.8564 160.174,6.02307 163.5,9C 165.265,9.63974 166.932,9.47308 168.5,8.5C 168.5,9.16667 168.5,9.83333 168.5,10.5C 166.167,10.5 163.833,10.5 161.5,10.5C 162.669,17.2862 160.669,22.6196 155.5,26.5C 148.245,26.8132 141.079,26.4799 134,25.5C 135.028,19.4445 137.694,14.1112 142,9.5C 142.736,6.40803 142.569,3.40803 141.5,0.5C 142.167,0.5 142.5,0.166667 142.5,-0.5 Z"/></g>
<g><path style="opacity:0.949" fill="#4337b7" d="M 154.5,-0.5 C 163.167,-0.5 171.833,-0.5 180.5,-0.5C 179.081,0.451145 177.415,0.784479 175.5,0.5C 175.5,2.16667 175.5,3.83333 175.5,5.5C 173.167,5.5 170.833,5.5 168.5,5.5C 168.5,6.5 168.5,7.5 168.5,8.5C 166.932,9.47308 165.265,9.63974 163.5,9C 160.174,6.02307 157.174,2.8564 154.5,-0.5 Z"/></g>
<g><path style="opacity:0.994" fill="#3550c7" d="M 180.5,-0.5 C 189.5,-0.5 198.5,-0.5 207.5,-0.5C 207.143,1.58905 206.477,3.58905 205.5,5.5C 201.764,8.4561 198.931,12.1228 197,16.5C 195.975,21.402 196.475,26.0687 198.5,30.5C 197.675,31.3857 196.675,31.719 195.5,31.5C 193.983,30.2651 192.316,30.2651 190.5,31.5C 189.828,30.0508 189.161,28.7175 188.5,27.5C 188.158,26.6618 187.492,26.3284 186.5,26.5C 183.038,25.5184 179.371,25.185 175.5,25.5C 176.077,22.4503 174.91,20.4503 172,19.5C 171.598,18.1279 171.098,16.7946 170.5,15.5C 173.652,11.4774 172.985,9.81077 168.5,10.5C 168.5,9.83333 168.5,9.16667 168.5,8.5C 168.5,7.5 168.5,6.5 168.5,5.5C 170.833,5.5 173.167,5.5 175.5,5.5C 175.5,3.83333 175.5,2.16667 175.5,0.5C 177.415,0.784479 179.081,0.451145 180.5,-0.5 Z"/></g>
<g><path style="opacity:0.99" fill="#2b5dd2" d="M 207.5,-0.5 C 216.5,-0.5 225.5,-0.5 234.5,-0.5C 235.778,0.749473 236.778,2.24947 237.5,4C 238.448,4.48278 239.448,4.64945 240.5,4.5C 240.5,4.83333 240.5,5.16667 240.5,5.5C 238.801,5.33982 237.134,5.50649 235.5,6C 233.991,7.92394 231.991,9.09061 229.5,9.5C 228.859,11.2955 227.859,12.7955 226.5,14C 223.808,14.4298 221.141,14.2631 218.5,13.5C 218.5,15.5 218.5,17.5 218.5,19.5C 212.817,18.1688 209.151,20.1688 207.5,25.5C 203.15,25.886 201.483,28.2194 202.5,32.5C 199.941,32.8016 197.607,32.4682 195.5,31.5C 196.675,31.719 197.675,31.3857 198.5,30.5C 196.475,26.0687 195.975,21.402 197,16.5C 198.931,12.1228 201.764,8.4561 205.5,5.5C 206.477,3.58905 207.143,1.58905 207.5,-0.5 Z"/></g>
<g><path style="opacity:1" fill="#2a32be" d="M 234.5,-0.5 C 237.5,-0.5 240.5,-0.5 243.5,-0.5C 243.5,1.16667 243.5,2.83333 243.5,4.5C 242.5,4.5 241.5,4.5 240.5,4.5C 239.448,4.64945 238.448,4.48278 237.5,4C 236.778,2.24947 235.778,0.749473 234.5,-0.5 Z"/></g>
<g><path style="opacity:1" fill="#124cc1" d="M 243.5,-0.5 C 249.5,-0.5 255.5,-0.5 261.5,-0.5C 262.167,0.833333 263.167,1.83333 264.5,2.5C 264.5,15.8333 264.5,29.1667 264.5,42.5C 261.916,41.9517 260.916,40.285 261.5,37.5C 260.167,37.5 258.833,37.5 257.5,37.5C 256.281,33.9202 255.114,30.2535 254,26.5C 252.989,25.6634 251.822,25.33 250.5,25.5C 251.084,22.715 250.084,21.0483 247.5,20.5C 247.5,18.5 247.5,16.5 247.5,14.5C 246.5,14.5 245.5,14.5 244.5,14.5C 244.658,11.4779 243.325,9.47786 240.5,8.5C 240.5,7.83333 240.5,7.16667 240.5,6.5C 240.5,6.16667 240.5,5.83333 240.5,5.5C 240.5,5.16667 240.5,4.83333 240.5,4.5C 241.5,4.5 242.5,4.5 243.5,4.5C 243.5,2.83333 243.5,1.16667 243.5,-0.5 Z"/></g>
<g><path style="opacity:1" fill="#453781" d="M 141.5,0.5 C 142.569,3.40803 142.736,6.40803 142,9.5C 137.694,14.1112 135.028,19.4445 134,25.5C 141.079,26.4799 148.245,26.8132 155.5,26.5C 165.833,26.5 176.167,26.5 186.5,26.5C 187.492,26.3284 188.158,26.6618 188.5,27.5C 169.833,27.5 151.167,27.5 132.5,27.5C 125.167,27.5 117.833,27.5 110.5,27.5C 110.833,26.8333 111.167,26.1667 111.5,25.5C 112.5,25.5 113.5,25.5 114.5,25.5C 114.5,23.8333 114.5,22.1667 114.5,20.5C 115.5,20.5 116.5,20.5 117.5,20.5C 117.5,18.8333 117.5,17.1667 117.5,15.5C 122.051,16.4463 124.384,14.613 124.5,10C 128.071,9.98171 130.404,8.31504 131.5,5C 133.577,4.80779 135.577,4.30779 137.5,3.5C 137.291,2.91395 136.957,2.41395 136.5,2C 138.025,0.991364 139.692,0.491364 141.5,0.5 Z"/></g>
<g><path style="opacity:1" fill="#6f7284" d="M 58.5,-0.5 C 65.5,-0.5 72.5,-0.5 79.5,-0.5C 79.3184,4.36721 77.6517,8.70055 74.5,12.5C 73.6786,15.4465 73.1786,18.4465 73,21.5C 71.3551,23.3882 69.5218,25.0549 67.5,26.5C 66.8333,30.1667 66.1667,33.8333 65.5,37.5C 63.7118,38.2826 62.7118,39.6159 62.5,41.5C 61.1667,41.5 59.8333,41.5 58.5,41.5C 58.5,27.5 58.5,13.5 58.5,-0.5 Z"/></g>
<g><path style="opacity:1" fill="#334ab4" d="M 186.5,26.5 C 176.167,26.5 165.833,26.5 155.5,26.5C 160.669,22.6196 162.669,17.2862 161.5,10.5C 163.833,10.5 166.167,10.5 168.5,10.5C 172.985,9.81077 173.652,11.4774 170.5,15.5C 171.098,16.7946 171.598,18.1279 172,19.5C 174.91,20.4503 176.077,22.4503 175.5,25.5C 179.371,25.185 183.038,25.5184 186.5,26.5 Z"/></g>
<g><path style="opacity:1" fill="#1796dd" d="M 240.5,8.5 C 243.325,9.47786 244.658,11.4779 244.5,14.5C 245.5,14.5 246.5,14.5 247.5,14.5C 247.5,16.5 247.5,18.5 247.5,20.5C 244.611,17.451 241.445,14.451 238,11.5C 236.977,12.6001 236.477,13.9334 236.5,15.5C 237.095,18.1401 237.428,20.8067 237.5,23.5C 236.022,23.238 234.689,23.5713 233.5,24.5C 234.325,25.3857 235.325,25.719 236.5,25.5C 236.334,34.1731 236.5,42.8397 237,51.5C 238.603,54.6574 237.603,56.9907 234,58.5C 233.333,63.1667 233.333,67.8333 234,72.5C 235.643,75.6186 237.143,78.7852 238.5,82C 238.1,84.8996 237.434,87.733 236.5,90.5C 235.513,87.2317 235.18,83.8984 235.5,80.5C 228.877,81.3796 222.211,81.713 215.5,81.5C 215.5,80.5 215.5,79.5 215.5,78.5C 213.208,78.2436 211.041,78.5769 209,79.5C 208.5,67.8381 208.333,56.1714 208.5,44.5C 205.167,44.5 201.833,44.5 198.5,44.5C 198.5,42.8333 198.5,41.1667 198.5,39.5C 201.062,40.3715 203.728,40.3715 206.5,39.5C 208.478,38.8556 209.811,37.5223 210.5,35.5C 212.917,34.9278 215.084,33.9278 217,32.5C 217.476,26.3518 220.643,22.5184 226.5,21C 227.017,17.4659 229.017,15.2993 232.5,14.5C 232.291,13.914 231.957,13.414 231.5,13C 235.152,12.8478 237.486,11.0144 238.5,7.5C 239.183,7.86273 239.85,8.19607 240.5,8.5 Z"/></g>
<g><path style="opacity:1" fill="#119fdd" d="M 247.5,20.5 C 248.819,22.4684 248.819,24.4684 247.5,26.5C 248.518,27.8524 249.851,28.8524 251.5,29.5C 252.309,31.0709 252.643,32.7376 252.5,34.5C 255.766,34.4326 257.266,36.0992 257,39.5C 259.396,42.0666 261.896,44.4 264.5,46.5C 264.5,51.8333 264.5,57.1667 264.5,62.5C 263.31,64.3545 261.977,66.1879 260.5,68C 259.207,68.49 257.873,68.6567 256.5,68.5C 256.5,69.8333 256.5,71.1667 256.5,72.5C 255.5,72.5 254.5,72.5 253.5,72.5C 253.5,74.1667 253.5,75.8333 253.5,77.5C 250.719,76.177 248.053,76.3437 245.5,78C 246.769,80.1385 246.769,82.3052 245.5,84.5C 244.476,85.8532 243.143,86.5198 241.5,86.5C 241.371,88.2161 241.038,89.8828 240.5,91.5C 238.5,91.5 236.5,91.5 234.5,91.5C 234.5,88.5 234.5,85.5 234.5,82.5C 225.5,82.5 216.5,82.5 207.5,82.5C 207.829,69.9887 207.495,57.6554 206.5,45.5C 203.833,45.5 201.167,45.5 198.5,45.5C 198.5,45.1667 198.5,44.8333 198.5,44.5C 201.833,44.5 205.167,44.5 208.5,44.5C 208.333,56.1714 208.5,67.8381 209,79.5C 211.041,78.5769 213.208,78.2436 215.5,78.5C 215.5,79.5 215.5,80.5 215.5,81.5C 222.211,81.713 228.877,81.3796 235.5,80.5C 235.18,83.8984 235.513,87.2317 236.5,90.5C 237.434,87.733 238.1,84.8996 238.5,82C 237.143,78.7852 235.643,75.6186 234,72.5C 233.333,67.8333 233.333,63.1667 234,58.5C 237.603,56.9907 238.603,54.6574 237,51.5C 236.5,42.8397 236.334,34.1731 236.5,25.5C 235.325,25.719 234.325,25.3857 233.5,24.5C 234.689,23.5713 236.022,23.238 237.5,23.5C 237.428,20.8067 237.095,18.1401 236.5,15.5C 236.477,13.9334 236.977,12.6001 238,11.5C 241.445,14.451 244.611,17.451 247.5,20.5 Z"/></g>
<g><path style="opacity:1" fill="#1e89da" d="M 240.5,6.5 C 240.5,7.16667 240.5,7.83333 240.5,8.5C 239.85,8.19607 239.183,7.86273 238.5,7.5C 237.486,11.0144 235.152,12.8478 231.5,13C 231.957,13.414 232.291,13.914 232.5,14.5C 229.017,15.2993 227.017,17.4659 226.5,21C 220.643,22.5184 217.476,26.3518 217,32.5C 215.084,33.9278 212.917,34.9278 210.5,35.5C 209.811,37.5223 208.478,38.8556 206.5,39.5C 206.408,36.4367 207.408,33.4367 209.5,30.5C 210.776,29.3554 212.109,29.3554 213.5,30.5C 216.8,24.9054 220.8,19.9054 225.5,15.5C 228.484,15.2132 229.817,13.5465 229.5,10.5C 231.5,10.5 233.5,10.5 235.5,10.5C 235.384,7.08968 237.05,5.75635 240.5,6.5 Z"/></g>
<g><path style="opacity:1" fill="#8f908f" d="M 48.5,-0.5 C 51.8333,-0.5 55.1667,-0.5 58.5,-0.5C 58.5,13.5 58.5,27.5 58.5,41.5C 57.5041,41.4142 56.6708,41.7476 56,42.5C 55.5065,44.1341 55.3398,45.8008 55.5,47.5C 46.1667,47.5 36.8333,47.5 27.5,47.5C 25.8333,47.5 24.1667,47.5 22.5,47.5C 23.3414,45.6208 23.6747,43.6208 23.5,41.5C 24.8734,41.6567 26.2068,41.49 27.5,41C 28.8333,40 28.8333,39 27.5,38C 28.7932,37.51 30.1266,37.3433 31.5,37.5C 31.0217,34.7224 32.0217,32.7224 34.5,31.5C 35.3214,28.5535 35.8214,25.5535 36,22.5C 41.5841,17.7882 44.4175,11.7882 44.5,4.5C 47.4701,4.25422 48.8034,2.58755 48.5,-0.5 Z"/></g>
<g><path style="opacity:1" fill="#64a0a7" d="M 25.5,-0.5 C 33.1667,-0.5 40.8333,-0.5 48.5,-0.5C 48.8034,2.58755 47.4701,4.25422 44.5,4.5C 44.4175,11.7882 41.5841,17.7882 36,22.5C 35.8214,25.5535 35.3214,28.5535 34.5,31.5C 32.0217,32.7224 31.0217,34.7224 31.5,37.5C 30.1266,37.3433 28.7932,37.51 27.5,38C 28.8333,39 28.8333,40 27.5,41C 26.2068,41.49 24.8734,41.6567 23.5,41.5C 23.6747,43.6208 23.3414,45.6208 22.5,47.5C 22.1667,47.5 21.8333,47.5 21.5,47.5C 21.6073,43.4649 21.2739,39.4649 20.5,35.5C 20.4858,33.3887 21.1525,31.5553 22.5,30C 21.6394,26.8632 20.9728,23.6965 20.5,20.5C 21.8333,20.5 23.1667,20.5 24.5,20.5C 23.8588,17.5034 22.5255,14.8367 20.5,12.5C 20.7189,10.0847 22.0523,9.08467 24.5,9.5C 25.2071,6.21389 25.5405,2.88055 25.5,-0.5 Z"/></g>
<g><path style="opacity:1" fill="#141b22" d="M 110.5,27.5 C 117.833,27.5 125.167,27.5 132.5,27.5C 142.659,28.3303 152.992,28.8303 163.5,29C 148.158,29.4695 132.825,30.1361 117.5,31C 140.831,31.5 164.164,31.6666 187.5,31.5C 187.5,32.5 187.5,33.5 187.5,34.5C 167.326,34.1695 147.326,34.5029 127.5,35.5C 126.5,35.5 125.5,35.5 124.5,35.5C 124.5,38.5 124.5,41.5 124.5,44.5C 121.833,44.5 119.167,44.5 116.5,44.5C 116.5,41.5 116.5,38.5 116.5,35.5C 110.5,35.5 104.5,35.5 98.5,35.5C 98.5,32.8333 98.5,30.1667 98.5,27.5C 102.5,27.5 106.5,27.5 110.5,27.5 Z"/></g>
<g><path style="opacity:1" fill="#141a2b" d="M 132.5,27.5 C 151.167,27.5 169.833,27.5 188.5,27.5C 188.5,30.1667 188.5,32.8333 188.5,35.5C 188.167,35.5 187.833,35.5 187.5,35.5C 167.5,35.5 147.5,35.5 127.5,35.5C 147.326,34.5029 167.326,34.1695 187.5,34.5C 187.5,33.5 187.5,32.5 187.5,31.5C 164.164,31.6666 140.831,31.5 117.5,31C 132.825,30.1361 148.158,29.4695 163.5,29C 152.992,28.8303 142.659,28.3303 132.5,27.5 Z"/></g>
<g><path style="opacity:1" fill="#296bcf" d="M 240.5,5.5 C 240.5,5.83333 240.5,6.16667 240.5,6.5C 237.05,5.75635 235.384,7.08968 235.5,10.5C 233.5,10.5 231.5,10.5 229.5,10.5C 229.817,13.5465 228.484,15.2132 225.5,15.5C 221.169,14.4511 219.003,16.1178 219,20.5C 218,21.1667 217,21.8333 216,22.5C 210.963,20.1929 208.629,21.8595 209,27.5C 205.724,28.7269 203.891,31.0603 203.5,34.5C 200.941,34.1984 198.607,34.5318 196.5,35.5C 193.833,35.5 191.167,35.5 188.5,35.5C 188.5,32.8333 188.5,30.1667 188.5,27.5C 189.161,28.7175 189.828,30.0508 190.5,31.5C 192.316,30.2651 193.983,30.2651 195.5,31.5C 197.607,32.4682 199.941,32.8016 202.5,32.5C 201.483,28.2194 203.15,25.886 207.5,25.5C 209.151,20.1688 212.817,18.1688 218.5,19.5C 218.5,17.5 218.5,15.5 218.5,13.5C 221.141,14.2631 223.808,14.4298 226.5,14C 227.859,12.7955 228.859,11.2955 229.5,9.5C 231.991,9.09061 233.991,7.92394 235.5,6C 237.134,5.50649 238.801,5.33982 240.5,5.5 Z"/></g>
<g><path style="opacity:1" fill="#2278d4" d="M 225.5,15.5 C 220.8,19.9054 216.8,24.9054 213.5,30.5C 212.109,29.3554 210.776,29.3554 209.5,30.5C 207.408,33.4367 206.408,36.4367 206.5,39.5C 203.728,40.3715 201.062,40.3715 198.5,39.5C 198.843,37.5168 198.176,36.1834 196.5,35.5C 198.607,34.5318 200.941,34.1984 203.5,34.5C 203.891,31.0603 205.724,28.7269 209,27.5C 208.629,21.8595 210.963,20.1929 216,22.5C 217,21.8333 218,21.1667 219,20.5C 219.003,16.1178 221.169,14.4511 225.5,15.5 Z"/></g>
<g><path style="opacity:1" fill="#a8727b" d="M 97.5,35.5 C 93.5,35.5 89.5,35.5 85.5,35.5C 85.33,34.1779 85.6634,33.0113 86.5,32C 89.8897,31.7537 93.223,31.2537 96.5,30.5C 97.4519,32.0453 97.7852,33.712 97.5,35.5 Z"/></g>
<g><path style="opacity:1" fill="#181b23" d="M 97.5,36.5 C 97.5,39.5 97.5,42.5 97.5,45.5C 92.1563,45.334 86.8229,45.5006 81.5,46C 80.5562,48.7191 80.2229,51.5525 80.5,54.5C 80.1667,54.5 79.8333,54.5 79.5,54.5C 76.8333,54.5 74.1667,54.5 71.5,54.5C 71.5,51.5 71.5,48.5 71.5,45.5C 74.1667,45.5 76.8333,45.5 79.5,45.5C 80.4767,42.7131 80.81,39.7131 80.5,36.5C 86.1667,36.5 91.8333,36.5 97.5,36.5 Z"/></g>
<g><path style="opacity:1" fill="#525e6f" d="M 186.5,36.5 C 186.833,36.5 187.167,36.5 187.5,36.5C 187.833,36.5 188.167,36.5 188.5,36.5C 188.5,39.5 188.5,42.5 188.5,45.5C 168.5,45.5 148.5,45.5 128.5,45.5C 128.838,42.8431 128.171,40.5098 126.5,38.5C 146.663,37.8333 166.663,37.1667 186.5,36.5 Z"/></g>
<g><path style="opacity:1" fill="#1690dd" d="M 247.5,20.5 C 250.084,21.0483 251.084,22.715 250.5,25.5C 251.822,25.33 252.989,25.6634 254,26.5C 255.114,30.2535 256.281,33.9202 257.5,37.5C 258.833,37.5 260.167,37.5 261.5,37.5C 260.916,40.285 261.916,41.9517 264.5,42.5C 264.5,43.8333 264.5,45.1667 264.5,46.5C 261.896,44.4 259.396,42.0666 257,39.5C 257.266,36.0992 255.766,34.4326 252.5,34.5C 252.643,32.7376 252.309,31.0709 251.5,29.5C 249.851,28.8524 248.518,27.8524 247.5,26.5C 248.819,24.4684 248.819,22.4684 247.5,20.5 Z"/></g>
<g><path style="opacity:1" fill="#234f7f" d="M 187.5,36.5 C 187.5,36.1667 187.5,35.8333 187.5,35.5C 187.833,35.5 188.167,35.5 188.5,35.5C 191.167,35.5 193.833,35.5 196.5,35.5C 198.176,36.1834 198.843,37.5168 198.5,39.5C 198.5,41.1667 198.5,42.8333 198.5,44.5C 197.527,42.0521 197.194,39.3854 197.5,36.5C 194.5,36.5 191.5,36.5 188.5,36.5C 188.167,36.5 187.833,36.5 187.5,36.5 Z"/></g>
<g><path style="opacity:1" fill="#79aba9" d="M 1.5,37.5 C 2.5,37.5 3.5,37.5 4.5,37.5C 4.5,38.5 4.5,39.5 4.5,40.5C 8.247,40.3924 11.9137,40.8924 15.5,42C 16.1383,43.7067 16.1383,45.54 15.5,47.5C 17.5,47.5 19.5,47.5 21.5,47.5C 20.6256,50.8968 19.4589,54.2301 18,57.5C 12.0958,63.3039 8.2625,70.3039 6.5,78.5C 4.81523,79.9527 3.14856,81.286 1.5,82.5C 1.5,67.5 1.5,52.5 1.5,37.5 Z"/></g>
<g><path style="opacity:1" fill="#4b5563" d="M 186.5,36.5 C 166.663,37.1667 146.663,37.8333 126.5,38.5C 128.171,40.5098 128.838,42.8431 128.5,45.5C 148.5,45.5 168.5,45.5 188.5,45.5C 191.5,45.5 194.5,45.5 197.5,45.5C 197.5,57.8333 197.5,70.1667 197.5,82.5C 192.167,82.5 186.833,82.5 181.5,82.5C 181.666,78.1539 181.499,73.8206 181,69.5C 177.194,72.5743 175.361,71.5743 175.5,66.5C 174.448,66.6495 173.448,66.4828 172.5,66C 175.146,65.5026 177.813,65.3359 180.5,65.5C 180.797,61.2325 180.464,57.0659 179.5,53C 171.675,50.6615 168.342,53.4948 169.5,61.5C 168.5,61.5 167.5,61.5 166.5,61.5C 166.785,59.712 166.452,58.0453 165.5,56.5C 164.833,58.5 164.167,60.5 163.5,62.5C 162.516,59.5719 162.183,56.5719 162.5,53.5C 158.958,53.1872 155.625,53.5206 152.5,54.5C 151.506,63.6517 151.173,72.985 151.5,82.5C 148.833,82.5 146.167,82.5 143.5,82.5C 140.5,82.5 137.5,82.5 134.5,82.5C 134.5,85.5 134.5,88.5 134.5,91.5C 128.5,91.5 122.5,91.5 116.5,91.5C 116.5,76.1667 116.5,60.8333 116.5,45.5C 119.5,45.5 122.5,45.5 125.5,45.5C 125.5,42.5 125.5,39.5 125.5,36.5C 145.833,36.5 166.167,36.5 186.5,36.5 Z"/></g>
<g><path style="opacity:1" fill="#c79d85" d="M 58.5,41.5 C 58.5,43.5 58.5,45.5 58.5,47.5C 59.3897,49.7819 59.5564,52.1152 59,54.5C 57.5549,57.0904 56.3882,59.757 55.5,62.5C 57.1667,62.5 58.8333,62.5 60.5,62.5C 60.1984,59.9407 60.5318,57.6074 61.5,55.5C 61.5,58.1667 61.5,60.8333 61.5,63.5C 58.5,63.5 55.5,63.5 52.5,63.5C 52.5,78.8333 52.5,94.1667 52.5,109.5C 52.5,109.833 52.5,110.167 52.5,110.5C 51.5088,103.687 51.1755,96.6866 51.5,89.5C 51.7003,83.4384 50.7003,77.7718 48.5,72.5C 46.5,72.5 44.5,72.5 42.5,72.5C 42.8333,69.5 41.5,68.1667 38.5,68.5C 38.5,66.8333 38.5,65.1667 38.5,63.5C 36.4727,63.6621 34.4727,63.4955 32.5,63C 31.8129,60.081 30.8129,57.2477 29.5,54.5C 27.9547,53.5481 26.288,53.2148 24.5,53.5C 24.5,58.1667 24.5,62.8333 24.5,67.5C 20.9711,66.3908 20.6378,64.5575 23.5,62C 22.9781,61.4387 22.6448,60.772 22.5,60C 23.2181,56.5395 23.7181,53.0395 24,49.5C 25.3024,48.9152 26.469,48.2485 27.5,47.5C 36.8333,47.5 46.1667,47.5 55.5,47.5C 55.3398,45.8008 55.5065,44.1341 56,42.5C 56.6708,41.7476 57.5041,41.4142 58.5,41.5 Z"/></g>
<g><path style="opacity:1" fill="#07203d" d="M 198.5,45.5 C 201.167,45.5 203.833,45.5 206.5,45.5C 206.5,55.1667 206.5,64.8333 206.5,74.5C 205.506,65.3483 205.173,56.015 205.5,46.5C 202.941,46.8016 200.607,46.4682 198.5,45.5 Z"/></g>
<g><path style="opacity:1" fill="#aa7978" d="M 79.5,45.5 C 76.8333,45.5 74.1667,45.5 71.5,45.5C 70.5233,48.2869 70.19,51.2869 70.5,54.5C 67.5,54.5 64.5,54.5 61.5,54.5C 62.9516,53.6981 64.6183,53.1981 66.5,53C 65.5939,51.3005 65.2606,49.4672 65.5,47.5C 63.1667,47.5 60.8333,47.5 58.5,47.5C 58.5,45.5 58.5,43.5 58.5,41.5C 59.8333,41.5 61.1667,41.5 62.5,41.5C 65.8499,41.665 69.1832,41.4983 72.5,41C 73.3366,39.9887 73.67,38.8221 73.5,37.5C 75.5,37.5 77.5,37.5 79.5,37.5C 79.5,40.1667 79.5,42.8333 79.5,45.5 Z"/></g>
<g><path style="opacity:1" fill="#d3967c" d="M 58.5,47.5 C 60.8333,47.5 63.1667,47.5 65.5,47.5C 65.2606,49.4672 65.5939,51.3005 66.5,53C 64.6183,53.1981 62.9516,53.6981 61.5,54.5C 61.5,54.8333 61.5,55.1667 61.5,55.5C 60.5318,57.6074 60.1984,59.9407 60.5,62.5C 58.8333,62.5 57.1667,62.5 55.5,62.5C 56.3882,59.757 57.5549,57.0904 59,54.5C 59.5564,52.1152 59.3897,49.7819 58.5,47.5 Z"/></g>
<g><path style="opacity:1" fill="#141c23" d="M 134.5,91.5 C 137.5,91.5 140.5,91.5 143.5,91.5C 143.5,94.5 143.5,97.5 143.5,100.5C 173.99,101.773 204.323,101.773 234.5,100.5C 234.5,97.8333 234.5,95.1667 234.5,92.5C 237.167,92.5 239.833,92.5 242.5,92.5C 242.5,98.1667 242.5,103.833 242.5,109.5C 230.5,109.5 218.5,109.5 206.5,109.5C 205.833,109.5 205.167,109.5 204.5,109.5C 202.833,109.5 201.167,109.5 199.5,109.5C 155.14,108.826 110.64,108.159 66,107.5C 63.5661,108.322 61.0661,108.656 58.5,108.5C 59.1941,100.909 59.0275,92.9088 58,84.5C 57.5003,92.4931 57.3336,100.493 57.5,108.5C 56.5,108.5 55.5,108.5 54.5,108.5C 54.5,95.8333 54.5,83.1667 54.5,70.5C 55.8333,70.5 57.1667,70.5 58.5,70.5C 58.6495,69.448 58.4828,68.448 58,67.5C 56.9887,68.3366 55.8221,68.67 54.5,68.5C 54.5,67.5 54.5,66.5 54.5,65.5C 56.8333,65.5 59.1667,65.5 61.5,65.5C 61.5,77.1667 61.5,88.8333 61.5,100.5C 73.8333,100.5 86.1667,100.5 98.5,100.5C 98.5,85.5 98.5,70.5 98.5,55.5C 101.167,55.5 103.833,55.5 106.5,55.5C 106.5,70.5 106.5,85.5 106.5,100.5C 115.833,100.5 125.167,100.5 134.5,100.5C 134.5,97.5 134.5,94.5 134.5,91.5 Z"/></g>
<g><path style="opacity:1" fill="#bea48e" d="M 21.5,47.5 C 21.8333,47.5 22.1667,47.5 22.5,47.5C 24.1667,47.5 25.8333,47.5 27.5,47.5C 26.469,48.2485 25.3024,48.9152 24,49.5C 23.7181,53.0395 23.2181,56.5395 22.5,60C 22.6448,60.772 22.9781,61.4387 23.5,62C 20.6378,64.5575 20.9711,66.3908 24.5,67.5C 24.5,67.8333 24.5,68.1667 24.5,68.5C 25.3848,77.7503 25.3848,86.7503 24.5,95.5C 25.552,95.3505 26.552,95.5172 27.5,96C 29.9397,97.7743 31.6064,100.108 32.5,103C 31.3205,107.015 28.6538,108.848 24.5,108.5C 24.5,107.5 24.5,106.5 24.5,105.5C 20.723,104.006 16.723,103.339 12.5,103.5C 12.8752,98.5049 10.5418,96.5049 5.5,97.5C 5.5,95.8333 5.5,94.1667 5.5,92.5C 4.16667,92.5 2.83333,92.5 1.5,92.5C 1.5,89.1667 1.5,85.8333 1.5,82.5C 3.14856,81.286 4.81523,79.9527 6.5,78.5C 8.2625,70.3039 12.0958,63.3039 18,57.5C 19.4589,54.2301 20.6256,50.8968 21.5,47.5 Z"/></g>
<g><path style="opacity:1" fill="#5a4d67" d="M 181.5,82.5 C 181.167,82.5 180.833,82.5 180.5,82.5C 180.5,79.1667 180.5,75.8333 180.5,72.5C 177.5,72.5 174.5,72.5 171.5,72.5C 171.5,70.1667 171.5,67.8333 171.5,65.5C 173.948,64.5269 176.615,64.1936 179.5,64.5C 179.5,61.1667 179.5,57.8333 179.5,54.5C 176.813,54.3359 174.146,54.5026 171.5,55C 170.833,57.6667 170.167,60.3333 169.5,63C 166.854,63.4974 164.187,63.6641 161.5,63.5C 161.5,61.1667 161.5,58.8333 161.5,56.5C 159.012,54.6122 156.012,53.9455 152.5,54.5C 155.625,53.5206 158.958,53.1872 162.5,53.5C 162.183,56.5719 162.516,59.5719 163.5,62.5C 164.167,60.5 164.833,58.5 165.5,56.5C 166.452,58.0453 166.785,59.712 166.5,61.5C 167.5,61.5 168.5,61.5 169.5,61.5C 168.342,53.4948 171.675,50.6615 179.5,53C 180.464,57.0659 180.797,61.2325 180.5,65.5C 177.813,65.3359 175.146,65.5026 172.5,66C 173.448,66.4828 174.448,66.6495 175.5,66.5C 175.361,71.5743 177.194,72.5743 181,69.5C 181.499,73.8206 181.666,78.1539 181.5,82.5 Z"/></g>
<g><path style="opacity:1" fill="#8d4981" d="M 171.5,65.5 C 170.833,67.8333 170.167,70.1667 169.5,72.5C 169.5,69.8333 169.5,67.1667 169.5,64.5C 166.615,64.8064 163.948,64.4731 161.5,63.5C 164.187,63.6641 166.854,63.4974 169.5,63C 170.167,60.3333 170.833,57.6667 171.5,55C 174.146,54.5026 176.813,54.3359 179.5,54.5C 179.5,57.8333 179.5,61.1667 179.5,64.5C 176.615,64.1936 173.948,64.5269 171.5,65.5 Z"/></g>
<g><path style="opacity:1" fill="#b44197" d="M 171.5,56.5 C 173.833,56.5 176.167,56.5 178.5,56.5C 178.5,58.8333 178.5,61.1667 178.5,63.5C 176.167,63.5 173.833,63.5 171.5,63.5C 171.5,61.1667 171.5,58.8333 171.5,56.5 Z"/></g>
<g><path style="opacity:1" fill="#b74096" d="M 161.5,56.5 C 161.5,58.8333 161.5,61.1667 161.5,63.5C 163.948,64.4731 166.615,64.8064 169.5,64.5C 169.5,67.1667 169.5,69.8333 169.5,72.5C 166.833,72.5 164.167,72.5 161.5,72.5C 162.055,76.0122 161.388,79.0122 159.5,81.5C 157.5,81.5 155.5,81.5 153.5,81.5C 153.5,72.8333 153.5,64.1667 153.5,55.5C 156.279,55.2786 158.946,55.612 161.5,56.5 Z"/></g>
<g><path style="opacity:1" fill="#85497c" d="M 152.5,54.5 C 156.012,53.9455 159.012,54.6122 161.5,56.5C 158.946,55.612 156.279,55.2786 153.5,55.5C 153.5,64.1667 153.5,72.8333 153.5,81.5C 155.5,81.5 157.5,81.5 159.5,81.5C 159.5,81.8333 159.5,82.1667 159.5,82.5C 156.833,82.5 154.167,82.5 151.5,82.5C 151.173,72.985 151.506,63.6517 152.5,54.5 Z"/></g>
<g><path style="opacity:1" fill="#734976" d="M 171.5,65.5 C 171.5,67.8333 171.5,70.1667 171.5,72.5C 174.5,72.5 177.5,72.5 180.5,72.5C 180.5,75.8333 180.5,79.1667 180.5,82.5C 180.167,82.5 179.833,82.5 179.5,82.5C 179.806,79.6146 179.473,76.9479 178.5,74.5C 176.052,73.5269 173.385,73.1936 170.5,73.5C 170.5,76.1667 170.5,78.8333 170.5,81.5C 169.784,79.4437 169.117,77.277 168.5,75C 166.527,74.5045 164.527,74.3379 162.5,74.5C 162.5,77.1667 162.5,79.8333 162.5,82.5C 161.5,82.5 160.5,82.5 159.5,82.5C 159.5,82.1667 159.5,81.8333 159.5,81.5C 161.388,79.0122 162.055,76.0122 161.5,72.5C 164.167,72.5 166.833,72.5 169.5,72.5C 170.167,70.1667 170.833,67.8333 171.5,65.5 Z"/></g>
<g><path style="opacity:1" fill="#4d515f" d="M 170.5,81.5 C 170.5,81.8333 170.5,82.1667 170.5,82.5C 167.833,82.5 165.167,82.5 162.5,82.5C 162.5,79.8333 162.5,77.1667 162.5,74.5C 164.527,74.3379 166.527,74.5045 168.5,75C 169.117,77.277 169.784,79.4437 170.5,81.5 Z"/></g>
<g><path style="opacity:1" fill="#dba883" d="M 51.5,89.5 C 50.5,89.5 49.5,89.5 48.5,89.5C 48.9164,94.3261 47.4164,98.3261 44,101.5C 42.4168,107.083 41.2502,112.75 40.5,118.5C 40.0576,119.739 39.3909,120.739 38.5,121.5C 37.209,121.737 36.209,121.404 35.5,120.5C 35.5,120.167 35.5,119.833 35.5,119.5C 38.7819,117.079 39.1152,114.412 36.5,111.5C 35.6764,108.215 35.1764,104.882 35,101.5C 34,100.5 33,99.5 32,98.5C 31.1458,89.3654 29.8124,80.3654 28,71.5C 27.5776,69.5743 26.4109,68.5743 24.5,68.5C 24.5,68.1667 24.5,67.8333 24.5,67.5C 24.5,62.8333 24.5,58.1667 24.5,53.5C 26.288,53.2148 27.9547,53.5481 29.5,54.5C 30.8129,57.2477 31.8129,60.081 32.5,63C 34.4727,63.4955 36.4727,63.6621 38.5,63.5C 38.5,65.1667 38.5,66.8333 38.5,68.5C 41.5,68.1667 42.8333,69.5 42.5,72.5C 44.5,72.5 46.5,72.5 48.5,72.5C 50.7003,77.7718 51.7003,83.4384 51.5,89.5 Z"/></g>
<g><path style="opacity:1" fill="#07aada" d="M 264.5,77.5 C 264.5,97.8333 264.5,118.167 264.5,138.5C 263.735,137.34 262.735,136.34 261.5,135.5C 260.571,134.311 260.238,132.978 260.5,131.5C 259.167,131.5 257.833,131.5 256.5,131.5C 254.557,127.614 252.557,123.614 250.5,119.5C 250.334,115.486 250.501,111.486 251,107.5C 251.667,106.167 252.667,105.167 254,104.5C 254.333,101.5 254.667,98.5 255,95.5C 257.039,94.0217 257.872,92.0217 257.5,89.5C 258.822,89.67 259.989,89.3366 261,88.5C 261,85.8333 261,83.1667 261,80.5C 261.72,78.9443 262.887,77.9443 264.5,77.5 Z"/></g>
<g><path style="opacity:1" fill="#934680" d="M 178.5,74.5 C 179.473,76.9479 179.806,79.6146 179.5,82.5C 176.5,82.5 173.5,82.5 170.5,82.5C 170.5,82.1667 170.5,81.8333 170.5,81.5C 170.5,78.8333 170.5,76.1667 170.5,73.5C 173.385,73.1936 176.052,73.5269 178.5,74.5 Z"/></g>
<g><path style="opacity:1" fill="#b64193" d="M 178.5,74.5 C 178.5,76.8333 178.5,79.1667 178.5,81.5C 176.167,81.5 173.833,81.5 171.5,81.5C 171.5,79.1667 171.5,76.8333 171.5,74.5C 173.833,74.5 176.167,74.5 178.5,74.5 Z"/></g>
<g><path style="opacity:1" fill="#104b6b" d="M 206.5,45.5 C 207.495,57.6554 207.829,69.9887 207.5,82.5C 216.5,82.5 225.5,82.5 234.5,82.5C 234.5,85.5 234.5,88.5 234.5,91.5C 234.167,91.5 233.833,91.5 233.5,91.5C 233.5,88.8333 233.5,86.1667 233.5,83.5C 224.5,83.5 215.5,83.5 206.5,83.5C 206.5,80.5 206.5,77.5 206.5,74.5C 206.5,64.8333 206.5,55.1667 206.5,45.5 Z"/></g>
<g><path style="opacity:1" fill="#151c26" d="M 188.5,36.5 C 191.5,36.5 194.5,36.5 197.5,36.5C 197.194,39.3854 197.527,42.0521 198.5,44.5C 198.5,44.8333 198.5,45.1667 198.5,45.5C 200.607,46.4682 202.941,46.8016 205.5,46.5C 205.173,56.015 205.506,65.3483 206.5,74.5C 206.5,77.5 206.5,80.5 206.5,83.5C 215.5,83.5 224.5,83.5 233.5,83.5C 233.5,86.1667 233.5,88.8333 233.5,91.5C 206.5,91.5 179.5,91.5 152.5,91.5C 149.5,91.5 146.5,91.5 143.5,91.5C 143.5,88.5 143.5,85.5 143.5,82.5C 146.167,82.5 148.833,82.5 151.5,82.5C 154.167,82.5 156.833,82.5 159.5,82.5C 160.5,82.5 161.5,82.5 162.5,82.5C 165.167,82.5 167.833,82.5 170.5,82.5C 173.5,82.5 176.5,82.5 179.5,82.5C 179.833,82.5 180.167,82.5 180.5,82.5C 180.833,82.5 181.167,82.5 181.5,82.5C 186.833,82.5 192.167,82.5 197.5,82.5C 197.5,70.1667 197.5,57.8333 197.5,45.5C 194.5,45.5 191.5,45.5 188.5,45.5C 188.5,42.5 188.5,39.5 188.5,36.5 Z"/></g>
<g><path style="opacity:1" fill="#323840" d="M 143.5,82.5 C 143.5,85.5 143.5,88.5 143.5,91.5C 140.5,91.5 137.5,91.5 134.5,91.5C 134.5,88.5 134.5,85.5 134.5,82.5C 137.5,82.5 140.5,82.5 143.5,82.5 Z"/></g>
<g><path style="opacity:1" fill="#0db2e0" d="M 264.5,62.5 C 264.5,67.5 264.5,72.5 264.5,77.5C 262.887,77.9443 261.72,78.9443 261,80.5C 261,83.1667 261,85.8333 261,88.5C 259.989,89.3366 258.822,89.67 257.5,89.5C 257.872,92.0217 257.039,94.0217 255,95.5C 254.667,98.5 254.333,101.5 254,104.5C 252.667,105.167 251.667,106.167 251,107.5C 250.501,111.486 250.334,115.486 250.5,119.5C 249.022,118.552 248.022,117.219 247.5,115.5C 247.817,111.828 246.151,110.162 242.5,110.5C 242.5,110.167 242.5,109.833 242.5,109.5C 243.49,103.69 243.823,97.69 243.5,91.5C 242.5,91.5 241.5,91.5 240.5,91.5C 241.038,89.8828 241.371,88.2161 241.5,86.5C 243.143,86.5198 244.476,85.8532 245.5,84.5C 246.769,82.3052 246.769,80.1385 245.5,78C 248.053,76.3437 250.719,76.177 253.5,77.5C 253.5,75.8333 253.5,74.1667 253.5,72.5C 254.5,72.5 255.5,72.5 256.5,72.5C 256.5,71.1667 256.5,69.8333 256.5,68.5C 257.873,68.6567 259.207,68.49 260.5,68C 261.977,66.1879 263.31,64.3545 264.5,62.5 Z"/></g>
<g><path style="opacity:1" fill="#5c4539" d="M 61.5,63.5 C 61.5,63.8333 61.5,64.1667 61.5,64.5C 58.8333,64.5 56.1667,64.5 53.5,64.5C 53.5,79.5 53.5,94.5 53.5,109.5C 53.1667,109.5 52.8333,109.5 52.5,109.5C 52.5,94.1667 52.5,78.8333 52.5,63.5C 55.5,63.5 58.5,63.5 61.5,63.5 Z"/></g>
<g><path style="opacity:1" fill="#48515f" d="M 152.5,91.5 C 179.5,91.5 206.5,91.5 233.5,91.5C 233.833,91.5 234.167,91.5 234.5,91.5C 234.5,91.8333 234.5,92.1667 234.5,92.5C 234.5,95.1667 234.5,97.8333 234.5,100.5C 207.167,100.5 179.833,100.5 152.5,100.5C 152.5,97.5 152.5,94.5 152.5,91.5 Z"/></g>
<g><path style="opacity:1" fill="#0c5b73" d="M 234.5,92.5 C 234.5,92.1667 234.5,91.8333 234.5,91.5C 236.5,91.5 238.5,91.5 240.5,91.5C 241.5,91.5 242.5,91.5 243.5,91.5C 243.823,97.69 243.49,103.69 242.5,109.5C 242.5,103.833 242.5,98.1667 242.5,92.5C 239.833,92.5 237.167,92.5 234.5,92.5 Z"/></g>
<g><path style="opacity:1" fill="#31373f" d="M 97.5,35.5 C 97.8333,35.5 98.1667,35.5 98.5,35.5C 104.5,35.5 110.5,35.5 116.5,35.5C 116.5,38.5 116.5,41.5 116.5,44.5C 119.167,44.5 121.833,44.5 124.5,44.5C 124.5,41.5 124.5,38.5 124.5,35.5C 125.5,35.5 126.5,35.5 127.5,35.5C 147.5,35.5 167.5,35.5 187.5,35.5C 187.5,35.8333 187.5,36.1667 187.5,36.5C 187.167,36.5 186.833,36.5 186.5,36.5C 166.167,36.5 145.833,36.5 125.5,36.5C 125.5,39.5 125.5,42.5 125.5,45.5C 122.5,45.5 119.5,45.5 116.5,45.5C 116.5,60.8333 116.5,76.1667 116.5,91.5C 122.5,91.5 128.5,91.5 134.5,91.5C 134.5,94.5 134.5,97.5 134.5,100.5C 125.167,100.5 115.833,100.5 106.5,100.5C 106.5,85.5 106.5,70.5 106.5,55.5C 103.833,55.5 101.167,55.5 98.5,55.5C 98.5,70.5 98.5,85.5 98.5,100.5C 86.1667,100.5 73.8333,100.5 61.5,100.5C 61.5,88.8333 61.5,77.1667 61.5,65.5C 61.5,65.1667 61.5,64.8333 61.5,64.5C 61.5,64.1667 61.5,63.8333 61.5,63.5C 61.5,60.8333 61.5,58.1667 61.5,55.5C 61.5,55.1667 61.5,54.8333 61.5,54.5C 64.5,54.5 67.5,54.5 70.5,54.5C 70.19,51.2869 70.5233,48.2869 71.5,45.5C 71.5,48.5 71.5,51.5 71.5,54.5C 74.1667,54.5 76.8333,54.5 79.5,54.5C 79.5,57.5 79.5,60.5 79.5,63.5C 76.5,63.5 73.5,63.5 70.5,63.5C 70.5,72.8333 70.5,82.1667 70.5,91.5C 79.5,91.5 88.5,91.5 97.5,91.5C 97.5,79.1667 97.5,66.8333 97.5,54.5C 100.5,54.5 103.5,54.5 106.5,54.5C 106.5,51.5 106.5,48.5 106.5,45.5C 103.5,45.5 100.5,45.5 97.5,45.5C 97.5,42.5 97.5,39.5 97.5,36.5C 97.5,36.1667 97.5,35.8333 97.5,35.5 Z"/></g>
<g><path style="opacity:1" fill="#171a20" d="M 70.5,63.5 C 67.8333,63.5 65.1667,63.5 62.5,63.5C 62.5,60.8333 62.5,58.1667 62.5,55.5C 65.1667,55.5 67.8333,55.5 70.5,55.5C 70.5,58.1667 70.5,60.8333 70.5,63.5 Z"/></g>
<g><path style="opacity:1" fill="#4a5361" d="M 79.5,54.5 C 79.8333,54.5 80.1667,54.5 80.5,54.5C 86.1667,54.5 91.8333,54.5 97.5,54.5C 97.5,66.8333 97.5,79.1667 97.5,91.5C 88.5,91.5 79.5,91.5 70.5,91.5C 70.5,82.1667 70.5,72.8333 70.5,63.5C 73.5,63.5 76.5,63.5 79.5,63.5C 79.5,60.5 79.5,57.5 79.5,54.5 Z"/></g>
<g><path style="opacity:1" fill="#323841" d="M 97.5,45.5 C 97.5,48.5 97.5,51.5 97.5,54.5C 91.8333,54.5 86.1667,54.5 80.5,54.5C 80.2229,51.5525 80.5562,48.7191 81.5,46C 86.8229,45.5006 92.1563,45.334 97.5,45.5 Z"/></g>
<g><path style="opacity:1" fill="#141b23" d="M 107.5,45.5 C 110.167,45.5 112.833,45.5 115.5,45.5C 115.5,48.5 115.5,51.5 115.5,54.5C 112.833,54.5 110.167,54.5 107.5,54.5C 107.5,51.5 107.5,48.5 107.5,45.5 Z"/></g>
<g><path style="opacity:1" fill="#49525f" d="M 97.5,45.5 C 100.5,45.5 103.5,45.5 106.5,45.5C 106.5,48.5 106.5,51.5 106.5,54.5C 103.5,54.5 100.5,54.5 97.5,54.5C 97.5,51.5 97.5,48.5 97.5,45.5 Z"/></g>
<g><path style="opacity:1" fill="#535d6f" d="M 197.5,92.5 C 209.5,92.5 221.5,92.5 233.5,92.5C 233.326,94.861 232.993,97.1944 232.5,99.5C 220.833,99.5 209.167,99.5 197.5,99.5C 197.5,97.1667 197.5,94.8333 197.5,92.5 Z"/></g>
<g><path style="opacity:1" fill="#d3887b" d="M 1.5,94.5 C 4.08382,95.0483 5.08382,96.715 4.5,99.5C 6.19919,99.3398 7.86586,99.5065 9.5,100C 10.5,101.667 11.5,103.333 12.5,105C 14.8333,105.333 17.1667,105.667 19.5,106C 20.8333,106.667 21.8333,107.667 22.5,109C 26.8822,109.003 28.5489,111.169 27.5,115.5C 30.1667,115.5 32.8333,115.5 35.5,115.5C 35.5,116.833 35.5,118.167 35.5,119.5C 35.5,119.833 35.5,120.167 35.5,120.5C 33.9217,121.066 32.5884,122.066 31.5,123.5C 30.9001,127.35 29.7334,131.017 28,134.5C 25.8526,135.113 23.686,135.779 21.5,136.5C 20.3514,140.792 18.1848,144.459 15,147.5C 14.5065,149.134 14.3398,150.801 14.5,152.5C 13.5,152.5 12.5,152.5 11.5,152.5C 11.6728,157.323 9.33943,159.323 4.5,158.5C 4.56745,159.959 4.23411,161.292 3.5,162.5C 2.83333,162.5 2.16667,162.5 1.5,162.5C 1.5,139.833 1.5,117.167 1.5,94.5 Z"/></g>
<g><path style="opacity:1" fill="#2b333c" d="M 143.5,91.5 C 146.5,91.5 149.5,91.5 152.5,91.5C 152.5,94.5 152.5,97.5 152.5,100.5C 179.833,100.5 207.167,100.5 234.5,100.5C 204.323,101.773 173.99,101.773 143.5,100.5C 143.5,97.5 143.5,94.5 143.5,91.5 Z"/></g>
<g><path style="opacity:1" fill="#c4a18a" d="M 24.5,68.5 C 26.4109,68.5743 27.5776,69.5743 28,71.5C 29.8124,80.3654 31.1458,89.3654 32,98.5C 33,99.5 34,100.5 35,101.5C 35.1764,104.882 35.6764,108.215 36.5,111.5C 39.1152,114.412 38.7819,117.079 35.5,119.5C 35.5,118.167 35.5,116.833 35.5,115.5C 32.8333,115.5 30.1667,115.5 27.5,115.5C 28.5489,111.169 26.8822,109.003 22.5,109C 21.8333,107.667 20.8333,106.667 19.5,106C 17.1667,105.667 14.8333,105.333 12.5,105C 11.5,103.333 10.5,101.667 9.5,100C 7.86586,99.5065 6.19919,99.3398 4.5,99.5C 5.08382,96.715 4.08382,95.0483 1.5,94.5C 1.5,93.8333 1.5,93.1667 1.5,92.5C 2.83333,92.5 4.16667,92.5 5.5,92.5C 5.5,94.1667 5.5,95.8333 5.5,97.5C 10.5418,96.5049 12.8752,98.5049 12.5,103.5C 16.723,103.339 20.723,104.006 24.5,105.5C 24.5,106.5 24.5,107.5 24.5,108.5C 28.6538,108.848 31.3205,107.015 32.5,103C 31.6064,100.108 29.9397,97.7743 27.5,96C 26.552,95.5172 25.552,95.3505 24.5,95.5C 25.3848,86.7503 25.3848,77.7503 24.5,68.5 Z"/></g>
<g><path style="opacity:1" fill="#181b1c" d="M 61.5,64.5 C 61.5,64.8333 61.5,65.1667 61.5,65.5C 59.1667,65.5 56.8333,65.5 54.5,65.5C 54.5,66.5 54.5,67.5 54.5,68.5C 55.8221,68.67 56.9887,68.3366 58,67.5C 58.4828,68.448 58.6495,69.448 58.5,70.5C 57.1667,70.5 55.8333,70.5 54.5,70.5C 54.5,83.1667 54.5,95.8333 54.5,108.5C 55.5,108.5 56.5,108.5 57.5,108.5C 57.3336,100.493 57.5003,92.4931 58,84.5C 59.0275,92.9088 59.1941,100.909 58.5,108.5C 61.0661,108.656 63.5661,108.322 66,107.5C 110.64,108.159 155.14,108.826 199.5,109.5C 156.5,109.5 113.5,109.5 70.5,109.5C 64.8333,109.5 59.1667,109.5 53.5,109.5C 53.5,94.5 53.5,79.5 53.5,64.5C 56.1667,64.5 58.8333,64.5 61.5,64.5 Z"/></g>
<g><path style="opacity:1" fill="#695336" d="M 53.5,109.5 C 59.1667,109.5 64.8333,109.5 70.5,109.5C 70.5,109.833 70.5,110.167 70.5,110.5C 67.5,110.5 64.5,110.5 61.5,110.5C 61.5,113.5 61.5,116.5 61.5,119.5C 58.8333,119.5 56.1667,119.5 53.5,119.5C 53.5,116.167 53.5,112.833 53.5,109.5 Z"/></g>
<g><path style="opacity:1" fill="#378d99" d="M 206.5,109.5 C 218.5,109.5 230.5,109.5 242.5,109.5C 242.5,109.833 242.5,110.167 242.5,110.5C 230.833,110.5 219.167,110.5 207.5,110.5C 207.5,113.167 207.5,115.833 207.5,118.5C 210.385,118.194 213.052,118.527 215.5,119.5C 212.833,119.5 210.167,119.5 207.5,119.5C 207.167,119.5 206.833,119.5 206.5,119.5C 206.5,116.167 206.5,112.833 206.5,109.5 Z"/></g>
<g><path style="opacity:1" fill="#c6ae8f" d="M 70.5,110.5 C 112.833,110.5 155.167,110.5 197.5,110.5C 197.5,112.167 197.5,113.833 197.5,115.5C 155.167,115.5 112.833,115.5 70.5,115.5C 70.5,113.833 70.5,112.167 70.5,110.5 Z"/></g>
<g><path style="opacity:1" fill="#0fcae3" d="M 247.5,115.5 C 247.828,120.875 247.495,126.208 246.5,131.5C 245.575,130.359 244.741,130.359 244,131.5C 243.667,137.833 243.333,144.167 243,150.5C 242.101,152.327 240.767,153.66 239,154.5C 235.727,152.687 233.394,150.021 232,146.5C 230.786,144.951 229.286,143.785 227.5,143C 229.256,142.798 230.922,142.298 232.5,141.5C 230.076,140.648 227.742,139.648 225.5,138.5C 225.5,138.167 225.5,137.833 225.5,137.5C 226.118,131.893 227.118,126.227 228.5,120.5C 227.975,119.808 227.308,119.308 226.5,119C 230.387,117.771 234.387,117.604 238.5,118.5C 238.5,116.833 238.5,115.167 238.5,113.5C 241.697,113.405 244.697,114.072 247.5,115.5 Z"/></g>
<g><path style="opacity:1" fill="#e7a97d" d="M 51.5,89.5 C 51.1755,96.6866 51.5088,103.687 52.5,110.5C 52.5,113.5 52.5,116.5 52.5,119.5C 49.5,119.5 46.5,119.5 43.5,119.5C 43.5,122.5 43.5,125.5 43.5,128.5C 42.6862,130.631 42.1862,132.964 42,135.5C 41.7586,132.711 41.092,130.044 40,127.5C 38.7025,128.784 37.5358,128.617 36.5,127C 38.1922,125.599 38.8588,123.766 38.5,121.5C 39.3909,120.739 40.0576,119.739 40.5,118.5C 41.2502,112.75 42.4168,107.083 44,101.5C 47.4164,98.3261 48.9164,94.3261 48.5,89.5C 49.5,89.5 50.5,89.5 51.5,89.5 Z"/></g>
<g><path style="opacity:1" fill="#cdae83" d="M 70.5,115.5 C 112.833,115.5 155.167,115.5 197.5,115.5C 197.5,116.5 197.5,117.5 197.5,118.5C 155.167,118.5 112.833,118.5 70.5,118.5C 70.5,117.5 70.5,116.5 70.5,115.5 Z"/></g>
<g><path style="opacity:1" fill="#426351" d="M 204.5,109.5 C 205.167,109.5 205.833,109.5 206.5,109.5C 206.5,112.833 206.5,116.167 206.5,119.5C 206.167,119.5 205.833,119.5 205.5,119.5C 205.747,116.061 205.414,112.728 204.5,109.5 Z"/></g>
<g><path style="opacity:1" fill="#736248" d="M 70.5,110.5 C 70.5,110.167 70.5,109.833 70.5,109.5C 113.5,109.5 156.5,109.5 199.5,109.5C 201.167,109.5 202.833,109.5 204.5,109.5C 205.414,112.728 205.747,116.061 205.5,119.5C 202.615,119.806 199.948,119.473 197.5,118.5C 197.5,117.5 197.5,116.5 197.5,115.5C 197.5,113.833 197.5,112.167 197.5,110.5C 155.167,110.5 112.833,110.5 70.5,110.5 Z"/></g>
<g><path style="opacity:1" fill="#12bedf" d="M 247.5,115.5 C 248.022,117.219 249.022,118.552 250.5,119.5C 252.557,123.614 254.557,127.614 256.5,131.5C 257.833,131.5 259.167,131.5 260.5,131.5C 260.238,132.978 260.571,134.311 261.5,135.5C 262.735,136.34 263.735,137.34 264.5,138.5C 264.5,143.167 264.5,147.833 264.5,152.5C 263.167,152.5 261.833,152.5 260.5,152.5C 260.5,154.167 260.5,155.833 260.5,157.5C 254.773,157.74 249.106,157.407 243.5,156.5C 243.167,156.5 242.833,156.5 242.5,156.5C 234.016,155.507 225.349,155.174 216.5,155.5C 216.5,149.833 216.5,144.167 216.5,138.5C 219.5,138.5 222.5,138.5 225.5,138.5C 227.742,139.648 230.076,140.648 232.5,141.5C 230.922,142.298 229.256,142.798 227.5,143C 229.286,143.785 230.786,144.951 232,146.5C 233.394,150.021 235.727,152.687 239,154.5C 240.767,153.66 242.101,152.327 243,150.5C 243.333,144.167 243.667,137.833 244,131.5C 244.741,130.359 245.575,130.359 246.5,131.5C 247.495,126.208 247.828,120.875 247.5,115.5 Z"/></g>
<g><path style="opacity:1" fill="#9d8565" d="M 52.5,109.5 C 52.8333,109.5 53.1667,109.5 53.5,109.5C 53.5,112.833 53.5,116.167 53.5,119.5C 56.1667,119.5 58.8333,119.5 61.5,119.5C 61.5,116.5 61.5,113.5 61.5,110.5C 64.5,110.5 67.5,110.5 70.5,110.5C 70.5,112.167 70.5,113.833 70.5,115.5C 70.5,116.5 70.5,117.5 70.5,118.5C 70.5,121.5 70.5,124.5 70.5,127.5C 115.833,127.5 161.167,127.5 206.5,127.5C 206.5,127.833 206.5,128.167 206.5,128.5C 155.167,128.5 103.833,128.5 52.5,128.5C 52.5,125.5 52.5,122.5 52.5,119.5C 52.5,116.5 52.5,113.5 52.5,110.5C 52.5,110.167 52.5,109.833 52.5,109.5 Z"/></g>
<g><path style="opacity:1" fill="#436759" d="M 207.5,119.5 C 210.167,119.5 212.833,119.5 215.5,119.5C 215.5,122.5 215.5,125.5 215.5,128.5C 215.167,128.5 214.833,128.5 214.5,128.5C 214.5,125.833 214.5,123.167 214.5,120.5C 211.941,120.802 209.607,120.468 207.5,119.5 Z"/></g>
<g><path style="opacity:1" fill="#c6b08c" d="M 70.5,118.5 C 112.833,118.5 155.167,118.5 197.5,118.5C 199.948,119.473 202.615,119.806 205.5,119.5C 205.833,119.5 206.167,119.5 206.5,119.5C 206.5,122.167 206.5,124.833 206.5,127.5C 161.167,127.5 115.833,127.5 70.5,127.5C 70.5,124.5 70.5,121.5 70.5,118.5 Z"/></g>
<g><path style="opacity:1" fill="#66583b" d="M 206.5,119.5 C 206.833,119.5 207.167,119.5 207.5,119.5C 209.607,120.468 211.941,120.802 214.5,120.5C 214.5,123.167 214.5,125.833 214.5,128.5C 211.833,128.5 209.167,128.5 206.5,128.5C 206.5,128.167 206.5,127.833 206.5,127.5C 206.5,124.833 206.5,122.167 206.5,119.5 Z"/></g>
<g><path style="opacity:1" fill="#1ac2de" d="M 242.5,110.5 C 246.151,110.162 247.817,111.828 247.5,115.5C 244.697,114.072 241.697,113.405 238.5,113.5C 238.5,115.167 238.5,116.833 238.5,118.5C 234.387,117.604 230.387,117.771 226.5,119C 227.308,119.308 227.975,119.808 228.5,120.5C 227.118,126.227 226.118,131.893 225.5,137.5C 225.5,134.5 225.5,131.5 225.5,128.5C 222.713,127.523 219.713,127.19 216.5,127.5C 216.806,124.615 216.473,121.948 215.5,119.5C 213.052,118.527 210.385,118.194 207.5,118.5C 207.5,115.833 207.5,113.167 207.5,110.5C 219.167,110.5 230.833,110.5 242.5,110.5 Z"/></g>
<g><path style="opacity:1" fill="#ea9675" d="M 35.5,120.5 C 36.209,121.404 37.209,121.737 38.5,121.5C 38.8588,123.766 38.1922,125.599 36.5,127C 37.5358,128.617 38.7025,128.784 40,127.5C 41.092,130.044 41.7586,132.711 42,135.5C 42.1862,132.964 42.6862,130.631 43.5,128.5C 43.5,131.5 43.5,134.5 43.5,137.5C 40.5,137.5 37.5,137.5 34.5,137.5C 34.5,140.5 34.5,143.5 34.5,146.5C 31.2869,146.19 28.2869,146.523 25.5,147.5C 25.5,150.5 25.5,153.5 25.5,156.5C 28.1667,156.5 30.8333,156.5 33.5,156.5C 28.4174,158.078 23.084,158.745 17.5,158.5C 17.5,159.833 17.5,161.167 17.5,162.5C 12.8333,162.5 8.16667,162.5 3.5,162.5C 4.23411,161.292 4.56745,159.959 4.5,158.5C 9.33943,159.323 11.6728,157.323 11.5,152.5C 12.5,152.5 13.5,152.5 14.5,152.5C 14.3398,150.801 14.5065,149.134 15,147.5C 18.1848,144.459 20.3514,140.792 21.5,136.5C 23.686,135.779 25.8526,135.113 28,134.5C 29.7334,131.017 30.9001,127.35 31.5,123.5C 32.5884,122.066 33.9217,121.066 35.5,120.5 Z"/></g>
<g><path style="opacity:1" fill="#2e97ab" d="M 215.5,119.5 C 216.473,121.948 216.806,124.615 216.5,127.5C 219.713,127.19 222.713,127.523 225.5,128.5C 222.5,128.5 219.5,128.5 216.5,128.5C 216.167,128.5 215.833,128.5 215.5,128.5C 215.5,125.5 215.5,122.5 215.5,119.5 Z"/></g>
<g><path style="opacity:1" fill="#110f0f" d="M 52.5,128.5 C 103.833,128.5 155.167,128.5 206.5,128.5C 209.167,128.5 211.833,128.5 214.5,128.5C 214.833,128.5 215.167,128.5 215.5,128.5C 215.833,128.5 216.167,128.5 216.5,128.5C 218.948,129.473 221.615,129.806 224.5,129.5C 224.5,132.167 224.5,134.833 224.5,137.5C 221.5,137.5 218.5,137.5 215.5,137.5C 215.5,143.833 215.5,150.167 215.5,156.5C 215.167,156.5 214.833,156.5 214.5,156.5C 211.941,156.802 209.607,156.468 207.5,155.5C 207.5,152.5 207.5,149.5 207.5,146.5C 204.5,146.5 201.5,146.5 198.5,146.5C 198.5,143.5 198.5,140.5 198.5,137.5C 195.167,137.5 191.833,137.5 188.5,137.5C 188.5,140.833 188.5,144.167 188.5,147.5C 191.5,147.5 194.5,147.5 197.5,147.5C 197.5,150.5 197.5,153.5 197.5,156.5C 200.5,156.5 203.5,156.5 206.5,156.5C 206.5,159.167 206.5,161.833 206.5,164.5C 194.833,164.5 183.167,164.5 171.5,164.5C 171.806,161.615 171.473,158.948 170.5,156.5C 168.052,155.527 165.385,155.194 162.5,155.5C 162.81,152.287 162.477,149.287 161.5,146.5C 155.167,146.5 148.833,146.5 142.5,146.5C 142.5,149.5 142.5,152.5 142.5,155.5C 139.833,155.5 137.167,155.5 134.5,155.5C 134.5,152.5 134.5,149.5 134.5,146.5C 134.664,143.813 134.497,141.146 134,138.5C 131.281,137.556 128.448,137.223 125.5,137.5C 122.5,137.5 119.5,137.5 116.5,137.5C 115.521,140.625 115.187,143.958 115.5,147.5C 118.5,147.5 121.5,147.5 124.5,147.5C 124.5,150.5 124.5,153.5 124.5,156.5C 127.5,156.5 130.5,156.5 133.5,156.5C 133.5,159.167 133.5,161.833 133.5,164.5C 121.833,164.5 110.167,164.5 98.5,164.5C 98.8064,161.615 98.4731,158.948 97.5,156.5C 94.8333,156.5 92.1667,156.5 89.5,156.5C 89.5,153.167 89.5,149.833 89.5,146.5C 86.5,146.5 83.5,146.5 80.5,146.5C 80.5,143.5 80.5,140.5 80.5,137.5C 71.1667,137.5 61.8333,137.5 52.5,137.5C 49.8333,137.5 47.1667,137.5 44.5,137.5C 44.5,134.5 44.5,131.5 44.5,128.5C 47.1667,128.5 49.8333,128.5 52.5,128.5 Z"/></g>
<g><path style="opacity:1" fill="#104a5e" d="M 216.5,128.5 C 219.5,128.5 222.5,128.5 225.5,128.5C 225.5,131.5 225.5,134.5 225.5,137.5C 225.167,137.5 224.833,137.5 224.5,137.5C 224.5,134.833 224.5,132.167 224.5,129.5C 221.615,129.806 218.948,129.473 216.5,128.5 Z"/></g>
<g><path style="opacity:1" fill="#a08663" d="M 61.5,138.5 C 61.5,141.5 61.5,144.5 61.5,147.5C 64.5,147.5 67.5,147.5 70.5,147.5C 70.5,150.5 70.5,153.5 70.5,156.5C 67.5,156.5 64.5,156.5 61.5,156.5C 61.5,162.5 61.5,168.5 61.5,174.5C 64.5,174.5 67.5,174.5 70.5,174.5C 70.5,177.5 70.5,180.5 70.5,183.5C 73.8333,183.5 77.1667,183.5 80.5,183.5C 80.5,186.5 80.5,189.5 80.5,192.5C 83.1667,192.5 85.8333,192.5 88.5,192.5C 88.5,195.833 88.5,199.167 88.5,202.5C 82.509,202.034 76.509,201.701 70.5,201.5C 70.5,198.833 70.5,196.167 70.5,193.5C 67.5,193.5 64.5,193.5 61.5,193.5C 61.5,190.5 61.5,187.5 61.5,184.5C 58.8333,184.5 56.1667,184.5 53.5,184.5C 53.8269,174.985 53.4936,165.652 52.5,156.5C 52.5,153.167 52.5,149.833 52.5,146.5C 53.4731,144.052 53.8064,141.385 53.5,138.5C 56.1667,138.5 58.8333,138.5 61.5,138.5 Z"/></g>
<g><path style="opacity:1" fill="#6b5334" d="M 52.5,119.5 C 52.5,122.5 52.5,125.5 52.5,128.5C 49.8333,128.5 47.1667,128.5 44.5,128.5C 44.5,131.5 44.5,134.5 44.5,137.5C 47.1667,137.5 49.8333,137.5 52.5,137.5C 52.5,140.5 52.5,143.5 52.5,146.5C 46.8333,146.5 41.1667,146.5 35.5,146.5C 35.5,143.833 35.5,141.167 35.5,138.5C 38.3854,138.806 41.0521,138.473 43.5,137.5C 43.5,134.5 43.5,131.5 43.5,128.5C 43.5,125.5 43.5,122.5 43.5,119.5C 46.5,119.5 49.5,119.5 52.5,119.5 Z"/></g>
<g><path style="opacity:1" fill="#847359" d="M 52.5,137.5 C 61.8333,137.5 71.1667,137.5 80.5,137.5C 80.5,140.5 80.5,143.5 80.5,146.5C 83.5,146.5 86.5,146.5 89.5,146.5C 89.5,149.833 89.5,153.167 89.5,156.5C 88.5233,153.713 88.19,150.713 88.5,147.5C 85.5,147.5 82.5,147.5 79.5,147.5C 79.5,144.5 79.5,141.5 79.5,138.5C 73.5,138.5 67.5,138.5 61.5,138.5C 58.8333,138.5 56.1667,138.5 53.5,138.5C 53.8064,141.385 53.4731,144.052 52.5,146.5C 52.5,143.5 52.5,140.5 52.5,137.5 Z"/></g>
<g><path style="opacity:1" fill="#676e80" d="M 116.5,137.5 C 119.5,137.5 122.5,137.5 125.5,137.5C 125.5,140.5 125.5,143.5 125.5,146.5C 122.5,146.5 119.5,146.5 116.5,146.5C 116.5,143.5 116.5,140.5 116.5,137.5 Z"/></g>
<g><path style="opacity:1" fill="#1c1e21" d="M 125.5,137.5 C 128.448,137.223 131.281,137.556 134,138.5C 134.497,141.146 134.664,143.813 134.5,146.5C 131.5,146.5 128.5,146.5 125.5,146.5C 125.5,143.5 125.5,140.5 125.5,137.5 Z"/></g>
<g><path style="opacity:1" fill="#c6ae8b" d="M 61.5,138.5 C 67.5,138.5 73.5,138.5 79.5,138.5C 79.5,141.5 79.5,144.5 79.5,147.5C 82.5,147.5 85.5,147.5 88.5,147.5C 88.19,150.713 88.5233,153.713 89.5,156.5C 92.1667,156.5 94.8333,156.5 97.5,156.5C 97.5,159.5 97.5,162.5 97.5,165.5C 109.833,165.5 122.167,165.5 134.5,165.5C 134.5,162.5 134.5,159.5 134.5,156.5C 137.5,156.5 140.5,156.5 143.5,156.5C 143.5,153.5 143.5,150.5 143.5,147.5C 149.5,147.5 155.5,147.5 161.5,147.5C 161.5,150.5 161.5,153.5 161.5,156.5C 164.5,156.5 167.5,156.5 170.5,156.5C 170.5,159.5 170.5,162.5 170.5,165.5C 182.5,165.5 194.5,165.5 206.5,165.5C 212.833,165.5 219.167,165.5 225.5,165.5C 225.5,171.5 225.5,177.5 225.5,183.5C 225.5,186.5 225.5,189.5 225.5,192.5C 225.5,192.833 225.5,193.167 225.5,193.5C 224.833,193.5 224.167,193.5 223.5,193.5C 202.833,193.5 182.167,193.5 161.5,193.5C 161.5,190.167 161.5,186.833 161.5,183.5C 161.5,180.5 161.5,177.5 161.5,174.5C 158.5,174.5 155.5,174.5 152.5,174.5C 152.5,177.5 152.5,180.5 152.5,183.5C 152.5,189.833 152.5,196.167 152.5,202.5C 131.167,202.5 109.833,202.5 88.5,202.5C 88.5,199.167 88.5,195.833 88.5,192.5C 85.8333,192.5 83.1667,192.5 80.5,192.5C 80.5,189.5 80.5,186.5 80.5,183.5C 77.1667,183.5 73.8333,183.5 70.5,183.5C 70.5,180.5 70.5,177.5 70.5,174.5C 67.5,174.5 64.5,174.5 61.5,174.5C 61.5,168.5 61.5,162.5 61.5,156.5C 64.5,156.5 67.5,156.5 70.5,156.5C 70.5,153.5 70.5,150.5 70.5,147.5C 67.5,147.5 64.5,147.5 61.5,147.5C 61.5,144.5 61.5,141.5 61.5,138.5 Z"/></g>
<g><path style="opacity:1" fill="#464a56" d="M 207.5,155.5 C 207.167,155.5 206.833,155.5 206.5,155.5C 206.5,155.833 206.5,156.167 206.5,156.5C 203.5,156.5 200.5,156.5 197.5,156.5C 197.5,153.5 197.5,150.5 197.5,147.5C 194.5,147.5 191.5,147.5 188.5,147.5C 188.5,144.167 188.5,140.833 188.5,137.5C 191.833,137.5 195.167,137.5 198.5,137.5C 198.5,140.5 198.5,143.5 198.5,146.5C 201.5,146.5 204.5,146.5 207.5,146.5C 207.5,149.5 207.5,152.5 207.5,155.5 Z"/></g>
<g><path style="opacity:1" fill="#6b7488" d="M 189.5,138.5 C 192.167,138.5 194.833,138.5 197.5,138.5C 197.5,141.167 197.5,143.833 197.5,146.5C 194.833,146.5 192.167,146.5 189.5,146.5C 189.5,143.833 189.5,141.167 189.5,138.5 Z"/></g>
<g><path style="opacity:1" fill="#6d738a" d="M 206.5,155.5 C 203.833,155.5 201.167,155.5 198.5,155.5C 198.5,152.833 198.5,150.167 198.5,147.5C 201.167,147.5 203.833,147.5 206.5,147.5C 206.5,150.167 206.5,152.833 206.5,155.5 Z"/></g>
<g><path style="opacity:1" fill="#474b57" d="M 116.5,137.5 C 116.5,140.5 116.5,143.5 116.5,146.5C 119.5,146.5 122.5,146.5 125.5,146.5C 128.5,146.5 131.5,146.5 134.5,146.5C 134.5,149.5 134.5,152.5 134.5,155.5C 134.5,155.833 134.5,156.167 134.5,156.5C 134.167,156.5 133.833,156.5 133.5,156.5C 130.5,156.5 127.5,156.5 124.5,156.5C 124.5,153.5 124.5,150.5 124.5,147.5C 121.5,147.5 118.5,147.5 115.5,147.5C 115.187,143.958 115.521,140.625 116.5,137.5 Z"/></g>
<g><path style="opacity:1" fill="#6c748a" d="M 125.5,147.5 C 128.167,147.5 130.833,147.5 133.5,147.5C 133.5,150.167 133.5,152.833 133.5,155.5C 130.833,155.5 128.167,155.5 125.5,155.5C 125.5,152.833 125.5,150.167 125.5,147.5 Z"/></g>
<g><path style="opacity:1" fill="#907452" d="M 43.5,137.5 C 41.0521,138.473 38.3854,138.806 35.5,138.5C 35.5,141.167 35.5,143.833 35.5,146.5C 41.1667,146.5 46.8333,146.5 52.5,146.5C 52.5,149.833 52.5,153.167 52.5,156.5C 46.8236,156.666 41.1569,156.499 35.5,156C 34.5562,153.281 34.2229,150.448 34.5,147.5C 31.5,147.5 28.5,147.5 25.5,147.5C 28.2869,146.523 31.2869,146.19 34.5,146.5C 34.5,143.5 34.5,140.5 34.5,137.5C 37.5,137.5 40.5,137.5 43.5,137.5 Z"/></g>
<g><path style="opacity:1" fill="#584c39" d="M 161.5,146.5 C 161.5,146.833 161.5,147.167 161.5,147.5C 155.5,147.5 149.5,147.5 143.5,147.5C 143.5,150.5 143.5,153.5 143.5,156.5C 140.5,156.5 137.5,156.5 134.5,156.5C 134.5,156.167 134.5,155.833 134.5,155.5C 137.167,155.5 139.833,155.5 142.5,155.5C 142.5,152.5 142.5,149.5 142.5,146.5C 148.833,146.5 155.167,146.5 161.5,146.5 Z"/></g>
<g><path style="opacity:1" fill="#403527" d="M 161.5,146.5 C 162.477,149.287 162.81,152.287 162.5,155.5C 165.385,155.194 168.052,155.527 170.5,156.5C 167.5,156.5 164.5,156.5 161.5,156.5C 161.5,153.5 161.5,150.5 161.5,147.5C 161.5,147.167 161.5,146.833 161.5,146.5 Z"/></g>
<g><path style="opacity:1" fill="#2d8b9f" d="M 224.5,137.5 C 224.833,137.5 225.167,137.5 225.5,137.5C 225.5,137.833 225.5,138.167 225.5,138.5C 222.5,138.5 219.5,138.5 216.5,138.5C 216.5,144.167 216.5,149.833 216.5,155.5C 225.349,155.174 234.016,155.507 242.5,156.5C 233.5,156.5 224.5,156.5 215.5,156.5C 215.5,150.167 215.5,143.833 215.5,137.5C 218.5,137.5 221.5,137.5 224.5,137.5 Z"/></g>
<g><path style="opacity:1" fill="#0aafd8" d="M 264.5,152.5 C 264.5,163.167 264.5,173.833 264.5,184.5C 262.804,192.948 260.304,193.281 257,185.5C 254.126,184.468 252.626,182.468 252.5,179.5C 249.881,179.768 247.381,179.435 245,178.5C 244.802,180.382 244.302,182.048 243.5,183.5C 243.5,174.5 243.5,165.5 243.5,156.5C 249.106,157.407 254.773,157.74 260.5,157.5C 260.5,155.833 260.5,154.167 260.5,152.5C 261.833,152.5 263.167,152.5 264.5,152.5 Z"/></g>
<g><path style="opacity:1" fill="#6d5535" d="M 25.5,147.5 C 28.5,147.5 31.5,147.5 34.5,147.5C 34.2229,150.448 34.5562,153.281 35.5,156C 41.1569,156.499 46.8236,156.666 52.5,156.5C 52.5,159.5 52.5,162.5 52.5,165.5C 46.5,165.5 40.5,165.5 34.5,165.5C 34.81,162.287 34.4767,159.287 33.5,156.5C 30.8333,156.5 28.1667,156.5 25.5,156.5C 25.5,153.5 25.5,150.5 25.5,147.5 Z"/></g>
<g><path style="opacity:1" fill="#695436" d="M 206.5,155.5 C 206.833,155.5 207.167,155.5 207.5,155.5C 209.607,156.468 211.941,156.802 214.5,156.5C 217.962,157.482 221.629,157.815 225.5,157.5C 225.5,157.833 225.5,158.167 225.5,158.5C 225.5,160.833 225.5,163.167 225.5,165.5C 219.167,165.5 212.833,165.5 206.5,165.5C 206.5,165.167 206.5,164.833 206.5,164.5C 206.5,161.833 206.5,159.167 206.5,156.5C 206.5,156.167 206.5,155.833 206.5,155.5 Z"/></g>
<g><path style="opacity:1" fill="#e76e81" d="M 33.5,156.5 C 34.4767,159.287 34.81,162.287 34.5,165.5C 31.5,165.5 28.5,165.5 25.5,165.5C 25.5,168.5 25.5,171.5 25.5,174.5C 28.5,174.5 31.5,174.5 34.5,174.5C 34.5,177.5 34.5,180.5 34.5,183.5C 37.2869,184.477 40.2869,184.81 43.5,184.5C 43.5,187.5 43.5,190.5 43.5,193.5C 42.8826,193.389 42.3826,193.056 42,192.5C 41.5034,190.19 41.3367,187.857 41.5,185.5C 39.2075,185.244 37.0408,185.577 35,186.5C 33.9385,183.169 32.7718,179.836 31.5,176.5C 30.528,183.355 29.028,190.022 27,196.5C 22.6513,198.318 20.6513,201.652 21,206.5C 17.0865,212.554 15.2532,219.22 15.5,226.5C 14.1667,226.5 12.8333,226.5 11.5,226.5C 11.5,227.833 11.5,229.167 11.5,230.5C 10.8386,231.718 10.1719,233.051 9.5,234.5C 8.66839,226.521 8.16839,218.521 8,210.5C 7.32924,209.748 6.4959,209.414 5.5,209.5C 5.23195,201.797 5.56529,194.13 6.5,186.5C 5.81408,184.653 4.81408,182.986 3.5,181.5C 2.93966,176.676 2.27299,172.01 1.5,167.5C 1.5,165.833 1.5,164.167 1.5,162.5C 2.16667,162.5 2.83333,162.5 3.5,162.5C 8.16667,162.5 12.8333,162.5 17.5,162.5C 17.5,161.167 17.5,159.833 17.5,158.5C 23.084,158.745 28.4174,158.078 33.5,156.5 Z"/></g>
<g><path style="opacity:1" fill="#413529" d="M 97.5,156.5 C 98.4731,158.948 98.8064,161.615 98.5,164.5C 110.167,164.5 121.833,164.5 133.5,164.5C 133.5,161.833 133.5,159.167 133.5,156.5C 133.833,156.5 134.167,156.5 134.5,156.5C 134.5,159.5 134.5,162.5 134.5,165.5C 122.167,165.5 109.833,165.5 97.5,165.5C 97.5,162.5 97.5,159.5 97.5,156.5 Z"/></g>
<g><path style="opacity:1" fill="#3b2e24" d="M 170.5,156.5 C 171.473,158.948 171.806,161.615 171.5,164.5C 183.167,164.5 194.833,164.5 206.5,164.5C 206.5,164.833 206.5,165.167 206.5,165.5C 194.5,165.5 182.5,165.5 170.5,165.5C 170.5,162.5 170.5,159.5 170.5,156.5 Z"/></g>
<g><path style="opacity:1" fill="#47361a" d="M 225.5,158.5 C 230.833,158.5 236.167,158.5 241.5,158.5C 241.5,166.5 241.5,174.5 241.5,182.5C 238.941,182.198 236.607,182.532 234.5,183.5C 231.5,183.5 228.5,183.5 225.5,183.5C 225.5,177.5 225.5,171.5 225.5,165.5C 225.5,163.167 225.5,160.833 225.5,158.5 Z"/></g>
<g><path style="opacity:1" fill="#2f422f" d="M 225.5,158.5 C 225.5,158.167 225.5,157.833 225.5,157.5C 231.167,157.5 236.833,157.5 242.5,157.5C 242.5,166.167 242.5,174.833 242.5,183.5C 239.833,183.5 237.167,183.5 234.5,183.5C 236.607,182.532 238.941,182.198 241.5,182.5C 241.5,174.5 241.5,166.5 241.5,158.5C 236.167,158.5 230.833,158.5 225.5,158.5 Z"/></g>
<g><path style="opacity:1" fill="#2a6563" d="M 214.5,156.5 C 214.833,156.5 215.167,156.5 215.5,156.5C 224.5,156.5 233.5,156.5 242.5,156.5C 242.833,156.5 243.167,156.5 243.5,156.5C 243.5,165.5 243.5,174.5 243.5,183.5C 243.167,183.5 242.833,183.5 242.5,183.5C 242.5,174.833 242.5,166.167 242.5,157.5C 236.833,157.5 231.167,157.5 225.5,157.5C 221.629,157.815 217.962,157.482 214.5,156.5 Z"/></g>
<g><path style="opacity:1" fill="#937754" d="M 52.5,156.5 C 53.4936,165.652 53.8269,174.985 53.5,184.5C 56.1667,184.5 58.8333,184.5 61.5,184.5C 61.5,187.5 61.5,190.5 61.5,193.5C 58.8333,193.5 56.1667,193.5 53.5,193.5C 52.5422,187.256 52.2088,180.923 52.5,174.5C 46.8333,174.5 41.1667,174.5 35.5,174.5C 35.1667,174.5 34.8333,174.5 34.5,174.5C 34.5,174.167 34.5,173.833 34.5,173.5C 34.5,171.167 34.5,168.833 34.5,166.5C 34.5,166.167 34.5,165.833 34.5,165.5C 40.5,165.5 46.5,165.5 52.5,165.5C 52.5,162.5 52.5,159.5 52.5,156.5 Z"/></g>
<g><path style="opacity:1" fill="#6a5436" d="M 34.5,166.5 C 34.5,168.833 34.5,171.167 34.5,173.5C 31.8333,173.5 29.1667,173.5 26.5,173.5C 26.5,171.167 26.5,168.833 26.5,166.5C 29.1667,166.5 31.8333,166.5 34.5,166.5 Z"/></g>
<g><path style="opacity:1" fill="#895244" d="M 34.5,165.5 C 34.5,165.833 34.5,166.167 34.5,166.5C 31.8333,166.5 29.1667,166.5 26.5,166.5C 26.5,168.833 26.5,171.167 26.5,173.5C 29.1667,173.5 31.8333,173.5 34.5,173.5C 34.5,173.833 34.5,174.167 34.5,174.5C 31.5,174.5 28.5,174.5 25.5,174.5C 25.5,171.5 25.5,168.5 25.5,165.5C 28.5,165.5 31.5,165.5 34.5,165.5 Z"/></g>
<g><path style="opacity:1" fill="#6b5436" d="M 35.5,174.5 C 41.1667,174.5 46.8333,174.5 52.5,174.5C 52.2088,180.923 52.5422,187.256 53.5,193.5C 53.1667,193.5 52.8333,193.5 52.5,193.5C 52.1667,193.5 51.8333,193.5 51.5,193.5C 49.3926,192.532 47.0593,192.198 44.5,192.5C 45.0545,188.988 44.3878,185.988 42.5,183.5C 40.3926,182.532 38.0593,182.198 35.5,182.5C 35.5,179.833 35.5,177.167 35.5,174.5 Z"/></g>
<g><path style="opacity:1" fill="#e2cea7" d="M 161.5,183.5 C 158.5,183.5 155.5,183.5 152.5,183.5C 152.5,180.5 152.5,177.5 152.5,174.5C 155.5,174.5 158.5,174.5 161.5,174.5C 161.5,177.5 161.5,180.5 161.5,183.5 Z"/></g>
<g><path style="opacity:1" fill="#845144" d="M 34.5,174.5 C 34.8333,174.5 35.1667,174.5 35.5,174.5C 35.5,177.167 35.5,179.833 35.5,182.5C 38.0593,182.198 40.3926,182.532 42.5,183.5C 39.8333,183.5 37.1667,183.5 34.5,183.5C 34.5,180.5 34.5,177.5 34.5,174.5 Z"/></g>
<g><path style="opacity:1" fill="#0ba3d3" d="M 264.5,184.5 C 264.5,186.833 264.5,189.167 264.5,191.5C 261.894,193.943 259.394,196.61 257,199.5C 256.884,204.844 255.717,209.844 253.5,214.5C 252.167,214.5 250.833,214.5 249.5,214.5C 249.657,215.873 249.49,217.207 249,218.5C 246.692,219.877 245.192,221.877 244.5,224.5C 240.541,225.66 236.541,225.827 232.5,225C 231.743,223.488 230.743,222.154 229.5,221C 226.518,220.502 223.518,220.335 220.5,220.5C 220.539,215.375 218.039,213.375 213,214.5C 209.074,213.753 206.24,215.086 204.5,218.5C 200.893,219.489 197.226,219.823 193.5,219.5C 193.5,217.5 193.5,215.5 193.5,213.5C 192.041,213.433 190.708,213.766 189.5,214.5C 191.279,212.656 193.612,211.99 196.5,212.5C 199.339,213.992 201.839,215.326 204,216.5C 204.353,215.328 204.187,214.162 203.5,213C 205.945,210.999 205.445,209.499 202,208.5C 201.383,207.551 201.549,206.718 202.5,206C 206.585,204.794 210.752,203.961 215,203.5C 218.532,203.875 222.032,204.042 225.5,204C 226.451,200.943 226.784,197.777 226.5,194.5C 228.415,194.784 230.081,194.451 231.5,193.5C 232.5,193.5 233.5,193.5 234.5,193.5C 234.5,190.5 234.5,187.5 234.5,184.5C 234.5,184.167 234.5,183.833 234.5,183.5C 237.167,183.5 239.833,183.5 242.5,183.5C 242.833,183.5 243.167,183.5 243.5,183.5C 244.302,182.048 244.802,180.382 245,178.5C 247.381,179.435 249.881,179.768 252.5,179.5C 252.626,182.468 254.126,184.468 257,185.5C 260.304,193.281 262.804,192.948 264.5,184.5 Z"/></g>
<g><path style="opacity:1" fill="#695436" d="M 161.5,193.5 C 182.167,193.5 202.833,193.5 223.5,193.5C 223.5,195.833 223.5,198.167 223.5,200.5C 214.983,200.174 206.65,200.507 198.5,201.5C 197.596,202.209 197.263,203.209 197.5,204.5C 195.787,205.635 195.12,207.302 195.5,209.5C 193.5,209.5 191.5,209.5 189.5,209.5C 189.167,209.5 188.833,209.5 188.5,209.5C 188.5,207.167 188.5,204.833 188.5,202.5C 177.012,201.505 165.345,201.172 153.5,201.5C 153.5,195.833 153.5,190.167 153.5,184.5C 155.833,184.5 158.167,184.5 160.5,184.5C 160.19,187.713 160.523,190.713 161.5,193.5 Z"/></g>
<g><path style="opacity:1" fill="#e3d0a8" d="M 162.5,183.5 C 183.167,183.5 203.833,183.5 224.5,183.5C 224.5,186.5 224.5,189.5 224.5,192.5C 203.833,192.5 183.167,192.5 162.5,192.5C 162.5,189.5 162.5,186.5 162.5,183.5 Z"/></g>
<g><path style="opacity:1" fill="#63563a" d="M 225.5,183.5 C 228.5,183.5 231.5,183.5 234.5,183.5C 234.5,183.833 234.5,184.167 234.5,184.5C 233.79,186.893 233.123,189.393 232.5,192C 230.19,192.497 227.857,192.663 225.5,192.5C 225.5,189.5 225.5,186.5 225.5,183.5 Z"/></g>
<g><path style="opacity:1" fill="#f0668f" d="M 43.5,193.5 C 45.6074,194.468 47.9407,194.802 50.5,194.5C 51.1587,197.455 51.4921,200.455 51.5,203.5C 54.5,203.5 57.5,203.5 60.5,203.5C 60.5,205.5 60.5,207.5 60.5,209.5C 60.5,212.833 60.5,216.167 60.5,219.5C 57.9407,219.198 55.6074,219.532 53.5,220.5C 52.5233,223.287 52.19,226.287 52.5,229.5C 49.5,229.5 46.5,229.5 43.5,229.5C 43.5,231.833 43.5,234.167 43.5,236.5C 43.1667,236.5 42.8333,236.5 42.5,236.5C 33.6822,235.507 24.6822,235.173 15.5,235.5C 15.7678,233.901 15.4345,232.568 14.5,231.5C 13.791,230.596 12.791,230.263 11.5,230.5C 11.5,229.167 11.5,227.833 11.5,226.5C 12.8333,226.5 14.1667,226.5 15.5,226.5C 15.2532,219.22 17.0865,212.554 21,206.5C 20.6513,201.652 22.6513,198.318 27,196.5C 29.028,190.022 30.528,183.355 31.5,176.5C 32.7718,179.836 33.9385,183.169 35,186.5C 37.0408,185.577 39.2075,185.244 41.5,185.5C 41.3367,187.857 41.5034,190.19 42,192.5C 42.3826,193.056 42.8826,193.389 43.5,193.5 Z"/></g>
<g><path style="opacity:1" fill="#43727b" d="M 234.5,184.5 C 234.5,187.5 234.5,190.5 234.5,193.5C 233.5,193.5 232.5,193.5 231.5,193.5C 229.5,193.5 227.5,193.5 225.5,193.5C 225.5,193.167 225.5,192.833 225.5,192.5C 227.857,192.663 230.19,192.497 232.5,192C 233.123,189.393 233.79,186.893 234.5,184.5 Z"/></g>
<g><path style="opacity:1" fill="#e3d1a8" d="M 143.5,183.5 C 146.167,183.5 148.833,183.5 151.5,183.5C 151.5,189.5 151.5,195.5 151.5,201.5C 148.833,201.5 146.167,201.5 143.5,201.5C 143.5,195.5 143.5,189.5 143.5,183.5 Z"/></g>
<g><path style="opacity:1" fill="#e9608c" d="M 1.5,167.5 C 2.27299,172.01 2.93966,176.676 3.5,181.5C 4.81408,182.986 5.81408,184.653 6.5,186.5C 5.56529,194.13 5.23195,201.797 5.5,209.5C 4.88258,209.389 4.38258,209.056 4,208.5C 3.21895,201.296 3.38562,194.129 4.5,187C 4.25169,185.251 3.25169,184.418 1.5,184.5C 1.5,178.833 1.5,173.167 1.5,167.5 Z"/></g>
<g><path style="opacity:1" fill="#a9595d" d="M 34.5,183.5 C 37.1667,183.5 39.8333,183.5 42.5,183.5C 44.3878,185.988 45.0545,188.988 44.5,192.5C 47.0593,192.198 49.3926,192.532 51.5,193.5C 48.8333,193.5 46.1667,193.5 43.5,193.5C 43.5,190.5 43.5,187.5 43.5,184.5C 40.2869,184.81 37.2869,184.477 34.5,183.5 Z"/></g>
<g><path style="opacity:1" fill="#d86e84" d="M 43.5,193.5 C 46.1667,193.5 48.8333,193.5 51.5,193.5C 51.8333,193.5 52.1667,193.5 52.5,193.5C 52.5,196.5 52.5,199.5 52.5,202.5C 54.8333,202.5 57.1667,202.5 59.5,202.5C 60.1667,202.5 60.8333,202.5 61.5,202.5C 61.5,204.833 61.5,207.167 61.5,209.5C 61.1667,209.5 60.8333,209.5 60.5,209.5C 60.5,207.5 60.5,205.5 60.5,203.5C 57.5,203.5 54.5,203.5 51.5,203.5C 51.4921,200.455 51.1587,197.455 50.5,194.5C 47.9407,194.802 45.6074,194.468 43.5,193.5 Z"/></g>
<g><path style="opacity:1" fill="#6e5236" d="M 53.5,193.5 C 56.1667,193.5 58.8333,193.5 61.5,193.5C 62.0356,196.698 61.369,199.365 59.5,201.5C 57.5,201.5 55.5,201.5 53.5,201.5C 53.5,198.833 53.5,196.167 53.5,193.5 Z"/></g>
<g><path style="opacity:1" fill="#9d5456" d="M 52.5,193.5 C 52.8333,193.5 53.1667,193.5 53.5,193.5C 53.5,196.167 53.5,198.833 53.5,201.5C 55.5,201.5 57.5,201.5 59.5,201.5C 59.5,201.833 59.5,202.167 59.5,202.5C 57.1667,202.5 54.8333,202.5 52.5,202.5C 52.5,199.5 52.5,196.5 52.5,193.5 Z"/></g>
<g><path style="opacity:1" fill="#535c4f" d="M 223.5,193.5 C 224.167,193.5 224.833,193.5 225.5,193.5C 225.5,194.167 225.5,194.833 225.5,195.5C 224.539,197.265 224.205,199.265 224.5,201.5C 215.833,201.5 207.167,201.5 198.5,201.5C 206.65,200.507 214.983,200.174 223.5,200.5C 223.5,198.167 223.5,195.833 223.5,193.5 Z"/></g>
<g><path style="opacity:1" fill="#8a7653" d="M 152.5,183.5 C 155.5,183.5 158.5,183.5 161.5,183.5C 161.5,186.833 161.5,190.167 161.5,193.5C 160.523,190.713 160.19,187.713 160.5,184.5C 158.167,184.5 155.833,184.5 153.5,184.5C 153.5,190.167 153.5,195.833 153.5,201.5C 165.345,201.172 177.012,201.505 188.5,202.5C 176.5,202.5 164.5,202.5 152.5,202.5C 152.5,196.167 152.5,189.833 152.5,183.5 Z"/></g>
<g><path style="opacity:1" fill="#427577" d="M 225.5,195.5 C 225.5,197.833 225.5,200.167 225.5,202.5C 216.5,202.5 207.5,202.5 198.5,202.5C 198.94,206.179 198.273,209.512 196.5,212.5C 193.612,211.99 191.279,212.656 189.5,214.5C 189.167,214.5 188.833,214.5 188.5,214.5C 188.5,213.5 188.5,212.5 188.5,211.5C 188.5,210.833 188.5,210.167 188.5,209.5C 188.833,209.5 189.167,209.5 189.5,209.5C 191.948,210.473 194.615,210.806 197.5,210.5C 197.5,208.5 197.5,206.5 197.5,204.5C 197.263,203.209 197.596,202.209 198.5,201.5C 207.167,201.5 215.833,201.5 224.5,201.5C 224.205,199.265 224.539,197.265 225.5,195.5 Z"/></g>
<g><path style="opacity:1" fill="#947956" d="M 61.5,193.5 C 64.5,193.5 67.5,193.5 70.5,193.5C 70.5,196.167 70.5,198.833 70.5,201.5C 76.509,201.701 82.509,202.034 88.5,202.5C 88.5,205.167 88.5,207.833 88.5,210.5C 109.673,210.169 130.673,210.503 151.5,211.5C 127.831,211.667 104.164,211.5 80.5,211C 79.5562,208.281 79.2229,205.448 79.5,202.5C 73.5,202.5 67.5,202.5 61.5,202.5C 60.8333,202.5 60.1667,202.5 59.5,202.5C 59.5,202.167 59.5,201.833 59.5,201.5C 61.369,199.365 62.0356,196.698 61.5,193.5 Z"/></g>
<g><path style="opacity:1" fill="#0a8ace" d="M 264.5,191.5 C 264.5,192.833 264.5,194.167 264.5,195.5C 263.5,195.5 262.5,195.5 261.5,195.5C 260.161,199.358 259.327,203.358 259,207.5C 256.642,209.549 254.808,211.882 253.5,214.5C 255.717,209.844 256.884,204.844 257,199.5C 259.394,196.61 261.894,193.943 264.5,191.5 Z"/></g>
<g><path style="opacity:1" fill="#e544a1" d="M 1.5,184.5 C 3.25169,184.418 4.25169,185.251 4.5,187C 3.38562,194.129 3.21895,201.296 4,208.5C 4.38258,209.056 4.88258,209.389 5.5,209.5C 6.4959,209.414 7.32924,209.748 8,210.5C 8.16839,218.521 8.66839,226.521 9.5,234.5C 10.1719,233.051 10.8386,231.718 11.5,230.5C 12.791,230.263 13.791,230.596 14.5,231.5C 14.5,233.167 14.5,234.833 14.5,236.5C 13.1667,236.5 11.8333,236.5 10.5,236.5C 7.5,236.5 4.5,236.5 1.5,236.5C 1.5,219.167 1.5,201.833 1.5,184.5 Z"/></g>
<g><path style="opacity:1" fill="#a08662" d="M 88.5,202.5 C 109.833,202.5 131.167,202.5 152.5,202.5C 152.5,205.5 152.5,208.5 152.5,211.5C 152.167,211.5 151.833,211.5 151.5,211.5C 130.673,210.503 109.673,210.169 88.5,210.5C 88.5,207.833 88.5,205.167 88.5,202.5 Z"/></g>
<g><path style="opacity:1" fill="#e0cea7" d="M 152.5,202.5 C 164.5,202.5 176.5,202.5 188.5,202.5C 188.5,204.833 188.5,207.167 188.5,209.5C 188.5,210.167 188.5,210.833 188.5,211.5C 188.167,211.5 187.833,211.5 187.5,211.5C 175.833,211.5 164.167,211.5 152.5,211.5C 152.5,208.5 152.5,205.5 152.5,202.5 Z"/></g>
<g><path style="opacity:1" fill="#1d99c1" d="M 225.5,193.5 C 227.5,193.5 229.5,193.5 231.5,193.5C 230.081,194.451 228.415,194.784 226.5,194.5C 226.784,197.777 226.451,200.943 225.5,204C 222.032,204.042 218.532,203.875 215,203.5C 210.752,203.961 206.585,204.794 202.5,206C 201.549,206.718 201.383,207.551 202,208.5C 205.445,209.499 205.945,210.999 203.5,213C 204.187,214.162 204.353,215.328 204,216.5C 201.839,215.326 199.339,213.992 196.5,212.5C 198.273,209.512 198.94,206.179 198.5,202.5C 207.5,202.5 216.5,202.5 225.5,202.5C 225.5,200.167 225.5,197.833 225.5,195.5C 225.5,194.833 225.5,194.167 225.5,193.5 Z"/></g>
<g><path style="opacity:1" fill="#525c4f" d="M 197.5,204.5 C 197.5,206.5 197.5,208.5 197.5,210.5C 194.615,210.806 191.948,210.473 189.5,209.5C 191.5,209.5 193.5,209.5 195.5,209.5C 195.12,207.302 195.787,205.635 197.5,204.5 Z"/></g>
<g><path style="opacity:1" fill="#24303f" d="M 63.5,211.5 C 68.8437,211.334 74.1771,211.501 79.5,212C 80.4438,214.719 80.7771,217.552 80.5,220.5C 79.79,218.107 79.1233,215.607 78.5,213C 75.854,212.503 73.1873,212.336 70.5,212.5C 67.9407,212.802 65.6074,212.468 63.5,211.5 Z"/></g>
<g><path style="opacity:1" fill="#685438" d="M 61.5,202.5 C 67.5,202.5 73.5,202.5 79.5,202.5C 79.2229,205.448 79.5562,208.281 80.5,211C 104.164,211.5 127.831,211.667 151.5,211.5C 151.833,211.5 152.167,211.5 152.5,211.5C 164.167,211.5 175.833,211.5 187.5,211.5C 187.5,214.167 187.5,216.833 187.5,219.5C 175.815,219.365 164.148,219.698 152.5,220.5C 143.5,220.5 134.5,220.5 125.5,220.5C 122.5,220.5 119.5,220.5 116.5,220.5C 104.5,220.5 92.5,220.5 80.5,220.5C 80.7771,217.552 80.4438,214.719 79.5,212C 74.1771,211.501 68.8437,211.334 63.5,211.5C 62.8333,211.5 62.1667,211.5 61.5,211.5C 61.5,210.833 61.5,210.167 61.5,209.5C 61.5,207.167 61.5,204.833 61.5,202.5 Z"/></g>
<g><path style="opacity:1" fill="#0e183d" d="M 61.5,211.5 C 62.1667,211.5 62.8333,211.5 63.5,211.5C 65.6074,212.468 67.9407,212.802 70.5,212.5C 70.5,215.167 70.5,217.833 70.5,220.5C 67.3915,220.736 64.3915,220.403 61.5,219.5C 61.5,216.833 61.5,214.167 61.5,211.5 Z"/></g>
<g><path style="opacity:1" fill="#b3558a" d="M 60.5,209.5 C 60.8333,209.5 61.1667,209.5 61.5,209.5C 61.5,210.167 61.5,210.833 61.5,211.5C 61.5,214.167 61.5,216.833 61.5,219.5C 61.5,220.167 61.1667,220.5 60.5,220.5C 58.1667,220.5 55.8333,220.5 53.5,220.5C 55.6074,219.532 57.9407,219.198 60.5,219.5C 60.5,216.167 60.5,212.833 60.5,209.5 Z"/></g>
<g><path style="opacity:1" fill="#0f8bc9" d="M 220.5,220.5 C 219.163,219.685 218.163,218.518 217.5,217C 212.864,215.665 209.197,216.832 206.5,220.5C 203.914,221.48 201.247,221.813 198.5,221.5C 198.167,221.5 197.833,221.5 197.5,221.5C 196.081,220.549 194.415,220.216 192.5,220.5C 192.972,217.642 191.972,215.642 189.5,214.5C 190.708,213.766 192.041,213.433 193.5,213.5C 193.5,215.5 193.5,217.5 193.5,219.5C 197.226,219.823 200.893,219.489 204.5,218.5C 206.24,215.086 209.074,213.753 213,214.5C 218.039,213.375 220.539,215.375 220.5,220.5 Z"/></g>
<g><path style="opacity:1" fill="#066fc8" d="M 264.5,195.5 C 264.5,208.833 264.5,222.167 264.5,235.5C 261.833,235.5 259.167,235.5 256.5,235.5C 256.5,237.167 256.5,238.833 256.5,240.5C 253.5,240.5 250.5,240.5 247.5,240.5C 247.5,238.833 247.5,237.167 247.5,235.5C 242.833,235.5 238.167,235.5 233.5,235.5C 233.768,233.901 233.434,232.568 232.5,231.5C 228.353,230.675 224.019,230.175 219.5,230C 218.663,228.989 218.33,227.822 218.5,226.5C 212.167,226.5 205.833,226.5 199.5,226.5C 199.5,225.5 199.5,224.5 199.5,223.5C 202.167,223.5 204.833,223.5 207.5,223.5C 207.33,222.178 207.663,221.011 208.5,220C 210.588,218.97 212.755,218.137 215,217.5C 217.034,218.944 217.868,220.944 217.5,223.5C 220.489,224.635 223.489,224.802 226.5,224C 226.957,224.414 227.291,224.914 227.5,225.5C 226.147,226.524 225.48,227.857 225.5,229.5C 233.565,229.103 241.065,230.769 248,234.5C 248.198,229.81 249.031,225.143 250.5,220.5C 251.492,218.544 252.492,216.544 253.5,214.5C 254.808,211.882 256.642,209.549 259,207.5C 259.327,203.358 260.161,199.358 261.5,195.5C 262.5,195.5 263.5,195.5 264.5,195.5 Z"/></g>
<g><path style="opacity:1" fill="#471d19" d="M 125.5,221.5 C 125.5,221.167 125.5,220.833 125.5,220.5C 134.5,220.5 143.5,220.5 152.5,220.5C 152.5,226.833 152.5,233.167 152.5,239.5C 152.5,247.167 152.5,254.833 152.5,262.5C 152.167,262.5 151.833,262.5 151.5,262.5C 151.5,251.5 151.5,240.5 151.5,229.5C 151.5,226.833 151.5,224.167 151.5,221.5C 142.833,221.5 134.167,221.5 125.5,221.5 Z"/></g>
<g><path style="opacity:1" fill="#2d0102" d="M 125.5,221.5 C 134.167,221.5 142.833,221.5 151.5,221.5C 151.5,224.167 151.5,226.833 151.5,229.5C 143.493,229.334 135.493,229.5 127.5,230C 126.956,230.717 126.289,231.217 125.5,231.5C 125.5,228.167 125.5,224.833 125.5,221.5 Z"/></g>
<g><path style="opacity:1" fill="#58264e" d="M 53.5,220.5 C 55.8333,220.5 58.1667,220.5 60.5,220.5C 60.5,220.833 60.5,221.167 60.5,221.5C 58.1667,221.5 55.8333,221.5 53.5,221.5C 53.5,223.833 53.5,226.167 53.5,228.5C 53.5,229.167 53.1667,229.5 52.5,229.5C 52.19,226.287 52.5233,223.287 53.5,220.5 Z"/></g>
<g><path style="opacity:1" fill="#5b504e" d="M 187.5,211.5 C 187.833,211.5 188.167,211.5 188.5,211.5C 188.5,212.5 188.5,213.5 188.5,214.5C 188.5,216.5 188.5,218.5 188.5,220.5C 188.167,220.5 187.833,220.5 187.5,220.5C 178.833,220.5 170.167,220.5 161.5,220.5C 161.5,223.833 161.5,227.167 161.5,230.5C 158.833,230.5 156.167,230.5 153.5,230.5C 153.5,233.5 153.5,236.5 153.5,239.5C 153.167,239.5 152.833,239.5 152.5,239.5C 152.5,233.167 152.5,226.833 152.5,220.5C 164.148,219.698 175.815,219.365 187.5,219.5C 187.5,216.833 187.5,214.167 187.5,211.5 Z"/></g>
<g><path style="opacity:1" fill="#1660a6" d="M 188.5,214.5 C 188.833,214.5 189.167,214.5 189.5,214.5C 191.972,215.642 192.972,217.642 192.5,220.5C 194.415,220.216 196.081,220.549 197.5,221.5C 196.167,221.5 194.833,221.5 193.5,221.5C 193.307,224.475 194.307,226.975 196.5,229C 195.944,229.383 195.611,229.883 195.5,230.5C 193.167,230.5 190.833,230.5 188.5,230.5C 188.5,227.167 188.5,223.833 188.5,220.5C 188.5,218.5 188.5,216.5 188.5,214.5 Z"/></g>
<g><path style="opacity:1" fill="#01183d" d="M 170.5,221.5 C 170.5,227.5 170.5,233.5 170.5,239.5C 173.5,239.5 176.5,239.5 179.5,239.5C 179.5,242.5 179.5,245.5 179.5,248.5C 176.5,248.5 173.5,248.5 170.5,248.5C 170.5,253.167 170.5,257.833 170.5,262.5C 167.833,262.5 165.167,262.5 162.5,262.5C 162.5,248.833 162.5,235.167 162.5,221.5C 165.167,221.5 167.833,221.5 170.5,221.5 Z"/></g>
<g><path style="opacity:1" fill="#021a40" d="M 187.5,220.5 C 187.833,220.5 188.167,220.5 188.5,220.5C 188.5,223.833 188.5,227.167 188.5,230.5C 190.833,230.5 193.167,230.5 195.5,230.5C 197.388,232.988 198.055,235.988 197.5,239.5C 191.5,239.5 185.5,239.5 179.5,239.5C 179.5,233.5 179.5,227.5 179.5,221.5C 182.385,221.806 185.052,221.473 187.5,220.5 Z"/></g>
<g><path style="opacity:1" fill="#098ed0" d="M 253.5,214.5 C 252.492,216.544 251.492,218.544 250.5,220.5C 249.542,220.953 248.708,221.619 248,222.5C 247.502,225.482 247.335,228.482 247.5,231.5C 244.532,231.374 242.532,229.874 241.5,227C 237.5,226.667 233.5,226.333 229.5,226C 227.541,222.358 224.541,220.524 220.5,220.5C 223.518,220.335 226.518,220.502 229.5,221C 230.743,222.154 231.743,223.488 232.5,225C 236.541,225.827 240.541,225.66 244.5,224.5C 245.192,221.877 246.692,219.877 249,218.5C 249.49,217.207 249.657,215.873 249.5,214.5C 250.833,214.5 252.167,214.5 253.5,214.5 Z"/></g>
<g><path style="opacity:1" fill="#333c50" d="M 80.5,221.5 C 80.5,221.167 80.5,220.833 80.5,220.5C 92.5,220.5 104.5,220.5 116.5,220.5C 116.5,223.833 116.5,227.167 116.5,230.5C 116.5,233.5 116.5,236.5 116.5,239.5C 116.5,247.167 116.5,254.833 116.5,262.5C 116.167,262.5 115.833,262.5 115.5,262.5C 115.5,248.833 115.5,235.167 115.5,221.5C 112.833,221.5 110.167,221.5 107.5,221.5C 98.5,221.5 89.5,221.5 80.5,221.5 Z"/></g>
<g><path style="opacity:1" fill="#5b5152" d="M 116.5,220.5 C 119.5,220.5 122.5,220.5 125.5,220.5C 125.5,220.833 125.5,221.167 125.5,221.5C 125.5,224.833 125.5,228.167 125.5,231.5C 125.5,234.167 125.5,236.833 125.5,239.5C 125.167,239.5 124.833,239.5 124.5,239.5C 124.5,236.5 124.5,233.5 124.5,230.5C 121.833,230.5 119.167,230.5 116.5,230.5C 116.5,227.167 116.5,223.833 116.5,220.5 Z"/></g>
<g><path style="opacity:1" fill="#06173f" d="M 60.5,221.5 C 61.4731,223.948 61.8064,226.615 61.5,229.5C 58.7212,229.721 56.0545,229.388 53.5,228.5C 53.5,226.167 53.5,223.833 53.5,221.5C 55.8333,221.5 58.1667,221.5 60.5,221.5 Z"/></g>
<g><path style="opacity:1" fill="#0c53ac" d="M 197.5,221.5 C 197.833,221.5 198.167,221.5 198.5,221.5C 198.328,222.492 198.662,223.158 199.5,223.5C 199.5,224.5 199.5,225.5 199.5,226.5C 205.833,226.5 212.167,226.5 218.5,226.5C 218.33,227.822 218.663,228.989 219.5,230C 224.019,230.175 228.353,230.675 232.5,231.5C 228.833,231.5 225.167,231.5 221.5,231.5C 218.833,231.5 216.167,231.5 213.5,231.5C 212.273,234.582 210.773,237.582 209,240.5C 208.329,241.252 207.496,241.586 206.5,241.5C 206.672,240.508 206.338,239.842 205.5,239.5C 202.833,239.5 200.167,239.5 197.5,239.5C 198.055,235.988 197.388,232.988 195.5,230.5C 195.611,229.883 195.944,229.383 196.5,229C 194.307,226.975 193.307,224.475 193.5,221.5C 194.833,221.5 196.167,221.5 197.5,221.5 Z"/></g>
<g><path style="opacity:0.989" fill="#143362" d="M 79.5,230.5 C 82.5,230.5 85.5,230.5 88.5,230.5C 88.5,233.5 88.5,236.5 88.5,239.5C 91.5,239.5 94.5,239.5 97.5,239.5C 97.5,242.5 97.5,245.5 97.5,248.5C 100.5,248.5 103.5,248.5 106.5,248.5C 107.486,252.97 107.819,257.637 107.5,262.5C 98.5,262.5 89.5,262.5 80.5,262.5C 80.5,260.833 80.5,259.167 80.5,257.5C 83.1667,257.5 85.8333,257.5 88.5,257.5C 88.5,254.5 88.5,251.5 88.5,248.5C 85.2869,248.19 82.2869,248.523 79.5,249.5C 74.2432,249.07 71.2432,251.403 70.5,256.5C 67.4552,256.508 64.4552,256.841 61.5,257.5C 61.5,259.167 61.5,260.833 61.5,262.5C 55.8333,262.5 50.1667,262.5 44.5,262.5C 44.4802,260.857 45.1468,259.524 46.5,258.5C 48.3864,257.594 50.2197,256.594 52,255.5C 52.4994,250.177 52.666,244.844 52.5,239.5C 55.1873,239.664 57.854,239.497 60.5,239C 61.4438,236.281 61.7771,233.448 61.5,230.5C 67.5,230.5 73.5,230.5 79.5,230.5 Z"/></g>
<g><path style="opacity:1" fill="#283344" d="M 187.5,220.5 C 185.052,221.473 182.385,221.806 179.5,221.5C 176.5,221.5 173.5,221.5 170.5,221.5C 167.833,221.5 165.167,221.5 162.5,221.5C 162.5,235.167 162.5,248.833 162.5,262.5C 162.167,262.5 161.833,262.5 161.5,262.5C 161.5,254.833 161.5,247.167 161.5,239.5C 161.5,236.5 161.5,233.5 161.5,230.5C 161.5,227.167 161.5,223.833 161.5,220.5C 170.167,220.5 178.833,220.5 187.5,220.5 Z"/></g>
<g><path style="opacity:1" fill="#0374c5" d="M 220.5,220.5 C 224.541,220.524 227.541,222.358 229.5,226C 233.5,226.333 237.5,226.667 241.5,227C 242.532,229.874 244.532,231.374 247.5,231.5C 247.335,228.482 247.502,225.482 248,222.5C 248.708,221.619 249.542,220.953 250.5,220.5C 249.031,225.143 248.198,229.81 248,234.5C 241.065,230.769 233.565,229.103 225.5,229.5C 225.48,227.857 226.147,226.524 227.5,225.5C 227.291,224.914 226.957,224.414 226.5,224C 223.489,224.802 220.489,224.635 217.5,223.5C 217.868,220.944 217.034,218.944 215,217.5C 212.755,218.137 210.588,218.97 208.5,220C 207.663,221.011 207.33,222.178 207.5,223.5C 204.833,223.5 202.167,223.5 199.5,223.5C 198.662,223.158 198.328,222.492 198.5,221.5C 201.247,221.813 203.914,221.48 206.5,220.5C 209.197,216.832 212.864,215.665 217.5,217C 218.163,218.518 219.163,219.685 220.5,220.5 Z"/></g>
<g><path style="opacity:1" fill="#8b8483" d="M 161.5,230.5 C 161.5,233.5 161.5,236.5 161.5,239.5C 158.833,239.5 156.167,239.5 153.5,239.5C 153.5,236.5 153.5,233.5 153.5,230.5C 156.167,230.5 158.833,230.5 161.5,230.5 Z"/></g>
<g><path style="opacity:0.987" fill="#01173c" d="M 107.5,221.5 C 110.167,221.5 112.833,221.5 115.5,221.5C 115.5,235.167 115.5,248.833 115.5,262.5C 112.833,262.5 110.167,262.5 107.5,262.5C 107.819,257.637 107.486,252.97 106.5,248.5C 104.052,247.527 101.385,247.194 98.5,247.5C 98.5,244.833 98.5,242.167 98.5,239.5C 101.5,239.5 104.5,239.5 107.5,239.5C 107.5,233.5 107.5,227.5 107.5,221.5 Z"/></g>
<g><path style="opacity:1" fill="#0b2e9d" d="M 221.5,231.5 C 225.167,231.5 228.833,231.5 232.5,231.5C 232.5,233.167 232.5,234.833 232.5,236.5C 237.167,236.5 241.833,236.5 246.5,236.5C 246.216,238.415 246.549,240.081 247.5,241.5C 248.531,242.249 249.698,242.915 251,243.5C 251.5,249.825 251.666,256.158 251.5,262.5C 240.167,262.5 228.833,262.5 217.5,262.5C 217.708,260.08 217.374,257.747 216.5,255.5C 218.396,254.534 220.396,254.201 222.5,254.5C 223.099,250.426 222.099,246.926 219.5,244C 218.545,240.529 218.378,237.029 219,233.5C 219.995,232.934 220.828,232.267 221.5,231.5 Z"/></g>
<g><path style="opacity:1" fill="#662c5b" d="M 52.5,229.5 C 52.5,230.167 52.1667,230.5 51.5,230.5C 49.1667,230.5 46.8333,230.5 44.5,230.5C 44.5,233.5 44.5,236.5 44.5,239.5C 44.1667,239.5 43.8333,239.5 43.5,239.5C 43.5,238.5 43.5,237.5 43.5,236.5C 43.5,234.167 43.5,231.833 43.5,229.5C 46.5,229.5 49.5,229.5 52.5,229.5 Z"/></g>
<g><path style="opacity:1" fill="#8e8587" d="M 116.5,230.5 C 119.167,230.5 121.833,230.5 124.5,230.5C 124.5,233.5 124.5,236.5 124.5,239.5C 121.833,239.5 119.167,239.5 116.5,239.5C 116.5,236.5 116.5,233.5 116.5,230.5 Z"/></g>
<g><path style="opacity:1" fill="#4b0208" d="M 151.5,229.5 C 151.5,240.5 151.5,251.5 151.5,262.5C 149.167,262.5 146.833,262.5 144.5,262.5C 144.485,255.121 144.652,247.788 145,240.5C 144.5,240 144,239.5 143.5,239C 140.183,238.502 136.85,238.335 133.5,238.5C 133.5,246.5 133.5,254.5 133.5,262.5C 130.833,262.5 128.167,262.5 125.5,262.5C 125.5,254.833 125.5,247.167 125.5,239.5C 125.5,236.833 125.5,234.167 125.5,231.5C 126.289,231.217 126.956,230.717 127.5,230C 135.493,229.5 143.493,229.334 151.5,229.5 Z"/></g>
<g><path style="opacity:1" fill="#0f2f5f" d="M 170.5,221.5 C 173.5,221.5 176.5,221.5 179.5,221.5C 179.5,227.5 179.5,233.5 179.5,239.5C 176.5,239.5 173.5,239.5 170.5,239.5C 170.5,233.5 170.5,227.5 170.5,221.5 Z"/></g>
<g><path style="opacity:1" fill="#0b173c" d="M 51.5,230.5 C 52.388,233.054 52.7214,235.721 52.5,238.5C 49.7212,238.279 47.0545,238.612 44.5,239.5C 44.5,236.5 44.5,233.5 44.5,230.5C 46.8333,230.5 49.1667,230.5 51.5,230.5 Z"/></g>
<g><path style="opacity:1" fill="#f156a1" d="M 14.5,231.5 C 15.4345,232.568 15.7678,233.901 15.5,235.5C 24.6822,235.173 33.6822,235.507 42.5,236.5C 33.1667,236.5 23.8333,236.5 14.5,236.5C 14.5,234.833 14.5,233.167 14.5,231.5 Z"/></g>
<g><path style="opacity:1" fill="#0d35a0" d="M 221.5,231.5 C 220.828,232.267 219.995,232.934 219,233.5C 218.378,237.029 218.545,240.529 219.5,244C 222.099,246.926 223.099,250.426 222.5,254.5C 220.396,254.201 218.396,254.534 216.5,255.5C 217.374,257.747 217.708,260.08 217.5,262.5C 216.833,262.5 216.167,262.5 215.5,262.5C 215.5,260.833 215.5,259.167 215.5,257.5C 212.881,257.768 210.381,257.435 208,256.5C 207.088,251.536 206.588,246.536 206.5,241.5C 207.496,241.586 208.329,241.252 209,240.5C 210.773,237.582 212.273,234.582 213.5,231.5C 216.167,231.5 218.833,231.5 221.5,231.5 Z"/></g>
<g><path style="opacity:0.998" fill="#ee3dba" d="M 10.5,236.5 C 11.8333,236.5 13.1667,236.5 14.5,236.5C 23.8333,236.5 33.1667,236.5 42.5,236.5C 40.1433,238.098 37.4766,239.098 34.5,239.5C 33.5111,244.975 33.1778,250.642 33.5,256.5C 30.6146,256.194 27.9479,256.527 25.5,257.5C 25.5,259.167 25.5,260.833 25.5,262.5C 21.8333,262.5 18.1667,262.5 14.5,262.5C 15.1045,257.806 14.2711,253.472 12,249.5C 11.7725,245.083 11.2725,240.75 10.5,236.5 Z"/></g>
<g><path style="opacity:1" fill="#051f47" d="M 80.5,221.5 C 89.5,221.5 98.5,221.5 107.5,221.5C 107.5,227.5 107.5,233.5 107.5,239.5C 104.5,239.5 101.5,239.5 98.5,239.5C 98.5,242.167 98.5,244.833 98.5,247.5C 101.385,247.194 104.052,247.527 106.5,248.5C 103.5,248.5 100.5,248.5 97.5,248.5C 97.5,245.5 97.5,242.5 97.5,239.5C 94.5,239.5 91.5,239.5 88.5,239.5C 88.5,236.5 88.5,233.5 88.5,230.5C 85.5,230.5 82.5,230.5 79.5,230.5C 79.9629,227.518 80.2962,224.518 80.5,221.5 Z"/></g>
<g><path style="opacity:1" fill="#0d2e60" d="M 89.5,222.5 C 95.1667,222.5 100.833,222.5 106.5,222.5C 106.5,227.833 106.5,233.167 106.5,238.5C 103.833,238.5 101.167,238.5 98.5,238.5C 98.5,235.5 98.5,232.5 98.5,229.5C 95.5,229.5 92.5,229.5 89.5,229.5C 89.5,227.167 89.5,224.833 89.5,222.5 Z"/></g>
<g><path style="opacity:0.965" fill="#f441d5" d="M 1.5,236.5 C 4.5,236.5 7.5,236.5 10.5,236.5C 11.2725,240.75 11.7725,245.083 12,249.5C 14.2711,253.472 15.1045,257.806 14.5,262.5C 10.1667,262.5 5.83333,262.5 1.5,262.5C 1.5,253.833 1.5,245.167 1.5,236.5 Z"/></g>
<g><path style="opacity:1" fill="#99378f" d="M 42.5,236.5 C 42.8333,236.5 43.1667,236.5 43.5,236.5C 43.5,237.5 43.5,238.5 43.5,239.5C 43.1667,239.5 42.8333,239.5 42.5,239.5C 39.8333,239.5 37.1667,239.5 34.5,239.5C 37.4766,239.098 40.1433,238.098 42.5,236.5 Z"/></g>
<g><path style="opacity:0.99" fill="#073eb3" d="M 264.5,236.5 C 264.5,245.167 264.5,253.833 264.5,262.5C 260.167,262.5 255.833,262.5 251.5,262.5C 251.666,256.158 251.5,249.825 251,243.5C 249.698,242.915 248.531,242.249 247.5,241.5C 250.833,241.5 254.167,241.5 257.5,241.5C 257.5,239.833 257.5,238.167 257.5,236.5C 259.833,236.5 262.167,236.5 264.5,236.5 Z"/></g>
<g><path style="opacity:0.98" fill="#f5f4f4" d="M 116.5,239.5 C 119.167,239.5 121.833,239.5 124.5,239.5C 124.833,239.5 125.167,239.5 125.5,239.5C 125.5,247.167 125.5,254.833 125.5,262.5C 122.5,262.5 119.5,262.5 116.5,262.5C 116.5,254.833 116.5,247.167 116.5,239.5 Z"/></g>
<g><path style="opacity:1" fill="#0a59bf" d="M 232.5,231.5 C 233.434,232.568 233.768,233.901 233.5,235.5C 238.167,235.5 242.833,235.5 247.5,235.5C 247.5,237.167 247.5,238.833 247.5,240.5C 250.5,240.5 253.5,240.5 256.5,240.5C 256.5,238.833 256.5,237.167 256.5,235.5C 259.167,235.5 261.833,235.5 264.5,235.5C 264.5,235.833 264.5,236.167 264.5,236.5C 262.167,236.5 259.833,236.5 257.5,236.5C 257.5,238.167 257.5,239.833 257.5,241.5C 254.167,241.5 250.833,241.5 247.5,241.5C 246.549,240.081 246.216,238.415 246.5,236.5C 241.833,236.5 237.167,236.5 232.5,236.5C 232.5,234.833 232.5,233.167 232.5,231.5 Z"/></g>
<g><path style="opacity:1" fill="#381353" d="M 34.5,239.5 C 37.1667,239.5 39.8333,239.5 42.5,239.5C 40.3926,240.468 38.0593,240.802 35.5,240.5C 35.5,246.167 35.5,251.833 35.5,257.5C 35.1667,257.5 34.8333,257.5 34.5,257.5C 34.5,251.5 34.5,245.5 34.5,239.5 Z"/></g>
<g><path style="opacity:0.981" fill="#f6f3f1" d="M 152.5,239.5 C 152.833,239.5 153.167,239.5 153.5,239.5C 156.167,239.5 158.833,239.5 161.5,239.5C 161.5,247.167 161.5,254.833 161.5,262.5C 158.5,262.5 155.5,262.5 152.5,262.5C 152.5,254.833 152.5,247.167 152.5,239.5 Z"/></g>
<g><path style="opacity:1" fill="#04173d" d="M 42.5,239.5 C 42.8333,239.5 43.1667,239.5 43.5,239.5C 43.8333,239.5 44.1667,239.5 44.5,239.5C 43.5447,245.409 43.2114,251.409 43.5,257.5C 40.8333,257.5 38.1667,257.5 35.5,257.5C 35.5,251.833 35.5,246.167 35.5,240.5C 38.0593,240.802 40.3926,240.468 42.5,239.5 Z"/></g>
<g><path style="opacity:0.971" fill="#163461" d="M 179.5,239.5 C 185.5,239.5 191.5,239.5 197.5,239.5C 197.5,245.5 197.5,251.5 197.5,257.5C 200.167,257.5 202.833,257.5 205.5,257.5C 206.167,257.5 206.5,257.833 206.5,258.5C 206.5,259.833 206.5,261.167 206.5,262.5C 200.5,262.5 194.5,262.5 188.5,262.5C 188.5,257.833 188.5,253.167 188.5,248.5C 185.5,248.5 182.5,248.5 179.5,248.5C 179.5,245.5 179.5,242.5 179.5,239.5 Z"/></g>
<g><path style="opacity:1" fill="#0a2b5c" d="M 70.5,212.5 C 73.1873,212.336 75.854,212.503 78.5,213C 79.1233,215.607 79.79,218.107 80.5,220.5C 80.5,220.833 80.5,221.167 80.5,221.5C 80.2962,224.518 79.9629,227.518 79.5,230.5C 73.5,230.5 67.5,230.5 61.5,230.5C 61.7771,233.448 61.4438,236.281 60.5,239C 57.854,239.497 55.1873,239.664 52.5,239.5C 52.666,244.844 52.4994,250.177 52,255.5C 50.2197,256.594 48.3864,257.594 46.5,258.5C 45.1468,259.524 44.4802,260.857 44.5,262.5C 41.1667,262.5 37.8333,262.5 34.5,262.5C 34.5,260.833 34.5,259.167 34.5,257.5C 34.8333,257.5 35.1667,257.5 35.5,257.5C 38.1667,257.5 40.8333,257.5 43.5,257.5C 43.2114,251.409 43.5447,245.409 44.5,239.5C 47.0545,238.612 49.7212,238.279 52.5,238.5C 52.7214,235.721 52.388,233.054 51.5,230.5C 52.1667,230.5 52.5,230.167 52.5,229.5C 53.1667,229.5 53.5,229.167 53.5,228.5C 56.0545,229.388 58.7212,229.721 61.5,229.5C 61.8064,226.615 61.4731,223.948 60.5,221.5C 60.5,221.167 60.5,220.833 60.5,220.5C 61.1667,220.5 61.5,220.167 61.5,219.5C 64.3915,220.403 67.3915,220.736 70.5,220.5C 70.5,217.833 70.5,215.167 70.5,212.5 Z"/></g>
<g><path style="opacity:1" fill="#700a10" d="M 144.5,262.5 C 143.833,262.5 143.167,262.5 142.5,262.5C 142.5,254.833 142.5,247.167 142.5,239.5C 139.833,239.5 137.167,239.5 134.5,239.5C 134.5,247.167 134.5,254.833 134.5,262.5C 134.167,262.5 133.833,262.5 133.5,262.5C 133.5,254.5 133.5,246.5 133.5,238.5C 136.85,238.335 140.183,238.502 143.5,239C 144,239.5 144.5,240 145,240.5C 144.652,247.788 144.485,255.121 144.5,262.5 Z"/></g>
<g><path style="opacity:1" fill="#ac1d24" d="M 142.5,262.5 C 139.833,262.5 137.167,262.5 134.5,262.5C 134.5,254.833 134.5,247.167 134.5,239.5C 137.167,239.5 139.833,239.5 142.5,239.5C 142.5,247.167 142.5,254.833 142.5,262.5 Z"/></g>
<g><path style="opacity:1" fill="#011a42" d="M 80.5,262.5 C 77.1667,262.5 73.8333,262.5 70.5,262.5C 70.5,260.833 70.5,259.167 70.5,257.5C 73.5,257.5 76.5,257.5 79.5,257.5C 79.5,254.833 79.5,252.167 79.5,249.5C 82.2869,248.523 85.2869,248.19 88.5,248.5C 88.5,251.5 88.5,254.5 88.5,257.5C 85.8333,257.5 83.1667,257.5 80.5,257.5C 80.5,259.167 80.5,260.833 80.5,262.5 Z"/></g>
<g><path style="opacity:0.962" fill="#00193e" d="M 179.5,248.5 C 182.5,248.5 185.5,248.5 188.5,248.5C 188.5,253.167 188.5,257.833 188.5,262.5C 185.5,262.5 182.5,262.5 179.5,262.5C 179.5,257.833 179.5,253.167 179.5,248.5 Z"/></g>
<g><path style="opacity:1" fill="#0c2c60" d="M 79.5,249.5 C 79.5,252.167 79.5,254.833 79.5,257.5C 76.5,257.5 73.5,257.5 70.5,257.5C 70.5,259.167 70.5,260.833 70.5,262.5C 67.5,262.5 64.5,262.5 61.5,262.5C 61.5,260.833 61.5,259.167 61.5,257.5C 64.4552,256.841 67.4552,256.508 70.5,256.5C 71.2432,251.403 74.2432,249.07 79.5,249.5 Z"/></g>
<g><path style="opacity:1" fill="#031a3f" d="M 197.5,239.5 C 200.167,239.5 202.833,239.5 205.5,239.5C 204.377,245.481 204.377,251.481 205.5,257.5C 202.833,257.5 200.167,257.5 197.5,257.5C 197.5,251.5 197.5,245.5 197.5,239.5 Z"/></g>
<g><path style="opacity:1" fill="#a63f9c" d="M 34.5,239.5 C 34.5,245.5 34.5,251.5 34.5,257.5C 31.5,257.5 28.5,257.5 25.5,257.5C 27.9479,256.527 30.6146,256.194 33.5,256.5C 33.1778,250.642 33.5111,244.975 34.5,239.5 Z"/></g>
<g><path style="opacity:1" fill="#0f3061" d="M 179.5,248.5 C 179.5,253.167 179.5,257.833 179.5,262.5C 176.5,262.5 173.5,262.5 170.5,262.5C 170.5,257.833 170.5,253.167 170.5,248.5C 173.5,248.5 176.5,248.5 179.5,248.5 Z"/></g>
<g><path style="opacity:1" fill="#031e56" d="M 205.5,239.5 C 206.338,239.842 206.672,240.508 206.5,241.5C 206.588,246.536 207.088,251.536 208,256.5C 210.381,257.435 212.881,257.768 215.5,257.5C 215.5,259.167 215.5,260.833 215.5,262.5C 215.167,262.5 214.833,262.5 214.5,262.5C 214.5,261.167 214.5,259.833 214.5,258.5C 211.833,258.5 209.167,258.5 206.5,258.5C 206.5,257.833 206.167,257.5 205.5,257.5C 204.377,251.481 204.377,245.481 205.5,239.5 Z"/></g>
<g><path style="opacity:0.624" fill="#141343" d="M 25.5,257.5 C 28.5,257.5 31.5,257.5 34.5,257.5C 34.5,259.167 34.5,260.833 34.5,262.5C 31.5,262.5 28.5,262.5 25.5,262.5C 25.5,260.833 25.5,259.167 25.5,257.5 Z"/></g>
<g><path style="opacity:0.624" fill="#02193d" d="M 206.5,258.5 C 209.167,258.5 211.833,258.5 214.5,258.5C 214.5,259.833 214.5,261.167 214.5,262.5C 211.833,262.5 209.167,262.5 206.5,262.5C 206.5,261.167 206.5,259.833 206.5,258.5 Z"/></g>
</svg>
