<?xml version="1.0" encoding="UTF-8"?>
<!DOCTYPE svg PUBLIC "-//W3C//DTD SVG 1.1//EN" "http://www.w3.org/Graphics/SVG/1.1/DTD/svg11.dtd">
<svg xmlns="http://www.w3.org/2000/svg" version="1.1" width="265px" height="266px" style="shape-rendering:geometricPrecision; text-rendering:geometricPrecision; image-rendering:optimizeQuality; fill-rule:evenodd; clip-rule:evenodd" xmlns:xlink="http://www.w3.org/1999/xlink">
<g><path style="opacity:0.997" fill="#769da2" d="M 2.5,-0.5 C 88.8333,-0.5 175.167,-0.5 261.5,-0.5C 262.167,0.833333 263.167,1.83333 264.5,2.5C 264.5,89.1667 264.5,175.833 264.5,262.5C 263.128,263.512 261.795,264.512 260.5,265.5C 252.833,265.5 245.167,265.5 237.5,265.5C 238.962,256.473 238.795,247.473 237,238.5C 227.88,212.584 214.88,188.918 198,167.5C 193.903,163.202 189.069,160.035 183.5,158C 192.776,151.612 199.276,143.112 203,132.5C 203.667,128.167 203.667,123.833 203,119.5C 202.76,117.148 201.927,115.148 200.5,113.5C 200.5,113.167 200.5,112.833 200.5,112.5C 200.5,110.167 200.5,107.833 200.5,105.5C 201.167,105.167 201.833,104.833 202.5,104.5C 203.5,104.167 204.167,103.5 204.5,102.5C 206.06,95.6623 205.393,88.9956 202.5,82.5C 204.121,80.3761 205.954,78.3761 208,76.5C 209.1,70.8048 207.933,65.6382 204.5,61C 204.743,60.0979 205.077,59.2646 205.5,58.5C 206.552,58.6495 207.552,58.4828 208.5,58C 207.54,56.5806 206.707,55.0806 206,53.5C 198.846,44.3474 191.013,35.8474 182.5,28C 170.677,21.3789 158.01,18.8789 144.5,20.5C 134.184,20.0224 124.184,21.0224 114.5,23.5C 102.091,23.6009 90.7577,27.1009 80.5,34C 76.7978,37.9234 73.4644,42.09 70.5,46.5C 69.1092,48.9596 67.9425,51.6262 67,54.5C 65.5741,66.486 63.4074,78.3193 60.5,90C 60.5143,91.3847 60.8476,92.5514 61.5,93.5C 62.1667,93.5 62.8333,93.5 63.5,93.5C 64.795,94.4884 66.1283,95.4884 67.5,96.5C 67.6641,99.1873 67.4974,101.854 67,104.5C 62.7038,110.845 61.3705,117.845 63,125.5C 63.6082,127.066 64.4415,128.4 65.5,129.5C 65.6596,131.153 66.3263,132.486 67.5,133.5C 69.9366,137.945 72.1033,142.612 74,147.5C 75.4578,149.96 77.2911,152.127 79.5,154C 72.8639,156.983 66.1972,159.983 59.5,163C 55.3333,165.833 51.8333,169.333 49,173.5C 45.0606,181.045 41.394,188.712 38,196.5C 33.9885,210.869 28.9885,224.869 23,238.5C 21.1687,247.464 21.0021,256.464 22.5,265.5C 16.5,265.5 10.5,265.5 4.5,265.5C 2.77976,264.692 1.1131,263.692 -0.5,262.5C -0.5,175.833 -0.5,89.1667 -0.5,2.5C 0.833333,1.83333 1.83333,0.833333 2.5,-0.5 Z"/></g>
<g><path style="opacity:1" fill="#3330a4" d="M 205.5,58.5 C 205.392,56.2166 204.559,54.2166 203,52.5C 197.167,46 191.333,39.5 185.5,33C 177.835,26.8921 169.168,23.5587 159.5,23C 169.841,28.1944 179.174,34.6944 187.5,42.5C 178.889,36.5203 169.889,31.0203 160.5,26C 153.294,21.9833 145.627,20.65 137.5,22C 144.157,22.9968 150.49,24.9968 156.5,28C 162.61,32.3773 168.277,37.2106 173.5,42.5C 172.078,42.2914 170.745,41.7914 169.5,41C 162.466,33.6322 154.133,28.2989 144.5,25C 139.556,24.0025 134.556,23.5025 129.5,23.5C 125.761,23.5136 122.428,24.1803 119.5,25.5C 116.402,25.5875 116.068,25.0875 118.5,24C 117.207,23.51 115.873,23.3433 114.5,23.5C 124.184,21.0224 134.184,20.0224 144.5,20.5C 158.01,18.8789 170.677,21.3789 182.5,28C 191.013,35.8474 198.846,44.3474 206,53.5C 206.707,55.0806 207.54,56.5806 208.5,58C 207.552,58.4828 206.552,58.6495 205.5,58.5 Z"/></g>
<g><path style="opacity:1" fill="#b4a3d9" d="M 173.5,42.5 C 175.5,44.1667 177.5,45.8333 179.5,47.5C 176.234,47.3706 173.234,46.3706 170.5,44.5C 169.702,44.9569 169.369,45.6236 169.5,46.5C 169.167,46.5 168.833,46.5 168.5,46.5C 167.5,45.8333 166.5,45.1667 165.5,44.5C 166.552,44.6495 167.552,44.4828 168.5,44C 161.149,40.4944 154.149,36.3278 147.5,31.5C 144.068,29.5203 140.402,28.0203 136.5,27C 134.934,26.235 133.601,26.4017 132.5,27.5C 128.167,26.8333 123.833,26.1667 119.5,25.5C 122.428,24.1803 125.761,23.5136 129.5,23.5C 134.556,23.5025 139.556,24.0025 144.5,25C 154.133,28.2989 162.466,33.6322 169.5,41C 170.745,41.7914 172.078,42.2914 173.5,42.5 Z"/></g>
<g><path style="opacity:1" fill="#acade0" d="M 187.5,42.5 C 179.174,34.6944 169.841,28.1944 159.5,23C 169.168,23.5587 177.835,26.8921 185.5,33C 191.333,39.5 197.167,46 203,52.5C 204.559,54.2166 205.392,56.2166 205.5,58.5C 195.444,53.4719 184.777,48.1386 173.5,42.5C 168.277,37.2106 162.61,32.3773 156.5,28C 150.49,24.9968 144.157,22.9968 137.5,22C 145.627,20.65 153.294,21.9833 160.5,26C 169.889,31.0203 178.889,36.5203 187.5,42.5 Z"/></g>
<g><path style="opacity:1" fill="#a5b8e4" d="M 165.5,44.5 C 154.618,38.5591 143.618,32.8925 132.5,27.5C 133.601,26.4017 134.934,26.235 136.5,27C 140.402,28.0203 144.068,29.5203 147.5,31.5C 154.149,36.3278 161.149,40.4944 168.5,44C 167.552,44.4828 166.552,44.6495 165.5,44.5 Z"/></g>
<g><path style="opacity:1" fill="#a4bce5" d="M 122.5,28.5 C 133.916,38.3799 146.583,46.5465 160.5,53C 159.906,53.4643 159.239,53.631 158.5,53.5C 153.388,52.4707 148.388,50.9707 143.5,49C 135.473,44.989 128.14,39.989 121.5,34C 117.654,31.997 113.654,30.497 109.5,29.5C 107.436,29.313 105.436,28.813 103.5,28C 110.014,27.18 116.347,27.3467 122.5,28.5 Z"/></g>
<g><path style="opacity:1" fill="#2d29a4" d="M 114.5,23.5 C 115.873,23.3433 117.207,23.51 118.5,24C 116.068,25.0875 116.402,25.5875 119.5,25.5C 123.833,26.1667 128.167,26.8333 132.5,27.5C 143.618,32.8925 154.618,38.5591 165.5,44.5C 166.5,45.1667 167.5,45.8333 168.5,46.5C 168.158,47.3382 167.492,47.6716 166.5,47.5C 156.848,43.3638 147.514,38.5305 138.5,33C 133.33,30.8746 127.997,29.3746 122.5,28.5C 116.347,27.3467 110.014,27.18 103.5,28C 105.436,28.813 107.436,29.313 109.5,29.5C 108.791,30.404 107.791,30.7373 106.5,30.5C 99.3609,30.1782 92.3609,31.0115 85.5,33C 84.8333,33.6667 84.1667,34.3333 83.5,35C 88.882,35.2648 94.2154,35.7648 99.5,36.5C 103.162,37.8319 106.828,39.1652 110.5,40.5C 110.5,41.1667 110.167,41.5 109.5,41.5C 100.18,37.8217 90.5128,36.6551 80.5,38C 77.5914,39.4055 75.5914,41.5722 74.5,44.5C 73.0256,45.4363 72.0256,46.7697 71.5,48.5C 70.6618,48.1583 70.3284,47.4916 70.5,46.5C 73.4644,42.09 76.7978,37.9234 80.5,34C 90.7577,27.1009 102.091,23.6009 114.5,23.5 Z"/></g>
<g><path style="opacity:1" fill="#b6a4da" d="M 106.5,30.5 C 112.319,31.9447 117.985,34.1114 123.5,37C 128.065,41.0755 132.732,44.9088 137.5,48.5C 127.888,43.6767 117.888,39.5101 107.5,36C 104.633,35.1993 101.966,35.3659 99.5,36.5C 94.2154,35.7648 88.882,35.2648 83.5,35C 84.1667,34.3333 84.8333,33.6667 85.5,33C 92.3609,31.0115 99.3609,30.1782 106.5,30.5 Z"/></g>
<g><path style="opacity:1" fill="#b5a2d8" d="M 109.5,41.5 C 118.374,46.4369 127.374,51.1036 136.5,55.5C 129.658,54.984 122.825,54.3173 116,53.5C 113.123,53.4373 112.289,54.4373 113.5,56.5C 118.387,58.1999 123.387,59.5332 128.5,60.5C 111.93,60.0256 95.7636,57.3589 80,52.5C 78.9701,52.8361 78.4701,53.5028 78.5,54.5C 77.5768,53.6971 76.5768,53.5304 75.5,54C 77.0009,55.2515 78.6675,56.2515 80.5,57C 84.8911,58.1805 89.2245,59.5139 93.5,61C 87.2508,61.6058 81.2508,60.6058 75.5,58C 72.2445,55.3644 70.9111,52.1978 71.5,48.5C 72.0256,46.7697 73.0256,45.4363 74.5,44.5C 75.5914,41.5722 77.5914,39.4055 80.5,38C 90.5128,36.6551 100.18,37.8217 109.5,41.5 Z"/></g>
<g><path style="opacity:1" fill="#b7a3d9" d="M 122.5,28.5 C 127.997,29.3746 133.33,30.8746 138.5,33C 147.514,38.5305 156.848,43.3638 166.5,47.5C 176.562,52.036 186.896,55.7026 197.5,58.5C 193.846,58.0578 190.179,57.7244 186.5,57.5C 176.849,57.4627 167.516,56.1294 158.5,53.5C 159.239,53.631 159.906,53.4643 160.5,53C 146.583,46.5465 133.916,38.3799 122.5,28.5 Z"/></g>
<g><path style="opacity:1" fill="#5655ae" d="M 187.5,42.5 C 189.544,43.0312 191.211,44.1978 192.5,46C 190.228,45.9232 188.562,44.7565 187.5,42.5 Z"/></g>
<g><path style="opacity:1" fill="#4642ae" d="M 74.5,44.5 C 84.1154,43.4899 92.4487,46.1566 99.5,52.5C 94.3014,50.0696 88.9681,47.9029 83.5,46C 80.854,45.5026 78.1873,45.3359 75.5,45.5C 74.8333,45.5 74.5,45.1667 74.5,44.5 Z"/></g>
<g><path style="opacity:1" fill="#3d37a8" d="M 110.5,40.5 C 122.231,48.0316 134.898,53.3649 148.5,56.5C 149.833,57.1667 151.167,57.8333 152.5,58.5C 152.918,59.2216 153.584,59.7216 154.5,60C 150.975,60.1787 147.641,60.6787 144.5,61.5C 139.167,61.1667 133.833,60.8333 128.5,60.5C 123.387,59.5332 118.387,58.1999 113.5,56.5C 125.449,58.2181 137.449,59.0515 149.5,59C 145.191,57.6731 140.858,56.5065 136.5,55.5C 127.374,51.1036 118.374,46.4369 109.5,41.5C 110.167,41.5 110.5,41.1667 110.5,40.5 Z"/></g>
<g><path style="opacity:1" fill="#443aa8" d="M 109.5,29.5 C 113.654,30.497 117.654,31.997 121.5,34C 128.14,39.989 135.473,44.989 143.5,49C 148.388,50.9707 153.388,52.4707 158.5,53.5C 167.516,56.1294 176.849,57.4627 186.5,57.5C 184.735,58.4614 182.735,58.7947 180.5,58.5C 165.515,57.9696 151.182,54.6363 137.5,48.5C 132.732,44.9088 128.065,41.0755 123.5,37C 117.985,34.1114 112.319,31.9447 106.5,30.5C 107.791,30.7373 108.791,30.404 109.5,29.5 Z"/></g>
<g><path style="opacity:1" fill="#a9bae5" d="M 75.5,45.5 C 78.1873,45.3359 80.854,45.5026 83.5,46C 88.9681,47.9029 94.3014,50.0696 99.5,52.5C 101.255,53.7918 103.255,54.7918 105.5,55.5C 102.861,56.3565 100.194,56.1898 97.5,55C 93.0469,53.2737 88.7136,51.2737 84.5,49C 81.2473,47.9635 77.914,47.2969 74.5,47C 75.056,46.6174 75.3893,46.1174 75.5,45.5 Z"/></g>
<g><path style="opacity:1" fill="#a4b9e4" d="M 99.5,36.5 C 101.966,35.3659 104.633,35.1993 107.5,36C 117.888,39.5101 127.888,43.6767 137.5,48.5C 140.861,52.5193 145.195,55.0193 150.5,56C 149.906,56.4643 149.239,56.631 148.5,56.5C 134.898,53.3649 122.231,48.0316 110.5,40.5C 106.828,39.1652 103.162,37.8319 99.5,36.5 Z"/></g>
<g><path style="opacity:1" fill="#9fafe6" d="M 179.5,47.5 C 184.66,50.2453 189.994,52.7453 195.5,55C 186.389,53.6854 177.722,50.8521 169.5,46.5C 169.369,45.6236 169.702,44.9569 170.5,44.5C 173.234,46.3706 176.234,47.3706 179.5,47.5 Z"/></g>
<g><path style="opacity:1" fill="#a6b8e4" d="M 136.5,55.5 C 140.858,56.5065 145.191,57.6731 149.5,59C 137.449,59.0515 125.449,58.2181 113.5,56.5C 112.289,54.4373 113.123,53.4373 116,53.5C 122.825,54.3173 129.658,54.984 136.5,55.5 Z"/></g>
<g><path style="opacity:1" fill="#a7a2db" d="M 137.5,48.5 C 151.182,54.6363 165.515,57.9696 180.5,58.5C 180.5,58.8333 180.5,59.1667 180.5,59.5C 171.156,60.3796 161.823,60.0463 152.5,58.5C 151.167,57.8333 149.833,57.1667 148.5,56.5C 149.239,56.631 149.906,56.4643 150.5,56C 145.195,55.0193 140.861,52.5193 137.5,48.5 Z"/></g>
<g><path style="opacity:1" fill="#7e69ca" d="M 186.5,57.5 C 190.179,57.7244 193.846,58.0578 197.5,58.5C 193.366,59.4849 189.032,59.8182 184.5,59.5C 183.167,59.5 181.833,59.5 180.5,59.5C 180.5,59.1667 180.5,58.8333 180.5,58.5C 182.735,58.7947 184.735,58.4614 186.5,57.5 Z"/></g>
<g><path style="opacity:1" fill="#3d35a7" d="M 173.5,42.5 C 184.777,48.1386 195.444,53.4719 205.5,58.5C 205.077,59.2646 204.743,60.0979 204.5,61C 207.933,65.6382 209.1,70.8048 208,76.5C 205.954,78.3761 204.121,80.3761 202.5,82.5C 205.393,88.9956 206.06,95.6623 204.5,102.5C 203.51,99.2613 202.51,95.928 201.5,92.5C 202.65,93.8502 203.317,93.6836 203.5,92C 202.115,86.3975 199.782,81.2309 196.5,76.5C 197.355,75.707 198.189,76.0403 199,77.5C 199.47,76.4232 199.303,75.4232 198.5,74.5C 198.5,73.8333 198.833,73.5 199.5,73.5C 200.491,75.4823 201.491,77.4823 202.5,79.5C 203.522,79.1445 204.189,78.4778 204.5,77.5C 205.812,76.8549 206.812,75.8549 207.5,74.5C 205.815,69.7826 203.148,65.7826 199.5,62.5C 196.57,61.701 193.57,61.3677 190.5,61.5C 188.5,60.8333 186.5,60.1667 184.5,59.5C 189.032,59.8182 193.366,59.4849 197.5,58.5C 186.896,55.7026 176.562,52.036 166.5,47.5C 167.492,47.6716 168.158,47.3382 168.5,46.5C 168.833,46.5 169.167,46.5 169.5,46.5C 177.722,50.8521 186.389,53.6854 195.5,55C 189.994,52.7453 184.66,50.2453 179.5,47.5C 177.5,45.8333 175.5,44.1667 173.5,42.5 Z"/></g>
<g><path style="opacity:1" fill="#a3ace2" d="M 87.5,62.5 C 87.5,62.8333 87.5,63.1667 87.5,63.5C 80.7976,65.287 74.631,63.9537 69,59.5C 68.1923,57.4213 68.359,55.4213 69.5,53.5C 73.6095,60.2214 79.6095,63.2214 87.5,62.5 Z"/></g>
<g><path style="opacity:1" fill="#a1afe1" d="M 128.5,60.5 C 133.833,60.8333 139.167,61.1667 144.5,61.5C 148.846,61.3343 153.179,61.501 157.5,62C 157.167,62.3333 156.833,62.6667 156.5,63C 149.863,63.8926 143.197,64.3926 136.5,64.5C 125.441,64.0118 114.441,63.0118 103.5,61.5C 102.791,60.596 101.791,60.2627 100.5,60.5C 92.9755,59.1194 85.6422,57.1194 78.5,54.5C 78.4701,53.5028 78.9701,52.8361 80,52.5C 95.7636,57.3589 111.93,60.0256 128.5,60.5 Z"/></g>
<g><path style="opacity:1" fill="#a995dc" d="M 199.5,62.5 C 199.389,61.8826 199.056,61.3826 198.5,61C 201.531,59.9252 203.531,60.9252 204.5,64C 202.811,63.8657 201.144,63.3657 199.5,62.5 Z"/></g>
<g><path style="opacity:1" fill="#6e5db7" d="M 190.5,61.5 C 192.349,62.593 194.016,63.9263 195.5,65.5C 194.761,65.369 194.094,65.5357 193.5,66C 195.629,68.4392 197.629,70.9392 199.5,73.5C 198.833,73.5 198.5,73.8333 198.5,74.5C 195.367,70.2679 192.367,66.4346 189.5,63C 187.167,62.3333 184.833,62.3333 182.5,63C 185.333,65.8333 188.167,68.6667 191,71.5C 192.626,74.0583 193.626,76.725 194,79.5C 190.635,73.1287 186.135,67.6287 180.5,63C 179.5,62.3333 178.5,62.3333 177.5,63C 179.618,64.0491 181.284,65.5491 182.5,67.5C 181.833,67.5 181.5,67.8333 181.5,68.5C 179.167,66.8333 177.167,64.8333 175.5,62.5C 180.405,61.5546 185.405,61.2213 190.5,61.5 Z"/></g>
<g><path style="opacity:1" fill="#7971c6" d="M 100.5,60.5 C 101.791,60.2627 102.791,60.596 103.5,61.5C 102.761,61.369 102.094,61.5357 101.5,62C 104.457,62.2794 107.123,63.1127 109.5,64.5C 107.5,64.5 105.5,64.5 103.5,64.5C 98.3595,63.5119 93.0262,63.1786 87.5,63.5C 87.5,63.1667 87.5,62.8333 87.5,62.5C 92.1219,62.8439 96.4552,62.1773 100.5,60.5 Z"/></g>
<g><path style="opacity:1" fill="#2d249d" d="M 152.5,58.5 C 161.823,60.0463 171.156,60.3796 180.5,59.5C 181.833,59.5 183.167,59.5 184.5,59.5C 186.5,60.1667 188.5,60.8333 190.5,61.5C 185.405,61.2213 180.405,61.5546 175.5,62.5C 168.429,62.6781 161.429,63.5114 154.5,65C 139.489,65.6425 124.489,65.4758 109.5,64.5C 107.123,63.1127 104.457,62.2794 101.5,62C 102.094,61.5357 102.761,61.369 103.5,61.5C 114.441,63.0118 125.441,64.0118 136.5,64.5C 143.197,64.3926 149.863,63.8926 156.5,63C 156.833,62.6667 157.167,62.3333 157.5,62C 153.179,61.501 148.846,61.3343 144.5,61.5C 147.641,60.6787 150.975,60.1787 154.5,60C 153.584,59.7216 152.918,59.2216 152.5,58.5 Z"/></g>
<g><path style="opacity:1" fill="#aea7de" d="M 190.5,61.5 C 193.57,61.3677 196.57,61.701 199.5,62.5C 203.148,65.7826 205.815,69.7826 207.5,74.5C 206.812,75.8549 205.812,76.8549 204.5,77.5C 203.751,71.7583 200.751,67.7583 195.5,65.5C 194.016,63.9263 192.349,62.593 190.5,61.5 Z"/></g>
<g><path style="opacity:1" fill="#332da0" d="M 70.5,46.5 C 70.3284,47.4916 70.6618,48.1583 71.5,48.5C 70.9111,52.1978 72.2445,55.3644 75.5,58C 81.2508,60.6058 87.2508,61.6058 93.5,61C 89.2245,59.5139 84.8911,58.1805 80.5,57C 78.6675,56.2515 77.0009,55.2515 75.5,54C 76.5768,53.5304 77.5768,53.6971 78.5,54.5C 85.6422,57.1194 92.9755,59.1194 100.5,60.5C 96.4552,62.1773 92.1219,62.8439 87.5,62.5C 79.6095,63.2214 73.6095,60.2214 69.5,53.5C 68.359,55.4213 68.1923,57.4213 69,59.5C 74.631,63.9537 80.7976,65.287 87.5,63.5C 93.0262,63.1786 98.3595,63.5119 103.5,64.5C 98.5689,63.3115 95.2355,64.9782 93.5,69.5C 91.7376,70.2623 90.7376,71.5956 90.5,73.5C 90.5,74.1667 90.5,74.8333 90.5,75.5C 90.5,76.5 90.5,77.5 90.5,78.5C 90.5,79.1667 90.5,79.8333 90.5,80.5C 89.596,81.209 89.2627,82.209 89.5,83.5C 88.6618,83.8417 88.3284,84.5084 88.5,85.5C 87.5,85.8333 86.8333,86.5 86.5,87.5C 85.6618,87.8417 85.3284,88.5084 85.5,89.5C 84.5386,91.2646 84.2053,93.2646 84.5,95.5C 84.5,97.8333 84.5,100.167 84.5,102.5C 83.1266,102.657 81.7932,102.49 80.5,102C 77.2445,98.9136 73.5779,96.4136 69.5,94.5C 68.7025,94.9569 68.3691,95.6236 68.5,96.5C 68.1667,96.5 67.8333,96.5 67.5,96.5C 66.1283,95.4884 64.795,94.4884 63.5,93.5C 67.5015,92.8327 71.5015,93.4994 75.5,95.5C 76.6348,93.2933 77.3015,90.9599 77.5,88.5C 80.1009,85.3957 82.9343,82.3957 86,79.5C 86.1667,79.8333 86.3333,80.1667 86.5,80.5C 82.0724,84.8574 79.0724,90.0241 77.5,96C 78.608,98.1124 80.108,99.9458 82,101.5C 82,97.5 82,93.5 82,89.5C 87.4095,84.3395 89.7429,78.0062 89,70.5C 90.5,69 92,67.5 93.5,66C 90.1832,65.5017 86.8499,65.335 83.5,65.5C 82.5084,65.3284 81.8417,65.6618 81.5,66.5C 77.1869,66.5483 73.1869,67.715 69.5,70C 67.8588,71.129 66.8588,72.629 66.5,74.5C 64.3885,80.6073 62.7218,86.9406 61.5,93.5C 60.8476,92.5514 60.5143,91.3847 60.5,90C 63.4074,78.3193 65.5741,66.486 67,54.5C 67.9425,51.6262 69.1092,48.9596 70.5,46.5 Z"/></g>
<g><path style="opacity:1" fill="#b39eda" d="M 67.5,61.5 C 70.4788,62.6535 73.4788,63.8202 76.5,65C 73.2211,65.9728 70.2211,67.4728 67.5,69.5C 66.5508,66.8742 66.5508,64.2075 67.5,61.5 Z"/></g>
<g><path style="opacity:1" fill="#ab9ad8" d="M 83.5,65.5 C 86.8499,65.335 90.1832,65.5017 93.5,66C 92,67.5 90.5,69 89,70.5C 89.7429,78.0062 87.4095,84.3395 82,89.5C 82,93.5 82,97.5 82,101.5C 80.108,99.9458 78.608,98.1124 77.5,96C 79.0724,90.0241 82.0724,84.8574 86.5,80.5C 86.3333,80.1667 86.1667,79.8333 86,79.5C 82.9343,82.3957 80.1009,85.3957 77.5,88.5C 77.3015,90.9599 76.6348,93.2933 75.5,95.5C 71.5015,93.4994 67.5015,92.8327 63.5,93.5C 62.8333,93.5 62.1667,93.5 61.5,93.5C 62.7218,86.9406 64.3885,80.6073 66.5,74.5C 66.56,75.0431 66.8933,75.3764 67.5,75.5C 68.6223,74.3698 69.9557,73.7031 71.5,73.5C 70.3075,78.2423 68.1408,82.909 65,87.5C 64.3333,88.8333 64.3333,90.1667 65,91.5C 65.6082,89.9336 66.4415,88.6002 67.5,87.5C 67.3433,88.8734 67.51,90.2068 68,91.5C 70.4001,85.3498 74.2335,80.3498 79.5,76.5C 81.2959,75.2073 82.9625,73.7073 84.5,72C 84.1667,71.6667 83.8333,71.3333 83.5,71C 87.2753,68.756 87.2753,66.9227 83.5,65.5 Z"/></g>
<g><path style="opacity:1" fill="#a4b2e5" d="M 81.5,66.5 C 80.8333,67.1667 80.1667,67.8333 79.5,68.5C 76.197,69.1514 73.5303,70.818 71.5,73.5C 69.9557,73.7031 68.6223,74.3698 67.5,75.5C 66.8933,75.3764 66.56,75.0431 66.5,74.5C 66.8588,72.629 67.8588,71.129 69.5,70C 73.1869,67.715 77.1869,66.5483 81.5,66.5 Z"/></g>
<g><path style="opacity:1" fill="#44329b" d="M 182.5,67.5 C 190.095,77.5609 192.428,88.5609 189.5,100.5C 190.583,88.8318 187.916,78.1652 181.5,68.5C 181.5,67.8333 181.833,67.5 182.5,67.5 Z"/></g>
<g><path style="opacity:1" fill="#9e9de0" d="M 79.5,68.5 C 80.8734,68.3433 82.2068,68.51 83.5,69C 82.944,69.3826 82.6107,69.8826 82.5,70.5C 79.071,71.3814 76.071,73.0481 73.5,75.5C 73.1667,75.1667 72.8333,74.8333 72.5,74.5C 74.878,72.448 77.2113,70.448 79.5,68.5 Z"/></g>
<g><path style="opacity:1" fill="#685ebd" d="M 83.5,65.5 C 87.2753,66.9227 87.2753,68.756 83.5,71C 83.8333,71.3333 84.1667,71.6667 84.5,72C 82.9625,73.7073 81.2959,75.2073 79.5,76.5C 79.5,75.8333 79.1667,75.5 78.5,75.5C 78.5,75.1667 78.5,74.8333 78.5,74.5C 79.8333,73.1667 81.1667,71.8333 82.5,70.5C 82.6107,69.8826 82.944,69.3826 83.5,69C 82.2068,68.51 80.8734,68.3433 79.5,68.5C 80.1667,67.8333 80.8333,67.1667 81.5,66.5C 81.8417,65.6618 82.5084,65.3284 83.5,65.5 Z"/></g>
<g><path style="opacity:1" fill="#4b3ea6" d="M 195.5,65.5 C 200.751,67.7583 203.751,71.7583 204.5,77.5C 201.998,73.1806 198.998,69.1806 195.5,65.5 Z"/></g>
<g><path style="opacity:1" fill="#865c55" d="M 90.5,73.5 C 101.581,73.1901 112.581,73.5234 123.5,74.5C 118.695,75.4872 113.695,75.8205 108.5,75.5C 102.5,75.5 96.5,75.5 90.5,75.5C 90.5,74.8333 90.5,74.1667 90.5,73.5 Z"/></g>
<g><path style="opacity:1" fill="#35c0dc" d="M 93.5,69.5 C 106.987,69.1091 120.32,70.1091 133.5,72.5C 146.825,71.5271 160.159,71.3604 173.5,72C 175.246,72.4709 176.913,73.1376 178.5,74C 181.002,76.9467 183.502,79.78 186,82.5C 185.79,91.4319 182.29,98.9319 175.5,105C 171.93,106.799 168.263,108.299 164.5,109.5C 164.167,109.5 163.833,109.5 163.5,109.5C 161.833,109.5 160.167,109.5 158.5,109.5C 158.167,109.5 157.833,109.5 157.5,109.5C 155.833,108.833 154.167,108.167 152.5,107.5C 149.192,104.529 145.859,101.529 142.5,98.5C 137.083,82.8781 130.75,82.5448 123.5,97.5C 123.167,98.5 122.5,99.1667 121.5,99.5C 114.781,97.5953 107.781,96.9287 100.5,97.5C 98.8333,97.5 97.1667,97.5 95.5,97.5C 92.6697,96.0629 90.003,96.3963 87.5,98.5C 86.2719,97.6935 85.2719,96.6935 84.5,95.5C 84.2053,93.2646 84.5386,91.2646 85.5,89.5C 89.5,89.5 93.5,89.5 97.5,89.5C 100.135,90.7294 102.801,90.7294 105.5,89.5C 102.914,88.52 100.247,88.1866 97.5,88.5C 93.6286,88.815 89.9619,88.4816 86.5,87.5C 86.8333,86.5 87.5,85.8333 88.5,85.5C 89.8333,85.5 91.1667,85.5 92.5,85.5C 100.161,84.2759 107.828,84.2759 115.5,85.5C 119.971,86.0894 123.971,85.4228 127.5,83.5C 116.007,82.6693 104.341,82.1693 92.5,82C 104.341,81.8307 116.007,81.3307 127.5,80.5C 123.627,78.5698 119.294,77.9031 114.5,78.5C 113.833,78.5 113.167,78.5 112.5,78.5C 105.679,77.6715 98.6787,77.1715 91.5,77C 97.1569,76.5006 102.824,76.3339 108.5,76.5C 114.176,76.6661 119.843,76.4994 125.5,76C 124.956,75.2828 124.289,74.7828 123.5,74.5C 112.581,73.5234 101.581,73.1901 90.5,73.5C 90.7376,71.5956 91.7376,70.2623 93.5,69.5 Z"/></g>
<g><path style="opacity:1" fill="#429fb5" d="M 90.5,75.5 C 96.5,75.5 102.5,75.5 108.5,75.5C 108.5,75.8333 108.5,76.1667 108.5,76.5C 102.824,76.3339 97.1569,76.5006 91.5,77C 98.6787,77.1715 105.679,77.6715 112.5,78.5C 111.833,78.5 111.167,78.5 110.5,78.5C 103.833,78.5 97.1667,78.5 90.5,78.5C 90.5,77.5 90.5,76.5 90.5,75.5 Z"/></g>
<g><path style="opacity:1" fill="#627477" d="M 123.5,74.5 C 124.289,74.7828 124.956,75.2828 125.5,76C 119.843,76.4994 114.176,76.6661 108.5,76.5C 108.5,76.1667 108.5,75.8333 108.5,75.5C 113.695,75.8205 118.695,75.4872 123.5,74.5 Z"/></g>
<g><path style="opacity:1" fill="#7d5249" d="M 176.5,75.5 C 168.016,76.493 159.349,76.8264 150.5,76.5C 147.482,76.6646 144.482,76.498 141.5,76C 141.833,75.6667 142.167,75.3333 142.5,75C 153.855,74.2825 165.189,74.4492 176.5,75.5 Z"/></g>
<g><path style="opacity:1" fill="#a6a4e2" d="M 195.5,65.5 C 198.998,69.1806 201.998,73.1806 204.5,77.5C 204.189,78.4778 203.522,79.1445 202.5,79.5C 201.491,77.4823 200.491,75.4823 199.5,73.5C 197.629,70.9392 195.629,68.4392 193.5,66C 194.094,65.5357 194.761,65.369 195.5,65.5 Z"/></g>
<g><path style="opacity:1" fill="#385963" d="M 176.5,75.5 C 177.289,75.7828 177.956,76.2828 178.5,77C 168.991,77.8243 159.657,77.6576 150.5,76.5C 159.349,76.8264 168.016,76.493 176.5,75.5 Z"/></g>
<g><path style="opacity:1" fill="#855950" d="M 90.5,78.5 C 97.1667,78.5 103.833,78.5 110.5,78.5C 111.167,79.1667 111.833,79.8333 112.5,80.5C 105.167,80.5 97.8333,80.5 90.5,80.5C 90.5,79.8333 90.5,79.1667 90.5,78.5 Z"/></g>
<g><path style="opacity:1" fill="#171716" d="M 110.5,78.5 C 111.167,78.5 111.833,78.5 112.5,78.5C 113.167,78.5 113.833,78.5 114.5,78.5C 115.167,79.1667 115.833,79.8333 116.5,80.5C 115.167,80.5 113.833,80.5 112.5,80.5C 111.833,79.8333 111.167,79.1667 110.5,78.5 Z"/></g>
<g><path style="opacity:1" fill="#3e32a5" d="M 79.5,68.5 C 77.2113,70.448 74.878,72.448 72.5,74.5C 72.8333,74.8333 73.1667,75.1667 73.5,75.5C 76.071,73.0481 79.071,71.3814 82.5,70.5C 81.1667,71.8333 79.8333,73.1667 78.5,74.5C 73.0451,77.2907 69.3784,81.624 67.5,87.5C 66.4415,88.6002 65.6082,89.9336 65,91.5C 64.3333,90.1667 64.3333,88.8333 65,87.5C 68.1408,82.909 70.3075,78.2423 71.5,73.5C 73.5303,70.818 76.197,69.1514 79.5,68.5 Z"/></g>
<g><path style="opacity:1" fill="#725149" d="M 114.5,78.5 C 119.294,77.9031 123.627,78.5698 127.5,80.5C 123.833,80.5 120.167,80.5 116.5,80.5C 115.833,79.8333 115.167,79.1667 114.5,78.5 Z"/></g>
<g><path style="opacity:1" fill="#3f32a4" d="M 78.5,75.5 C 79.1667,75.5 79.5,75.8333 79.5,76.5C 74.2335,80.3498 70.4001,85.3498 68,91.5C 67.51,90.2068 67.3433,88.8734 67.5,87.5C 70.4293,82.9006 74.096,78.9006 78.5,75.5 Z"/></g>
<g><path style="opacity:1" fill="#37a2b8" d="M 90.5,80.5 C 97.8333,80.5 105.167,80.5 112.5,80.5C 113.833,80.5 115.167,80.5 116.5,80.5C 120.167,80.5 123.833,80.5 127.5,80.5C 116.007,81.3307 104.341,81.8307 92.5,82C 104.341,82.1693 116.007,82.6693 127.5,83.5C 122.833,83.5 118.167,83.5 113.5,83.5C 107.5,83.5 101.5,83.5 95.5,83.5C 93.5,83.5 91.5,83.5 89.5,83.5C 89.2627,82.209 89.596,81.209 90.5,80.5 Z"/></g>
<g><path style="opacity:1" fill="#625451" d="M 139.5,79.5 C 153.183,79.1675 166.85,79.5008 180.5,80.5C 173.667,80.8333 166.833,81.1667 160,81.5C 152.799,81.497 145.966,80.8303 139.5,79.5 Z"/></g>
<g><path style="opacity:1" fill="#9392dd" d="M 78.5,74.5 C 78.5,74.8333 78.5,75.1667 78.5,75.5C 74.096,78.9006 70.4293,82.9006 67.5,87.5C 69.3784,81.624 73.0451,77.2907 78.5,74.5 Z"/></g>
<g><path style="opacity:1" fill="#141b1b" d="M 95.5,83.5 C 101.5,83.5 107.5,83.5 113.5,83.5C 114.167,84.1667 114.833,84.8333 115.5,85.5C 107.828,84.2759 100.161,84.2759 92.5,85.5C 93.5,84.8333 94.5,84.1667 95.5,83.5 Z"/></g>
<g><path style="opacity:1" fill="#594e49" d="M 113.5,83.5 C 118.167,83.5 122.833,83.5 127.5,83.5C 123.971,85.4228 119.971,86.0894 115.5,85.5C 114.833,84.8333 114.167,84.1667 113.5,83.5 Z"/></g>
<g><path style="opacity:1" fill="#43a4b6" d="M 145.5,83.5 C 157.345,83.1717 169.012,83.5051 180.5,84.5C 179.167,84.5 177.833,84.5 176.5,84.5C 173.615,84.1936 170.948,84.5269 168.5,85.5C 166.708,85.366 165.042,85.6993 163.5,86.5C 157.735,84.8526 151.735,83.8526 145.5,83.5 Z"/></g>
<g><path style="opacity:1" fill="#7d6360" d="M 89.5,83.5 C 91.5,83.5 93.5,83.5 95.5,83.5C 94.5,84.1667 93.5,84.8333 92.5,85.5C 91.1667,85.5 89.8333,85.5 88.5,85.5C 88.3284,84.5084 88.6618,83.8417 89.5,83.5 Z"/></g>
<g><path style="opacity:1" fill="#112627" d="M 168.5,85.5 C 170.948,84.5269 173.615,84.1936 176.5,84.5C 176.5,85.1667 176.5,85.8333 176.5,86.5C 173.833,86.1667 171.167,85.8333 168.5,85.5 Z"/></g>
<g><path style="opacity:1" fill="#51463a" d="M 145.5,83.5 C 151.735,83.8526 157.735,84.8526 163.5,86.5C 155.472,86.831 147.472,86.4977 139.5,85.5C 141.304,84.2319 143.304,83.5652 145.5,83.5 Z"/></g>
<g><path style="opacity:1" fill="#7c605b" d="M 176.5,84.5 C 177.833,84.5 179.167,84.5 180.5,84.5C 181.043,84.56 181.376,84.8933 181.5,85.5C 179.955,86.4519 178.288,86.7852 176.5,86.5C 176.5,85.8333 176.5,85.1667 176.5,84.5 Z"/></g>
<g><path style="opacity:1" fill="#4234a5" d="M 77.5,88.5 C 76.4415,89.6002 75.6082,90.9336 75,92.5C 75.1033,87.6824 77.1033,83.6824 81,80.5C 79.7732,82.9725 78.6066,85.6392 77.5,88.5 Z"/></g>
<g><path style="opacity:1" fill="#794c4a" d="M 86.5,87.5 C 89.9619,88.4816 93.6286,88.815 97.5,88.5C 97.5,88.8333 97.5,89.1667 97.5,89.5C 93.5,89.5 89.5,89.5 85.5,89.5C 85.3284,88.5084 85.6618,87.8417 86.5,87.5 Z"/></g>
<g><path style="opacity:1" fill="#d9f5f8" d="M 97.5,89.5 C 97.5,89.1667 97.5,88.8333 97.5,88.5C 100.247,88.1866 102.914,88.52 105.5,89.5C 102.801,90.7294 100.135,90.7294 97.5,89.5 Z"/></g>
<g><path style="opacity:1" fill="#4d412f" d="M 113.5,88.5 C 113.5,89.1667 113.5,89.8333 113.5,90.5C 104.167,89.8333 104.167,89.1667 113.5,88.5 Z"/></g>
<g><path style="opacity:1" fill="#dff5f8" d="M 113.5,88.5 C 115.833,88.5 118.167,88.5 120.5,88.5C 120.833,89.1667 121.167,89.8333 121.5,90.5C 118.833,90.5 116.167,90.5 113.5,90.5C 113.5,89.8333 113.5,89.1667 113.5,88.5 Z"/></g>
<g><path style="opacity:1" fill="#675a5c" d="M 120.5,88.5 C 121.978,88.238 123.311,88.5713 124.5,89.5C 123.675,90.3857 122.675,90.719 121.5,90.5C 121.167,89.8333 120.833,89.1667 120.5,88.5 Z"/></g>
<g><path style="opacity:1" fill="#834e44" d="M 142.5,98.5 C 136.19,97.8096 129.857,97.4763 123.5,97.5C 130.75,82.5448 137.083,82.8781 142.5,98.5 Z"/></g>
<g><path style="opacity:1" fill="#eaf7f7" d="M 148.5,89.5 C 151.167,89.5 153.833,89.5 156.5,89.5C 156.5,89.8333 156.5,90.1667 156.5,90.5C 154.052,91.4731 151.385,91.8064 148.5,91.5C 148.5,90.8333 148.5,90.1667 148.5,89.5 Z"/></g>
<g><path style="opacity:1" fill="#5e575c" d="M 148.5,89.5 C 148.5,90.1667 148.5,90.8333 148.5,91.5C 146.473,91.6621 144.473,91.4955 142.5,91C 142.043,90.586 141.709,90.086 141.5,89.5C 143.973,88.2031 146.307,88.2031 148.5,89.5 Z"/></g>
<g><path style="opacity:1" fill="#5f4c2e" d="M 156.5,90.5 C 156.5,90.1667 156.5,89.8333 156.5,89.5C 158.833,89.5 161.167,89.5 163.5,89.5C 163.5,90.1667 163.5,90.8333 163.5,91.5C 161.05,91.702 158.717,91.3686 156.5,90.5 Z"/></g>
<g><path style="opacity:1" fill="#d7f5f8" d="M 163.5,89.5 C 166.167,89.5 168.833,89.5 171.5,89.5C 171.167,90.1667 170.833,90.8333 170.5,91.5C 168.167,91.5 165.833,91.5 163.5,91.5C 163.5,90.8333 163.5,90.1667 163.5,89.5 Z"/></g>
<g><path style="opacity:1" fill="#755a54" d="M 171.5,89.5 C 174.898,89.1796 178.232,89.513 181.5,90.5C 177.893,91.4892 174.226,91.8226 170.5,91.5C 170.833,90.8333 171.167,90.1667 171.5,89.5 Z"/></g>
<g><path style="opacity:1" fill="#786d6b" d="M 101.5,94.5 C 97.5,94.5 93.5,94.5 89.5,94.5C 88.325,94.719 87.325,94.3857 86.5,93.5C 91.1313,92.3384 95.798,92.1717 100.5,93C 101.056,93.3826 101.389,93.8826 101.5,94.5 Z"/></g>
<g><path style="opacity:1" fill="#475961" d="M 166.5,94.5 C 158.981,94.175 151.648,94.5084 144.5,95.5C 143.957,95.44 143.624,95.1067 143.5,94.5C 151.323,93.1801 158.99,93.1801 166.5,94.5 Z"/></g>
<g><path style="opacity:1" fill="#4d737b" d="M 89.5,94.5 C 93.5,94.5 97.5,94.5 101.5,94.5C 126.05,94.9934 122.05,94.9934 89.5,94.5 Z"/></g>
<g><path style="opacity:1" fill="#716764" d="M 166.5,94.5 C 170.884,94.1744 175.217,94.5078 179.5,95.5C 167.673,96.8243 156.007,96.8243 144.5,95.5C 151.648,94.5084 158.981,94.175 166.5,94.5 Z"/></g>
<g><path style="opacity:1" fill="#647172" d="M 147.5,98.5 C 157.19,98.1682 166.856,98.5016 176.5,99.5C 171.667,99.8333 166.833,100.167 162,100.5C 156.784,100.494 151.951,99.8271 147.5,98.5 Z"/></g>
<g><path style="opacity:1" fill="#4693a1" d="M 95.5,97.5 C 93.396,97.2011 91.396,97.5344 89.5,98.5C 99.4834,99.6656 109.483,99.8322 119.5,99C 112.987,98.8279 106.653,98.3279 100.5,97.5C 107.781,96.9287 114.781,97.5953 121.5,99.5C 121.672,100.492 121.338,101.158 120.5,101.5C 110.167,100.167 99.8333,100.167 89.5,101.5C 88.0937,101.027 87.427,100.027 87.5,98.5C 90.003,96.3963 92.6697,96.0629 95.5,97.5 Z"/></g>
<g><path style="opacity:1" fill="#82534a" d="M 95.5,97.5 C 97.1667,97.5 98.8333,97.5 100.5,97.5C 106.653,98.3279 112.987,98.8279 119.5,99C 109.483,99.8322 99.4834,99.6656 89.5,98.5C 91.396,97.5344 93.396,97.2011 95.5,97.5 Z"/></g>
<g><path style="opacity:1" fill="#b0a5db" d="M 198.5,74.5 C 199.303,75.4232 199.47,76.4232 199,77.5C 198.189,76.0403 197.355,75.707 196.5,76.5C 199.782,81.2309 202.115,86.3975 203.5,92C 203.317,93.6836 202.65,93.8502 201.5,92.5C 202.51,95.928 203.51,99.2613 204.5,102.5C 204.167,103.5 203.5,104.167 202.5,104.5C 199.167,103.167 195.833,103.167 192.5,104.5C 191.272,103.694 190.272,102.694 189.5,101.5C 189.5,101.167 189.5,100.833 189.5,100.5C 192.428,88.5609 190.095,77.5609 182.5,67.5C 181.284,65.5491 179.618,64.0491 177.5,63C 178.5,62.3333 179.5,62.3333 180.5,63C 186.135,67.6287 190.635,73.1287 194,79.5C 193.626,76.725 192.626,74.0583 191,71.5C 188.167,68.6667 185.333,65.8333 182.5,63C 184.833,62.3333 187.167,62.3333 189.5,63C 192.367,66.4346 195.367,70.2679 198.5,74.5 Z"/></g>
<g><path style="opacity:1" fill="#4d41ab" d="M 192.5,90.5 C 192.897,89.475 193.563,89.3083 194.5,90C 195.542,91.918 196.708,93.7513 198,95.5C 199.373,97.6954 199.706,100.029 199,102.5C 197.582,97.9901 195.415,93.9901 192.5,90.5 Z"/></g>
<g><path style="opacity:1" fill="#4c40aa" d="M 201.5,92.5 C 198.032,88.8595 194.698,85.0261 191.5,81C 196.658,83.0065 199.992,86.8398 201.5,92.5 Z"/></g>
<g><path style="opacity:1" fill="#32b5ce" d="M 120.5,101.5 C 114.697,107.03 107.697,109.03 99.5,107.5C 95.4945,106.502 92.1612,104.502 89.5,101.5C 99.8333,100.167 110.167,100.167 120.5,101.5 Z"/></g>
<g><path style="opacity:1" fill="#5f4643" d="M 95.5,103.5 C 101.653,102.347 107.986,102.18 114.5,103C 108.228,104.829 101.895,104.995 95.5,103.5 Z"/></g>
<g><path style="opacity:1" fill="#342423" d="M 123.5,97.5 C 129.857,97.4763 136.19,97.8096 142.5,98.5C 145.859,101.529 149.192,104.529 152.5,107.5C 152.631,108.239 152.464,108.906 152,109.5C 151.184,108.177 150.017,107.511 148.5,107.5C 143.339,103.602 137.505,100.935 131,99.5C 125.843,101.162 121.01,103.495 116.5,106.5C 117.524,107.852 118.524,109.185 119.5,110.5C 117.863,109.782 116.197,109.616 114.5,110C 109.571,114.384 104.738,118.884 100,123.5C 99.3333,122.833 99.3333,122.167 100,121.5C 104.147,118.196 107.313,114.196 109.5,109.5C 108.998,108.479 108.332,108.312 107.5,109C 105.333,112.197 102.833,115.03 100,117.5C 101.625,114.806 103.458,111.973 105.5,109C 104.167,108.333 102.833,108.333 101.5,109C 98.6386,111.894 96.1386,115.061 94,118.5C 91.8511,121.694 89.0178,123.528 85.5,124C 91.4677,119.539 96.1344,114.039 99.5,107.5C 107.697,109.03 114.697,107.03 120.5,101.5C 121.338,101.158 121.672,100.492 121.5,99.5C 122.5,99.1667 123.167,98.5 123.5,97.5 Z"/></g>
<g><path style="opacity:1" fill="#7f8993" d="M 148.5,107.5 C 148.25,109.674 147.25,111.341 145.5,112.5C 143.708,111.691 141.708,111.191 139.5,111C 138.91,109.491 138.244,107.991 137.5,106.5C 134.925,109.045 134.925,111.712 137.5,114.5C 137.137,115.183 136.804,115.85 136.5,116.5C 135.178,116.33 134.011,116.663 133,117.5C 132.667,114.5 132.333,111.5 132,108.5C 131.503,111.146 131.336,113.813 131.5,116.5C 129.784,116.371 128.117,116.038 126.5,115.5C 126.915,113.253 127.582,111.086 128.5,109C 126.38,102.959 125.046,103.292 124.5,110C 122.866,110.494 121.199,110.66 119.5,110.5C 118.524,109.185 117.524,107.852 116.5,106.5C 121.01,103.495 125.843,101.162 131,99.5C 137.505,100.935 143.339,103.602 148.5,107.5 Z"/></g>
<g><path style="opacity:1" fill="#4e6368" d="M 150.5,104.5 C 156.678,103.183 163.012,103.183 169.5,104.5C 163.112,105.79 156.778,105.79 150.5,104.5 Z"/></g>
<g><path style="opacity:1" fill="#463288" d="M 192.5,104.5 C 195.833,103.167 199.167,103.167 202.5,104.5C 201.833,104.833 201.167,105.167 200.5,105.5C 200.167,105.5 199.833,105.5 199.5,105.5C 197.05,105.702 194.717,105.369 192.5,104.5 Z"/></g>
<g><path style="opacity:1" fill="#151211" d="M 67.5,96.5 C 67.8333,96.5 68.1667,96.5 68.5,96.5C 68.2322,98.099 68.5655,99.4324 69.5,100.5C 70.0431,100.56 70.3764,100.893 70.5,101.5C 63.7637,110.01 62.097,119.343 65.5,129.5C 64.4415,128.4 63.6082,127.066 63,125.5C 61.3705,117.845 62.7038,110.845 67,104.5C 67.4974,101.854 67.6641,99.1873 67.5,96.5 Z"/></g>
<g><path style="opacity:1" fill="#6c3f38" d="M 69.5,100.5 C 69.56,99.9569 69.8933,99.6236 70.5,99.5C 71.0798,101.637 72.0798,103.47 73.5,105C 75.108,105.658 76.2747,105.158 77,103.5C 77.5881,106.139 77.0881,108.473 75.5,110.5C 70.7536,117.7 68.5869,125.7 69,134.5C 68.6174,133.944 68.1174,133.611 67.5,133.5C 66.3263,132.486 65.6596,131.153 65.5,129.5C 62.097,119.343 63.7637,110.01 70.5,101.5C 70.3764,100.893 70.0431,100.56 69.5,100.5 Z"/></g>
<g><path style="opacity:1" fill="#8d524a" d="M 175.5,62.5 C 177.167,64.8333 179.167,66.8333 181.5,68.5C 187.916,78.1652 190.583,88.8318 189.5,100.5C 189.5,100.833 189.5,101.167 189.5,101.5C 189.489,103.017 188.823,104.184 187.5,105C 185.508,105.574 184.008,106.741 183,108.5C 181.633,107.476 180.8,107.976 180.5,110C 180.833,110.5 181.167,111 181.5,111.5C 182.716,110.998 183.883,110.665 185,110.5C 185.333,113.5 185.667,116.5 186,119.5C 187.319,121.287 188.152,123.287 188.5,125.5C 184.154,125.666 179.821,125.499 175.5,125C 170.837,120.51 167.17,115.343 164.5,109.5C 168.263,108.299 171.93,106.799 175.5,105C 182.29,98.9319 185.79,91.4319 186,82.5C 183.502,79.78 181.002,76.9467 178.5,74C 176.913,73.1376 175.246,72.4709 173.5,72C 160.159,71.3604 146.825,71.5271 133.5,72.5C 120.32,70.1091 106.987,69.1091 93.5,69.5C 95.2355,64.9782 98.5689,63.3115 103.5,64.5C 105.5,64.5 107.5,64.5 109.5,64.5C 124.489,65.4758 139.489,65.6425 154.5,65C 161.429,63.5114 168.429,62.6781 175.5,62.5 Z"/></g>
<g><path style="opacity:1" fill="#1f2328" d="M 126.5,115.5 C 125.053,112.608 122.719,110.942 119.5,110.5C 121.199,110.66 122.866,110.494 124.5,110C 125.046,103.292 126.38,102.959 128.5,109C 127.582,111.086 126.915,113.253 126.5,115.5 Z"/></g>
<g><path style="opacity:1" fill="#140907" d="M 199.5,105.5 C 199.833,105.5 200.167,105.5 200.5,105.5C 200.5,107.833 200.5,110.167 200.5,112.5C 198.258,110.548 197.924,108.215 199.5,105.5 Z"/></g>
<g><path style="opacity:1" fill="#1c1a1c" d="M 145.5,112.5 C 141.902,112.795 138.902,114.128 136.5,116.5C 136.804,115.85 137.137,115.183 137.5,114.5C 134.925,111.712 134.925,109.045 137.5,106.5C 138.244,107.991 138.91,109.491 139.5,111C 141.708,111.191 143.708,111.691 145.5,112.5 Z"/></g>
<g><path style="opacity:1" fill="#8f5146" d="M 84.5,95.5 C 85.2719,96.6935 86.2719,97.6935 87.5,98.5C 87.427,100.027 88.0937,101.027 89.5,101.5C 92.1612,104.502 95.4945,106.502 99.5,107.5C 96.1344,114.039 91.4677,119.539 85.5,124C 89.0178,123.528 91.8511,121.694 94,118.5C 96.1386,115.061 98.6386,111.894 101.5,109C 102.833,108.333 104.167,108.333 105.5,109C 103.458,111.973 101.625,114.806 100,117.5C 102.833,115.03 105.333,112.197 107.5,109C 108.332,108.312 108.998,108.479 109.5,109.5C 107.313,114.196 104.147,118.196 100,121.5C 99.3333,122.167 99.3333,122.833 100,123.5C 104.738,118.884 109.571,114.384 114.5,110C 116.197,109.616 117.863,109.782 119.5,110.5C 122.719,110.942 125.053,112.608 126.5,115.5C 129.552,118.979 132.886,119.313 136.5,116.5C 138.902,114.128 141.902,112.795 145.5,112.5C 147.25,111.341 148.25,109.674 148.5,107.5C 150.017,107.511 151.184,108.177 152,109.5C 152.464,108.906 152.631,108.239 152.5,107.5C 154.167,108.167 155.833,108.833 157.5,109.5C 159.104,114.712 161.271,119.712 164,124.5C 163.278,119.173 161.444,114.173 158.5,109.5C 160.167,109.5 161.833,109.5 163.5,109.5C 165.845,115.021 168.845,120.188 172.5,125C 178.614,127.759 184.947,128.259 191.5,126.5C 192.404,127.209 192.737,128.209 192.5,129.5C 195.694,129.176 196.694,130.342 195.5,133C 197.607,134.264 198.607,136.097 198.5,138.5C 190.48,155.159 177.146,163.159 158.5,162.5C 154.61,162.272 150.776,162.606 147,163.5C 146.5,163.167 146,162.833 145.5,162.5C 146.964,160.007 146.797,157.674 145,155.5C 144.667,157.833 144.333,160.167 144,162.5C 142.378,163.099 140.878,163.766 139.5,164.5C 135.028,166.216 130.362,166.882 125.5,166.5C 122.285,165.902 119.285,164.568 116.5,162.5C 115.459,159.121 115.459,156.121 116.5,153.5C 113.64,155.606 112.974,158.272 114.5,161.5C 111.914,162.48 109.247,162.813 106.5,162.5C 103.112,160.882 99.4456,159.882 95.5,159.5C 80.1196,155.757 71.7862,145.757 70.5,129.5C 71.9753,123.081 73.6419,116.748 75.5,110.5C 77.0881,108.473 77.5881,106.139 77,103.5C 76.2747,105.158 75.108,105.658 73.5,105C 72.0798,103.47 71.0798,101.637 70.5,99.5C 69.8933,99.6236 69.56,99.9569 69.5,100.5C 68.5655,99.4324 68.2322,98.099 68.5,96.5C 68.3691,95.6236 68.7025,94.9569 69.5,94.5C 73.5779,96.4136 77.2445,98.9136 80.5,102C 81.7932,102.49 83.1266,102.657 84.5,102.5C 84.5,100.167 84.5,97.8333 84.5,95.5 Z"/></g>
<g><path style="opacity:1" fill="#7b473e" d="M 189.5,101.5 C 190.272,102.694 191.272,103.694 192.5,104.5C 194.717,105.369 197.05,105.702 199.5,105.5C 197.924,108.215 198.258,110.548 200.5,112.5C 200.5,112.833 200.5,113.167 200.5,113.5C 201.427,119.811 201.594,126.144 201,132.5C 199.183,127.674 196.183,123.674 192,120.5C 190.138,116.581 188.471,112.581 187,108.5C 186.346,107.304 185.846,107.304 185.5,108.5C 187.236,112.874 189.069,117.207 191,121.5C 194.427,124.256 197.093,127.59 199,131.5C 199.796,134.039 199.629,136.372 198.5,138.5C 198.607,136.097 197.607,134.264 195.5,133C 196.694,130.342 195.694,129.176 192.5,129.5C 192.737,128.209 192.404,127.209 191.5,126.5C 190.791,125.596 189.791,125.263 188.5,125.5C 188.152,123.287 187.319,121.287 186,119.5C 185.667,116.5 185.333,113.5 185,110.5C 183.883,110.665 182.716,110.998 181.5,111.5C 181.167,111 180.833,110.5 180.5,110C 180.8,107.976 181.633,107.476 183,108.5C 184.008,106.741 185.508,105.574 187.5,105C 188.823,104.184 189.489,103.017 189.5,101.5 Z"/></g>
<g><path style="opacity:1" fill="#3c3537" d="M 136.5,116.5 C 132.886,119.313 129.552,118.979 126.5,115.5C 128.117,116.038 129.784,116.371 131.5,116.5C 131.336,113.813 131.503,111.146 132,108.5C 132.333,111.5 132.667,114.5 133,117.5C 134.011,116.663 135.178,116.33 136.5,116.5 Z"/></g>
<g><path style="opacity:1" fill="#291514" d="M 157.5,109.5 C 157.833,109.5 158.167,109.5 158.5,109.5C 161.444,114.173 163.278,119.173 164,124.5C 161.271,119.712 159.104,114.712 157.5,109.5 Z"/></g>
<g><path style="opacity:1" fill="#301916" d="M 163.5,109.5 C 163.833,109.5 164.167,109.5 164.5,109.5C 167.17,115.343 170.837,120.51 175.5,125C 179.821,125.499 184.154,125.666 188.5,125.5C 189.791,125.263 190.791,125.596 191.5,126.5C 184.947,128.259 178.614,127.759 172.5,125C 168.845,120.188 165.845,115.021 163.5,109.5 Z"/></g>
<g><path style="opacity:1" fill="#221716" d="M 129.5,144.5 C 131.988,142.612 134.988,141.945 138.5,142.5C 147.161,139.161 147.827,134.494 140.5,128.5C 139.71,127.599 138.71,126.932 137.5,126.5C 137.167,126.5 136.833,126.5 136.5,126.5C 131.305,126.179 126.305,126.513 121.5,127.5C 119.777,129.78 119.111,132.447 119.5,135.5C 119.722,139.387 120.722,143.054 122.5,146.5C 124.075,145.544 125.742,144.877 127.5,144.5C 127.423,145.75 126.756,146.583 125.5,147C 124.128,147.402 122.795,147.902 121.5,148.5C 117.86,142.683 116.693,136.349 118,129.5C 118.273,127.671 119.107,126.171 120.5,125C 127.276,124.08 133.943,124.414 140.5,126C 145.639,129.582 147.639,134.249 146.5,140C 141.261,143.082 135.594,144.582 129.5,144.5 Z"/></g>
<g><path style="opacity:1" fill="#e4e9e6" d="M 136.5,126.5 C 133.262,128.227 129.595,129.227 125.5,129.5C 124.808,128.975 124.308,128.308 124,127.5C 123.023,128.774 122.189,128.774 121.5,127.5C 126.305,126.513 131.305,126.179 136.5,126.5 Z"/></g>
<g><path style="opacity:1" fill="#e3dedf" d="M 137.5,126.5 C 138.71,126.932 139.71,127.599 140.5,128.5C 140.189,129.478 139.522,130.145 138.5,130.5C 137.571,129.311 137.238,127.978 137.5,126.5 Z"/></g>
<g><path style="opacity:1" fill="#76404c" d="M 136.5,126.5 C 136.833,126.5 137.167,126.5 137.5,126.5C 137.238,127.978 137.571,129.311 138.5,130.5C 139.522,130.145 140.189,129.478 140.5,128.5C 147.827,134.494 147.161,139.161 138.5,142.5C 138.678,138.172 136.678,135.338 132.5,134C 127.871,132.978 123.538,133.478 119.5,135.5C 119.111,132.447 119.777,129.78 121.5,127.5C 122.189,128.774 123.023,128.774 124,127.5C 124.308,128.308 124.808,128.975 125.5,129.5C 129.595,129.227 133.262,128.227 136.5,126.5 Z"/></g>
<g><path style="opacity:1" fill="#ae707c" d="M 138.5,142.5 C 134.988,141.945 131.988,142.612 129.5,144.5C 130.463,145.363 130.463,146.03 129.5,146.5C 128.818,145.757 128.151,145.091 127.5,144.5C 125.742,144.877 124.075,145.544 122.5,146.5C 120.722,143.054 119.722,139.387 119.5,135.5C 123.538,133.478 127.871,132.978 132.5,134C 136.678,135.338 138.678,138.172 138.5,142.5 Z"/></g>
<g><path style="opacity:1" fill="#dc7a92" d="M 121.5,135.5 C 128.018,134.664 129.685,136.831 126.5,142C 124.711,142.52 123.044,142.187 121.5,141C 121.854,139.374 121.854,137.541 121.5,135.5 Z"/></g>
<g><path style="opacity:1" fill="#10120e" d="M 75.5,110.5 C 73.6419,116.748 71.9753,123.081 70.5,129.5C 71.7862,145.757 80.1196,155.757 95.5,159.5C 93.5,159.5 91.5,159.5 89.5,159.5C 84.8973,170.704 79.2306,181.371 72.5,191.5C 75.2735,195.777 78.6068,199.61 82.5,203C 88.5,206.667 94.5,210.333 100.5,214C 91.1024,212.473 82.4357,208.973 74.5,203.5C 74.1667,204.833 73.8333,206.167 73.5,207.5C 75.3904,222.075 79.8904,235.742 87,248.5C 91.3486,253.878 95.1819,259.545 98.5,265.5C 97.8333,265.5 97.1667,265.5 96.5,265.5C 83.4812,249.452 75.3146,231.118 72,210.5C 71.1764,207.118 71.343,203.784 72.5,200.5C 76.0339,202.934 79.7006,204.767 83.5,206C 78.3658,201.909 74.0324,197.075 70.5,191.5C 76.6999,181.129 82.6999,170.629 88.5,160C 87.0001,158.885 85.3334,158.052 83.5,157.5C 74.0266,160.49 64.8599,164.156 56,168.5C 54.5328,175.777 54.1994,183.111 55,190.5C 56.6893,195.503 58.0226,200.503 59,205.5C 53.5817,195.562 51.2484,184.895 52,173.5C 50.6667,175.5 49.3333,177.5 48,179.5C 39.6248,199.949 31.6248,220.615 24,241.5C 22.1464,248.216 22.1464,254.883 24,261.5C 25.3348,255.499 28.3348,250.499 33,246.5C 33.1667,246.833 33.3333,247.167 33.5,247.5C 28.6506,252.532 25.984,258.532 25.5,265.5C 24.5,265.5 23.5,265.5 22.5,265.5C 21.0021,256.464 21.1687,247.464 23,238.5C 28.9885,224.869 33.9885,210.869 38,196.5C 41.394,188.712 45.0606,181.045 49,173.5C 51.8333,169.333 55.3333,165.833 59.5,163C 66.1972,159.983 72.8639,156.983 79.5,154C 77.2911,152.127 75.4578,149.96 74,147.5C 72.1033,142.612 69.9366,137.945 67.5,133.5C 68.1174,133.611 68.6174,133.944 69,134.5C 68.5869,125.7 70.7536,117.7 75.5,110.5 Z"/></g>
<g><path style="opacity:1" fill="#465037" d="M 96.5,265.5 C 88.1667,265.5 79.8333,265.5 71.5,265.5C 67.0132,253.854 62.5132,242.188 58,230.5C 57.5423,233.558 57.8756,236.558 59,239.5C 64.0583,247.511 67.2249,256.178 68.5,265.5C 54.1667,265.5 39.8333,265.5 25.5,265.5C 25.984,258.532 28.6506,252.532 33.5,247.5C 33.3333,247.167 33.1667,246.833 33,246.5C 28.3348,250.499 25.3348,255.499 24,261.5C 22.1464,254.883 22.1464,248.216 24,241.5C 31.6248,220.615 39.6248,199.949 48,179.5C 49.3333,177.5 50.6667,175.5 52,173.5C 51.2484,184.895 53.5817,195.562 59,205.5C 58.0226,200.503 56.6893,195.503 55,190.5C 54.1994,183.111 54.5328,175.777 56,168.5C 64.8599,164.156 74.0266,160.49 83.5,157.5C 85.3334,158.052 87.0001,158.885 88.5,160C 82.6999,170.629 76.6999,181.129 70.5,191.5C 74.0324,197.075 78.3658,201.909 83.5,206C 79.7006,204.767 76.0339,202.934 72.5,200.5C 71.343,203.784 71.1764,207.118 72,210.5C 75.3146,231.118 83.4812,249.452 96.5,265.5 Z"/></g>
<g><path style="opacity:1" fill="#475038" d="M 95.5,159.5 C 97.4181,160.868 99.5848,161.868 102,162.5C 105.527,183.68 107.86,205.013 109,226.5C 111.866,239.592 115.032,252.592 118.5,265.5C 111.833,265.5 105.167,265.5 98.5,265.5C 95.1819,259.545 91.3486,253.878 87,248.5C 79.8904,235.742 75.3904,222.075 73.5,207.5C 73.8333,206.167 74.1667,204.833 74.5,203.5C 82.4357,208.973 91.1024,212.473 100.5,214C 94.5,210.333 88.5,206.667 82.5,203C 78.6068,199.61 75.2735,195.777 72.5,191.5C 79.2306,181.371 84.8973,170.704 89.5,159.5C 91.5,159.5 93.5,159.5 95.5,159.5 Z"/></g>
<g><path style="opacity:1" fill="#43312a" d="M 125.5,166.5 C 124.833,166.833 124.167,167.167 123.5,167.5C 117.993,164.891 112.326,163.224 106.5,162.5C 109.247,162.813 111.914,162.48 114.5,161.5C 112.974,158.272 113.64,155.606 116.5,153.5C 115.459,156.121 115.459,159.121 116.5,162.5C 119.285,164.568 122.285,165.902 125.5,166.5 Z"/></g>
<g><path style="opacity:1" fill="#41332e" d="M 158.5,162.5 C 160.948,163.473 163.615,163.806 166.5,163.5C 164.5,164.167 162.5,164.833 160.5,165.5C 159.5,165.5 158.5,165.5 157.5,165.5C 152.965,164.256 148.298,164.256 143.5,165.5C 142.432,164.566 141.099,164.232 139.5,164.5C 140.878,163.766 142.378,163.099 144,162.5C 144.333,160.167 144.667,157.833 145,155.5C 146.797,157.674 146.964,160.007 145.5,162.5C 146,162.833 146.5,163.167 147,163.5C 150.776,162.606 154.61,162.272 158.5,162.5 Z"/></g>
<g><path style="opacity:0.998" fill="#465038" d="M 170.5,265.5 C 163.5,265.5 156.5,265.5 149.5,265.5C 155.304,232.403 158.97,199.07 160.5,165.5C 162.5,164.833 164.5,164.167 166.5,163.5C 169.146,163.108 171.646,163.108 174,163.5C 179.049,173.152 183.216,183.152 186.5,193.5C 180.654,201.843 173.321,208.676 164.5,214C 173.738,213.805 181.905,210.638 189,204.5C 188.798,226.708 182.631,247.041 170.5,265.5 Z"/></g>
<g><path style="opacity:1" fill="#151513" d="M 139.5,164.5 C 141.099,164.232 142.432,164.566 143.5,165.5C 141.897,165.312 140.563,165.812 139.5,167C 146.214,170.916 151.214,176.416 154.5,183.5C 154.333,183.833 154.167,184.167 154,184.5C 151.958,181.06 149.458,178.06 146.5,175.5C 146.38,174.414 145.713,173.747 144.5,173.5C 142.946,172.628 141.612,172.628 140.5,173.5C 134.515,175.121 128.681,174.788 123,172.5C 122.373,178.762 124.207,184.262 128.5,189C 132.302,187.858 136.302,187.358 140.5,187.5C 140.94,184.62 141.94,181.954 143.5,179.5C 143.709,178.078 144.209,176.745 145,175.5C 145.483,176.448 145.649,177.448 145.5,178.5C 143.899,183.133 142.232,187.8 140.5,192.5C 141.638,199.697 143.472,206.697 146,213.5C 146.835,219.843 147.669,226.176 148.5,232.5C 148.334,240.507 148.5,248.507 149,256.5C 149.339,253.12 149.839,249.787 150.5,246.5C 154.23,219.473 156.564,192.473 157.5,165.5C 158.5,165.5 159.5,165.5 160.5,165.5C 158.97,199.07 155.304,232.403 149.5,265.5C 147.833,265.5 146.167,265.5 144.5,265.5C 145.207,262.214 145.54,258.881 145.5,255.5C 146.11,254.609 146.443,253.609 146.5,252.5C 146.5,245.833 146.5,239.167 146.5,232.5C 146.192,228.64 145.525,224.974 144.5,221.5C 144.785,218.171 144.118,215.171 142.5,212.5C 142.5,211.167 142.5,209.833 142.5,208.5C 140.687,202.677 139.687,196.677 139.5,190.5C 137.5,190.5 135.5,190.5 133.5,190.5C 132.593,196.847 131.593,203.18 130.5,209.5C 130.5,209.833 130.5,210.167 130.5,210.5C 129.028,214.919 128.362,219.586 128.5,224.5C 128.5,225.167 128.5,225.833 128.5,226.5C 127.596,227.209 127.263,228.209 127.5,229.5C 127.354,233.519 127.021,237.519 126.5,241.5C 126.5,243.167 126.5,244.833 126.5,246.5C 125.708,252.13 125.375,257.797 125.5,263.5C 125.5,264.167 125.5,264.833 125.5,265.5C 124.5,265.5 123.5,265.5 122.5,265.5C 123.508,241.07 125.342,216.736 128,192.5C 123.457,187.747 120.791,182.08 120,175.5C 116.667,179.5 113.333,183.5 110,187.5C 109.833,187.167 109.667,186.833 109.5,186.5C 114.42,180.315 119.087,173.982 123.5,167.5C 124.167,167.167 124.833,166.833 125.5,166.5C 130.362,166.882 135.028,166.216 139.5,164.5 Z"/></g>
<g><path style="opacity:1" fill="#a5a5ad" d="M 146.5,175.5 C 146.737,176.791 146.404,177.791 145.5,178.5C 145.649,177.448 145.483,176.448 145,175.5C 144.209,176.745 143.709,178.078 143.5,179.5C 139.811,178.789 138.811,176.789 140.5,173.5C 141.612,172.628 142.946,172.628 144.5,173.5C 145.713,173.747 146.38,174.414 146.5,175.5 Z"/></g>
<g><path style="opacity:1" fill="#aeb0a8" d="M 126.5,168.5 C 127.376,168.369 128.043,168.702 128.5,169.5C 126.192,170.873 125.525,170.54 126.5,168.5 Z"/></g>
<g><path style="opacity:1" fill="#c9c6c4" d="M 131.5,167.5 C 133.465,167.948 133.798,168.948 132.5,170.5C 131.614,169.675 131.281,168.675 131.5,167.5 Z"/></g>
<g><path style="opacity:1" fill="#f2f3e2" d="M 106.5,162.5 C 112.326,163.224 117.993,164.891 123.5,167.5C 119.087,173.982 114.42,180.315 109.5,186.5C 109.667,186.833 109.833,187.167 110,187.5C 113.333,183.5 116.667,179.5 120,175.5C 120.791,182.08 123.457,187.747 128,192.5C 125.342,216.736 123.508,241.07 122.5,265.5C 121.833,265.5 121.167,265.5 120.5,265.5C 113.031,238.723 108.865,211.389 108,183.5C 106.392,176.846 104.892,170.179 103.5,163.5C 104.325,162.614 105.325,162.281 106.5,162.5 Z"/></g>
<g><path style="opacity:1" fill="#eff0df" d="M 157.5,165.5 C 156.564,192.473 154.23,219.473 150.5,246.5C 149.833,241.833 149.167,237.167 148.5,232.5C 147.669,226.176 146.835,219.843 146,213.5C 143.472,206.697 141.638,199.697 140.5,192.5C 142.232,187.8 143.899,183.133 145.5,178.5C 146.404,177.791 146.737,176.791 146.5,175.5C 149.458,178.06 151.958,181.06 154,184.5C 154.167,184.167 154.333,183.833 154.5,183.5C 151.214,176.416 146.214,170.916 139.5,167C 140.563,165.812 141.897,165.312 143.5,165.5C 148.298,164.256 152.965,164.256 157.5,165.5 Z"/></g>
<g><path style="opacity:1" fill="#957e8a" d="M 140.5,173.5 C 138.811,176.789 139.811,178.789 143.5,179.5C 141.94,181.954 140.94,184.62 140.5,187.5C 136.302,187.358 132.302,187.858 128.5,189C 124.207,184.262 122.373,178.762 123,172.5C 128.681,174.788 134.515,175.121 140.5,173.5 Z"/></g>
<g><path style="opacity:1" fill="#0d100d" d="M 200.5,113.5 C 201.927,115.148 202.76,117.148 203,119.5C 203.667,123.833 203.667,128.167 203,132.5C 199.276,143.112 192.776,151.612 183.5,158C 189.069,160.035 193.903,163.202 198,167.5C 214.88,188.918 227.88,212.584 237,238.5C 238.795,247.473 238.962,256.473 237.5,265.5C 236.5,265.5 235.5,265.5 234.5,265.5C 236.912,257.562 237.079,249.562 235,241.5C 230.391,231.282 226.057,220.948 222,210.5C 215.221,196.727 207.221,183.727 198,171.5C 197.924,181.573 197.258,191.573 196,201.5C 196.772,190.166 196.605,178.833 195.5,167.5C 189,164.915 182.334,162.915 175.5,161.5C 179.092,170.017 183.258,178.35 188,186.5C 190.284,190.775 189.95,194.775 187,198.5C 184.167,201.333 181.333,204.167 178.5,207C 179.908,207.315 181.241,206.982 182.5,206C 185.312,204.023 187.978,201.856 190.5,199.5C 191.086,199.709 191.586,200.043 192,200.5C 191.371,223.556 185.537,245.223 174.5,265.5C 173.167,265.5 171.833,265.5 170.5,265.5C 182.631,247.041 188.798,226.708 189,204.5C 181.905,210.638 173.738,213.805 164.5,214C 173.321,208.676 180.654,201.843 186.5,193.5C 183.216,183.152 179.049,173.152 174,163.5C 171.646,163.108 169.146,163.108 166.5,163.5C 163.615,163.806 160.948,163.473 158.5,162.5C 177.146,163.159 190.48,155.159 198.5,138.5C 199.629,136.372 199.796,134.039 199,131.5C 197.093,127.59 194.427,124.256 191,121.5C 189.069,117.207 187.236,112.874 185.5,108.5C 185.846,107.304 186.346,107.304 187,108.5C 188.471,112.581 190.138,116.581 192,120.5C 196.183,123.674 199.183,127.674 201,132.5C 201.594,126.144 201.427,119.811 200.5,113.5 Z"/></g>
<g><path style="opacity:1" fill="#161714" d="M 95.5,159.5 C 99.4456,159.882 103.112,160.882 106.5,162.5C 105.325,162.281 104.325,162.614 103.5,163.5C 104.892,170.179 106.392,176.846 108,183.5C 108.865,211.389 113.031,238.723 120.5,265.5C 119.833,265.5 119.167,265.5 118.5,265.5C 115.032,252.592 111.866,239.592 109,226.5C 107.86,205.013 105.527,183.68 102,162.5C 99.5848,161.868 97.4181,160.868 95.5,159.5 Z"/></g>
<g><path style="opacity:1" fill="#464f37" d="M 234.5,265.5 C 222.167,265.5 209.833,265.5 197.5,265.5C 200.899,263.962 204.233,262.129 207.5,260C 210.192,258.12 211.359,255.62 211,252.5C 207.79,258.395 202.957,261.895 196.5,263C 196.833,260 198.5,258.333 201.5,258C 206.844,251.847 206.511,251.347 200.5,256.5C 200.167,255.833 199.833,255.167 199.5,254.5C 203.53,242.453 205.364,230.119 205,217.5C 203.532,233.983 200.032,249.983 194.5,265.5C 187.833,265.5 181.167,265.5 174.5,265.5C 185.537,245.223 191.371,223.556 192,200.5C 191.586,200.043 191.086,199.709 190.5,199.5C 187.978,201.856 185.312,204.023 182.5,206C 181.241,206.982 179.908,207.315 178.5,207C 181.333,204.167 184.167,201.333 187,198.5C 189.95,194.775 190.284,190.775 188,186.5C 183.258,178.35 179.092,170.017 175.5,161.5C 182.334,162.915 189,164.915 195.5,167.5C 196.605,178.833 196.772,190.166 196,201.5C 197.258,191.573 197.924,181.573 198,171.5C 207.221,183.727 215.221,196.727 222,210.5C 226.057,220.948 230.391,231.282 235,241.5C 237.079,249.562 236.912,257.562 234.5,265.5 Z"/></g>
<g><path style="opacity:1" fill="#d4ac99" d="M 142.5,208.5 C 139.272,208.701 136.105,208.367 133,207.5C 131.989,208.056 131.156,208.722 130.5,209.5C 131.593,203.18 132.593,196.847 133.5,190.5C 135.5,190.5 137.5,190.5 139.5,190.5C 139.687,196.677 140.687,202.677 142.5,208.5 Z"/></g>
<g><path style="opacity:1" fill="#e9cdb2" d="M 142.5,208.5 C 142.5,209.833 142.5,211.167 142.5,212.5C 142.5,213.5 142.5,214.5 142.5,215.5C 140.409,215.682 138.409,215.348 136.5,214.5C 135.614,213.675 135.281,212.675 135.5,211.5C 133.585,211.784 131.919,211.451 130.5,210.5C 130.5,210.167 130.5,209.833 130.5,209.5C 131.156,208.722 131.989,208.056 133,207.5C 136.105,208.367 139.272,208.701 142.5,208.5 Z"/></g>
<g><path style="opacity:1" fill="#ac958a" d="M 130.5,210.5 C 131.919,211.451 133.585,211.784 135.5,211.5C 135.281,212.675 135.614,213.675 136.5,214.5C 138.409,215.348 140.409,215.682 142.5,215.5C 142.5,214.5 142.5,213.5 142.5,212.5C 144.118,215.171 144.785,218.171 144.5,221.5C 144.688,223.103 144.188,224.437 143,225.5C 143.51,223.62 143.343,221.787 142.5,220C 141.258,219.689 140.258,220.189 139.5,221.5C 137.591,220.652 135.591,220.318 133.5,220.5C 133.5,221.833 133.5,223.167 133.5,224.5C 131.833,224.5 130.167,224.5 128.5,224.5C 128.362,219.586 129.028,214.919 130.5,210.5 Z"/></g>
<g><path style="opacity:1" fill="#aa969d" d="M 128.5,226.5 C 135.065,227.438 135.565,228.771 130,230.5C 129.329,229.748 128.496,229.414 127.5,229.5C 127.263,228.209 127.596,227.209 128.5,226.5 Z"/></g>
<g><path style="opacity:1" fill="#452d3e" d="M 144.5,221.5 C 145.525,224.974 146.192,228.64 146.5,232.5C 145.033,231.708 143.7,231.708 142.5,232.5C 144.149,233.974 145.149,235.807 145.5,238C 145.164,239.03 144.497,239.53 143.5,239.5C 142.542,239.047 141.708,238.381 141,237.5C 140.275,239.949 139.275,242.283 138,244.5C 136.745,243.789 135.579,242.956 134.5,242C 131.639,241.8 128.972,241.633 126.5,241.5C 127.021,237.519 127.354,233.519 127.5,229.5C 128.496,229.414 129.329,229.748 130,230.5C 135.565,228.771 135.065,227.438 128.5,226.5C 128.5,225.833 128.5,225.167 128.5,224.5C 130.167,224.5 131.833,224.5 133.5,224.5C 133.5,223.167 133.5,221.833 133.5,220.5C 135.591,220.318 137.591,220.652 139.5,221.5C 140.258,220.189 141.258,219.689 142.5,220C 143.343,221.787 143.51,223.62 143,225.5C 144.188,224.437 144.688,223.103 144.5,221.5 Z"/></g>
<g><path style="opacity:1" fill="#9b8385" d="M 138.5,232.5 C 139.497,232.47 140.164,232.97 140.5,234C 139.624,236.836 138.291,239.336 136.5,241.5C 132.64,239.474 132.974,237.808 137.5,236.5C 138.429,235.311 138.762,233.978 138.5,232.5 Z"/></g>
<g><path style="opacity:1" fill="#6c445b" d="M 146.5,232.5 C 146.5,239.167 146.5,245.833 146.5,252.5C 145.153,253.171 143.986,253.171 143,252.5C 142.294,248.113 142.46,243.78 143.5,239.5C 144.497,239.53 145.164,239.03 145.5,238C 145.149,235.807 144.149,233.974 142.5,232.5C 143.7,231.708 145.033,231.708 146.5,232.5 Z"/></g>
<g><path style="opacity:1" fill="#8a6d7c" d="M 143.5,239.5 C 142.46,243.78 142.294,248.113 143,252.5C 143.986,253.171 145.153,253.171 146.5,252.5C 146.443,253.609 146.11,254.609 145.5,255.5C 143.236,254.781 140.903,254.448 138.5,254.5C 138.082,253.778 137.416,253.278 136.5,253C 139.742,252.717 140.076,251.883 137.5,250.5C 136.148,251.524 134.815,252.524 133.5,253.5C 133.646,251.058 132.813,250.391 131,251.5C 130.29,250.027 129.124,249.36 127.5,249.5C 127.737,248.209 127.404,247.209 126.5,246.5C 126.5,244.833 126.5,243.167 126.5,241.5C 128.972,241.633 131.639,241.8 134.5,242C 135.579,242.956 136.745,243.789 138,244.5C 139.275,242.283 140.275,239.949 141,237.5C 141.708,238.381 142.542,239.047 143.5,239.5 Z"/></g>
<g><path style="opacity:1" fill="#71716c" d="M 148.5,232.5 C 149.167,237.167 149.833,241.833 150.5,246.5C 149.839,249.787 149.339,253.12 149,256.5C 148.5,248.507 148.334,240.507 148.5,232.5 Z"/></g>
<g><path style="opacity:1" fill="#d6ced7" d="M 138.5,254.5 C 137.662,254.842 137.328,255.508 137.5,256.5C 136.798,257.116 135.798,257.116 134.5,256.5C 133.89,255.609 133.557,254.609 133.5,253.5C 134.815,252.524 136.148,251.524 137.5,250.5C 140.076,251.883 139.742,252.717 136.5,253C 137.416,253.278 138.082,253.778 138.5,254.5 Z"/></g>
<g><path style="opacity:1" fill="#9e998e" d="M 127.5,249.5 C 129.124,249.36 130.29,250.027 131,251.5C 132.813,250.391 133.646,251.058 133.5,253.5C 133.557,254.609 133.89,255.609 134.5,256.5C 132.283,257.369 129.95,257.702 127.5,257.5C 127.5,254.833 127.5,252.167 127.5,249.5 Z"/></g>
<g><path style="opacity:1" fill="#0e130b" d="M 197.5,265.5 C 196.5,265.5 195.5,265.5 194.5,265.5C 200.032,249.983 203.532,233.983 205,217.5C 205.364,230.119 203.53,242.453 199.5,254.5C 199.833,255.167 200.167,255.833 200.5,256.5C 206.511,251.347 206.844,251.847 201.5,258C 198.5,258.333 196.833,260 196.5,263C 202.957,261.895 207.79,258.395 211,252.5C 211.359,255.62 210.192,258.12 207.5,260C 204.233,262.129 200.899,263.962 197.5,265.5 Z"/></g>
<g><path style="opacity:1" fill="#10150c" d="M 71.5,265.5 C 70.5,265.5 69.5,265.5 68.5,265.5C 67.2249,256.178 64.0583,247.511 59,239.5C 57.8756,236.558 57.5423,233.558 58,230.5C 62.5132,242.188 67.0132,253.854 71.5,265.5 Z"/></g>
<g><path style="opacity:1" fill="#494b6f" d="M 126.5,246.5 C 127.404,247.209 127.737,248.209 127.5,249.5C 127.5,252.167 127.5,254.833 127.5,257.5C 129.95,257.702 132.283,257.369 134.5,256.5C 135.798,257.116 136.798,257.116 137.5,256.5C 138.885,257.947 138.552,258.947 136.5,259.5C 133.475,259.123 130.475,258.956 127.5,259C 126.901,260.622 126.234,262.122 125.5,263.5C 125.375,257.797 125.708,252.13 126.5,246.5 Z"/></g>
<g><path style="opacity:1" fill="#2f3a73" d="M 136.5,259.5 C 136.089,262.276 136.922,262.943 139,261.5C 140.749,262.41 141.916,263.743 142.5,265.5C 136.833,265.5 131.167,265.5 125.5,265.5C 125.5,264.833 125.5,264.167 125.5,263.5C 126.234,262.122 126.901,260.622 127.5,259C 130.475,258.956 133.475,259.123 136.5,259.5 Z"/></g>
<g><path style="opacity:0.251" fill="#292342" d="M 138.5,254.5 C 140.903,254.448 143.236,254.781 145.5,255.5C 145.54,258.881 145.207,262.214 144.5,265.5C 143.833,265.5 143.167,265.5 142.5,265.5C 141.916,263.743 140.749,262.41 139,261.5C 136.922,262.943 136.089,262.276 136.5,259.5C 138.552,258.947 138.885,257.947 137.5,256.5C 137.328,255.508 137.662,254.842 138.5,254.5 Z"/></g>
</svg>
