<?xml version="1.0" encoding="UTF-8"?>
<!DOCTYPE svg PUBLIC "-//W3C//DTD SVG 1.1//EN" "http://www.w3.org/Graphics/SVG/1.1/DTD/svg11.dtd">
<svg xmlns="http://www.w3.org/2000/svg" version="1.1" width="265px" height="266px" style="shape-rendering:geometricPrecision; text-rendering:geometricPrecision; image-rendering:optimizeQuality; fill-rule:evenodd; clip-rule:evenodd" xmlns:xlink="http://www.w3.org/1999/xlink">
<g><path style="opacity:0.998" fill="#fcfdf4" d="M 2.5,-0.5 C 88.8333,-0.5 175.167,-0.5 261.5,-0.5C 262.167,0.833333 263.167,1.83333 264.5,2.5C 264.5,89.1667 264.5,175.833 264.5,262.5C 263.128,263.512 261.795,264.512 260.5,265.5C 175.167,265.5 89.8333,265.5 4.5,265.5C 2.77976,264.692 1.1131,263.692 -0.5,262.5C -0.5,175.833 -0.5,89.1667 -0.5,2.5C 0.833333,1.83333 1.83333,0.833333 2.5,-0.5 Z"/></g>
<g><path style="opacity:1" fill="#020180" d="M 124.5,56.5 C 126.277,57.6005 128.277,58.4338 130.5,59C 129.584,59.2784 128.918,59.7784 128.5,60.5C 109.414,66.362 90.4138,72.5286 71.5,79C 57.1705,79.4999 42.8372,79.6666 28.5,79.5C 28.5,65.8333 28.5,52.1667 28.5,38.5C 42.504,38.3334 56.504,38.5001 70.5,39C 88.4255,45.1421 106.426,50.9754 124.5,56.5 Z"/></g>
<g><path style="opacity:1" fill="#050281" d="M 134.5,60.5 C 134.167,59.8333 133.833,59.1667 133.5,58.5C 153.164,52.112 172.831,45.612 192.5,39C 206.829,38.5001 221.163,38.3334 235.5,38.5C 235.5,52.1667 235.5,65.8333 235.5,79.5C 220.496,79.6666 205.496,79.4999 190.5,79C 172.018,72.2143 153.351,66.0476 134.5,60.5 Z"/></g>
<g><path style="opacity:1" fill="#b7b8d5" d="M 124.5,56.5 C 127.598,56.7556 130.598,57.4222 133.5,58.5C 133.833,59.1667 134.167,59.8333 134.5,60.5C 133.549,61.9187 133.216,63.5853 133.5,65.5C 133.167,65.5 132.833,65.5 132.5,65.5C 132.649,64.448 132.483,63.448 132,62.5C 131.768,63.7375 131.268,64.7375 130.5,65.5C 130.923,63.2188 130.256,61.5521 128.5,60.5C 128.918,59.7784 129.584,59.2784 130.5,59C 128.277,58.4338 126.277,57.6005 124.5,56.5 Z"/></g>
<g><path style="opacity:1" fill="#040281" d="M 132.5,65.5 C 132.367,71.4891 133.367,77.1557 135.5,82.5C 137.061,90.4256 138.061,98.4256 138.5,106.5C 138.362,111.414 139.028,116.081 140.5,120.5C 141.219,122.764 141.552,125.097 141.5,127.5C 141.28,132.1 141.946,136.433 143.5,140.5C 146.653,159.101 149.486,177.768 152,196.5C 152.5,212.83 152.667,229.163 152.5,245.5C 138.833,245.5 125.167,245.5 111.5,245.5C 111.5,230.5 111.5,215.5 111.5,200.5C 113.76,195.527 114.76,190.194 114.5,184.5C 116.183,169.774 118.183,155.108 120.5,140.5C 122.054,136.433 122.72,132.1 122.5,127.5C 123.208,119.458 124.208,111.458 125.5,103.5C 127.561,97.8039 128.561,91.8039 128.5,85.5C 129.43,78.8683 130.097,72.2016 130.5,65.5C 131.268,64.7375 131.768,63.7375 132,62.5C 132.483,63.448 132.649,64.448 132.5,65.5 Z"/></g>
<g><path style="opacity:1" fill="#463e9c" d="M 132.5,65.5 C 132.833,65.5 133.167,65.5 133.5,65.5C 134.167,71.1667 134.833,76.8333 135.5,82.5C 133.367,77.1557 132.367,71.4891 132.5,65.5 Z"/></g>
<g><path style="opacity:1" fill="#5851a5" d="M 128.5,85.5 C 128.561,91.8039 127.561,97.8039 125.5,103.5C 125.957,97.2801 126.957,91.2801 128.5,85.5 Z"/></g>
<g><path style="opacity:1" fill="#463e9d" d="M 138.5,106.5 C 139.972,110.919 140.638,115.586 140.5,120.5C 139.028,116.081 138.362,111.414 138.5,106.5 Z"/></g>
<g><path style="opacity:1" fill="#4a429e" d="M 141.5,127.5 C 143.054,131.567 143.72,135.9 143.5,140.5C 141.946,136.433 141.28,132.1 141.5,127.5 Z"/></g>
<g><path style="opacity:1" fill="#554da4" d="M 122.5,127.5 C 122.72,132.1 122.054,136.433 120.5,140.5C 120.28,135.9 120.946,131.567 122.5,127.5 Z"/></g>
<g><path style="opacity:1" fill="#524aa2" d="M 114.5,184.5 C 114.76,190.194 113.76,195.527 111.5,200.5C 111.956,194.939 112.956,189.606 114.5,184.5 Z"/></g>
</svg>
