<?xml version="1.0" encoding="UTF-8"?>
<!DOCTYPE svg PUBLIC "-//W3C//DTD SVG 1.1//EN" "http://www.w3.org/Graphics/SVG/1.1/DTD/svg11.dtd">
<svg xmlns="http://www.w3.org/2000/svg" version="1.1" width="265px" height="266px" style="shape-rendering:geometricPrecision; text-rendering:geometricPrecision; image-rendering:optimizeQuality; fill-rule:evenodd; clip-rule:evenodd" xmlns:xlink="http://www.w3.org/1999/xlink">
<g><path style="opacity:0.999" fill="#04dce7" d="M 2.5,-0.5 C 88.8333,-0.5 175.167,-0.5 261.5,-0.5C 262.167,0.833333 263.167,1.83333 264.5,2.5C 264.5,6.16667 264.5,9.83333 264.5,13.5C 219.524,11.0379 174.524,9.20461 129.5,8C 97.1667,7.33333 64.8333,7.33333 32.5,8C 21.5775,9.43118 10.5775,9.93118 -0.5,9.5C -0.5,7.16667 -0.5,4.83333 -0.5,2.5C 0.833333,1.83333 1.83333,0.833333 2.5,-0.5 Z"/></g>
<g><path style="opacity:0.999" fill="#09dde4" d="M 264.5,13.5 C 264.5,16.1667 264.5,18.8333 264.5,21.5C 202.579,17.3685 140.579,15.0352 78.5,14.5C 52.1036,14.6623 25.7703,15.6623 -0.5,17.5C -0.5,14.8333 -0.5,12.1667 -0.5,9.5C 10.5775,9.93118 21.5775,9.43118 32.5,8C 64.8333,7.33333 97.1667,7.33333 129.5,8C 174.524,9.20461 219.524,11.0379 264.5,13.5 Z"/></g>
<g><path style="opacity:1" fill="#13dfdd" d="M 264.5,21.5 C 264.5,24.5 264.5,27.5 264.5,30.5C 176.156,24.8763 87.8226,23.2097 -0.5,25.5C -0.5,22.8333 -0.5,20.1667 -0.5,17.5C 25.7703,15.6623 52.1036,14.6623 78.5,14.5C 140.579,15.0352 202.579,17.3685 264.5,21.5 Z"/></g>
<g><path style="opacity:1" fill="#1de0d8" d="M 264.5,30.5 C 264.5,32.8333 264.5,35.1667 264.5,37.5C 234.838,35.501 205.171,33.501 175.5,31.5C 175.737,32.791 175.404,33.791 174.5,34.5C 174.116,30.5564 172.116,29.5564 168.5,31.5C 125.837,30.8373 83.1699,30.504 40.5,30.5C 40.3706,26.515 38.5372,25.1817 35,26.5C 34.51,27.7932 34.3433,29.1266 34.5,30.5C 22.8931,31.2847 11.2264,31.9514 -0.5,32.5C -0.5,30.1667 -0.5,27.8333 -0.5,25.5C 87.8226,23.2097 176.156,24.8763 264.5,30.5 Z"/></g>
<g><path style="opacity:1" fill="#edfcfb" d="M 40.5,30.5 C 38.3888,31.7416 36.3888,31.7416 34.5,30.5C 34.3433,29.1266 34.51,27.7932 35,26.5C 38.5372,25.1817 40.3706,26.515 40.5,30.5 Z"/></g>
<g><path style="opacity:1" fill="#f0fcfb" d="M 174.5,34.5 C 174.167,35.1667 173.833,35.8333 173.5,36.5C 172.167,36.5 170.833,36.5 169.5,36.5C 168.699,34.9582 168.366,33.2915 168.5,31.5C 172.116,29.5564 174.116,30.5564 174.5,34.5 Z"/></g>
<g><path style="opacity:1" fill="#29e0d0" d="M 264.5,37.5 C 264.5,38.8333 264.5,40.1667 264.5,41.5C 244.329,41.0311 224.162,40.3644 204,39.5C 200.648,39.5018 197.482,39.8351 194.5,40.5C 187.841,37.5059 180.841,36.1725 173.5,36.5C 173.833,35.8333 174.167,35.1667 174.5,34.5C 175.404,33.791 175.737,32.791 175.5,31.5C 205.171,33.501 234.838,35.501 264.5,37.5 Z"/></g>
<g><path style="opacity:1" fill="#2ee1cc" d="M 34.5,30.5 C 36.3888,31.7416 38.3888,31.7416 40.5,30.5C 83.1699,30.504 125.837,30.8373 168.5,31.5C 168.366,33.2915 168.699,34.9582 169.5,36.5C 161.269,37.5217 153.435,39.8551 146,43.5C 139.152,39.7877 131.819,37.7877 124,37.5C 117.993,36.8942 112.493,38.2276 107.5,41.5C 98.5062,40.8335 89.3395,40.5002 80,40.5C 66.3001,40.3229 52.8001,40.9896 39.5,42.5C 36.1401,42.3841 32.8067,42.0508 29.5,41.5C 19.5559,40.0868 9.55591,39.4201 -0.5,39.5C -0.5,37.1667 -0.5,34.8333 -0.5,32.5C 11.2264,31.9514 22.8931,31.2847 34.5,30.5 Z"/></g>
<g><path style="opacity:0.999" fill="#0f1010" d="M 169.5,36.5 C 170.833,36.5 172.167,36.5 173.5,36.5C 180.841,36.1725 187.841,37.5059 194.5,40.5C 196.89,42.2666 198.557,44.5999 199.5,47.5C 199.086,50.7431 198.086,53.7431 196.5,56.5C 192.905,58.1023 189.571,60.1023 186.5,62.5C 184.188,64.1455 182.188,66.1455 180.5,68.5C 181.855,70.5212 183.521,72.1879 185.5,73.5C 186.415,75.7541 187.748,77.7541 189.5,79.5C 189.533,82.836 188.866,86.0027 187.5,89C 190.495,88.354 193.495,87.354 196.5,86C 200.255,85.2446 203.922,85.4113 207.5,86.5C 209.332,87.2485 210.999,88.2485 212.5,89.5C 213.167,91.1667 213.833,92.8333 214.5,94.5C 215.219,96.7638 215.552,99.0971 215.5,101.5C 215.5,102.833 215.5,104.167 215.5,105.5C 214.232,107.905 213.565,110.572 213.5,113.5C 212.263,114.965 211.263,116.632 210.5,118.5C 208.6,120.619 206.934,122.953 205.5,125.5C 202.833,127.833 200.167,130.167 197.5,132.5C 193.917,135.567 189.917,138.067 185.5,140C 184.663,141.011 184.33,142.178 184.5,143.5C 184.5,144.5 184.5,145.5 184.5,146.5C 187.033,155.557 189.866,164.557 193,173.5C 194.426,183.355 192.926,192.688 188.5,201.5C 190.274,205.389 192.274,209.055 194.5,212.5C 196.172,217.849 197.839,223.182 199.5,228.5C 200.446,234.46 201.113,240.46 201.5,246.5C 199.536,252.491 198.536,258.824 198.5,265.5C 197.167,265.5 195.833,265.5 194.5,265.5C 194.5,262.167 194.5,258.833 194.5,255.5C 190.833,255.5 187.167,255.5 183.5,255.5C 183.5,258.833 183.5,262.167 183.5,265.5C 182.5,265.5 181.5,265.5 180.5,265.5C 180.666,259.491 180.499,253.491 180,247.5C 177.987,237.405 175.987,227.405 174,217.5C 174.893,216.289 175.726,216.289 176.5,217.5C 180.27,228.517 182.437,239.851 183,251.5C 187.413,252.632 191.913,252.799 196.5,252C 198.886,235.661 195.719,220.161 187,205.5C 186.439,204.978 185.772,204.645 185,204.5C 178.677,206.872 172.177,208.539 165.5,209.5C 158.075,218.012 149.408,219.512 139.5,214C 136.93,211.933 134.93,209.433 133.5,206.5C 127.242,204.699 121.242,202.366 115.5,199.5C 114.006,199.709 112.839,200.376 112,201.5C 104.444,198.315 97.2776,199.148 90.5,204C 79.753,214.659 73.0863,227.492 70.5,242.5C 80.331,242.958 89.6643,245.291 98.5,249.5C 98.56,250.043 98.8933,250.376 99.5,250.5C 100.474,248.257 100.808,245.924 100.5,243.5C 100.833,235.5 101.167,227.5 101.5,219.5C 102.5,219.5 103.5,219.5 104.5,219.5C 103.677,234.846 102.677,250.179 101.5,265.5C 100.5,265.5 99.5,265.5 98.5,265.5C 99.0037,261.493 99.1703,257.493 99,253.5C 92.6194,248.811 85.6194,246.811 78,247.5C 77.4092,253.498 76.9092,259.498 76.5,265.5C 75.1667,265.5 73.8333,265.5 72.5,265.5C 73.2482,260.515 73.9149,255.515 74.5,250.5C 67.8906,249.742 65.7239,246.075 68,239.5C 69.072,235.453 70.2387,231.453 71.5,227.5C 74.6994,220.95 78.366,214.617 82.5,208.5C 85.681,204.235 89.681,200.901 94.5,198.5C 97.2777,197.032 100.278,196.199 103.5,196C 101.444,193.386 99.7769,190.553 98.5,187.5C 97.1085,181.494 95.6085,175.494 94,169.5C 91.2461,175.173 89.4128,181.173 88.5,187.5C 88.5,188.5 88.5,189.5 88.5,190.5C 87.8333,187.833 87.1667,185.167 86.5,182.5C 86.5,180.167 86.5,177.833 86.5,175.5C 86.8333,172.167 87.1667,168.833 87.5,165.5C 88.3905,161.166 89.3905,156.833 90.5,152.5C 90.7244,148.821 91.0578,145.154 91.5,141.5C 82.2505,144.893 72.9172,145.226 63.5,142.5C 60.5505,140.885 57.8838,138.885 55.5,136.5C 54.1473,133.795 52.8139,131.128 51.5,128.5C 51.405,126.214 50.7384,124.214 49.5,122.5C 49.7845,120.585 49.4511,118.919 48.5,117.5C 48.5,114.5 48.5,111.5 48.5,108.5C 48.5,107.5 48.5,106.5 48.5,105.5C 48.8333,103.5 49.1667,101.5 49.5,99.5C 51.0709,97.3649 52.4043,95.0316 53.5,92.5C 55.4819,88.8537 58.1485,85.8537 61.5,83.5C 72.0806,76.9939 81.2473,78.6606 89,88.5C 86.5948,78.7331 87.0948,69.0664 90.5,59.5C 94.7587,52.2393 100.425,46.2393 107.5,41.5C 112.493,38.2276 117.993,36.8942 124,37.5C 131.819,37.7877 139.152,39.7877 146,43.5C 153.435,39.8551 161.269,37.5217 169.5,36.5 Z"/></g>
<g><path style="opacity:0.994" fill="#a781e2" d="M -0.5,39.5 C 9.55591,39.4201 19.5559,40.0868 29.5,41.5C 29.1459,43.5412 29.1459,45.3745 29.5,47C 27.3215,47.4419 26.6548,48.4419 27.5,50C 24.5178,52.1911 24.1845,54.5245 26.5,57C 24.0829,58.1437 23.4162,59.8103 24.5,62C 23.4844,62.5194 22.8178,63.3527 22.5,64.5C 23.5824,66.6728 23.5824,68.6728 22.5,70.5C 14.8333,70.5 7.16667,70.5 -0.5,70.5C -0.5,60.1667 -0.5,49.8333 -0.5,39.5 Z"/></g>
<g><path style="opacity:1" fill="#42e3c1" d="M 107.5,41.5 C 100.425,46.2393 94.7587,52.2393 90.5,59.5C 88.2872,58.2271 85.9538,57.2271 83.5,56.5C 77.0323,52.6737 70.0323,50.007 62.5,48.5C 59.659,47.3307 56.659,46.3307 53.5,45.5C 51.8828,44.962 50.2161,44.6287 48.5,44.5C 45.454,43.938 42.454,43.2713 39.5,42.5C 52.8001,40.9896 66.3001,40.3229 80,40.5C 89.3395,40.5002 98.5062,40.8335 107.5,41.5 Z"/></g>
<g><path style="opacity:1" fill="#bbbbef" d="M 118.5,40.5 C 127.299,39.4353 135.299,41.4353 142.5,46.5C 126.826,54.2658 112.992,64.5991 101,77.5C 98.2738,80.2856 96.6072,83.619 96,87.5C 95.2825,88.4506 94.4491,88.6172 93.5,88C 87.6577,64.8554 95.991,49.0221 118.5,40.5 Z"/></g>
<g><path style="opacity:1" fill="#9e9ee6" d="M 169.5,40.5 C 175.176,40.3339 180.843,40.5006 186.5,41C 194.018,42.495 196.185,46.6616 193,53.5C 187.887,59.8083 181.387,62.9749 173.5,63C 175.871,60.294 178.537,57.9606 181.5,56C 172.932,58.6312 164.265,61.2979 155.5,64C 148.349,64.2143 141.349,64.8809 134.5,66C 137.07,60.195 140.403,54.8617 144.5,50C 152.426,45.5283 160.759,42.3616 169.5,40.5 Z"/></g>
<g><path style="opacity:1" fill="#ae80d8" d="M 29.5,41.5 C 32.8067,42.0508 36.1401,42.3841 39.5,42.5C 42.454,43.2713 45.454,43.938 48.5,44.5C 46.448,48.4216 44.2813,52.4216 42,56.5C 40.7604,62.5034 39.2604,68.17 37.5,73.5C 32.3529,72.6039 27.3529,71.6039 22.5,70.5C 23.5824,68.6728 23.5824,66.6728 22.5,64.5C 22.8178,63.3527 23.4844,62.5194 24.5,62C 23.4162,59.8103 24.0829,58.1437 26.5,57C 24.1845,54.5245 24.5178,52.1911 27.5,50C 26.6548,48.4419 27.3215,47.4419 29.5,47C 29.1459,45.3745 29.1459,43.5412 29.5,41.5 Z"/></g>
<g><path style="opacity:1" fill="#3ce3c7" d="M 194.5,40.5 C 197.482,39.8351 200.648,39.5018 204,39.5C 224.162,40.3644 244.329,41.0311 264.5,41.5C 264.5,44.1667 264.5,46.8333 264.5,49.5C 242.842,48.567 221.176,47.9004 199.5,47.5C 198.557,44.5999 196.89,42.2666 194.5,40.5 Z"/></g>
<g><path style="opacity:1" fill="#c181c0" d="M 48.5,44.5 C 50.2161,44.6287 51.8828,44.962 53.5,45.5C 53.6107,46.1174 53.944,46.6174 54.5,47C 46.834,54.4848 43.1674,63.6514 43.5,74.5C 42.5,74.5 41.5,74.5 40.5,74.5C 39.209,74.7373 38.209,74.404 37.5,73.5C 39.2604,68.17 40.7604,62.5034 42,56.5C 44.2813,52.4216 46.448,48.4216 48.5,44.5 Z"/></g>
<g><path style="opacity:1" fill="#ca82b4" d="M 53.5,45.5 C 56.659,46.3307 59.659,47.3307 62.5,48.5C 61.1266,48.3433 59.7932,48.51 58.5,49C 50.8392,56.3925 47.1725,65.5592 47.5,76.5C 44.9327,76.2785 42.5994,75.6118 40.5,74.5C 41.5,74.5 42.5,74.5 43.5,74.5C 43.1674,63.6514 46.834,54.4848 54.5,47C 53.944,46.6174 53.6107,46.1174 53.5,45.5 Z"/></g>
<g><path style="opacity:1" fill="#d883a2" d="M 62.5,48.5 C 70.0323,50.007 77.0323,52.6737 83.5,56.5C 62.5576,51.4363 53.5576,59.4363 56.5,80.5C 56.1667,80.5 55.8333,80.5 55.5,80.5C 52.768,79.134 50.1013,77.8007 47.5,76.5C 47.1725,65.5592 50.8392,56.3925 58.5,49C 59.7932,48.51 61.1266,48.3433 62.5,48.5 Z"/></g>
<g><path style="opacity:1" fill="#54e5bd" d="M 199.5,47.5 C 221.176,47.9004 242.842,48.567 264.5,49.5C 264.5,52.1667 264.5,54.8333 264.5,57.5C 241.842,56.7224 219.175,56.3891 196.5,56.5C 198.086,53.7431 199.086,50.7431 199.5,47.5 Z"/></g>
<g><path style="opacity:1" fill="#b9b9ec" d="M 133.5,55.5 C 134.376,55.3691 135.043,55.7025 135.5,56.5C 133.195,63.113 129.862,69.113 125.5,74.5C 117.531,78.4844 109.531,82.4844 101.5,86.5C 101.167,86.1667 100.833,85.8333 100.5,85.5C 103.11,80.8911 106.11,76.5578 109.5,72.5C 117.216,66.3198 125.216,60.6532 133.5,55.5 Z"/></g>
<g><path style="opacity:1" fill="#e48292" d="M 83.5,56.5 C 85.9538,57.2271 88.2872,58.2271 90.5,59.5C 87.0948,69.0664 86.5948,78.7331 89,88.5C 81.2473,78.6606 72.0806,76.9939 61.5,83.5C 59.6316,82.7368 57.9649,81.7368 56.5,80.5C 53.5576,59.4363 62.5576,51.4363 83.5,56.5 Z"/></g>
<g><path style="opacity:1" fill="#6ee6b4" d="M 196.5,56.5 C 219.175,56.3891 241.842,56.7224 264.5,57.5C 264.5,59.8333 264.5,62.1667 264.5,64.5C 238.145,65.1576 212.145,64.491 186.5,62.5C 189.571,60.1023 192.905,58.1023 196.5,56.5 Z"/></g>
<g><path style="opacity:1" fill="#83e6ae" d="M 186.5,62.5 C 212.145,64.491 238.145,65.1576 264.5,64.5C 264.5,67.5 264.5,70.5 264.5,73.5C 238.075,72.3703 211.741,72.3703 185.5,73.5C 183.521,72.1879 181.855,70.5212 180.5,68.5C 182.188,66.1455 184.188,64.1455 186.5,62.5 Z"/></g>
<g><path style="opacity:1" fill="#a7d4e8" d="M 163.5,64.5 C 164.552,64.3505 165.552,64.5172 166.5,65C 164.651,66.093 162.984,67.4263 161.5,69C 165.272,68.68 169.105,68.18 173,67.5C 177.878,71.0443 182.211,75.3777 186,80.5C 182.301,100.739 180.634,100.406 181,79.5C 179.745,77.4062 177.912,76.4062 175.5,76.5C 171.414,78.0702 167.414,79.9035 163.5,82C 152.851,81.3845 142.184,81.0511 131.5,81C 114.334,84.1475 106.167,94.3141 107,111.5C 109.26,117.428 113.427,121.261 119.5,123C 118.203,125.545 118.369,128.045 120,130.5C 123.347,132.157 126.513,133.99 129.5,136C 126.158,146.527 120.658,155.694 113,163.5C 110.81,167.076 108.81,170.743 107,174.5C 107.218,170.362 105.552,169.028 102,170.5C 101.667,174.167 101.333,177.833 101,181.5C 100.333,179.5 99.6667,177.5 99,175.5C 98.6667,169.167 98.3333,162.833 98,156.5C 95.2305,158.601 93.2305,161.268 92,164.5C 93.2131,156.219 94.5464,147.885 96,139.5C 96.8439,124.899 96.0106,110.399 93.5,96C 93.7355,95.1268 94.0688,94.2935 94.5,93.5C 104.951,88.9587 115.285,84.1253 125.5,79C 128.947,76.4301 131.947,73.4301 134.5,70C 140.77,68.8482 147.103,68.1815 153.5,68C 156.98,66.8974 160.313,65.7308 163.5,64.5 Z"/></g>
<g><path style="opacity:1" fill="#9fe5a9" d="M 264.5,73.5 C 264.5,75.1667 264.5,76.8333 264.5,78.5C 239.481,78.2249 214.481,78.5583 189.5,79.5C 187.748,77.7541 186.415,75.7541 185.5,73.5C 211.741,72.3703 238.075,72.3703 264.5,73.5 Z"/></g>
<g><path style="opacity:0.998" fill="#79e8ad" d="M -0.5,70.5 C 7.16667,70.5 14.8333,70.5 22.5,70.5C 27.3529,71.6039 32.3529,72.6039 37.5,73.5C 38.209,74.404 39.209,74.7373 40.5,74.5C 42.5994,75.6118 44.9327,76.2785 47.5,76.5C 50.1013,77.8007 52.768,79.134 55.5,80.5C 37.0892,84.105 18.4225,86.7717 -0.5,88.5C -0.5,82.5 -0.5,76.5 -0.5,70.5 Z"/></g>
<g><path style="opacity:1" fill="#f9e4cd" d="M 172.5,80.5 C 174.467,80.2606 176.301,80.5939 178,81.5C 178.648,86.2041 178.481,90.8708 177.5,95.5C 169.121,93.0226 163.455,95.856 160.5,104C 160.63,105.059 161.13,105.892 162,106.5C 163.793,103.705 165.96,101.205 168.5,99C 171.303,98.245 173.97,98.5783 176.5,100C 177.611,104.779 177.611,109.612 176.5,114.5C 160.686,113.791 145.019,114.957 129.5,118C 125.167,118.667 120.833,118.667 116.5,118C 109.403,111.038 108.57,103.205 114,94.5C 125.054,84.0104 137.888,81.1771 152.5,86C 160.329,87.8705 166.996,86.0371 172.5,80.5 Z"/></g>
<g><path style="opacity:1" fill="#b6e1a4" d="M 264.5,78.5 C 264.5,80.8333 264.5,83.1667 264.5,85.5C 245.326,85.1697 226.326,85.503 207.5,86.5C 203.922,85.4113 200.255,85.2446 196.5,86C 193.495,87.354 190.495,88.354 187.5,89C 188.866,86.0027 189.533,82.836 189.5,79.5C 214.481,78.5583 239.481,78.2249 264.5,78.5 Z"/></g>
<g><path style="opacity:1" fill="#f9e5cd" d="M 69.5,83.5 C 78.6432,83.4903 85.4765,87.4903 90,95.5C 92.9815,108.016 93.9815,120.683 93,133.5C 92.7508,134.624 92.2508,135.624 91.5,136.5C 71.2982,146.512 58.4649,140.846 53,119.5C 49.6588,103.195 55.1588,91.195 69.5,83.5 Z"/></g>
<g><path style="opacity:1" fill="#c7e1a3" d="M 207.5,86.5 C 226.326,85.503 245.326,85.1697 264.5,85.5C 264.5,86.8333 264.5,88.1667 264.5,89.5C 254.085,89.8083 243.751,89.475 233.5,88.5C 231.099,86.9378 229.099,87.2712 227.5,89.5C 222.5,89.5 217.5,89.5 212.5,89.5C 210.999,88.2485 209.332,87.2485 207.5,86.5 Z"/></g>
<g><path style="opacity:1" fill="#191816" d="M 70.5,87.5 C 77.5486,86.6976 83.3819,89.0309 88,94.5C 88.49,95.7932 88.6567,97.1266 88.5,98.5C 85.3922,97.4355 82.7255,95.6022 80.5,93C 72.9267,90.1182 67.2601,92.2849 63.5,99.5C 62.675,100.386 61.675,100.719 60.5,100.5C 60.372,98.3453 60.872,96.3453 62,94.5C 64.6278,91.7895 67.4611,89.4562 70.5,87.5 Z"/></g>
<g><path style="opacity:1" fill="#fbfdf9" d="M 233.5,88.5 C 233.99,90.9484 233.157,92.615 231,93.5C 228.926,92.9283 227.76,91.595 227.5,89.5C 229.099,87.2712 231.099,86.9378 233.5,88.5 Z"/></g>
<g><path style="opacity:1" fill="#f8e4cc" d="M 188.5,94.5 C 194.395,89.4711 201.062,88.3044 208.5,91C 211.412,96.4605 212.245,102.294 211,108.5C 205.784,121.385 196.784,130.718 184,136.5C 183.911,129.039 183.078,121.706 181.5,114.5C 182.485,108.377 183.985,102.377 186,96.5C 186.417,95.244 187.25,94.5774 188.5,94.5 Z"/></g>
<g><path style="opacity:1" fill="#d6dea2" d="M 233.5,88.5 C 243.751,89.475 254.085,89.8083 264.5,89.5C 264.5,91.1667 264.5,92.8333 264.5,94.5C 247.833,94.5 231.167,94.5 214.5,94.5C 213.833,92.8333 213.167,91.1667 212.5,89.5C 217.5,89.5 222.5,89.5 227.5,89.5C 227.76,91.595 228.926,92.9283 231,93.5C 233.157,92.615 233.99,90.9484 233.5,88.5 Z"/></g>
<g><path style="opacity:0.998" fill="#95e4a8" d="M 55.5,80.5 C 55.8333,80.5 56.1667,80.5 56.5,80.5C 57.9649,81.7368 59.6316,82.7368 61.5,83.5C 58.1485,85.8537 55.4819,88.8537 53.5,92.5C 45.8468,93.5933 38.1801,94.5933 30.5,95.5C 28.8147,92.1445 26.8147,91.8112 24.5,94.5C 23.1696,95.8321 21.5029,96.6655 19.5,97C 12.8146,97.7982 6.14791,98.6315 -0.5,99.5C -0.5,95.8333 -0.5,92.1667 -0.5,88.5C 18.4225,86.7717 37.0892,84.105 55.5,80.5 Z"/></g>
<g><path style="opacity:1" fill="#161513" d="M 188.5,94.5 C 201.251,89.6985 207.585,94.0319 207.5,107.5C 206.178,107.67 205.011,107.337 204,106.5C 203.541,96.3823 198.707,93.7157 189.5,98.5C 187.358,97.5629 187.024,96.2296 188.5,94.5 Z"/></g>
<g><path style="opacity:1" fill="#f9fdf9" d="M 30.5,95.5 C 29.6441,98.5131 27.8108,99.1797 25,97.5C 24.5172,96.552 24.3505,95.552 24.5,94.5C 26.8147,91.8112 28.8147,92.1445 30.5,95.5 Z"/></g>
<g><path style="opacity:1" fill="#171514" d="M 127.5,95.5 C 136.15,93.8137 141.484,97.147 143.5,105.5C 140.813,104.336 138.48,102.503 136.5,100C 130.054,97.9465 125.721,100.113 123.5,106.5C 122.675,107.386 121.675,107.719 120.5,107.5C 120.372,105.345 120.872,103.345 122,101.5C 123.769,99.3826 125.602,97.3826 127.5,95.5 Z"/></g>
<g><path style="opacity:1" fill="#e1d89e" d="M 214.5,94.5 C 231.167,94.5 247.833,94.5 264.5,94.5C 264.5,96.8333 264.5,99.1667 264.5,101.5C 248.167,101.5 231.833,101.5 215.5,101.5C 215.552,99.0971 215.219,96.7638 214.5,94.5 Z"/></g>
<g><path style="opacity:0.998" fill="#aedfa4" d="M 53.5,92.5 C 52.4043,95.0316 51.0709,97.3649 49.5,99.5C 39.9423,100.413 30.4423,101.746 21,103.5C 19.5603,102.852 18.0603,102.519 16.5,102.5C 16.5,103.5 16.5,104.5 16.5,105.5C 10.8333,106.167 5.16667,106.833 -0.5,107.5C -0.5,104.833 -0.5,102.167 -0.5,99.5C 6.14791,98.6315 12.8146,97.7982 19.5,97C 21.5029,96.6655 23.1696,95.8321 24.5,94.5C 24.3505,95.552 24.5172,96.552 25,97.5C 27.8108,99.1797 29.6441,98.5131 30.5,95.5C 38.1801,94.5933 45.8468,93.5933 53.5,92.5 Z"/></g>
<g><path style="opacity:1" fill="#ebd19b" d="M 215.5,101.5 C 231.833,101.5 248.167,101.5 264.5,101.5C 264.5,103.167 264.5,104.833 264.5,106.5C 247.991,106.83 231.658,106.496 215.5,105.5C 215.5,104.167 215.5,102.833 215.5,101.5 Z"/></g>
<g><path style="opacity:1" fill="#c1dba4" d="M 49.5,99.5 C 49.1667,101.5 48.8333,103.5 48.5,105.5C 32.2625,108.238 15.9292,110.238 -0.5,111.5C -0.5,110.167 -0.5,108.833 -0.5,107.5C 5.16667,106.833 10.8333,106.167 16.5,105.5C 16.5,104.5 16.5,103.5 16.5,102.5C 18.0603,102.519 19.5603,102.852 21,103.5C 30.4423,101.746 39.9423,100.413 49.5,99.5 Z"/></g>
<g><path style="opacity:0.998" fill="#cfd39e" d="M 48.5,105.5 C 48.5,106.5 48.5,107.5 48.5,108.5C 47.6906,109.469 46.6906,110.302 45.5,111C 30.2402,113.537 14.9069,115.371 -0.5,116.5C -0.5,114.833 -0.5,113.167 -0.5,111.5C 15.9292,110.238 32.2625,108.238 48.5,105.5 Z"/></g>
<g><path style="opacity:1" fill="#efc598" d="M 215.5,105.5 C 231.658,106.496 247.991,106.83 264.5,106.5C 264.5,109.167 264.5,111.833 264.5,114.5C 247.511,113.728 230.511,113.395 213.5,113.5C 213.565,110.572 214.232,107.905 215.5,105.5 Z"/></g>
<g><path style="opacity:0.992" fill="#d8cc9b" d="M 48.5,108.5 C 48.5,111.5 48.5,114.5 48.5,117.5C 32.1854,119.165 15.852,120.499 -0.5,121.5C -0.5,119.833 -0.5,118.167 -0.5,116.5C 14.9069,115.371 30.2402,113.537 45.5,111C 46.6906,110.302 47.6906,109.469 48.5,108.5 Z"/></g>
<g><path style="opacity:1" fill="#f3b995" d="M 213.5,113.5 C 230.511,113.395 247.511,113.728 264.5,114.5C 264.5,116.5 264.5,118.5 264.5,120.5C 246.303,120.882 228.303,120.216 210.5,118.5C 211.263,116.632 212.263,114.965 213.5,113.5 Z"/></g>
<g><path style="opacity:1" fill="#fae5cd" d="M 145.5,118.5 C 154.506,118.334 163.506,118.5 172.5,119C 178.108,119.269 180.275,122.102 179,127.5C 176.252,128.686 173.419,129.686 170.5,130.5C 177.491,144.148 183.658,158.148 189,172.5C 190.233,181.475 189.233,190.141 186,198.5C 182.632,202.1 178.465,203.933 173.5,204C 157.225,205.592 141.225,204.259 125.5,200C 114.561,194.953 109.727,186.453 111,174.5C 114.91,167.017 119.577,160.017 125,153.5C 129.119,146.641 131.952,139.308 133.5,131.5C 129.694,131.98 126.361,130.98 123.5,128.5C 122.386,127.277 122.219,125.944 123,124.5C 124.419,123.54 125.919,122.707 127.5,122C 133.644,120.867 139.644,119.701 145.5,118.5 Z"/></g>
<g><path style="opacity:0.997" fill="#e3bf97" d="M 48.5,117.5 C 49.4511,118.919 49.7845,120.585 49.5,122.5C 49.3893,123.117 49.056,123.617 48.5,124C 32.178,125.374 15.8447,126.541 -0.5,127.5C -0.5,125.5 -0.5,123.5 -0.5,121.5C 15.852,120.499 32.1854,119.165 48.5,117.5 Z"/></g>
<g><path style="opacity:1" fill="#1a1917" d="M 164.5,122.5 C 167.187,122.336 169.854,122.503 172.5,123C 173.451,123.718 173.617,124.551 173,125.5C 168.473,125.967 164.307,127.3 160.5,129.5C 160.343,128.127 160.51,126.793 161,125.5C 162.518,124.837 163.685,123.837 164.5,122.5 Z"/></g>
<g><path style="opacity:1" fill="#f2ac91" d="M 210.5,118.5 C 228.303,120.216 246.303,120.882 264.5,120.5C 264.5,122.833 264.5,125.167 264.5,127.5C 244.668,127.039 225.001,126.372 205.5,125.5C 206.934,122.953 208.6,120.619 210.5,118.5 Z"/></g>
<g><path style="opacity:1" fill="#181615" d="M 138.5,123.5 C 144.794,122.302 148.794,124.636 150.5,130.5C 146.957,128.192 142.957,127.025 138.5,127C 137.316,125.855 137.316,124.688 138.5,123.5 Z"/></g>
<g><path style="opacity:0.998" fill="#eab394" d="M 49.5,122.5 C 50.7384,124.214 51.405,126.214 51.5,128.5C 48.6446,130.25 45.3113,131.083 41.5,131C 27.5276,132.355 13.5276,133.189 -0.5,133.5C -0.5,131.5 -0.5,129.5 -0.5,127.5C 15.8447,126.541 32.178,125.374 48.5,124C 49.056,123.617 49.3893,123.117 49.5,122.5 Z"/></g>
<g><path style="opacity:1" fill="#f1a290" d="M 205.5,125.5 C 225.001,126.372 244.668,127.039 264.5,127.5C 264.5,129.5 264.5,131.5 264.5,133.5C 243.167,133.5 221.833,133.5 200.5,133.5C 200.5,134.5 200.5,135.5 200.5,136.5C 199.5,136.5 198.5,136.5 197.5,136.5C 197.5,135.167 197.5,133.833 197.5,132.5C 200.167,130.167 202.833,127.833 205.5,125.5 Z"/></g>
<g><path style="opacity:1" fill="#131211" d="M 156.5,131.5 C 157.5,131.5 158.5,131.5 159.5,131.5C 157.555,144.682 161.055,156.016 170,165.5C 178.724,163.609 184.224,166.942 186.5,175.5C 185.448,175.649 184.448,175.483 183.5,175C 181.29,169.593 179.124,169.427 177,174.5C 176.333,176.5 176.333,178.5 177,180.5C 183.406,188.176 182.906,195.342 175.5,202C 159.845,205.013 153.345,198.513 156,182.5C 157.059,179.382 158.392,176.382 160,173.5C 162.222,171.615 164.056,169.449 165.5,167C 162.881,162.932 160.381,158.766 158,154.5C 155.772,146.899 155.272,139.233 156.5,131.5 Z"/></g>
<g><path style="opacity:0.998" fill="#eda790" d="M 51.5,128.5 C 52.8139,131.128 54.1473,133.795 55.5,136.5C 36.8454,138.023 18.1787,139.356 -0.5,140.5C -0.5,138.167 -0.5,135.833 -0.5,133.5C 13.5276,133.189 27.5276,132.355 41.5,131C 45.3113,131.083 48.6446,130.25 51.5,128.5 Z"/></g>
<g><path style="opacity:1" fill="#d3c1ad" d="M 176.5,132.5 C 177.5,132.5 178.5,132.5 179.5,132.5C 180.759,142.802 179.759,142.802 176.5,132.5 Z"/></g>
<g><path style="opacity:1" fill="#ee938c" d="M 197.5,132.5 C 197.5,133.833 197.5,135.167 197.5,136.5C 198.5,136.5 199.5,136.5 200.5,136.5C 200.5,135.5 200.5,134.5 200.5,133.5C 221.833,133.5 243.167,133.5 264.5,133.5C 264.5,136.833 264.5,140.167 264.5,143.5C 237.825,142.427 211.158,142.427 184.5,143.5C 184.33,142.178 184.663,141.011 185.5,140C 189.917,138.067 193.917,135.567 197.5,132.5 Z"/></g>
<g><path style="opacity:0.999" fill="#ee9a8e" d="M 55.5,136.5 C 57.8838,138.885 60.5505,140.885 63.5,142.5C 42.4696,146.198 21.1363,147.865 -0.5,147.5C -0.5,145.167 -0.5,142.833 -0.5,140.5C 18.1787,139.356 36.8454,138.023 55.5,136.5 Z"/></g>
<g><path style="opacity:1" fill="#ec8c8d" d="M 264.5,143.5 C 264.5,145.5 264.5,147.5 264.5,149.5C 240.164,149.333 215.831,149.5 191.5,150C 192.056,150.383 192.389,150.883 192.5,151.5C 189.851,149.86 187.184,148.193 184.5,146.5C 184.5,145.5 184.5,144.5 184.5,143.5C 211.158,142.427 237.825,142.427 264.5,143.5 Z"/></g>
<g><path style="opacity:0.999" fill="#ec8d8c" d="M 90.5,152.5 C 60.2416,155.648 29.9083,157.648 -0.5,158.5C -0.5,154.833 -0.5,151.167 -0.5,147.5C 21.1363,147.865 42.4696,146.198 63.5,142.5C 72.9172,145.226 82.2505,144.893 91.5,141.5C 91.0578,145.154 90.7244,148.821 90.5,152.5 Z"/></g>
<g><path style="opacity:1" fill="#e8878f" d="M 264.5,149.5 C 264.5,153.5 264.5,157.5 264.5,161.5C 247.325,161.17 230.325,161.503 213.5,162.5C 212.833,162.5 212.167,162.5 211.5,162.5C 211.158,161.662 210.492,161.328 209.5,161.5C 208.486,160.326 207.153,159.66 205.5,159.5C 203.819,157.992 201.819,156.992 199.5,156.5C 196.991,155.079 194.657,153.412 192.5,151.5C 192.389,150.883 192.056,150.383 191.5,150C 215.831,149.5 240.164,149.333 264.5,149.5 Z"/></g>
<g><path style="opacity:1" fill="#edeaa1" d="M 184.5,146.5 C 187.184,148.193 189.851,149.86 192.5,151.5C 194.657,153.412 196.991,155.079 199.5,156.5C 198.778,156.918 198.278,157.584 198,158.5C 196.767,176.5 195.6,194.5 194.5,212.5C 192.274,209.055 190.274,205.389 188.5,201.5C 192.926,192.688 194.426,183.355 193,173.5C 189.866,164.557 187.033,155.557 184.5,146.5 Z"/></g>
<g><path style="opacity:1" fill="#e1eda7" d="M 199.5,156.5 C 201.819,156.992 203.819,157.992 205.5,159.5C 203.842,175.987 202.509,192.653 201.5,209.5C 201.454,216.83 202.787,223.83 205.5,230.5C 203.421,230.029 201.421,229.363 199.5,228.5C 197.839,223.182 196.172,217.849 194.5,212.5C 195.6,194.5 196.767,176.5 198,158.5C 198.278,157.584 198.778,156.918 199.5,156.5 Z"/></g>
<g><path style="opacity:0.999" fill="#e68591" d="M 90.5,152.5 C 89.3905,156.833 88.3905,161.166 87.5,165.5C 58.0735,168.03 28.7402,170.363 -0.5,172.5C -0.5,167.833 -0.5,163.167 -0.5,158.5C 29.9083,157.648 60.2416,155.648 90.5,152.5 Z"/></g>
<g><path style="opacity:1" fill="#df8497" d="M 213.5,162.5 C 230.325,161.503 247.325,161.17 264.5,161.5C 264.5,163.5 264.5,165.5 264.5,167.5C 251.107,169.053 237.774,168.72 224.5,166.5C 222.958,165.699 221.292,165.366 219.5,165.5C 219.158,164.662 218.492,164.328 217.5,164.5C 216.329,163.655 214.995,162.989 213.5,162.5 Z"/></g>
<g><path style="opacity:0.998" fill="#de829a" d="M 87.5,165.5 C 87.1667,168.833 86.8333,172.167 86.5,175.5C 57.3946,177.93 28.3946,181.263 -0.5,185.5C -0.5,181.167 -0.5,176.833 -0.5,172.5C 28.7402,170.363 58.0735,168.03 87.5,165.5 Z"/></g>
<g><path style="opacity:1" fill="#a6d8f1" d="M 170.5,168.5 C 172.604,168.201 174.604,168.534 176.5,169.5C 175.184,172.384 174.184,175.384 173.5,178.5C 170.277,176.584 166.943,176.251 163.5,177.5C 162.479,176.998 162.312,176.332 163,175.5C 165.396,172.933 167.896,170.6 170.5,168.5 Z"/></g>
<g><path style="opacity:1" fill="#08e0ce" d="M 224.5,166.5 C 237.774,168.72 251.107,169.053 264.5,167.5C 264.5,187.167 264.5,206.833 264.5,226.5C 256.228,228.06 247.728,230.06 239,232.5C 236.849,232.227 234.849,231.561 233,230.5C 228.594,231.191 224.094,231.191 219.5,230.5C 219.992,228.159 221.159,226.159 223,224.5C 225.049,205.528 226.049,186.528 226,167.5C 224.992,172.541 224.492,172.208 224.5,166.5 Z"/></g>
<g><path style="opacity:0.999" fill="#d380a9" d="M 86.5,175.5 C 86.5,177.833 86.5,180.167 86.5,182.5C 57.5925,185.237 28.5925,188.57 -0.5,192.5C -0.5,190.167 -0.5,187.833 -0.5,185.5C 28.3946,181.263 57.3946,177.93 86.5,175.5 Z"/></g>
<g><path style="opacity:1" fill="#f89fce" d="M 163.5,180.5 C 173.34,179.514 178.173,183.848 178,193.5C 172.451,200.977 166.451,201.31 160,194.5C 158.608,189.093 159.774,184.426 163.5,180.5 Z"/></g>
<g><path style="opacity:1" fill="#c279a4" d="M 98.5,187.5 C 95.0749,188.212 91.7415,188.212 88.5,187.5C 89.4128,181.173 91.2461,175.173 94,169.5C 95.6085,175.494 97.1085,181.494 98.5,187.5 Z"/></g>
<g><path style="opacity:0.999" fill="#c880b5" d="M 86.5,182.5 C 87.1667,185.167 87.8333,187.833 88.5,190.5C 88.44,191.043 88.1067,191.376 87.5,191.5C 86.6721,190.585 85.6721,189.919 84.5,189.5C 56.1541,192.752 27.8208,196.085 -0.5,199.5C -0.5,197.167 -0.5,194.833 -0.5,192.5C 28.5925,188.57 57.5925,185.237 86.5,182.5 Z"/></g>
<g><path style="opacity:0.999" fill="#bf80c2" d="M 88.5,187.5 C 91.7415,188.212 95.0749,188.212 98.5,187.5C 99.7769,190.553 101.444,193.386 103.5,196C 100.278,196.199 97.2777,197.032 94.5,198.5C 87.3451,197.345 80.0118,197.178 72.5,198C 53.9566,201.283 35.2899,203.616 16.5,205C 10.8366,206.249 5.16989,207.415 -0.5,208.5C -0.5,205.5 -0.5,202.5 -0.5,199.5C 27.8208,196.085 56.1541,192.752 84.5,189.5C 85.6721,189.919 86.6721,190.585 87.5,191.5C 88.1067,191.376 88.44,191.043 88.5,190.5C 88.5,189.5 88.5,188.5 88.5,187.5 Z"/></g>
<g><path style="opacity:1" fill="#a571ae" d="M 106.5,192.5 C 108.476,193.427 108.809,194.76 107.5,196.5C 106.571,195.311 106.238,193.978 106.5,192.5 Z"/></g>
<g><path style="opacity:1" fill="#0dc9e1" d="M 180.5,265.5 C 154.167,265.5 127.833,265.5 101.5,265.5C 102.677,250.179 103.677,234.846 104.5,219.5C 103.5,219.5 102.5,219.5 101.5,219.5C 101.167,227.5 100.833,235.5 100.5,243.5C 99.8333,245.5 99.1667,247.5 98.5,249.5C 89.6643,245.291 80.331,242.958 70.5,242.5C 73.0863,227.492 79.753,214.659 90.5,204C 97.2776,199.148 104.444,198.315 112,201.5C 112.839,200.376 114.006,199.709 115.5,199.5C 121.242,202.366 127.242,204.699 133.5,206.5C 134.93,209.433 136.93,211.933 139.5,214C 149.408,219.512 158.075,218.012 165.5,209.5C 172.177,208.539 178.677,206.872 185,204.5C 185.772,204.645 186.439,204.978 187,205.5C 195.719,220.161 198.886,235.661 196.5,252C 191.913,252.799 187.413,252.632 183,251.5C 182.437,239.851 180.27,228.517 176.5,217.5C 175.726,216.289 174.893,216.289 174,217.5C 175.987,227.405 177.987,237.405 180,247.5C 180.499,253.491 180.666,259.491 180.5,265.5 Z"/></g>
<g><path style="opacity:1" fill="#b2eab0" d="M 209.5,161.5 C 210.492,161.328 211.158,161.662 211.5,162.5C 208.751,184.314 208.251,206.314 210,228.5C 210.708,229.381 211.542,230.047 212.5,230.5C 212.167,231.167 211.833,231.833 211.5,232.5C 209.597,232.204 207.93,231.537 206.5,230.5C 205.979,225.021 205.646,219.521 205.5,214C 206.25,196.146 207.583,178.646 209.5,161.5 Z"/></g>
<g><path style="opacity:0.999" fill="#b57fcf" d="M 94.5,198.5 C 89.681,200.901 85.681,204.235 82.5,208.5C 77.6842,207.35 72.6842,207.184 67.5,208C 45.9692,210.573 24.4692,213.406 3,216.5C 1.74407,216.352 0.577401,216.018 -0.5,215.5C -0.5,213.167 -0.5,210.833 -0.5,208.5C 5.16989,207.415 10.8366,206.249 16.5,205C 35.2899,203.616 53.9566,201.283 72.5,198C 80.0118,197.178 87.3451,197.345 94.5,198.5 Z"/></g>
<g><path style="opacity:1" fill="#48e4c2" d="M 219.5,165.5 C 221.292,165.366 222.958,165.699 224.5,166.5C 224.492,172.208 224.992,172.541 226,167.5C 226.049,186.528 225.049,205.528 223,224.5C 221.159,226.159 219.992,228.159 219.5,230.5C 218.533,231.806 217.199,232.473 215.5,232.5C 216.198,214.637 216.698,196.637 217,178.5C 217.333,174.833 217.667,171.167 218,167.5C 218.278,166.584 218.778,165.918 219.5,165.5 Z"/></g>
<g><path style="opacity:1" fill="#99e9b4" d="M 211.5,162.5 C 212.167,162.5 212.833,162.5 213.5,162.5C 214.995,162.989 216.329,163.655 217.5,164.5C 215.883,165.589 215.05,167.256 215,169.5C 213.191,190.019 212.358,210.352 212.5,230.5C 211.542,230.047 210.708,229.381 210,228.5C 208.251,206.314 208.751,184.314 211.5,162.5 Z"/></g>
<g><path style="opacity:1" fill="#c8ecac" d="M 205.5,159.5 C 207.153,159.66 208.486,160.326 209.5,161.5C 207.583,178.646 206.25,196.146 205.5,214C 205.646,219.521 205.979,225.021 206.5,230.5C 206.167,230.5 205.833,230.5 205.5,230.5C 202.787,223.83 201.454,216.83 201.5,209.5C 202.509,192.653 203.842,175.987 205.5,159.5 Z"/></g>
<g><path style="opacity:1" fill="#77e7ba" d="M 217.5,164.5 C 218.492,164.328 219.158,164.662 219.5,165.5C 218.778,165.918 218.278,166.584 218,167.5C 217.667,171.167 217.333,174.833 217,178.5C 216.698,196.637 216.198,214.637 215.5,232.5C 214.5,232.5 213.5,232.5 212.5,232.5C 212.167,232.5 211.833,232.5 211.5,232.5C 211.833,231.833 212.167,231.167 212.5,230.5C 212.358,210.352 213.191,190.019 215,169.5C 215.05,167.256 215.883,165.589 217.5,164.5 Z"/></g>
<g><path style="opacity:1" fill="#eddac3" d="M 137.5,207.5 C 137.56,206.957 137.893,206.624 138.5,206.5C 146.106,207.808 153.773,208.808 161.5,209.5C 152.804,216.492 144.804,215.825 137.5,207.5 Z"/></g>
<g><path style="opacity:0.998" fill="#ac7fdb" d="M 82.5,208.5 C 78.366,214.617 74.6994,220.95 71.5,227.5C 70.7261,226.853 69.7261,226.52 68.5,226.5C 45.7386,229.022 23.0719,232.022 0.5,235.5C 0.737305,236.791 0.403972,237.791 -0.5,238.5C -0.5,230.833 -0.5,223.167 -0.5,215.5C 0.577401,216.018 1.74407,216.352 3,216.5C 24.4692,213.406 45.9692,210.573 67.5,208C 72.6842,207.184 77.6842,207.35 82.5,208.5 Z"/></g>
<g><path style="opacity:1" fill="#2ad4d0" d="M 264.5,226.5 C 264.5,228.833 264.5,231.167 264.5,233.5C 250.892,235.319 237.226,235.819 223.5,235C 219.608,234.581 215.942,233.748 212.5,232.5C 213.5,232.5 214.5,232.5 215.5,232.5C 217.199,232.473 218.533,231.806 219.5,230.5C 224.094,231.191 228.594,231.191 233,230.5C 234.849,231.561 236.849,232.227 239,232.5C 247.728,230.06 256.228,228.06 264.5,226.5 Z"/></g>
<g><path style="opacity:0.976" fill="#a77fe2" d="M 199.5,228.5 C 201.421,229.363 203.421,230.029 205.5,230.5C 205.833,230.5 206.167,230.5 206.5,230.5C 207.93,231.537 209.597,232.204 211.5,232.5C 211.833,232.5 212.167,232.5 212.5,232.5C 215.942,233.748 219.608,234.581 223.5,235C 237.226,235.819 250.892,235.319 264.5,233.5C 264.5,243.167 264.5,252.833 264.5,262.5C 263.128,263.512 261.795,264.512 260.5,265.5C 239.833,265.5 219.167,265.5 198.5,265.5C 198.536,258.824 199.536,252.491 201.5,246.5C 201.113,240.46 200.446,234.46 199.5,228.5 Z"/></g>
<g><path style="opacity:0.971" fill="#a77fe2" d="M 71.5,227.5 C 70.2387,231.453 69.072,235.453 68,239.5C 65.7239,246.075 67.8906,249.742 74.5,250.5C 73.9149,255.515 73.2482,260.515 72.5,265.5C 49.8333,265.5 27.1667,265.5 4.5,265.5C 2.77976,264.692 1.1131,263.692 -0.5,262.5C -0.5,254.5 -0.5,246.5 -0.5,238.5C 0.403972,237.791 0.737305,236.791 0.5,235.5C 23.0719,232.022 45.7386,229.022 68.5,226.5C 69.7261,226.52 70.7261,226.853 71.5,227.5 Z"/></g>
<g><path style="opacity:1" fill="#f8f5fd" d="M 45.5,237.5 C 50.1585,237.015 51.4919,238.848 49.5,243C 44.7282,243.81 43.3948,241.977 45.5,237.5 Z"/></g>
<g><path style="opacity:1" fill="#076d7a" d="M 100.5,243.5 C 100.808,245.924 100.474,248.257 99.5,250.5C 98.8933,250.376 98.56,250.043 98.5,249.5C 99.1667,247.5 99.8333,245.5 100.5,243.5 Z"/></g>
<g><path style="opacity:1" fill="#f9e3ca" d="M 98.5,265.5 C 91.1667,265.5 83.8333,265.5 76.5,265.5C 76.9092,259.498 77.4092,253.498 78,247.5C 85.6194,246.811 92.6194,248.811 99,253.5C 99.1703,257.493 99.0037,261.493 98.5,265.5 Z"/></g>
<g><path style="opacity:0.973" fill="#e6ccae" d="M 194.5,265.5 C 190.833,265.5 187.167,265.5 183.5,265.5C 183.5,262.167 183.5,258.833 183.5,255.5C 187.167,255.5 190.833,255.5 194.5,255.5C 194.5,258.833 194.5,262.167 194.5,265.5 Z"/></g>
</svg>
