<?xml version="1.0" encoding="UTF-8"?>
<!DOCTYPE svg PUBLIC "-//W3C//DTD SVG 1.1//EN" "http://www.w3.org/Graphics/SVG/1.1/DTD/svg11.dtd">
<svg xmlns="http://www.w3.org/2000/svg" version="1.1" width="265px" height="266px" style="shape-rendering:geometricPrecision; text-rendering:geometricPrecision; image-rendering:optimizeQuality; fill-rule:evenodd; clip-rule:evenodd" xmlns:xlink="http://www.w3.org/1999/xlink">
<g><path style="opacity:0.989" fill="#fefbfa" d="M 2.5,-0.5 C 15.8333,-0.5 29.1667,-0.5 42.5,-0.5C 42.1961,0.14987 41.8627,0.816537 41.5,1.5C 45.7604,8.45304 49.9271,15.453 54,22.5C 57.0976,24.928 59.431,27.928 61,31.5C 65.7364,36.7411 70.903,41.4078 76.5,45.5C 71.4461,53.4402 68.7794,62.1069 68.5,71.5C 51.7782,58.5378 33.7782,47.7044 14.5,39C 9.57128,37.1898 4.57128,35.6898 -0.5,34.5C -0.5,23.8333 -0.5,13.1667 -0.5,2.5C 0.833333,1.83333 1.83333,0.833333 2.5,-0.5 Z"/></g>
<g><path style="opacity:0.995" fill="#fbeef5" d="M 42.5,-0.5 C 47.5,-0.5 52.5,-0.5 57.5,-0.5C 64.4394,13.3874 73.7727,25.3874 85.5,35.5C 82.4715,38.859 79.4715,42.1924 76.5,45.5C 70.903,41.4078 65.7364,36.7411 61,31.5C 59.431,27.928 57.0976,24.928 54,22.5C 49.9271,15.453 45.7604,8.45304 41.5,1.5C 41.8627,0.816537 42.1961,0.14987 42.5,-0.5 Z"/></g>
<g><path style="opacity:0.99" fill="#f4c4e0" d="M 76.5,-0.5 C 85.5,-0.5 94.5,-0.5 103.5,-0.5C 108.926,7.08917 115.592,13.5892 123.5,19C 122.263,19.2321 121.263,19.7321 120.5,20.5C 112.908,21.5646 105.575,23.5646 98.5,26.5C 93.5852,21.0826 88.4186,15.7493 83,10.5C 80.3063,7.10761 78.1396,3.44094 76.5,-0.5 Z"/></g>
<g><path style="opacity:0.998" fill="#f0acd3" d="M 103.5,-0.5 C 121.5,-0.5 139.5,-0.5 157.5,-0.5C 168.55,9.04475 179.217,19.2114 189.5,30C 190.448,30.4828 191.448,30.6495 192.5,30.5C 192.351,31.552 192.517,32.552 193,33.5C 220.613,60.3146 244.447,89.6479 264.5,121.5C 264.5,144.167 264.5,166.833 264.5,189.5C 256.27,171.034 247.436,152.701 238,134.5C 231.444,123.121 223.944,112.454 215.5,102.5C 215.831,89.3317 209.498,83.8317 196.5,86C 193.495,87.354 190.495,88.354 187.5,89C 189.138,85.6697 189.638,82.1697 189,78.5C 186.684,76.5296 184.851,74.1963 183.5,71.5C 188.288,70.1899 192.455,67.8566 196,64.5C 196.753,60.5072 195.253,57.6738 191.5,56C 188.283,54.3631 184.95,53.0298 181.5,52C 168.485,27.912 148.152,17.412 120.5,20.5C 121.263,19.7321 122.263,19.2321 123.5,19C 115.592,13.5892 108.926,7.08917 103.5,-0.5 Z"/></g>
<g><path style="opacity:0.995" fill="#f0a7d1" d="M 157.5,-0.5 C 192.167,-0.5 226.833,-0.5 261.5,-0.5C 262.167,0.833333 263.167,1.83333 264.5,2.5C 264.5,42.1667 264.5,81.8333 264.5,121.5C 244.447,89.6479 220.613,60.3146 193,33.5C 192.517,32.552 192.351,31.552 192.5,30.5C 191.448,30.6495 190.448,30.4828 189.5,30C 179.217,19.2114 168.55,9.04475 157.5,-0.5 Z"/></g>
<g><path style="opacity:1" fill="#f8dded" d="M 57.5,-0.5 C 63.8333,-0.5 70.1667,-0.5 76.5,-0.5C 78.1396,3.44094 80.3063,7.10761 83,10.5C 88.4186,15.7493 93.5852,21.0826 98.5,26.5C 94.0297,29.2407 89.6964,32.2407 85.5,35.5C 73.7727,25.3874 64.4394,13.3874 57.5,-0.5 Z"/></g>
<g><path style="opacity:0.998" fill="#110d0f" d="M 120.5,20.5 C 148.152,17.412 168.485,27.912 181.5,52C 184.95,53.0298 188.283,54.3631 191.5,56C 195.253,57.6738 196.753,60.5072 196,64.5C 192.455,67.8566 188.288,70.1899 183.5,71.5C 184.851,74.1963 186.684,76.5296 189,78.5C 189.638,82.1697 189.138,85.6697 187.5,89C 190.495,88.354 193.495,87.354 196.5,86C 209.498,83.8317 215.831,89.3317 215.5,102.5C 214.632,107.641 213.298,112.641 211.5,117.5C 208.936,120.28 206.603,123.28 204.5,126.5C 202.167,128.167 200.167,130.167 198.5,132.5C 194.656,134.587 190.989,136.92 187.5,139.5C 186.504,139.414 185.671,139.748 185,140.5C 184.989,149.788 187.155,158.455 191.5,166.5C 192.793,171.057 193.459,175.723 193.5,180.5C 192.914,185.505 192.748,190.505 193,195.5C 197.297,201.103 200.797,207.103 203.5,213.5C 205.977,222.076 208.144,230.743 210,239.5C 210.5,248.16 210.666,256.827 210.5,265.5C 209.167,265.5 207.833,265.5 206.5,265.5C 208.825,245.288 205.658,225.955 197,207.5C 195.382,204.057 193.215,201.057 190.5,198.5C 185.431,204.812 178.765,207.978 170.5,208C 162.5,208.667 154.5,208.667 146.5,208C 141.19,206.764 135.857,206.098 130.5,206C 137.216,208.716 141.882,213.382 144.5,220C 144.167,220.833 143.833,221.667 143.5,222.5C 141.656,218.146 138.823,214.479 135,211.5C 136.975,220.339 138.642,229.339 140,238.5C 140.5,247.494 140.666,256.494 140.5,265.5C 139.167,265.5 137.833,265.5 136.5,265.5C 138.156,245.927 135.656,226.927 129,208.5C 123.132,204.433 116.632,202.6 109.5,203C 115.836,210.328 119.669,218.828 121,228.5C 122.343,240.791 122.843,253.124 122.5,265.5C 121.5,265.5 120.5,265.5 119.5,265.5C 122.768,245.541 119.935,226.541 111,208.5C 104.349,199.58 97.3495,199.247 90,207.5C 82.9287,217.373 78.5954,228.373 77,240.5C 75.8162,248.792 75.3162,257.125 75.5,265.5C 74.5,265.5 73.5,265.5 72.5,265.5C 71.7611,246.488 75.5945,228.488 84,211.5C 86.6752,207.995 89.5085,204.661 92.5,201.5C 81.7337,195.751 77.567,186.751 80,174.5C 81.7084,169.588 84.5417,165.421 88.5,162C 79.7544,161.692 71.7544,164.025 64.5,169C 70.2989,170.226 74.6322,173.393 77.5,178.5C 77.1131,179.72 76.2798,180.387 75,180.5C 72.0288,178.898 69.3622,179.231 67,181.5C 69.6284,198.729 66.9618,215.062 59,230.5C 55.0454,236.123 50.7121,241.457 46,246.5C 45.5005,252.825 45.3338,259.158 45.5,265.5C 44.5,265.5 43.5,265.5 42.5,265.5C 39.576,252.825 43.076,242.491 53,234.5C 56.3395,229.825 59.1729,224.825 61.5,219.5C 52.8699,219.858 47.8699,215.858 46.5,207.5C 47.5339,203.101 49.3672,199.101 52,195.5C 53.4154,188.504 54.7488,181.504 56,174.5C 58.0001,171.334 60.5001,168.668 63.5,166.5C 67.6782,163.412 72.3448,161.412 77.5,160.5C 81.337,159.866 85.1703,159.199 89,158.5C 90.3469,152.905 91.1803,147.238 91.5,141.5C 82.6465,144.652 73.6465,145.152 64.5,143C 57.3129,139.097 52.6462,133.264 50.5,125.5C 49.8333,121.833 49.1667,118.167 48.5,114.5C 48.3375,109.453 48.6708,104.453 49.5,99.5C 51.4854,96.2024 53.4854,92.8691 55.5,89.5C 58.1261,87.1765 60.7928,84.8432 63.5,82.5C 65.2972,81.2702 67.2972,80.6036 69.5,80.5C 69.0371,77.5176 68.7038,74.5176 68.5,71.5C 68.7794,62.1069 71.4461,53.4402 76.5,45.5C 79.4715,42.1924 82.4715,38.859 85.5,35.5C 89.6964,32.2407 94.0297,29.2407 98.5,26.5C 105.575,23.5646 112.908,21.5646 120.5,20.5 Z"/></g>
<g><path style="opacity:1" fill="#a0a0f0" d="M 116.5,23.5 C 132.154,21.4967 146.821,24.33 160.5,32C 169.038,37.8693 175.372,45.5359 179.5,55C 183.243,56.1365 186.91,57.4698 190.5,59C 192.329,60.1133 193.163,61.6133 193,63.5C 159.503,76.5001 125.003,86.0001 89.5,92C 84.4456,92.781 79.4456,92.6143 74.5,91.5C 67.0592,55.7315 81.0592,33.0648 116.5,23.5 Z"/></g>
<g><path style="opacity:0.998" fill="#fefbee" d="M -0.5,34.5 C 4.57128,35.6898 9.57128,37.1898 14.5,39C 33.7782,47.7044 51.7782,58.5378 68.5,71.5C 68.7038,74.5176 69.0371,77.5176 69.5,80.5C 67.2972,80.6036 65.2972,81.2702 63.5,82.5C 52.0236,75.2586 40.6903,67.7586 29.5,60C 20.0254,54.425 10.0254,50.2584 -0.5,47.5C -0.5,43.1667 -0.5,38.8333 -0.5,34.5 Z"/></g>
<g><path style="opacity:0.998" fill="#fdf8df" d="M -0.5,47.5 C 10.0254,50.2584 20.0254,54.425 29.5,60C 40.6903,67.7586 52.0236,75.2586 63.5,82.5C 60.7928,84.8432 58.1261,87.1765 55.5,89.5C 38.7483,75.4498 20.0817,64.4498 -0.5,56.5C -0.5,53.5 -0.5,50.5 -0.5,47.5 Z"/></g>
<g><path style="opacity:0.997" fill="#fef6d2" d="M -0.5,56.5 C 20.0817,64.4498 38.7483,75.4498 55.5,89.5C 53.4854,92.8691 51.4854,96.2024 49.5,99.5C 49.719,98.325 49.3857,97.325 48.5,96.5C 38.9697,89.8041 29.3031,83.3041 19.5,77C 13.1784,73.3388 6.51174,70.5054 -0.5,68.5C -0.5,64.5 -0.5,60.5 -0.5,56.5 Z"/></g>
<g><path style="opacity:1" fill="#dd90d4" d="M 177.5,72.5 C 179.371,72.8588 180.871,73.8588 182,75.5C 183.515,77.6772 185.015,79.8439 186.5,82C 185.122,86.5847 183.622,91.0847 182,95.5C 181.667,90.1667 181.333,84.8333 181,79.5C 178.79,76.7104 175.956,75.877 172.5,77C 166.363,82.2676 159.363,83.7676 151.5,81.5C 160.275,78.4827 168.942,75.4827 177.5,72.5 Z"/></g>
<g><path style="opacity:0.998" fill="#fef1b7" d="M -0.5,68.5 C 6.51174,70.5054 13.1784,73.3388 19.5,77C 29.3031,83.3041 38.9697,89.8041 48.5,96.5C 49.3857,97.325 49.719,98.325 49.5,99.5C 48.6708,104.453 48.3375,109.453 48.5,114.5C 47.7811,112.909 46.7811,111.409 45.5,110C 35.5,103.333 25.5,96.6667 15.5,90C 10.5373,86.685 5.20395,84.185 -0.5,82.5C -0.5,77.8333 -0.5,73.1667 -0.5,68.5 Z"/></g>
<g><path style="opacity:1" fill="#f9d2e5" d="M 172.5,80.5 C 174.467,80.2606 176.301,80.5939 178,81.5C 178.667,85.5 178.667,89.5 178,93.5C 170.684,94.8204 168.684,98.8204 172,105.5C 173.11,107.037 174.61,107.703 176.5,107.5C 176.5,109.833 176.5,112.167 176.5,114.5C 167.161,114.334 157.827,114.5 148.5,115C 137.933,117.318 127.266,118.318 116.5,118C 115.646,116.978 114.646,116.145 113.5,115.5C 112.336,108.858 112.169,102.192 113,95.5C 114.5,94 116,92.5 117.5,91C 126.104,88.3957 134.771,85.8957 143.5,83.5C 152.64,87.5644 161.64,87.3977 170.5,83C 171.381,82.2917 172.047,81.4584 172.5,80.5 Z"/></g>
<g><path style="opacity:1" fill="#fad3e5" d="M 66.5,84.5 C 68.1667,84.5 69.8333,84.5 71.5,84.5C 71.6495,85.552 71.4828,86.552 71,87.5C 65.026,89.9611 61.526,94.2944 60.5,100.5C 63.0495,100.439 64.5495,99.1059 65,96.5C 67.7847,92.3163 70.9514,91.8163 74.5,95C 77.5,95.3333 80.5,95.6667 83.5,96C 84.9003,97.4381 86.567,98.2714 88.5,98.5C 88.8991,95.0123 89.5658,94.8456 90.5,98C 93.3023,110.245 93.969,122.578 92.5,135C 89.7073,137.607 86.374,139.273 82.5,140C 67.3818,143.866 57.8818,138.366 54,123.5C 48.8898,107.335 53.0565,94.3349 66.5,84.5 Z"/></g>
<g><path style="opacity:0.997" fill="#feeda2" d="M -0.5,82.5 C 5.20395,84.185 10.5373,86.685 15.5,90C 25.5,96.6667 35.5,103.333 45.5,110C 46.7811,111.409 47.7811,112.909 48.5,114.5C 49.1667,118.167 49.8333,121.833 50.5,125.5C 39.7182,118.601 29.0515,111.435 18.5,104C 12.3813,100.274 6.04796,97.1073 -0.5,94.5C -0.5,90.5 -0.5,86.5 -0.5,82.5 Z"/></g>
<g><path style="opacity:1" fill="#f8d1e4" d="M 188.5,94.5 C 194.395,89.4711 201.062,88.3044 208.5,91C 211.412,96.4605 212.245,102.294 211,108.5C 205.784,121.385 196.784,130.718 184,136.5C 183.911,129.039 183.078,121.706 181.5,114.5C 182.485,108.377 183.985,102.377 186,96.5C 186.417,95.244 187.25,94.5774 188.5,94.5 Z"/></g>
<g><path style="opacity:1" fill="#f579c0" d="M 107.5,92.5 C 109.479,104.12 110.146,116.12 109.5,128.5C 106.833,128.5 104.167,128.5 101.5,128.5C 101.333,116.829 101.5,105.162 102,93.5C 103.699,92.5939 105.533,92.2606 107.5,92.5 Z"/></g>
<g><path style="opacity:1" fill="#161415" d="M 188.5,94.5 C 201.251,89.6985 207.585,94.0319 207.5,107.5C 206.178,107.67 205.011,107.337 204,106.5C 203.541,96.3823 198.707,93.7157 189.5,98.5C 187.358,97.5629 187.024,96.2296 188.5,94.5 Z"/></g>
<g><path style="opacity:0.999" fill="#fdea95" d="M -0.5,94.5 C 6.04796,97.1073 12.3813,100.274 18.5,104C 29.0515,111.435 39.7182,118.601 50.5,125.5C 52.6462,133.264 57.3129,139.097 64.5,143C 73.6465,145.152 82.6465,144.652 91.5,141.5C 91.1803,147.238 90.3469,152.905 89,158.5C 85.1703,159.199 81.337,159.866 77.5,160.5C 75.4498,157.942 73.1165,155.442 70.5,153C 47.8164,135.33 24.1498,119.164 -0.5,104.5C -0.5,101.167 -0.5,97.8333 -0.5,94.5 Z"/></g>
<g><path style="opacity:1" fill="#0b090a" d="M 128.5,98.5 C 139.158,99.3988 141.158,103.899 134.5,112C 123.766,111.561 121.766,107.061 128.5,98.5 Z"/></g>
<g><path style="opacity:0.998" fill="#fee888" d="M -0.5,104.5 C 24.1498,119.164 47.8164,135.33 70.5,153C 73.1165,155.442 75.4498,157.942 77.5,160.5C 72.3448,161.412 67.6782,163.412 63.5,166.5C 62.6466,163.482 60.6466,161.649 57.5,161C 55.1667,158.667 52.8333,156.333 50.5,154C 33.6317,142.297 16.6317,130.797 -0.5,119.5C -0.5,114.5 -0.5,109.5 -0.5,104.5 Z"/></g>
<g><path style="opacity:1" fill="#f3bcdc" d="M 215.5,102.5 C 223.944,112.454 231.444,123.121 238,134.5C 247.436,152.701 256.27,171.034 264.5,189.5C 264.5,198.5 264.5,207.5 264.5,216.5C 261.035,213.594 258.535,209.927 257,205.5C 248.554,185.273 239.554,165.273 230,145.5C 224.058,135.93 217.891,126.597 211.5,117.5C 213.298,112.641 214.632,107.641 215.5,102.5 Z"/></g>
<g><path style="opacity:1" fill="#944974" d="M 107.5,92.5 C 108.209,91.596 109.209,91.2627 110.5,91.5C 110.5,104.167 110.5,116.833 110.5,129.5C 107.287,129.81 104.287,129.477 101.5,128.5C 104.167,128.5 106.833,128.5 109.5,128.5C 110.146,116.12 109.479,104.12 107.5,92.5 Z"/></g>
<g><path style="opacity:1" fill="#fad2e5" d="M 145.5,118.5 C 154.506,118.334 163.506,118.5 172.5,119C 178.108,119.269 180.275,122.102 179,127.5C 176.252,128.686 173.419,129.686 170.5,130.5C 177.491,144.148 183.658,158.148 189,172.5C 190.233,181.475 189.233,190.141 186,198.5C 182.632,202.1 178.465,203.933 173.5,204C 157.225,205.592 141.225,204.259 125.5,200C 114.571,194.975 109.737,186.475 111,174.5C 116.969,165.187 122.969,155.854 129,146.5C 130.81,141.571 132.31,136.571 133.5,131.5C 129.694,131.98 126.361,130.98 123.5,128.5C 122.386,127.277 122.219,125.944 123,124.5C 124.419,123.54 125.919,122.707 127.5,122C 133.644,120.867 139.644,119.701 145.5,118.5 Z"/></g>
<g><path style="opacity:1" fill="#ef9be5" d="M 93.5,94.5 C 95.1667,94.5 96.8333,94.5 98.5,94.5C 98.1819,110.548 98.5152,126.548 99.5,142.5C 103.715,143.798 107.882,143.798 112,142.5C 112.169,135.144 112.669,127.811 113.5,120.5C 115.385,121.609 117.385,122.443 119.5,123C 118.13,125.833 118.464,128.5 120.5,131C 123.787,132.304 126.787,133.97 129.5,136C 126.158,146.527 120.658,155.694 113,163.5C 110.898,166.705 109.065,170.038 107.5,173.5C 106.85,169.979 105.017,168.979 102,170.5C 101.667,174.167 101.333,177.833 101,181.5C 100.333,179.5 99.6667,177.5 99,175.5C 98.6667,169.167 98.3333,162.833 98,156.5C 95.2305,158.601 93.2305,161.268 92,164.5C 93.2131,156.219 94.5464,147.885 96,139.5C 96.7638,124.404 95.9304,109.404 93.5,94.5 Z"/></g>
<g><path style="opacity:1" fill="#1a1719" d="M 164.5,122.5 C 167.187,122.336 169.854,122.503 172.5,123C 173.451,123.718 173.617,124.551 173,125.5C 168.473,125.967 164.307,127.3 160.5,129.5C 160.343,128.127 160.51,126.793 161,125.5C 162.518,124.837 163.685,123.837 164.5,122.5 Z"/></g>
<g><path style="opacity:1" fill="#f5c8e2" d="M 211.5,117.5 C 217.891,126.597 224.058,135.93 230,145.5C 239.554,165.273 248.554,185.273 257,205.5C 258.535,209.927 261.035,213.594 264.5,216.5C 264.5,223.167 264.5,229.833 264.5,236.5C 260.973,233.796 258.14,230.462 256,226.5C 245.452,204.738 235.452,182.738 226,160.5C 222.159,154.822 218.826,148.822 216,142.5C 212.39,136.923 208.557,131.59 204.5,126.5C 206.603,123.28 208.936,120.28 211.5,117.5 Z"/></g>
<g><path style="opacity:1" fill="#181516" d="M 138.5,123.5 C 144.794,122.302 148.794,124.636 150.5,130.5C 146.957,128.192 142.957,127.025 138.5,127C 137.316,125.855 137.316,124.688 138.5,123.5 Z"/></g>
<g><path style="opacity:1" fill="#f7d5e8" d="M 204.5,126.5 C 208.557,131.59 212.39,136.923 216,142.5C 218.826,148.822 222.159,154.822 226,160.5C 235.452,182.738 245.452,204.738 256,226.5C 258.14,230.462 260.973,233.796 264.5,236.5C 264.5,241.167 264.5,245.833 264.5,250.5C 258.381,245.822 253.214,240.155 249,233.5C 239.03,213.919 230.03,193.919 222,173.5C 214.674,159.512 206.841,145.845 198.5,132.5C 200.167,130.167 202.167,128.167 204.5,126.5 Z"/></g>
<g><path style="opacity:1" fill="#efefef" d="M 101.5,131.5 C 104.5,131.5 107.5,131.5 110.5,131.5C 110.5,134.5 110.5,137.5 110.5,140.5C 107.5,140.5 104.5,140.5 101.5,140.5C 101.5,137.5 101.5,134.5 101.5,131.5 Z"/></g>
<g><path style="opacity:1" fill="#131012" d="M 156.5,131.5 C 157.5,131.5 158.5,131.5 159.5,131.5C 157.459,144.699 160.959,156.033 170,165.5C 178.724,163.609 184.224,166.942 186.5,175.5C 185.448,175.649 184.448,175.483 183.5,175C 181.29,169.593 179.124,169.427 177,174.5C 176.333,176.5 176.333,178.5 177,180.5C 183.406,188.176 182.906,195.342 175.5,202C 159.845,205.013 153.345,198.513 156,182.5C 157.059,179.382 158.392,176.382 160,173.5C 162.222,171.615 164.056,169.449 165.5,167C 157.125,156.57 154.125,144.736 156.5,131.5 Z"/></g>
<g><path style="opacity:1" fill="#d3b1c1" d="M 176.5,132.5 C 177.5,132.5 178.5,132.5 179.5,132.5C 180.759,142.802 179.759,142.802 176.5,132.5 Z"/></g>
<g><path style="opacity:0.991" fill="#fee67b" d="M -0.5,119.5 C 16.6317,130.797 33.6317,142.297 50.5,154C 52.8333,156.333 55.1667,158.667 57.5,161C 60.6466,161.649 62.6466,163.482 63.5,166.5C 60.5001,168.668 58.0001,171.334 56,174.5C 54.7488,181.504 53.4154,188.504 52,195.5C 49.3672,199.101 47.5339,203.101 46.5,207.5C 47.8699,215.858 52.8699,219.858 61.5,219.5C 59.1729,224.825 56.3395,229.825 53,234.5C 43.076,242.491 39.576,252.825 42.5,265.5C 29.8333,265.5 17.1667,265.5 4.5,265.5C 2.77976,264.692 1.1131,263.692 -0.5,262.5C -0.5,214.833 -0.5,167.167 -0.5,119.5 Z"/></g>
<g><path style="opacity:1" fill="#f6a41b" d="M 72.5,265.5 C 63.5,265.5 54.5,265.5 45.5,265.5C 45.3338,259.158 45.5005,252.825 46,246.5C 50.7121,241.457 55.0454,236.123 59,230.5C 66.9618,215.062 69.6284,198.729 67,181.5C 69.3622,179.231 72.0288,178.898 75,180.5C 76.2798,180.387 77.1131,179.72 77.5,178.5C 74.6322,173.393 70.2989,170.226 64.5,169C 71.7544,164.025 79.7544,161.692 88.5,162C 84.5417,165.421 81.7084,169.588 80,174.5C 77.567,186.751 81.7337,195.751 92.5,201.5C 89.5085,204.661 86.6752,207.995 84,211.5C 75.5945,228.488 71.7611,246.488 72.5,265.5 Z"/></g>
<g><path style="opacity:1" fill="#2a0e9e" d="M 104.5,197.5 C 104.56,198.043 104.893,198.376 105.5,198.5C 106.169,196.369 106.835,194.369 107.5,192.5C 108.207,194.781 109.207,196.948 110.5,199C 104.135,199.513 97.8014,199.179 91.5,198C 80.1223,189.024 78.6223,178.524 87,166.5C 86.2201,174.498 86.5534,182.498 88,190.5C 88.9213,183.142 90.9213,176.142 94,169.5C 95.2525,179.767 98.7525,189.101 104.5,197.5 Z"/></g>
<g><path style="opacity:1" fill="#a6d8f1" d="M 170.5,168.5 C 172.604,168.201 174.604,168.534 176.5,169.5C 175.184,172.384 174.184,175.384 173.5,178.5C 170.277,176.584 166.943,176.251 163.5,177.5C 162.479,176.998 162.312,176.332 163,175.5C 165.396,172.933 167.896,170.6 170.5,168.5 Z"/></g>
<g><path style="opacity:1" fill="#ac611d" d="M 62.5,172.5 C 66.3941,172.186 69.7274,173.353 72.5,176C 68.5615,176.214 65.7282,178.047 64,181.5C 64.3494,190.819 64.3494,200.152 64,209.5C 62.3404,216.927 58.1738,218.427 51.5,214C 50.1057,212.261 49.4391,210.261 49.5,208C 51.2785,203.529 53.1119,199.029 55,194.5C 55.7826,188.449 56.7826,182.449 58,176.5C 59.3968,174.93 60.8968,173.596 62.5,172.5 Z"/></g>
<g><path style="opacity:1" fill="#f89fce" d="M 163.5,180.5 C 173.34,179.514 178.173,183.848 178,193.5C 172.451,200.977 166.451,201.31 160,194.5C 158.608,189.093 159.774,184.426 163.5,180.5 Z"/></g>
<g><path style="opacity:1" fill="#110742" d="M 107.5,192.5 C 106.835,194.369 106.169,196.369 105.5,198.5C 104.893,198.376 104.56,198.043 104.5,197.5C 105.314,195.369 105.814,193.036 106,190.5C 106.717,191.044 107.217,191.711 107.5,192.5 Z"/></g>
<g><path style="opacity:1" fill="#fae2ec" d="M 198.5,132.5 C 206.841,145.845 214.674,159.512 222,173.5C 230.03,193.919 239.03,213.919 249,233.5C 253.214,240.155 258.381,245.822 264.5,250.5C 264.5,254.5 264.5,258.5 264.5,262.5C 263.395,263.6 262.062,264.267 260.5,264.5C 254.247,259.078 248.414,253.078 243,246.5C 240.667,242.833 238.333,239.167 236,235.5C 224.944,209.375 213.277,183.375 201,157.5C 197.735,152.633 194.735,147.633 192,142.5C 190.871,140.859 189.371,139.859 187.5,139.5C 190.989,136.92 194.656,134.587 198.5,132.5 Z"/></g>
<g><path style="opacity:1" fill="#2b0ea1" d="M 112.5,195.5 C 114.296,196.793 115.963,198.293 117.5,200C 115.866,200.494 114.199,200.66 112.5,200.5C 112.5,198.833 112.5,197.167 112.5,195.5 Z"/></g>
<g><path style="opacity:1" fill="#191104" d="M 70.5,196.5 C 71.7498,196.577 72.5831,197.244 73,198.5C 74.6752,211.457 72.0085,223.457 65,234.5C 63.3563,237.311 61.1897,239.644 58.5,241.5C 57.4173,240.635 57.2506,239.635 58,238.5C 66.315,228.729 70.815,217.396 71.5,204.5C 71.2973,201.803 70.964,199.136 70.5,196.5 Z"/></g>
<g><path style="opacity:0.99" fill="#fcf0eb" d="M 249.5,265.5 C 243.833,265.5 238.167,265.5 232.5,265.5C 232.804,264.85 233.137,264.183 233.5,263.5C 232.106,260.795 230.272,258.462 228,256.5C 223.473,239.964 215.473,225.298 204,212.5C 203.601,212.728 203.435,213.062 203.5,213.5C 200.797,207.103 197.297,201.103 193,195.5C 192.748,190.505 192.914,185.505 193.5,180.5C 193.459,175.723 192.793,171.057 191.5,166.5C 192.209,165.596 193.209,165.263 194.5,165.5C 194.34,163.801 194.506,162.134 195,160.5C 197.745,166.325 200.745,171.992 204,177.5C 211.825,197.326 219.825,216.993 228,236.5C 233.4,247.275 240.9,256.442 250.5,264C 249.944,264.383 249.611,264.883 249.5,265.5 Z"/></g>
<g><path style="opacity:1" fill="#2d0ea7" d="M 206.5,265.5 C 201.5,265.5 196.5,265.5 191.5,265.5C 190.994,249.757 189.66,234.09 187.5,218.5C 186.5,218.5 185.5,218.5 184.5,218.5C 186.246,234.131 187.579,249.798 188.5,265.5C 172.5,265.5 156.5,265.5 140.5,265.5C 140.666,256.494 140.5,247.494 140,238.5C 138.642,229.339 136.975,220.339 135,211.5C 138.823,214.479 141.656,218.146 143.5,222.5C 143.833,221.667 144.167,220.833 144.5,220C 141.882,213.382 137.216,208.716 130.5,206C 135.857,206.098 141.19,206.764 146.5,208C 154.5,208.667 162.5,208.667 170.5,208C 178.765,207.978 185.431,204.812 190.5,198.5C 193.215,201.057 195.382,204.057 197,207.5C 205.658,225.955 208.825,245.288 206.5,265.5 Z"/></g>
<g><path style="opacity:1" fill="#2d0ea7" d="M 119.5,265.5 C 104.833,265.5 90.1667,265.5 75.5,265.5C 75.3162,257.125 75.8162,248.792 77,240.5C 78.5954,228.373 82.9287,217.373 90,207.5C 97.3495,199.247 104.349,199.58 111,208.5C 119.935,226.541 122.768,245.541 119.5,265.5 Z"/></g>
<g><path style="opacity:1" fill="#f5a31b" d="M 136.5,265.5 C 131.833,265.5 127.167,265.5 122.5,265.5C 122.843,253.124 122.343,240.791 121,228.5C 119.669,218.828 115.836,210.328 109.5,203C 116.632,202.6 123.132,204.433 129,208.5C 135.656,226.927 138.156,245.927 136.5,265.5 Z"/></g>
<g><path style="opacity:1" fill="#fbeaee" d="M 187.5,139.5 C 189.371,139.859 190.871,140.859 192,142.5C 194.735,147.633 197.735,152.633 201,157.5C 213.277,183.375 224.944,209.375 236,235.5C 238.333,239.167 240.667,242.833 243,246.5C 248.414,253.078 254.247,259.078 260.5,264.5C 260.5,264.833 260.5,265.167 260.5,265.5C 256.833,265.5 253.167,265.5 249.5,265.5C 249.611,264.883 249.944,264.383 250.5,264C 240.9,256.442 233.4,247.275 228,236.5C 219.825,216.993 211.825,197.326 204,177.5C 200.745,171.992 197.745,166.325 195,160.5C 194.506,162.134 194.34,163.801 194.5,165.5C 193.209,165.263 192.209,165.596 191.5,166.5C 187.155,158.455 184.989,149.788 185,140.5C 185.671,139.748 186.504,139.414 187.5,139.5 Z"/></g>
<g><path style="opacity:0.982" fill="#020007" d="M 191.5,265.5 C 190.5,265.5 189.5,265.5 188.5,265.5C 187.579,249.798 186.246,234.131 184.5,218.5C 185.5,218.5 186.5,218.5 187.5,218.5C 189.66,234.09 190.994,249.757 191.5,265.5 Z"/></g>
<g><path style="opacity:1" fill="#faf0db" d="M 232.5,265.5 C 225.167,265.5 217.833,265.5 210.5,265.5C 210.666,256.827 210.5,248.16 210,239.5C 208.144,230.743 205.977,222.076 203.5,213.5C 203.435,213.062 203.601,212.728 204,212.5C 215.473,225.298 223.473,239.964 228,256.5C 230.272,258.462 232.106,260.795 233.5,263.5C 233.137,264.183 232.804,264.85 232.5,265.5 Z"/></g>
</svg>
