<svg width="149" height="42" viewBox="0 0 149 42" fill="none" xmlns="http://www.w3.org/2000/svg">
<g clip-path="url(#clip0_2236_26670)">
<path d="M37.9043 12.7559C37.8946 11.0652 36.977 9.50782 35.4978 8.67209L21.2624 0.620203C19.7831 -0.217129 17.9673 -0.205879 16.4978 0.647525L2.35946 8.86335C0.889953 9.71675 -0.00987673 11.2837 -0.000166337 12.9745L0.0969376 29.2422C0.106648 30.9329 1.02266 32.4903 2.50188 33.3276L16.7373 41.3795C18.2165 42.2152 20.0324 42.2056 21.5019 41.3505L35.6418 33.1347C37.1113 32.2813 38.0095 30.7143 37.9998 29.0236L37.9043 12.7559ZM17.5287 37.7184C16.8393 37.6878 16.1547 37.495 15.5381 37.1382L5.73544 31.4858C4.39055 30.7111 3.56517 29.284 3.5684 27.7395L3.59592 16.4829C3.59592 15.7693 3.77879 15.0799 4.10247 14.4707L17.5676 22.2349L17.5287 37.7184ZM19.0905 18.8342L6.04293 11.3111C6.41031 10.6248 6.96866 10.0398 7.66942 9.64121L17.1953 4.21061C18.5014 3.46488 20.1084 3.4697 21.4112 4.22025L30.9096 9.69746C31.557 10.0703 32.0797 10.6007 32.4423 11.2227L19.0905 18.8342ZM32.5976 31.2961L22.795 36.9485C22.1784 37.3053 21.4922 37.4966 20.8043 37.5287L20.7655 22.0453L34.229 14.2811C34.5543 14.8902 34.7339 15.5797 34.7355 16.2933L34.763 27.5498C34.7663 29.0927 33.9425 30.5215 32.5976 31.2961Z" fill="url(#paint0_linear_2236_26670)"/>
</g>
<g clip-path="url(#clip1_2236_26670)">
<path d="M50 29.455V12.655H53V19.425H53.41L59.12 12.655H62.96L55.78 20.935L63.2 29.455H59.24L53.41 22.545H53V29.455H50Z" fill="#187DA8"/>
<path d="M64.1399 24.6249V22.0349H71.2399V24.6249H64.1399Z" fill="#187DA8"/>
<path d="M74.05 29.455V26.815H76.2801V15.295H74.05V12.655H82.67C83.68 12.655 84.56 12.825 85.32 13.175C86.08 13.525 86.67 14.005 87.1 14.635C87.52 15.265 87.7401 16.025 87.7401 16.905V17.145C87.7401 17.915 87.6001 18.545 87.3101 19.025C87.0201 19.515 86.6801 19.885 86.2901 20.155C85.9001 20.415 85.5201 20.605 85.1501 20.715V21.145C85.5201 21.245 85.9101 21.425 86.3301 21.685C86.7501 21.945 87.1001 22.325 87.4001 22.825C87.7001 23.325 87.84 23.965 87.84 24.765V25.005C87.84 25.935 87.62 26.725 87.19 27.395C86.76 28.055 86.1601 28.565 85.4001 28.915C84.6401 29.265 83.76 29.445 82.75 29.445H74.06L74.05 29.455ZM79.2801 19.635H82.35C83.05 19.635 83.63 19.455 84.07 19.095C84.51 18.735 84.73 18.245 84.73 17.615V17.375C84.73 16.735 84.5101 16.235 84.0801 15.885C83.6501 15.535 83.07 15.355 82.35 15.355H79.2801V19.625V19.635ZM79.2801 26.735H82.3801C83.1301 26.735 83.73 26.555 84.17 26.195C84.61 25.835 84.8301 25.315 84.8301 24.645V24.425C84.8301 23.765 84.61 23.265 84.17 22.905C83.73 22.545 83.1301 22.365 82.3801 22.365H79.2801V26.735Z" fill="#187DA8"/>
<path d="M90.5601 29.455V12.655H93.5601V26.745H101.36V29.455H90.5601Z" fill="#187DA8"/>
<path d="M135.54 29.455V12.655H138.54V19.425H138.95L144.66 12.655H148.5L141.32 20.935L148.74 29.455H144.78L138.95 22.545H138.54V29.455H135.54Z" fill="#187DA8"/>
<path d="M132.73 18.385V16.155C132.73 13.915 130.9 12.085 128.65 12.085H123.78C121.53 12.085 119.7 13.915 119.7 16.155V25.875C119.7 28.125 121.53 29.955 123.78 29.955H128.65C130.9 29.955 132.73 28.125 132.73 25.875V23.505H129.93V25.875C129.93 26.575 129.35 27.155 128.65 27.155H123.78C123.08 27.155 122.5 26.575 122.5 25.875V16.155C122.5 15.455 123.08 14.885 123.78 14.885H128.65C129.35 14.885 129.93 15.455 129.93 16.155V18.385H132.73Z" fill="#187DA8"/>
<path d="M112.88 29.8649H107.62C105.34 29.8649 103.48 28.0049 103.48 25.7249V16.1849C103.48 13.9049 105.34 12.0449 107.62 12.0449H112.88C115.16 12.0449 117.02 13.9049 117.02 16.1849V25.7249C117.02 28.0049 115.16 29.8649 112.88 29.8649ZM107.62 14.8449C106.88 14.8449 106.28 15.4449 106.28 16.1849V25.7249C106.28 26.4649 106.88 27.0649 107.62 27.0649H112.88C113.62 27.0649 114.22 26.4649 114.22 25.7249V16.1849C114.22 15.4449 113.62 14.8449 112.88 14.8449H107.62Z" fill="#187DA8"/>
</g>
<defs>
<linearGradient id="paint0_linear_2236_26670" x1="-9.02501" y1="-8.07501" x2="29.7141" y2="36.2499" gradientUnits="userSpaceOnUse">
<stop stop-color="#87EAD8"/>
<stop offset="0.96" stop-color="#187DA8"/>
</linearGradient>
<clipPath id="clip0_2236_26670">
<rect width="38" height="42" fill="white"/>
</clipPath>
<clipPath id="clip1_2236_26670">
<rect width="98.74" height="17.91" fill="white" transform="translate(50 12.0449)"/>
</clipPath>
</defs>
</svg>
