<svg width="38" height="42" viewBox="0 0 38 42" fill="none" xmlns="http://www.w3.org/2000/svg">
<path d="M37.9041 12.7557C37.8944 11.0649 36.9768 9.50757 35.4975 8.67185L21.2621 0.619959C19.7829 -0.217373 17.9671 -0.206123 16.4975 0.647281L2.35921 8.8631C0.889709 9.71651 -0.0101209 11.2835 -0.000410477 12.9742L0.0966934 29.2419C0.106404 30.9327 1.02242 32.49 2.50163 33.3273L16.7371 41.3792C18.2163 42.215 20.0321 42.2053 21.5016 41.3503L35.6416 33.1345C37.1111 32.2811 38.0093 30.7141 37.9996 29.0234L37.9041 12.7557ZM17.5285 37.7181C16.839 37.6876 16.1544 37.4947 15.5378 37.1379L5.73519 31.4855C4.3903 30.7109 3.56492 29.2837 3.56816 27.7392L3.59567 16.4827C3.59567 15.7691 3.77855 15.0796 4.10223 14.4705L17.5673 22.2347L17.5285 37.7181ZM19.0902 18.8339L6.04269 11.3108C6.41007 10.6246 6.96841 10.0395 7.66918 9.64097L17.1951 4.21036C18.5011 3.46464 20.1082 3.46946 21.411 4.22001L30.9094 9.69722C31.5567 10.0701 32.0795 10.6004 32.442 11.2224L19.0902 18.8339ZM32.5974 31.2959L22.7947 36.9483C22.1781 37.3051 21.4919 37.4963 20.8041 37.5285L20.7653 22.0451L34.2287 14.2808C34.554 14.89 34.7337 15.5794 34.7353 16.293L34.7628 27.5496C34.766 29.0925 33.9423 30.5212 32.5974 31.2959Z" fill="url(#paint0_linear_650_15408)"/>
<defs>
<linearGradient id="paint0_linear_650_15408" x1="2.99976" y1="-1.00024" x2="29.76" y2="36.1724" gradientUnits="userSpaceOnUse">
<stop stop-color="#87EAD8"/>
<stop offset="0.96" stop-color="#187DA8"/>
</linearGradient>
</defs>
</svg>
