<svg width="38" height="42" viewBox="0 0 38 42" fill="none" xmlns="http://www.w3.org/2000/svg">
    <g clip-path="url(#clip0_657_41671)">
        <path
            d="M37.9044 12.7557C37.8946 11.0649 36.977 9.50757 35.4978 8.67185L21.2624 0.619959C19.7831 -0.217373 17.9673 -0.206123 16.4978 0.647281L2.35946 8.8631C0.889953 9.71651 -0.00987673 11.2835 -0.000166337 12.9742L0.0969376 29.2419C0.106648 30.9327 1.02266 32.49 2.50188 33.3273L16.7373 41.3792C18.2165 42.215 20.0324 42.2053 21.5019 41.3503L35.6418 33.1345C37.1113 32.2811 38.0095 30.7141 37.9998 29.0234L37.9044 12.7557ZM17.5287 37.7181C16.8393 37.6876 16.1547 37.4947 15.5381 37.1379L5.73544 31.4855C4.39055 30.7109 3.56517 29.2837 3.5684 27.7392L3.59592 16.4827C3.59592 15.7691 3.77879 15.0796 4.10247 14.4705L17.5676 22.2347L17.5287 37.7181ZM19.0905 18.8339L6.04293 11.3108C6.41031 10.6246 6.96866 10.0395 7.66942 9.64097L17.1953 4.21036C18.5014 3.46464 20.1084 3.46946 21.4112 4.22001L30.9096 9.69722C31.557 10.0701 32.0797 10.6004 32.4423 11.2224L19.0905 18.8339ZM32.5976 31.2959L22.795 36.9483C22.1784 37.3051 21.4922 37.4963 20.8043 37.5285L20.7655 22.0451L34.229 14.2808C34.5543 14.89 34.7339 15.5794 34.7355 16.293L34.763 27.5496C34.7663 29.0925 33.9425 30.5212 32.5976 31.2959Z"
            fill="#EEEEEE" />
    </g>
    <defs>
        <clipPath id="clip0_657_41671">
            <rect width="38" height="42" fill="white" />
        </clipPath>
    </defs>
</svg>