<svg width="39" height="39" viewBox="0 0 39 39" fill="none" xmlns="http://www.w3.org/2000/svg">
<path opacity="0.5" d="M0.792969 0H19.7994C26.52 0 29.8804 0 32.4473 1.30792C34.7052 2.4584 36.541 4.29417 37.6915 6.55211C38.9994 9.11905 38.9994 12.4794 38.9994 19.2V38.2065H19.993C13.2723 38.2065 9.91202 38.2065 7.34508 36.8985C5.08714 35.7481 3.25137 33.9123 2.10089 31.6543C0.792969 29.0874 0.792969 25.7271 0.792969 19.0065V0Z" fill="#EEF4F7"/>
<path d="M15 17H18M18 17H21M18 17V14M18 17V20M23 22L29 28M18 24C14.134 24 11 20.866 11 17C11 13.134 14.134 10 18 10C21.866 10 25 13.134 25 17C25 20.866 21.866 24 18 24Z" stroke="#3D484E" stroke-width="2" stroke-linecap="round" stroke-linejoin="round"/>
</svg>
