<svg width="32" height="32" viewBox="0 0 32 32" fill="none" xmlns="http://www.w3.org/2000/svg">
<g clip-path="url(#clip0_2236_28480)">
<path d="M17.54 16C17.5453 17.8017 16.8354 19.5319 15.566 20.8107C14.2967 22.0894 12.5718 22.8121 10.77 22.82C8.96829 22.8121 7.24335 22.0894 5.97402 20.8107C4.70468 19.5319 3.99471 17.8017 4.00003 16C3.99471 14.1982 4.70468 12.468 5.97402 11.1893C7.24335 9.91061 8.96829 9.18793 10.77 9.17999C12.5718 9.18793 14.2967 9.91061 15.566 11.1893C16.8354 12.468 17.5453 14.1982 17.54 16ZM24.96 16C24.96 19.54 23.45 22.42 21.58 22.42C19.71 22.42 18.19 19.54 18.19 16C18.19 12.46 19.71 9.57999 21.58 9.57999C23.45 9.57999 24.96 12.46 24.96 16ZM28 16C28 19.17 27.47 21.75 26.81 21.75C26.15 21.75 25.62 19.17 25.62 16C25.62 12.83 26.15 10.25 26.81 10.25C27.47 10.25 28 12.83 28 16Z" fill="#616E73"/>
</g>
<defs>
<clipPath id="clip0_2236_28480">
<rect width="24" height="24" fill="white" transform="translate(4 4)"/>
</clipPath>
</defs>
</svg>
