<svg width="33" height="33" viewBox="0 0 33 33" fill="none" xmlns="http://www.w3.org/2000/svg">
<circle cx="16.0024" cy="16.501" r="16" fill="#F78D1E"/>
<path d="M9.62813 16.571C9.58921 16.5853 9.45119 17.0323 9.60494 16.6349C9.61258 16.6151 9.62031 16.5938 9.62813 16.571Z" fill="#FACE8C"/>
<path d="M8.35162 5.19092C8.32866 7.39008 8.09746 9.59706 7.99167 11.7925C7.87829 14.1455 7.8996 16.5093 7.80328 18.8668C7.72115 20.8772 7.74609 22.8925 7.74609 24.9063C7.74609 25.1868 7.74609 25.4672 7.74609 25.7476C7.74609 25.9284 7.68772 26.2544 7.77637 26.4243C7.87427 26.6118 7.73434 27.0909 7.89748 27.2298C7.92187 27.2505 7.91379 27.3505 7.93112 27.3229C7.99343 27.2234 8.04018 27.1846 8.04886 27.0508C8.07261 26.6843 8.16996 26.3465 8.16996 25.9732C8.16996 25.0398 8.37905 24.1172 8.47272 23.195C8.6271 21.6754 8.95653 20.1619 9.17244 18.6519C10.0942 15.0361 9.30897 17.3998 9.60494 16.6349C9.74427 16.2748 9.91361 15.3743 10.0942 15.0361C10.4433 14.3823 10.7126 13.6068 11.1606 13.0241C11.4672 12.6252 11.9447 12.3439 12.4355 12.3439C14.1759 12.3439 14.0435 14.6699 14.0435 16.1316C14.0435 18.2593 13.5591 21.6807 14.528 22.59C14.528 22.8939 14.5885 21.9845 14.5885 21.6807C14.5885 20.8396 14.6925 20.0124 14.7096 19.1746C14.7306 18.149 14.9874 17.1109 15.2546 16.1316C15.3906 15.6331 15.4881 15.5155 15.6729 15.0361C15.9206 14.3934 16.2925 13.3863 16.6339 12.795C17.2214 11.7771 18.4482 9.70608 19.1905 8.79962C19.881 7.95628 21.0734 6.34028 22.1576 8.04065C22.5384 8.63787 22.7253 9.39819 22.8102 10.1099C22.9721 11.4666 23.0128 12.9118 22.9313 14.2771C22.8227 16.0982 22.5088 17.8297 22.1441 19.6114C21.7897 21.343 21.2827 23.1338 21.3098 24.9242C21.3193 25.5494 21.3473 26.4055 21.6261 26.972C21.9759 27.6827 22.7939 27.8259 23.4763 27.8097C23.8491 27.8009 24.2657 27.3854 24.5494 27.1618C24.9774 26.8243 25.3703 26.3283 25.6696 25.8622C26.0505 25.2691 26.4416 24.6403 26.7562 24.0041C26.8939 23.7257 27.0169 23.4351 27.1464 23.1521C27.2863 22.8465 27.2089 23.0716 27.1834 23.2344" stroke="#FFF2E4" stroke-width="2.5" stroke-linecap="round"/>
</svg>
