<svg width="33" height="33" viewBox="0 0 33 33" fill="none" xmlns="http://www.w3.org/2000/svg">
<path d="M31.833 16.5C31.833 25.0604 24.8934 32 16.333 32C7.77259 32 0.833008 25.0604 0.833008 16.5C0.833008 7.93959 7.77259 1 16.333 1C24.8934 1 31.833 7.93959 31.833 16.5Z" stroke="#E2E8EB"/>
<circle cx="16.333" cy="16.5" r="8" fill="#FFD682"/>
<path d="M17.2523 18.1217H19.333V20.5M15.4137 14.8783H13.333V12.5M19.3328 15.3556C19.0995 14.6957 18.7088 14.1234 18.2053 13.7045C17.7017 13.2856 17.1055 13.0363 16.4842 12.9854C15.8629 12.9345 15.2415 13.0839 14.6908 13.4164C14.1401 13.7489 13.6821 14.2518 13.3688 14.867M13.333 17.6446C13.5663 18.3046 13.957 18.8769 14.4606 19.2957C14.9642 19.7146 15.561 19.9636 16.1823 20.0145C16.8035 20.0654 17.4245 19.916 17.9752 19.5835C18.5259 19.251 18.9835 18.7482 19.2969 18.1331" stroke="#2B363B" stroke-linecap="round" stroke-linejoin="round"/>
</svg>
