<svg width="24" height="24" viewBox="0 0 24 24" fill="none" xmlns="http://www.w3.org/2000/svg">
<path d="M17.25 18H18M15 18H13.5V15.75M15.75 15.75H18V13.5H17.25M13.5 13.5H15M6 15.7498C6 15.0509 6 14.7014 6.11418 14.4258C6.26642 14.0582 6.55824 13.7664 6.92578 13.6142C7.20144 13.5 7.55089 13.5 8.24981 13.5C8.94872 13.5 9.29856 13.5 9.57422 13.6142C9.94176 13.7664 10.2335 14.0582 10.3857 14.4258C10.4999 14.7014 10.4999 15.0511 10.4999 15.75C10.4999 16.4489 10.4999 16.7984 10.3857 17.074C10.2335 17.4416 9.94176 17.7335 9.57422 17.8857C9.29856 17.9999 8.94872 17.9999 8.24981 17.9999C7.5509 17.9999 7.20144 17.9999 6.92578 17.8857C6.55824 17.7335 6.26642 17.4418 6.11418 17.0742C6 16.7986 6 16.4487 6 15.7498ZM13.5 8.24981C13.5 7.55089 13.5 7.20144 13.6142 6.92578C13.7664 6.55824 14.0582 6.26642 14.4258 6.11418C14.7014 6 15.0509 6 15.7498 6C16.4487 6 16.7986 6 17.0742 6.11418C17.4418 6.26642 17.7335 6.55824 17.8857 6.92578C17.9999 7.20144 17.9999 7.55109 17.9999 8.25C17.9999 8.94891 17.9999 9.29837 17.8857 9.57403C17.7335 9.94157 17.4418 10.2335 17.0742 10.3857C16.7986 10.4999 16.4487 10.4999 15.7498 10.4999C15.0509 10.4999 14.7014 10.4999 14.4258 10.3857C14.0582 10.2335 13.7664 9.94176 13.6142 9.57422C13.5 9.29856 13.5 8.94872 13.5 8.24981ZM6 8.24981C6 7.55089 6 7.20144 6.11418 6.92578C6.26642 6.55824 6.55824 6.26642 6.92578 6.11418C7.20144 6 7.55089 6 8.24981 6C8.94872 6 9.29856 6 9.57422 6.11418C9.94176 6.26642 10.2335 6.55824 10.3857 6.92578C10.4999 7.20144 10.4999 7.55109 10.4999 8.25C10.4999 8.94891 10.4999 9.29837 10.3857 9.57403C10.2335 9.94157 9.94176 10.2335 9.57422 10.3857C9.29856 10.4999 8.94872 10.4999 8.24981 10.4999C7.5509 10.4999 7.20144 10.4999 6.92578 10.3857C6.55824 10.2335 6.26642 9.94176 6.11418 9.57422C6 9.29856 6 8.94872 6 8.24981Z" stroke="#3D484E" stroke-width="2" stroke-linecap="round" stroke-linejoin="round"/>
<path d="M0.5 6C0.5 2.96243 2.96243 0.5 6 0.5H18C21.0376 0.5 23.5 2.96243 23.5 6V18C23.5 21.0376 21.0376 23.5 18 23.5H6C2.96243 23.5 0.5 21.0376 0.5 18V6Z" stroke="#C3CCD4"/>
</svg>
