<svg width="13" height="13" viewBox="0 0 13 13" fill="none" xmlns="http://www.w3.org/2000/svg">
<path d="M4.75618 4.71165C4.86056 4.39003 5.05176 4.10381 5.30881 3.88413C5.56586 3.66445 5.87899 3.52009 6.21294 3.4671C6.5469 3.41412 6.8888 3.45447 7.20123 3.58379C7.51365 3.71312 7.78422 3.92646 7.98302 4.19998C8.18182 4.4735 8.30087 4.79656 8.32745 5.13365C8.35402 5.47074 8.28679 5.8087 8.13331 6.11C7.97983 6.41129 7.74628 6.66408 7.45798 6.84077C7.16968 7.01745 6.83814 7.11097 6.5 7.11097V7.72236M6.5 12C3.46243 12 1 9.53757 1 6.5C1 3.46243 3.46243 1 6.5 1C9.53757 1 12 3.46243 12 6.5C12 9.53757 9.53757 12 6.5 12ZM6.53044 9.55556V9.61667L6.46956 9.61679V9.55556H6.53044Z" stroke="#2B363B" stroke-width="1.3" stroke-linecap="round" stroke-linejoin="round"/>
</svg>
