<svg width="18" height="18" viewBox="0 0 18 18" fill="none" xmlns="http://www.w3.org/2000/svg">
<path d="M4.83335 8.99996C4.83335 11.3011 6.69883 13.1666 9.00002 13.1666C11.3012 13.1666 13.1667 11.3011 13.1667 8.99996C13.1667 6.69877 11.3012 4.83329 9.00002 4.83329C6.69883 4.83329 4.83335 6.69877 4.83335 8.99996Z" fill="#15151D"/>
<path d="M9.00002 2.33329V0.666626M9.00002 15.6666V17.3333M4.3452 4.34514L3.16669 3.16663M13.7734 13.7733L14.9519 14.9518M2.33335 8.99996H0.666687M15.6667 8.99996H17.3334M13.7738 4.34514L14.9523 3.16663M4.34561 13.7733L3.16709 14.9518M9.00002 13.1666C6.69883 13.1666 4.83335 11.3011 4.83335 8.99996C4.83335 6.69877 6.69883 4.83329 9.00002 4.83329C11.3012 4.83329 13.1667 6.69877 13.1667 8.99996C13.1667 11.3011 11.3012 13.1666 9.00002 13.1666Z" stroke="#15151D" stroke-linecap="round" stroke-linejoin="round"/>
</svg>
