<svg width="32" height="32" viewBox="0 0 32 32" fill="none" xmlns="http://www.w3.org/2000/svg">
<path d="M31.5 16C31.5 24.5604 24.5604 31.5 16 31.5C7.43959 31.5 0.5 24.5604 0.5 16C0.5 7.43959 7.43959 0.5 16 0.5C24.5604 0.5 31.5 7.43959 31.5 16Z" stroke="#DFEFF6"/>
<circle cx="16" cy="16" r="8" fill="#CA3521"/>
<path d="M16 14.4223V16.2001M16 20C13.7909 20 12 18.2091 12 16C12 13.7909 13.7909 12 16 12C18.2091 12 20 13.7909 20 16C20 18.2091 18.2091 20 16 20ZM16.0221 17.5334V17.5779L15.9779 17.5777V17.5334H16.0221Z" stroke="white" stroke-linecap="round" stroke-linejoin="round"/>
</svg>
