<svg width="32" height="32" viewBox="0 0 32 32" fill="none" xmlns="http://www.w3.org/2000/svg">
<path d="M31.5 16C31.5 24.5604 24.5604 31.5 16 31.5C7.43959 31.5 0.5 24.5604 0.5 16C0.5 7.43959 7.43959 0.5 16 0.5C24.5604 0.5 31.5 7.43959 31.5 16Z" stroke="#DFEFF6"/>
<circle cx="16" cy="16" r="8" fill="#FFD682"/>
<path d="M16.9193 17.6217H19V20M15.0807 14.3783H13V12M18.9998 14.8556C18.7665 14.1957 18.3758 13.6234 17.8723 13.2045C17.3687 12.7856 16.7724 12.5363 16.1512 12.4854C15.5299 12.4345 14.9085 12.5839 14.3578 12.9164C13.807 13.2489 13.3491 13.7518 13.0358 14.367M13 17.1446C13.2333 17.8046 13.624 18.3769 14.1276 18.7957C14.6312 19.2146 15.228 19.4636 15.8493 19.5145C16.4705 19.5654 17.0914 19.416 17.6422 19.0835C18.1929 18.751 18.6505 18.2482 18.9639 17.6331" stroke="#2B363B" stroke-linecap="round" stroke-linejoin="round"/>
</svg>
