<svg width="32" height="32" viewBox="0 0 32 32" fill="none" xmlns="http://www.w3.org/2000/svg">
<g clip-path="url(#clip0_2236_28476)">
<path d="M15.9999 11.0005C15.9999 8.25045 18.3124 5.96295 21.0624 6.00045C22.0255 6.01157 22.9649 6.3006 23.7676 6.8328C24.5703 7.365 25.2023 8.11771 25.5874 9.00045H29.9999L25.9624 13.038C25.7019 17.0937 23.9065 20.8979 20.9414 23.6773C17.9763 26.4566 14.064 28.0025 9.99994 28.0005C5.99994 28.0005 4.99994 26.5005 4.99994 26.5005C4.99994 26.5005 8.99994 25.0005 10.9999 22.0005C10.9999 22.0005 2.99994 18.0005 4.99994 7.00045C4.99994 7.00045 9.99994 12.0005 15.9999 13.0005V11.0005Z" stroke="#616E73" stroke-width="2" stroke-linecap="round" stroke-linejoin="round"/>
</g>
<defs>
<clipPath id="clip0_2236_28476">
<rect width="32" height="32" fill="white"/>
</clipPath>
</defs>
</svg>
