<svg width="32" height="33" viewBox="0 0 32 33" fill="none" xmlns="http://www.w3.org/2000/svg">
<g clip-path="url(#clip0_4161_25167)">
<path d="M15.9999 11.5005C15.9999 8.75045 18.3124 6.46295 21.0624 6.50045C22.0255 6.51157 22.9649 6.8006 23.7676 7.3328C24.5703 7.865 25.2023 8.61771 25.5874 9.50045H29.9999L25.9624 13.538C25.7019 17.5937 23.9065 21.3979 20.9414 24.1773C17.9763 26.9566 14.064 28.5025 9.99994 28.5005C5.99994 28.5005 4.99994 27.0005 4.99994 27.0005C4.99994 27.0005 8.99994 25.5005 10.9999 22.5005C10.9999 22.5005 2.99994 18.5005 4.99994 7.50045C4.99994 7.50045 9.99994 12.5005 15.9999 13.5005V11.5005Z" stroke="#13678B" stroke-width="2" stroke-linecap="round" stroke-linejoin="round"/>
</g>
<defs>
<clipPath id="clip0_4161_25167">
<rect width="32" height="32" fill="white" transform="translate(0 0.5)"/>
</clipPath>
</defs>
</svg>
