<svg width="27" height="26" viewBox="0 0 27 26" fill="none" xmlns="http://www.w3.org/2000/svg">
<path d="M1.48801 13H8.15467M1.48801 13C1.48801 19.6274 6.86059 25 13.488 25M1.48801 13C1.48801 6.37258 6.86059 1 13.488 1M8.15467 13H18.8213M8.15467 13C8.15467 19.6274 10.5425 25 13.488 25M8.15467 13C8.15467 6.37258 10.5425 1 13.488 1M18.8213 13H25.488M18.8213 13C18.8213 6.37258 16.4335 1 13.488 1M18.8213 13C18.8213 19.6274 16.4335 25 13.488 25M25.488 13C25.488 6.37258 20.1154 1 13.488 1M25.488 13C25.488 19.6274 20.1154 25 13.488 25" stroke="#616E73" stroke-width="2" stroke-linecap="round" stroke-linejoin="round"/>
</svg>
