<svg width="21" height="20" viewBox="0 0 21 20" fill="none" xmlns="http://www.w3.org/2000/svg">
<g clip-path="url(#clip0_2733_34110)">
<path d="M9.50965 4.64016C9.71158 3.628 11.1588 3.628 11.3607 4.64016C11.5049 5.36297 12.3849 5.64891 12.9265 5.14891C13.6848 4.44874 14.8556 5.29938 14.424 6.23693C14.1158 6.90645 14.6597 7.65506 15.3917 7.56884C16.4167 7.44811 16.8639 8.82448 15.9637 9.3293C15.3208 9.6898 15.3208 10.6151 15.9637 10.9756C16.8639 11.4805 16.4167 12.8568 15.3917 12.7361C14.6597 12.6499 14.1158 13.3985 14.424 14.068C14.8556 15.0055 13.6848 15.8562 12.9265 15.156C12.3849 14.656 11.5049 14.942 11.3607 15.6648C11.1588 16.6769 9.71158 16.6769 9.50965 15.6648C9.36545 14.942 8.48541 14.656 7.94389 15.156C7.1856 15.8562 6.01479 15.0055 6.44636 14.068C6.75456 13.3985 6.21066 12.6499 5.47867 12.7361C4.45365 12.8568 4.00644 11.4805 4.90666 10.9756C5.54954 10.6151 5.54954 9.6898 4.90666 9.3293C4.00644 8.82448 4.45365 7.44811 5.47867 7.56884C6.21066 7.65506 6.75456 6.90645 6.44636 6.23693C6.01479 5.29938 7.1856 4.44874 7.94389 5.14891C8.48541 5.64891 9.36545 5.36297 9.50965 4.64016Z" fill="#13678B"/>
<path d="M7.83746 10.1528L9.56938 11.8847L13.0328 8.4209" stroke="white" stroke-linecap="round" stroke-linejoin="round"/>
</g>
<defs>
<clipPath id="clip0_2733_34110">
<rect width="20" height="20" fill="white" transform="translate(0.283691 0.000976562)"/>
</clipPath>
</defs>
</svg>
